<svg width="2101" height="400" viewBox="0 0 2101 400" fill="none" xmlns="http://www.w3.org/2000/svg">
<rect y="400" width="400" height="100" rx="25" transform="rotate(-90 0 400)" fill="#272727"/>
<path fill-rule="evenodd" clip-rule="evenodd" d="M165 400C151.193 400 140 388.807 140 375L140 25C140 11.1929 151.193 0 165 0L215 -4.37114e-06C228.807 -5.17584e-06 240 11.1929 240 25V49.5767L400 209.577V25C400 11.1929 411.193 0 425 0L475 -4.37114e-06C488.807 -5.17584e-06 500 11.1929 500 25V375C500 388.807 488.807 400 475 400H425C411.193 400 400 388.807 400 375V350.998L240 190.998L240 375C240 388.807 228.807 400 215 400H165Z" fill="#272727"/>
<path fill-rule="evenodd" clip-rule="evenodd" d="M565 400C551.193 400 540 388.807 540 375L540 25C540 11.1929 551.193 0 565 0L615 -4.37114e-06C628.807 -5.17584e-06 640 11.1929 640 25V49.5767L800 209.577V25C800 11.1929 811.193 0 825 0L875 -4.37114e-06C888.807 -5.17584e-06 900 11.1929 900 25V375C900 388.807 888.807 400 875 400H825C811.193 400 800 388.807 800 375V350.998L640 190.998L640 375C640 388.807 628.807 400 615 400H565Z" fill="#272727"/>
<path fill-rule="evenodd" clip-rule="evenodd" d="M1840 125V100H2000V200H2025C2066.42 200 2100 166.422 2100 125V100V0H2000H1840H1815C1773.58 0 1740 33.5781 1740 75V100V200H1765C1806.42 200 1840 166.422 1840 125ZM1740 275V300V400H1840H2000H2025C2066.43 400 2100 366.422 2100 325V300V200H2075C2033.58 200 2000 233.578 2000 275V300H1840V200H1815C1773.58 200 1740 233.578 1740 275Z" fill="#272727"/>
<path fill-rule="evenodd" clip-rule="evenodd" d="M940 75.0001C940 33.5787 973.579 5.46953e-05 1015 4.77547e-05L1300 0L1300 100V125C1300 166.421 1266.42 200 1225 200H1200L1200 100L1040 100L1040 125C1040 166.421 1006.42 200 965 200H940V75.0001ZM940.004 275L940.004 300L940.004 400H1040H1200H1225C1263.84 400 1295.78 370.488 1299.62 332.668C1299.87 330.147 1300 327.589 1300 325V300V200H1275C1233.58 200 1200 233.579 1200 275V300H1040L1040 200H1015C973.583 200 940.004 233.579 940.004 275Z" fill="#272727"/>
<path fill-rule="evenodd" clip-rule="evenodd" d="M1700 75C1700 88.8071 1688.81 100 1675 100L1520 100C1475.82 100 1440 135.816 1440 180L1440 220C1440 264.184 1475.82 300 1520 300L1675 300C1688.81 300 1700 311.193 1700 325V375C1700 388.807 1688.81 400 1675 400H1520C1420.59 400 1340 319.412 1340 220L1340 180C1340 80.5879 1420.59 0 1520 -2.47949e-05L1675 -4.28623e-05C1688.81 -4.44717e-05 1700 11.1928 1700 25V75Z" fill="#272727"/>
</svg>
