<svg width="48" height="48" viewBox="0 0 48 48" fill="none" xmlns="http://www.w3.org/2000/svg">
<g clip-path="url(#clip0_6725_9875)">
<rect x="0.5" y="0.5" width="47" height="47" rx="7.5" fill="white"/>
<path d="M44 24C44 12.9543 35.0457 4 24 4C12.9543 4 4 12.9543 4 24C4 35.0457 12.9543 44 24 44C35.0457 44 44 35.0457 44 24Z" fill="white"/>
<path fill-rule="evenodd" clip-rule="evenodd" d="M34.168 24.0455C34.168 23.2796 34.0993 22.5433 33.9717 21.8364H23.8V26.014H29.6124C29.362 27.364 28.6011 28.5078 27.4573 29.2736V31.9835H30.9477C32.9899 30.1033 34.168 27.3345 34.168 24.0455Z" fill="#4285F4"/>
<path fill-rule="evenodd" clip-rule="evenodd" d="M23.8 34.6C26.716 34.6 29.1607 33.6329 30.9476 31.9835L27.4572 29.2736C26.4901 29.9216 25.253 30.3046 23.8 30.3046C20.987 30.3046 18.6061 28.4047 17.7569 25.852H14.1487V28.6502C15.9258 32.1798 19.5781 34.6 23.8 34.6Z" fill="#34A853"/>
<path fill-rule="evenodd" clip-rule="evenodd" d="M17.7569 25.852C17.5409 25.204 17.4182 24.5118 17.4182 23.8C17.4182 23.0882 17.5409 22.396 17.7569 21.748V18.9498H14.1487C13.4173 20.4078 13 22.0573 13 23.8C13 25.5427 13.4173 27.1922 14.1487 28.6502L17.7569 25.852Z" fill="#FBBC05"/>
<path fill-rule="evenodd" clip-rule="evenodd" d="M23.8 17.2955C25.3856 17.2955 26.8092 17.8404 27.9285 18.9105L31.0261 15.8129C29.1558 14.0702 26.711 13 23.8 13C19.5781 13 15.9258 15.4202 14.1487 18.9498L17.7569 21.748C18.6061 19.1953 20.987 17.2955 23.8 17.2955Z" fill="#EA4335"/>
<rect x="0.5" y="0.5" width="47" height="47" rx="7.5" stroke="#E9E9E9"/>
</g>
<defs>
<clipPath id="clip0_6725_9875">
<rect width="48" height="48" fill="white"/>
</clipPath>
</defs>
</svg>
