<svg width="48" height="48" viewBox="0 0 48 48" fill="none" xmlns="http://www.w3.org/2000/svg">
<g clip-path="url(#clip0_6725_9859)">
<rect width="48" height="48" rx="8" fill="#FEE500"/>
<g clip-path="url(#clip1_6725_9859)">
<path d="M44 24C44 12.9543 35.0457 4 24 4C12.9543 4 4 12.9543 4 24C4 35.0457 12.9543 44 24 44C35.0457 44 44 35.0457 44 24Z" fill="#FEE500"/>
<path d="M20.7002 24.1822H22.2023L21.4479 22.0525L20.7002 24.1822Z" fill="#191600"/>
<path d="M24.0448 13C16.8548 13 11 17.5997 11 23.2676C11 26.9327 13.4367 30.1505 17.1018 31.9463C16.9015 32.6139 15.82 36.3658 15.7666 36.6595C15.7666 36.6595 15.7666 36.8798 15.8868 36.9666C15.9869 37.0067 16.0937 37.0067 16.1939 36.9666C16.6078 36.9065 20.9472 33.8556 21.6949 33.3282C22.4626 33.4351 23.237 33.4885 24.0114 33.4885C31.2014 33.4885 37.0295 28.8954 37.0295 23.2275C37.0295 17.5597 31.2348 13 24.0448 13ZM17.7494 26.1316C17.7427 26.5321 17.4089 26.8593 17.0083 26.8526C16.6011 26.8593 16.2673 26.5388 16.254 26.1316V21.672H15.079C14.6718 21.7121 14.3113 21.4117 14.2712 21.0045C14.2312 20.5972 14.5316 20.2367 14.9388 20.1967C14.9855 20.19 15.0323 20.19 15.079 20.1967H18.9243C19.3316 20.2367 19.632 20.5972 19.5919 21.0045C19.5586 21.3583 19.2782 21.6387 18.9243 21.672H17.7494V26.1316ZM24.0648 26.7124C23.9113 26.7791 23.751 26.8125 23.5841 26.8125L23.5908 26.8526C23.3305 26.886 23.0834 26.7524 22.97 26.5188L22.5961 25.5508H20.2996L19.9257 26.4854C19.8056 26.7124 19.5519 26.8459 19.2982 26.8125C19.138 26.8125 18.9711 26.7791 18.8242 26.7124C18.6172 26.6122 18.417 26.3519 18.644 25.6442L20.4398 20.9177C20.6134 20.3636 21.2008 20.0565 21.7483 20.2234C22.0821 20.3235 22.3357 20.5839 22.4426 20.9177L24.2384 25.6442C24.4654 26.3519 24.2718 26.6122 24.0648 26.7124ZM27.8634 26.7391L25.4534 26.7191C25.0729 26.7257 24.7524 26.432 24.7324 26.0515V20.951C24.7324 20.5238 25.0796 20.1833 25.5001 20.1833C25.9207 20.1833 26.2679 20.5238 26.2679 20.951V23.1574V25.3638H27.8634C28.244 25.3638 28.551 25.6709 28.551 26.0515C28.551 26.432 28.244 26.7391 27.8634 26.7391ZM33.4846 26.6523C33.3577 26.7591 33.1975 26.8192 33.0306 26.8192C32.7969 26.8259 32.57 26.7124 32.4298 26.5255L30.6673 24.1889L30.3602 24.4826V26.1249C30.3535 26.5388 30.0198 26.8726 29.6058 26.8726L29.6259 26.8192C29.212 26.8192 28.8782 26.4854 28.8782 26.0715V20.931C28.8381 20.5171 29.1452 20.1499 29.5591 20.1099C29.973 20.0698 30.3402 20.3769 30.3803 20.7908C30.3869 20.8376 30.3869 20.8843 30.3803 20.931V22.5466L32.4698 20.4771C32.5833 20.3702 32.7302 20.3102 32.8837 20.3102C33.0773 20.3168 33.2643 20.3903 33.4045 20.5305C33.5313 20.6573 33.6047 20.8242 33.6248 21.0045C33.6314 21.1713 33.5714 21.3382 33.4579 21.4651L31.7421 23.1474L33.5914 25.5975C33.8517 25.9179 33.805 26.3853 33.4846 26.6523Z" fill="#191600"/>
</g>
</g>
<defs>
<clipPath id="clip0_6725_9859">
<rect width="48" height="48" fill="white"/>
</clipPath>
<clipPath id="clip1_6725_9859">
<rect width="40" height="40" fill="white" transform="translate(4 4)"/>
</clipPath>
</defs>
</svg>
