<svg width="48" height="48" viewBox="0 0 48 48" fill="none" xmlns="http://www.w3.org/2000/svg">
<g clip-path="url(#clip0_42_10580)">
<rect width="48" height="48" fill="#D4DCF2"/>
<mask id="mask0_42_10580" style="mask-type:luminance" maskUnits="userSpaceOnUse" x="0" y="0" width="48" height="48">
<path d="M48 0H0V48H48V0Z" fill="white"/>
</mask>
<g mask="url(#mask0_42_10580)">
<path d="M24.0026 0C37.2521 0 48 10.7479 48 24.0026C48 30.128 45.7042 35.713 41.9312 39.9494C41.9106 39.9751 41.8848 40.0009 41.8642 40.0266C41.3752 40.5722 40.8605 41.0973 40.32 41.5914C40.2376 41.6738 40.1501 41.751 40.0626 41.8282C39.2802 42.5437 38.4463 43.1974 37.5713 43.7894C37.4735 43.8614 37.3757 43.9284 37.2779 43.9953C33.4739 46.5227 28.9132 48 24.0026 48C19.8228 48 15.9005 46.9345 12.4774 45.0557C11.9369 44.7623 11.4119 44.4431 10.8972 44.1085C8.96686 42.8525 7.23217 41.3186 5.7497 39.5685C5.48204 39.2648 5.22981 38.9559 4.98788 38.6368C3.60836 36.8609 2.48107 34.8946 1.65233 32.7738C0.58681 30.056 0 27.0962 0 24.0026C0 10.7479 10.753 0 24.0026 0Z" fill="#D4DCF2"/>
<path d="M35.9704 28.337C36.0013 28.3576 36.0271 28.3731 36.058 28.3885C36.0837 28.4091 36.1094 28.4297 36.1352 28.4451C37.9882 29.6239 40.423 35.8266 41.9312 39.9497C41.9106 39.9754 41.8849 40.0012 41.8643 40.0269C41.3753 40.5725 40.8605 41.0976 40.32 41.5917C40.2377 41.6741 40.1502 41.7513 40.0627 41.8285C39.2803 42.544 38.4464 43.1977 37.5713 43.7897C36.1558 35.3633 35.1829 28.2341 35.9704 28.337Z" fill="#2952BE"/>
<path d="M11.062 30.4212C12.0606 28.9696 13.5482 28.0019 15.2108 27.7342C21.6554 26.6893 32.1202 25.8914 35.9705 28.3365C36.0014 28.3571 36.0271 28.3725 36.058 28.3879C36.0837 28.4085 36.1095 28.4291 36.1352 28.4446C36.861 28.949 37.4993 30.0506 38.0707 31.5742C39.0126 34.0862 39.7539 37.7203 40.3201 41.5912C40.2377 41.6735 40.1502 41.7507 40.0627 41.8279C39.2803 42.5434 38.4464 43.1972 37.5714 43.7891C37.4736 43.8612 37.3758 43.9281 37.278 43.995C33.474 46.5224 28.9133 47.9997 24.0027 47.9997C19.8229 47.9997 15.9006 46.9342 12.4775 45.0554C11.937 44.762 11.412 44.4429 10.8973 44.1083C8.96696 42.8523 -0.199562 48.7501 -1.68203 47C-0.431198 43.9887 9.44567 32.7736 11.062 30.4212Z" fill="#2952BE"/>
<path d="M18.0574 6.64546C18.0574 6.64546 17.7177 7.38669 16.9764 7.572C16.2352 7.75731 15.6844 6.40353 16.9764 5.8476C18.2684 5.29683 18.0574 6.65061 18.0574 6.65061V6.64546Z" fill="#2952BE"/>
<path d="M15.5557 15.206L20.3376 13.0029L21.4701 17.1209C21.4701 17.1209 19.0508 19.2056 17.4036 19.0357C15.7564 18.8659 15.5557 15.2112 15.5557 15.2112V15.206Z" fill="#2952BE"/>
<path d="M28.1154 14.1762L24.9395 11.34C24.9395 11.34 35.0902 7.88604 34.2924 10.1664C33.4945 12.4467 28.1206 14.1711 28.1206 14.1711H28.1154V14.1762Z" fill="#2952BE"/>
<path d="M20.3325 22L21.7172 22.2934L27.7912 23.57L28.1618 26.4011L28.5376 29.3042C28.5376 29.3042 27.6625 29.8756 25.1608 29.6954C21.8047 29.4535 20.7546 27.8115 20.7546 27.8115L20.3377 22H20.3325Z" fill="white"/>
<path d="M21.7173 22.2939L27.7913 23.5705L28.1619 26.4016C26.7155 26.2832 23.1998 25.6964 21.8923 22.8447C21.7996 22.6337 21.7379 22.4484 21.7224 22.2939H21.7173Z" fill="#2952BE"/>
<path d="M28.9649 10.4748C24.1057 4.01476 19.4576 14.5362 19.4576 14.5362L20.5334 16.6209C20.5334 16.6209 19.1539 15.7664 17.9803 16.2606C16.8066 16.7547 15.9522 18.9321 17.3059 20.8418C18.6597 22.7515 20.7084 22.072 20.7084 22.072C20.7084 22.072 21.7173 23.4207 23.8998 24.2134C26.0824 25.0061 29.737 25.6598 30.8849 21.6551C32.0328 17.6504 28.9598 10.4851 28.9598 10.4851V10.4748H28.9649Z" fill="white"/>
<path d="M20.1884 19.71L17.589 17.8724C17.4706 17.79 17.4448 17.6305 17.5272 17.5121C17.6096 17.3937 17.7743 17.3679 17.8875 17.4503L20.487 19.2879C20.6054 19.3703 20.6311 19.5299 20.5488 19.6483C20.4973 19.7203 20.4201 19.7564 20.3377 19.7564C20.2862 19.7564 20.2348 19.7409 20.1884 19.71Z" fill="#2952BE"/>
<path d="M17.7382 19.5551C17.697 19.4213 17.7793 19.2771 17.9183 19.2411L19.617 18.7881C19.756 18.7521 19.895 18.8293 19.931 18.9683C19.9722 19.1021 19.8898 19.2462 19.7508 19.2823L18.0522 19.7352L17.9852 19.7455C17.872 19.7455 17.7691 19.6683 17.7382 19.5551Z" fill="#2952BE"/>
<path d="M29.7369 16.1628C29.6236 16.1628 29.5207 16.0907 29.4898 15.9775L29.1192 14.6649C29.0831 14.5259 29.1603 14.3869 29.2993 14.3457C29.4383 14.3097 29.5773 14.3869 29.6185 14.5259L29.9891 15.8385C30.0251 15.9775 29.9479 16.1165 29.8089 16.1576C29.7832 16.1679 29.7369 16.1679 29.7369 16.1679V16.1628Z" fill="#2952BE"/>
<path d="M25.5315 16.2761C25.4183 16.2761 25.3153 16.204 25.2845 16.0908L24.9138 14.7782C24.8778 14.6392 24.955 14.5002 25.094 14.459C25.233 14.423 25.372 14.5002 25.4131 14.6392L25.7838 15.9518C25.8198 16.0908 25.7426 16.2297 25.6036 16.2709C25.5779 16.2812 25.5315 16.2812 25.5315 16.2812V16.2761Z" fill="#2952BE"/>
<path d="M29.3663 10.2489L26.9573 7.57227L22.0981 9.64669L18.0522 14.0838L19.1075 16.1376L20.523 16.6266C20.523 16.6266 21.2643 17.162 23.1997 15.8648C25.1351 14.5677 25.2535 11.9733 25.2535 11.9733C25.2535 11.9733 26.0823 10.9541 27.5133 10.9541C28.9443 10.9541 29.3663 11.5255 29.3663 11.5255V10.2489Z" fill="#2952BE"/>
<path d="M29.5516 9.9401L18.8295 14.7169L15.5557 15.7825C15.5557 15.7825 13.1518 6.65088 20.3377 5.41549C27.5235 4.18525 29.5516 9.94525 29.5516 9.94525V9.9401Z" fill="#2952BE"/>
<path d="M31.6365 9.54323L30.6533 12.2096C30.6533 12.2096 29.9327 11.7927 28.8208 11.7772C25.9228 11.7412 18.459 14.876 18.459 14.876C18.459 14.876 20.4099 13.6663 22.6439 12.6317C29.1245 9.63074 31.6416 9.53809 31.6416 9.53809H31.6365V9.54323Z" fill="#2952BE"/>
<path d="M20.6052 28.1308C20.492 28.0485 20.4663 27.8838 20.5538 27.7705C20.6361 27.6573 20.8008 27.6367 20.9141 27.719C24.193 30.1486 28.4397 29.1758 28.4809 29.1655C28.6198 29.1346 28.7588 29.2169 28.7897 29.3559C28.8206 29.4949 28.7382 29.6339 28.5992 29.6648C28.5169 29.6854 27.6212 29.8913 26.3447 29.8913C24.7438 29.8913 22.5407 29.567 20.6052 28.1308Z" fill="#2952BE"/>
</g>
<path d="M48.5 48.5L42 40L25 37.5L0 44.5L-6.5 48L-3.5 58H35L48.5 48.5Z" fill="#2952BE"/>
</g>
<defs>
<clipPath id="clip0_42_10580">
<rect width="48" height="48" fill="white"/>
</clipPath>
</defs>
</svg>
