<svg width="240" height="240" viewBox="0 0 240 240" fill="none" xmlns="http://www.w3.org/2000/svg">
<path d="M105.228 220L197.554 166.699L135.326 130.767L43 184.078L105.228 220Z" fill="#E3E3E3" fill-opacity="0.5"/>
<path d="M105.589 56.3965C107.063 58.8188 112.423 65.6631 113.165 67.065C113.897 68.4668 107.135 73.6825 105.589 72.5796C104.042 71.4767 98.0124 61.2514 98.301 59.7053C98.6 58.1591 105.589 56.3965 105.589 56.3965Z" fill="#BEBEBE"/>
<path d="M98.0124 42.0576C99.775 42.2019 101.249 44.3356 103.599 48.7473C105.949 53.159 108.815 59.6735 108.897 60.3332C108.969 60.9929 101.744 65.518 99.7338 65.7551C98.9195 65.8581 92.5699 56.6843 92.271 54.0455C91.9721 51.3964 98.0124 42.0576 98.0124 42.0576Z" fill="#EEEEEE"/>
<path d="M65.6667 163.855C65.6667 164.432 65.708 165.009 65.9244 165.545C66.5738 167.123 68.0479 167.566 69.5219 168.019C70.4392 168.298 71.3463 168.669 72.0575 169.328C73.0265 170.205 73.8202 171.287 74.8922 172.05C76.0672 172.885 77.3454 173.39 78.7782 173.575C80.4068 173.792 83.0559 174.359 84.5505 173.41C84.8494 173.214 85.0659 172.915 85.2411 172.596C85.674 171.833 85.9317 170.802 85.3751 170.112C85.0762 169.741 84.6123 169.555 84.1691 169.39C83.0249 168.978 81.8602 168.586 80.6748 168.318C79.7058 168.091 78.974 167.37 78.0978 166.885C77.2011 166.401 76.2528 166.03 75.3045 165.659C74.0572 165.174 72.81 164.69 71.5628 164.205C70.3258 163.721 69.5321 163.133 68.6045 162.185C67.9963 161.567 67.182 160.989 66.3368 161.165C66.1512 161.206 65.976 161.278 65.8626 161.433C65.7492 161.598 65.7286 161.804 65.7183 162C65.6874 162.566 65.6771 163.133 65.6771 163.7C65.6771 163.752 65.6771 163.814 65.6771 163.865L65.6667 163.855Z" fill="#666666"/>
<path d="M79.4998 156.371C79.6029 157.061 79.7781 157.773 80.2316 158.298C80.7779 158.937 81.6335 159.205 82.4581 159.36C83.2827 159.525 84.1383 159.618 84.8804 160.009C85.2618 160.216 85.5916 160.484 85.9318 160.752C87.4573 161.968 89.086 163.122 90.9207 163.761C93.343 164.607 95.9818 164.524 98.5587 164.431C98.7649 164.431 99.002 164.411 99.1463 164.266C99.2906 164.132 99.3215 163.916 99.3421 163.72C99.3834 163.102 99.3215 162.452 98.9917 161.927C98.5588 161.257 97.7754 160.916 97.0744 160.556C95.3221 159.638 93.7863 158.319 91.9927 157.494C90.2817 156.701 88.3954 156.391 86.5297 156.154C85.7978 156.062 85.035 155.979 84.3135 156.134C83.6538 156.268 83.6538 156.299 83.025 155.958C82.4993 155.68 81.8912 155.505 81.3964 155.185C80.9635 154.907 80.5512 154.443 79.9637 154.732C79.4483 154.99 79.407 155.711 79.4895 156.278C79.4895 156.309 79.4895 156.34 79.4998 156.371Z" fill="#666666"/>
<path d="M86.2409 149.795C90.6526 151.784 91.9101 152.98 95.0334 155.959C98.2494 159.02 99.6821 162.793 99.0431 163.277C98.0123 164.06 96.1672 164.019 92.6111 163.277C89.0652 162.545 86.2409 158.309 84.839 158.391C83.4372 158.463 80.4583 157.969 79.8604 155.536C79.2729 153.114 79.8604 150.351 81.3138 149.795C82.3034 149.413 86.2306 149.795 86.2306 149.795H86.2409Z" fill="white"/>
<path d="M90.7352 106.699C91.1784 115.594 91.3124 114.419 90.5806 126.407C89.8487 138.395 88.8695 147.569 89.2921 149.414C89.7147 151.249 91.6011 153.135 92.3226 154.3C92.6215 154.784 92.7967 155.176 92.8895 155.485C93.0957 156.186 92.4978 156.866 91.766 156.805C90.4569 156.691 87.5398 156.588 84.262 153.424C82.4787 151.702 80.1492 152.084 81.3242 149.795C82.4993 147.517 81.6129 141.92 80.4378 136.478C79.2627 131.035 80.881 115.666 82.0561 111.172C83.2312 106.678 90.7352 106.688 90.7352 106.688V106.699Z" fill="#333333"/>
<path d="M87.7151 71.147C90.8692 77.8676 91.7042 83.6194 92.838 93.5663C93.9719 103.513 90.9311 120.603 90.3951 123.809C89.8591 127.015 84.8495 127.819 82.8395 127.314C80.8192 126.819 80.3038 126.231 78.1289 120.026C75.954 113.821 74.1089 76.4246 74.1089 76.4246L87.7151 71.1367V71.147Z" fill="#333333"/>
<path d="M73.0678 155.867C74.6139 156.526 75.8921 158.464 76.9434 159.691C77.3867 160.206 77.8196 160.887 78.3556 161.309C78.7782 161.639 79.273 161.897 79.7059 162.247C80.7573 163.103 81.7468 164.02 82.6745 164.999C83.4682 165.845 84.231 166.741 84.7464 167.782C85.2618 168.824 85.4989 170.03 85.2412 171.153C84.901 172.606 83.3858 172.936 82.087 172.978C80.5615 173.019 78.7473 172.823 77.4588 171.978C76.5517 171.38 75.7993 170.576 74.9953 169.854C73.8511 168.813 72.573 167.916 71.2124 167.195C70.027 166.566 68.5633 166.247 67.6665 165.195C67.0583 164.484 66.3368 163.907 66.0173 163C65.605 161.835 65.6565 160.516 65.7493 159.31C65.9142 157.227 67.2954 155.207 67.2954 155.207L73.0678 155.887V155.867Z" fill="white"/>
<path d="M81.6334 89.0207C82.4477 102.833 77.6958 98.411 78.6648 105.626C79.644 112.842 80.716 125.129 79.8708 128.582C79.0255 132.035 74.7066 132.076 72.4389 131.293C70.1712 130.509 68.254 126.551 66.7284 121.645C65.1926 116.738 61.286 109.275 59.5027 102.111C57.7195 94.9476 58.8843 89.4433 61.0489 83.3308C63.2032 77.2183 70.4186 70.0957 70.4186 70.0957L81.6437 89.0413L81.6334 89.0207Z" fill="#3B3B3B"/>
<path d="M78.5927 107.935C79.3967 113.965 80.0254 126.262 79.8399 128.705C79.51 132.962 75.4385 143.899 75.5107 148.754C75.5828 153.609 75.5931 155.33 76.0157 157.402C76.2219 158.422 77.6237 160.484 76.4074 161.247C76.0776 161.453 75.6756 161.494 75.2839 161.525C74.15 161.607 73.0162 161.556 71.872 161.535C70.965 161.525 70.4289 161.071 69.6662 160.618C67.5222 159.34 66.8728 157.897 67.0171 155.99C67.1614 154.083 67.0893 152.269 67.0893 152.269C67.0893 152.269 64.6154 139.446 66.0172 131.643C67.4191 123.85 72.707 116.449 72.6348 114.47C72.5627 112.481 78.5927 107.925 78.5927 107.925V107.935Z" fill="#3B3B3B"/>
<path d="M63.1516 77.5365C63.4505 81.6595 65.5018 86.8031 71.2432 89.1533C76.9846 91.5034 86.2512 89.5965 88.3025 86.7309C90.3537 83.8654 91.2401 82.6079 92.5698 80.3299C93.8892 78.0518 98.0845 71.2075 99.9295 66.2804C101.775 61.3534 102.352 48.2626 101.032 45.7578C99.7131 43.253 91.2092 42.2222 91.2092 42.2222C91.2092 42.2222 85.8595 39.1093 82.0972 41.3873C68.8105 49.4067 67.955 50.7364 66.7078 52.499C65.4606 54.2617 64.9967 60.302 65.2956 65.7135C65.5946 71.1251 63.1619 77.5262 63.1619 77.5262L63.1516 77.5365Z" fill="#E5E5E5"/>
<path d="M91.2091 45.4081C95.5074 51.5103 96.2702 54.0872 95.394 60.8182C94.5179 67.5491 90.9514 77.4445 90.9514 77.4445C90.9514 77.4445 92.7965 76.7436 93.683 75.6097C94.5694 74.4656 97.3525 67.2605 98.4657 59.0968C99.579 50.9331 96.0022 46.7791 92.9511 44.2021C92.3945 44.3877 91.2194 45.4185 91.2194 45.4185L91.2091 45.4081Z" fill="#ABABAB"/>
<path d="M69.1199 49.8912C75.9951 49.6232 80.4584 56.2407 80.9531 62.178C81.4479 68.1152 79.6338 78.5569 78.603 81.2988C81.9839 79.5774 82.2004 78.8456 82.6333 78.4023C83.0765 77.9591 85.303 67.8988 84.3134 61.1884C83.3239 54.4781 80.2007 48.2935 71.7999 47.9121C71.4288 48.1698 69.1199 49.9015 69.1199 49.9015V49.8912Z" fill="#ABABAB"/>
<path d="M98.0432 61.6844C93.4253 65.9518 87.9623 68.3638 80.7984 68.9823C79.747 69.0751 74.3561 70.0749 72.7274 72.2395C71.0885 74.3938 67.1201 87.6908 66.6768 94.1125C66.2336 100.534 70.1918 113.439 71.0988 116.501C71.9956 119.552 98.7544 114.852 96.6929 103.018C94.6313 91.1851 93.8273 86.1034 93.7861 83.1554C93.7449 80.2074 96.6723 77.2697 98.9915 73.4249C100.579 70.7964 101.744 63.8903 101.146 60.6846C100.393 60.8392 98.0329 61.705 98.0329 61.705L98.0432 61.6844Z" fill="#ABABAB"/>
<path d="M93.4256 43.6253C90.7765 45.6869 92.4463 50.2429 90.6321 51.9333C88.818 53.6238 84.6743 53.3043 81.2624 50.6346C77.6238 47.7897 78.1804 46.6764 78.3247 45.5529C78.469 44.4293 81.417 40.8835 82.4478 38.5746C83.4786 36.2656 84.4063 31.2148 84.4063 31.2148L93.4256 43.6253Z" fill="#BEBEBE"/>
<path d="M87.1069 32.1831C86.5503 34.2961 85.334 41.0271 85.571 42.7382C85.7772 44.2328 86.8492 48.191 93.2297 50.4277C93.5905 50.5514 94.4254 50.2834 94.6418 50.1906C96.3942 49.3969 98.9608 46.4799 100.765 42.3465C102.568 38.2131 102.754 33.1932 102.723 31.7811C102.692 30.3792 94.8892 28.2146 91.9206 29.3691C88.952 30.5235 87.0966 32.1831 87.0966 32.1831H87.1069Z" fill="#BEBEBE"/>
<path d="M99.1154 31.9771C98.7134 33.5851 89.8075 34.1211 88.0552 36.3681C86.3029 38.6152 86.1998 41.12 86.1998 41.12L85.0453 36.8526C85.0453 36.8526 83.19 36.5537 83.7878 38.8626C84.3857 41.1715 84.1383 47.552 84.1383 47.552C84.1383 47.552 78.1495 46.0883 78.201 43.1815C78.2526 40.2748 79.7163 33.4923 81.4686 29.3692C83.2312 25.2461 82.8704 21.6797 88.653 20.9787C94.5387 17.6081 100.579 23.7927 102.002 26.7098C103.424 29.6269 103.826 31.6884 103.63 32.6368C103.434 33.5954 102.672 33.7809 102.672 33.7809C102.672 33.7809 102.733 32.8326 102.373 32.3894C102.012 31.9358 100.064 33.1418 99.105 31.9874L99.1154 31.9771Z" fill="#323232"/>
<path d="M82.8911 34.6363C83.5198 34.5126 84.4991 36.0897 84.4991 36.0897C84.4991 36.0897 85.602 38.6975 84.4991 39.9035C83.3961 41.1095 81.2315 37.7904 81.4068 36.5329C81.582 35.2754 82.8911 34.626 82.8911 34.626V34.6363Z" fill="#BEBEBE"/>
<path d="M184.04 168.523L184.03 120.654L178.216 117.294L179.082 165.658L184.04 168.523Z" fill="#5B5B5B"/>
<path d="M184.041 168.523V120.654L189.864 117.294L188.988 165.658L184.041 168.523Z" fill="#5B5B5B"/>
<path d="M56.5133 139.011L62.3681 135.63L56.5545 132.27L50.6895 135.65L56.5133 139.011Z" fill="#7D7D7D"/>
<path d="M56.5133 186.87V139.012L50.6895 135.651L51.5656 184.015L56.5133 186.87Z" fill="#5B5B5B"/>
<path d="M56.5132 186.87L56.5235 139.012L62.337 135.651L61.4712 184.015L56.5132 186.87Z" fill="#5B5B5B"/>
<path d="M104.372 166.647L110.237 163.266L104.413 159.905L98.5481 163.286L104.372 166.647Z" fill="#7D7D7D"/>
<path d="M104.382 214.505L104.372 166.646L98.5481 163.286L99.4242 211.65L104.382 214.505Z" fill="#5B5B5B"/>
<path d="M104.382 214.505V166.646L110.206 163.286L109.33 211.65L104.382 214.505Z" fill="#5B5B5B"/>
<path d="M104.382 166.646L189.864 117.293L136.171 86.2979L50.6895 135.651L104.382 166.646Z" fill="#838383"/>
<path d="M136.13 93.0391L141.995 89.6582L136.171 86.2979L130.306 89.6788L136.13 93.0391Z" fill="#7D7D7D"/>
<path d="M104.382 166.647L189.864 117.293V111.026L104.382 159.462V166.647Z" fill="#7D7D7D"/>
<path d="M184.03 120.653L189.895 117.272L184.071 113.912L178.216 117.293L184.03 120.653Z" fill="#7D7D7D"/>
<path d="M104.382 166.646V159.462L50.6895 128.436V135.651L104.382 166.646Z" fill="#7D7D7D"/>
<path d="M136.13 140.908L141.119 138.022L136.171 135.167L131.182 138.043L136.13 140.908Z" fill="#5B5B5B"/>
<path d="M136.13 140.908V93.039L130.306 89.6787L131.182 138.043L136.13 140.908Z" fill="#5B5B5B"/>
<path d="M136.13 140.908L136.14 93.039L141.964 89.6787L141.088 138.043L136.13 140.908Z" fill="#5B5B5B"/>
<path d="M105.228 163.678L197.554 110.377V104.944L105.228 158.256V163.678Z" fill="#989898"/>
<path d="M105.228 163.678V158.256L43 122.323V127.755L105.228 163.678Z" fill="#989898"/>
<path d="M105.228 158.256L197.554 104.945L135.326 69.0225L43 122.324L105.228 158.256Z" fill="#A9A9A9"/>
<path d="M138.192 120.933L145.613 116.645C150.983 113.542 150.313 108.131 144.108 104.554L126.348 94.2978C120.143 90.721 110.763 90.3293 105.392 93.4319L97.9709 97.7199C92.6005 100.823 93.2706 106.234 99.4758 109.811L117.236 120.067C123.441 123.644 132.821 124.035 138.192 120.933Z" fill="#D6DEF3"/>
<path d="M79.6234 72.5285C80.1388 74.0025 82.4889 78.342 82.9321 81.2075C83.3754 84.0731 78.2937 89.1548 76.9021 87.753C75.5106 86.3511 68.9549 75.394 69.8414 72.5285C70.7278 69.6629 79.6234 72.5285 79.6234 72.5285Z" fill="#BEBEBE"/>
<path d="M110.897 66.7142C111.649 66.8276 112 65.9721 113.36 66.9307C114.721 67.8893 125.07 84.7424 125.668 85.8453C126.255 86.9482 128.863 86.5462 128.863 86.5462C128.863 86.5462 130.08 86.4741 130.482 86.6184C130.884 86.7627 131.914 87.3193 131.914 87.3193C131.914 87.3193 132.832 91.731 132.502 92.5041C132.172 93.2772 131.182 93.8235 131.182 93.8235L130.121 94.2667C130.121 94.2667 129.564 94.8543 128.616 94.9986C127.657 95.1429 126.111 95.0398 125.338 94.7409C124.565 94.442 123.349 93.1226 123.349 93.1226C123.349 93.1226 121.71 90.2364 121.297 88.8036C120.885 87.3709 107.062 75.2387 105.722 72.6515C104.382 70.0642 110.897 66.7039 110.897 66.7039V66.7142Z" fill="#BEBEBE"/>
<path d="M68.9548 51.4072C71.8925 51.9948 76.531 55.6849 77.1288 60.5399C77.7164 65.3948 81.8292 75.218 81.6333 75.7643C81.4375 76.3106 71.6142 79.6607 71.0988 79.001C70.5834 78.3413 64.7493 62.4983 64.739 59.5606C64.7286 56.6229 65.1306 52.0669 68.9548 51.4072Z" fill="#EEEEEE"/>
<path d="M130.183 90.9266C130.193 91.7924 129.595 92.1532 128.853 91.7409C128.111 91.3286 127.503 90.2875 127.492 89.432C127.482 88.5661 128.08 88.2053 128.822 88.6177C129.564 89.03 130.172 90.071 130.193 90.9266H130.183Z" fill="#6582D0"/>
<mask id="mask0_29_4893" style="mask-type:luminance" maskUnits="userSpaceOnUse" x="122" y="88" width="8" height="7">
<path d="M124.575 94.8435C124.338 94.9775 124.008 94.9671 123.637 94.761C122.895 94.3487 122.287 93.3076 122.266 92.4521C122.266 92.0192 122.41 91.6996 122.658 91.5656L127.874 88.5352C127.626 88.6795 127.472 88.9887 127.482 89.4216C127.492 90.2875 128.1 91.3182 128.842 91.7306C129.203 91.9367 129.533 91.947 129.78 91.813C128.214 92.7201 126.132 93.9364 124.565 94.8435H124.575Z" fill="white"/>
</mask>
<g mask="url(#mask0_29_4893)">
<path d="M124.575 94.8435L129.791 91.813C129.554 91.947 129.224 91.9367 128.853 91.7306C128.111 91.3182 127.503 90.2771 127.492 89.4216C127.492 88.9784 127.637 88.6692 127.884 88.5352L122.668 91.5656C122.421 91.7099 122.266 92.0192 122.277 92.4521C122.287 93.3179 122.895 94.3487 123.648 94.761C124.008 94.9671 124.338 94.9775 124.586 94.8435H124.575Z" fill="#496CC8"/>
</g>
<mask id="mask1_29_4893" style="mask-type:luminance" maskUnits="userSpaceOnUse" x="124" y="90" width="7" height="5">
<path d="M129.791 91.8132L124.575 94.8437C124.823 94.6994 124.977 94.3902 124.967 93.9572L130.183 90.9268C130.183 91.37 130.039 91.6792 129.791 91.8132Z" fill="white"/>
</mask>
<g mask="url(#mask1_29_4893)">
<path d="M124.967 93.9572L130.183 90.9268C130.183 91.37 130.039 91.6792 129.791 91.8132L124.575 94.8437C124.823 94.6994 124.977 94.3902 124.967 93.9572Z" fill="#496CC8"/>
</g>
<mask id="mask2_29_4893" style="mask-type:luminance" maskUnits="userSpaceOnUse" x="122" y="88" width="9" height="6">
<path d="M122.668 91.5659L127.884 88.5354C128.121 88.3911 128.451 88.4117 128.822 88.6179C129.564 89.0302 130.172 90.0713 130.193 90.9268L124.977 93.9573C124.967 93.0914 124.359 92.0607 123.606 91.6483C123.246 91.4422 122.916 91.4319 122.668 91.5659Z" fill="white"/>
</mask>
<g mask="url(#mask2_29_4893)">
<path d="M122.668 91.5659L127.884 88.5354C128.121 88.3911 128.451 88.4117 128.822 88.6179C129.564 89.0302 130.172 90.0713 130.193 90.9268L124.977 93.9573C124.967 93.0914 124.359 92.0607 123.606 91.6483C123.246 91.4422 122.916 91.4319 122.668 91.5659Z" fill="#496CC8"/>
</g>
<path d="M126.41 94.7511C126.431 96.5344 125.204 97.2869 123.668 96.4313C122.132 95.5758 120.864 93.4318 120.844 91.6485C120.823 89.8653 122.05 89.1128 123.586 89.9684C125.121 90.8239 126.389 92.9679 126.41 94.7511ZM124.967 93.9471C124.957 93.0813 124.348 92.0505 123.596 91.6382C122.854 91.2259 122.256 91.5867 122.266 92.4525C122.277 93.3184 122.885 94.3491 123.637 94.7614C124.379 95.1737 124.977 94.813 124.967 93.9471Z" fill="#6582D0"/>
<mask id="mask3_29_4893" style="mask-type:luminance" maskUnits="userSpaceOnUse" x="102" y="89" width="24" height="19">
<path d="M107.217 107.275C106.722 107.564 106.042 107.533 105.279 107.11C103.743 106.255 102.475 104.111 102.455 102.328C102.445 101.421 102.754 100.781 103.269 100.483L121.638 89.8037C121.122 90.1026 120.813 90.7417 120.823 91.6488C120.844 93.432 122.112 95.5761 123.647 96.4316C124.4 96.8542 125.091 96.8851 125.585 96.5965C120.071 99.8022 112.721 104.07 107.217 107.275Z" fill="white"/>
</mask>
<g mask="url(#mask3_29_4893)">
<path d="M107.217 107.275L125.585 96.5965C125.091 96.8851 124.41 96.8542 123.647 96.4316C122.112 95.5761 120.844 93.432 120.823 91.6488C120.813 90.7417 121.122 90.1026 121.638 89.8037L103.269 100.483C102.754 100.781 102.445 101.421 102.455 102.328C102.475 104.111 103.743 106.255 105.279 107.11C106.032 107.533 106.722 107.564 107.217 107.275Z" fill="#496CC8"/>
</g>
<mask id="mask4_29_4893" style="mask-type:luminance" maskUnits="userSpaceOnUse" x="107" y="94" width="20" height="14">
<path d="M125.596 96.596L107.227 107.275C107.743 106.976 108.052 106.337 108.042 105.43L126.41 94.751C126.42 95.6581 126.111 96.2971 125.596 96.596Z" fill="white"/>
</mask>
<g mask="url(#mask4_29_4893)">
<path d="M108.032 105.43L126.4 94.751C126.41 95.6581 126.101 96.2971 125.586 96.596L107.217 107.275C107.733 106.976 108.042 106.337 108.032 105.43Z" fill="#496CC8"/>
</g>
<mask id="mask5_29_4893" style="mask-type:luminance" maskUnits="userSpaceOnUse" x="103" y="89" width="24" height="17">
<path d="M103.269 100.482L121.637 89.8036C122.132 89.515 122.812 89.5459 123.575 89.9685C125.111 90.8241 126.379 92.9681 126.4 94.7513L108.031 105.43C108.011 103.647 106.743 101.503 105.207 100.647C104.454 100.225 103.764 100.194 103.269 100.482Z" fill="white"/>
</mask>
<g mask="url(#mask5_29_4893)">
<path d="M103.269 100.482L121.637 89.8036C122.132 89.515 122.812 89.5459 123.575 89.9685C125.111 90.8241 126.379 92.9681 126.4 94.7513L108.031 105.43C108.011 103.647 106.743 101.503 105.207 100.647C104.454 100.225 103.764 100.194 103.269 100.482Z" fill="#496CC8"/>
</g>
<path d="M108.031 105.431C108.052 107.214 106.825 107.967 105.289 107.111C103.754 106.255 102.486 104.111 102.465 102.328C102.444 100.545 103.671 99.7925 105.207 100.648C106.743 101.504 108.011 103.648 108.031 105.431ZM106.588 104.627C106.578 103.761 105.97 102.73 105.217 102.318C104.475 101.906 103.877 102.266 103.888 103.132C103.898 103.998 104.506 105.029 105.258 105.441C106.001 105.853 106.598 105.493 106.588 104.627Z" fill="#6582D0"/>
<mask id="mask6_29_4893" style="mask-type:luminance" maskUnits="userSpaceOnUse" x="98" y="102" width="9" height="7">
<path d="M100.981 108.553C100.744 108.687 100.414 108.677 100.043 108.471C99.3008 108.059 98.6927 107.018 98.6824 106.162C98.6824 105.729 98.8267 105.41 99.0741 105.276L104.29 102.245C104.042 102.389 103.888 102.699 103.898 103.132C103.908 103.997 104.517 105.028 105.269 105.441C105.63 105.647 105.96 105.657 106.207 105.523C104.64 106.43 102.558 107.646 100.991 108.553H100.981Z" fill="white"/>
</mask>
<g mask="url(#mask6_29_4893)">
<path d="M100.981 108.553L106.196 105.523C105.959 105.667 105.63 105.647 105.258 105.441C104.516 105.028 103.908 103.987 103.888 103.132C103.888 102.688 104.032 102.379 104.279 102.245L99.0636 105.276C98.8162 105.42 98.6616 105.729 98.6719 106.162C98.6822 107.028 99.2903 108.059 100.032 108.471C100.393 108.677 100.723 108.687 100.97 108.553H100.981Z" fill="#496CC8"/>
</g>
<mask id="mask7_29_4893" style="mask-type:luminance" maskUnits="userSpaceOnUse" x="100" y="104" width="7" height="5">
<path d="M106.197 105.522L100.981 108.553C101.228 108.408 101.383 108.099 101.373 107.666L106.588 104.636C106.588 105.079 106.444 105.388 106.197 105.522Z" fill="white"/>
</mask>
<g mask="url(#mask7_29_4893)">
<path d="M101.383 107.656L106.598 104.626C106.598 105.069 106.454 105.378 106.207 105.512L100.991 108.543C101.238 108.399 101.393 108.089 101.383 107.656Z" fill="#496CC8"/>
</g>
<mask id="mask8_29_4893" style="mask-type:luminance" maskUnits="userSpaceOnUse" x="99" y="102" width="8" height="6">
<path d="M99.0737 105.265L104.289 102.234C104.527 102.1 104.856 102.111 105.227 102.317C105.97 102.729 106.578 103.77 106.598 104.626L101.383 107.656C101.372 106.79 100.764 105.759 100.012 105.347C99.651 105.141 99.3211 105.131 99.0737 105.265Z" fill="white"/>
</mask>
<g mask="url(#mask8_29_4893)">
<path d="M99.0737 105.265L104.289 102.234C104.527 102.1 104.856 102.111 105.227 102.317C105.97 102.729 106.578 103.77 106.598 104.626L101.383 107.656C101.372 106.79 100.764 105.759 100.012 105.347C99.651 105.141 99.3211 105.131 99.0737 105.265Z" fill="#496CC8"/>
</g>
<path d="M101.383 107.657C101.393 108.523 100.795 108.884 100.053 108.471C99.311 108.059 98.7028 107.018 98.6925 106.162C98.6822 105.297 99.2801 104.936 100.022 105.348C100.764 105.76 101.373 106.802 101.393 107.657H101.383Z" fill="#6582D0"/>
<path d="M80.4687 78.9082C82.0149 80.4956 83.2724 81.3924 84.1795 83.0828C85.0866 84.7733 95.3427 101.142 96.6106 101.894C97.8784 102.647 101.94 101.678 102.826 101.894C103.713 102.111 106.362 105.935 106.393 106.677C106.434 107.409 105.661 107.852 105.661 107.852C105.661 107.852 105.444 108.842 104.3 108.955L103.156 109.069C103.156 109.069 102.568 109.728 101.94 109.914C101.311 110.099 100.558 110.213 100.558 110.213C100.558 110.213 100.167 110.584 99.2494 110.47C98.332 110.357 97.0744 109.996 96.7858 109.625C96.4972 109.254 96.6003 108.337 96.6003 108.337C96.6003 108.337 95.9406 108.553 94.4356 108.151C92.9307 107.749 92.3535 106.059 91.2506 104.956C90.1476 103.853 78.4072 91.3702 76.5002 86.6596C74.5933 81.949 80.4584 78.9082 80.4584 78.9082H80.4687Z" fill="#BEBEBE"/>
<path d="M136.192 85.402L136.821 85.0412C139.944 83.2374 144.665 83.0415 147.366 84.6083L157.22 92.236C158.117 92.7514 158.003 93.6585 156.972 94.2563L150.458 98.0186C149.427 98.6165 147.86 98.6783 146.964 98.1629L135.429 91.5042C132.729 89.9477 133.069 87.2162 136.182 85.4123L136.192 85.402Z" fill="#94A9DF"/>
<path d="M140.49 63.3843C138.8 62.4051 136.501 63.9203 136.501 66.1674V76.3823C136.501 78.6294 137.872 81.2476 139.552 82.2165L146.314 86.1231V66.7446L140.49 63.3843ZM142.686 78.918C142.686 80.7528 141.573 81.5877 140.202 80.794C138.831 80.0003 137.718 77.8769 137.718 76.0422V67.7548C137.718 65.92 138.831 65.0851 140.202 65.8788C141.573 66.6725 142.686 68.7959 142.686 70.6306V78.918Z" fill="#F9FAFD"/>
<path d="M138.13 81.9896C136.759 81.1959 135.646 79.0725 135.646 77.2377V68.9503C135.646 67.1155 136.759 66.2806 138.13 67.0743C139.501 67.868 140.614 69.9914 140.614 71.8262V80.1136C140.614 81.9483 139.501 82.7833 138.13 81.9896Z" fill="url(#paint0_linear_29_4893)"/>
<path d="M138.583 81.5053C137.264 80.7425 136.192 78.6913 136.192 76.9286V68.6825C136.192 66.9199 137.264 66.1056 138.583 66.8683C139.903 67.6311 140.975 69.6823 140.975 71.445V79.6911C140.975 81.4537 139.903 82.268 138.583 81.5053Z" fill="url(#paint1_linear_29_4893)"/>
<path d="M137.986 63.4873L136.027 64.6211L141.83 67.0331L141.026 64.8995L137.986 63.4873Z" fill="#F9FAFD"/>
<path d="M138.419 64.5796C136.728 63.6004 134.429 65.1156 134.429 67.3627V77.5776C134.429 79.8247 135.8 82.4429 137.481 83.4118L144.242 87.3184V67.9399L138.419 64.5796ZM140.614 80.1133C140.614 81.9481 139.501 82.783 138.13 81.9893C136.759 81.1957 135.646 79.0723 135.646 77.2375V68.9501C135.646 67.1153 136.759 66.2804 138.13 67.0741C139.501 67.8678 140.614 69.9912 140.614 71.8259V80.1133Z" fill="url(#paint2_linear_29_4893)"/>
<path d="M140.882 87.4629L141.511 87.1021C144.634 85.2983 147.407 83.9789 150.108 85.5354L153.282 89.2977C154.179 89.813 154.066 90.7201 153.035 91.318L146.52 95.0803C145.49 95.6782 143.923 95.74 143.026 95.2246L140.13 93.5548C137.429 91.9983 137.769 89.2667 140.882 87.4629Z" fill="url(#paint3_linear_29_4893)"/>
<path d="M153.715 90.6995L155.725 86.7619L138.305 85.8857V90.9572L153.715 90.6995Z" fill="url(#paint4_linear_29_4893)"/>
<path d="M140.882 82.4026L141.511 82.0418C144.634 80.238 147.685 81.0111 150.386 82.5676L155.272 85.3919C156.169 85.9072 156.055 86.8143 155.024 87.4122L148.51 91.1745C147.479 91.7723 145.912 91.8342 145.016 91.3188L140.13 88.4945C137.429 86.938 137.769 84.2065 140.882 82.4026Z" fill="url(#paint5_linear_29_4893)"/>
<path d="M155.88 68.3524V86.2672L138.305 85.8858V67.9092L155.88 68.3524Z" fill="url(#paint6_linear_29_4893)"/>
<path d="M140.882 75.0423L141.511 74.6815C144.634 72.8777 147.685 73.6507 150.386 75.2072L157.22 79.155C158.117 79.6704 158.003 80.5775 156.973 81.1753L150.458 84.9377C149.427 85.5355 147.861 85.5974 146.964 85.082L140.13 81.1341C137.429 79.5776 137.769 76.8461 140.882 75.0423Z" fill="url(#paint7_linear_29_4893)"/>
<path d="M157.828 69.476V80.031L138.305 78.5261V67.9092L157.828 69.476Z" fill="url(#paint8_linear_29_4893)"/>
<path d="M140.882 64.4876L141.511 64.1268C144.634 62.323 147.685 63.096 150.386 64.6525L157.22 68.6004C158.117 69.1157 158.003 70.0228 156.973 70.6207L150.458 74.383C149.427 74.9808 147.861 75.0427 146.964 74.5273L140.13 70.5794C137.429 69.023 137.769 66.2914 140.882 64.4876Z" fill="white"/>
<path d="M170.97 112.602C178.251 112.582 184.144 109.146 184.132 104.928C184.12 100.709 178.208 97.3061 170.927 97.3265C163.646 97.3468 157.753 100.783 157.765 105.001C157.777 109.22 163.689 112.623 170.97 112.602Z" fill="#5F7DCE"/>
<mask id="mask9_29_4893" style="mask-type:luminance" maskUnits="userSpaceOnUse" x="162" y="98" width="18" height="12">
<path d="M170.991 103.996C170.991 103.996 170.98 103.996 170.97 103.996C170.97 103.996 170.97 103.996 170.97 104.006C170.97 104.006 170.98 104.006 170.991 104.006C171.001 104.006 170.991 104.006 170.991 103.996C171.362 103.79 176.505 100.914 177.268 100.491C180.597 102.491 180.484 105.686 177.01 107.624C173.537 109.562 168.022 109.5 164.693 107.501C161.363 105.501 161.477 102.306 164.95 100.368C168.424 98.4298 173.939 98.4917 177.268 100.491C176.515 100.914 171.362 103.78 170.991 103.996Z" fill="white"/>
</mask>
<g mask="url(#mask9_29_4893)">
<path d="M170.991 103.996C171.362 103.79 176.505 100.914 177.268 100.491C173.939 98.4917 168.424 98.4298 164.95 100.368C161.477 102.306 161.363 105.501 164.693 107.501C168.022 109.5 173.537 109.562 177.01 107.624C180.484 105.686 180.597 102.491 177.268 100.491C176.515 100.914 171.362 103.78 170.991 103.996C170.991 103.996 170.991 103.996 170.991 104.006C170.991 104.017 170.98 104.006 170.97 104.006C170.97 104.006 170.97 104.006 170.97 103.996C170.97 103.996 170.98 103.996 170.991 103.996Z" fill="#2952BE"/>
</g>
<mask id="mask10_29_4893" style="mask-type:luminance" maskUnits="userSpaceOnUse" x="155" y="81" width="32" height="29">
<path d="M155.261 90.6394C155.261 88.248 156.869 85.8566 160.085 84.0631C166.331 80.5791 176.258 80.6821 182.257 84.2898C182.257 84.7743 182.288 93.9379 177.268 100.494C173.939 98.4939 168.424 98.432 164.95 100.37C161.477 102.308 161.363 105.503 164.693 107.503C168.022 109.502 173.537 109.564 177.01 107.626C180.484 105.689 180.597 102.493 177.268 100.494C182.288 93.9379 182.257 84.764 182.257 84.2898C185.164 86.0421 186.617 88.2995 186.627 90.5569C186.627 91.2991 186.576 93.2988 186.04 95.7005C185.463 98.2877 184.648 99.9885 184.411 100.452C184.257 100.751 184.061 101.153 183.896 101.442C183.587 101.968 183.143 102.648 182.793 103.153C182.422 103.689 181.824 104.318 181.391 104.802C180.886 105.359 179.546 106.513 178.144 107.266C177.484 107.616 175.949 108.441 173.609 108.843C172.485 109.039 170.733 109.204 168.713 108.905C165.414 108.41 162.6 106.956 160.343 104.596C158.425 102.596 157.333 100.256 156.745 98.6485C156.539 98.0712 156.055 96.7312 155.663 94.6078C155.55 94.0203 155.302 92.4432 155.282 90.66L155.261 90.6394Z" fill="white"/>
</mask>
<g mask="url(#mask10_29_4893)">
<path d="M155.261 90.6394C155.292 93.4637 156.003 103.009 164.084 107.41C168.702 109.925 176.309 109.884 181.319 104.843C186.174 99.9575 186.597 92.6906 186.617 90.5878C186.617 88.2995 185.164 86.0421 182.247 84.2898C182.247 84.7743 182.278 93.9379 177.258 100.494C180.587 102.493 180.474 105.689 177 107.626C173.526 109.564 168.012 109.502 164.682 107.503C161.353 105.503 161.466 102.308 164.94 100.37C168.414 98.432 173.928 98.4939 177.258 100.494C182.278 93.9379 182.247 84.764 182.247 84.2898C176.248 80.6821 166.321 80.5791 160.075 84.0631C156.859 85.8566 155.24 88.248 155.251 90.6394H155.261Z" fill="#92A7DE"/>
<path d="M177.258 100.493C180.587 102.493 180.474 105.688 177 107.626C173.526 109.564 168.012 109.502 164.682 107.502C161.353 105.503 161.466 102.307 164.94 100.369C165.383 100.122 165.857 99.9055 166.352 99.7302C166.146 99.4829 165.878 99.153 165.672 98.9159C165.26 95.8236 168.166 95.8545 169.465 96.6998C170.424 97.3285 170.352 97.947 170.228 98.9778C172.753 98.8541 175.361 99.3592 177.247 100.503C182.267 93.9476 182.236 84.7738 182.236 84.2996C176.237 80.6919 166.311 80.5888 160.065 84.0728C156.849 85.8664 155.23 88.2578 155.241 90.6492C155.241 90.8141 155.241 91.0306 155.251 91.2058L155.271 91.6902C155.282 91.8655 155.302 92.1025 155.313 92.2881L155.385 92.9684C155.416 93.2055 155.457 93.525 155.488 93.7621L155.622 94.6073C155.673 94.8959 155.746 95.2773 155.807 95.5659L156.034 96.5246C156.127 96.8544 156.251 97.2976 156.354 97.6275L156.704 98.648C156.849 99.019 157.044 99.5035 157.199 99.8643L157.683 100.874C157.91 101.276 158.209 101.812 158.446 102.204L159.065 103.121C159.425 103.575 159.91 104.163 160.291 104.595L161.013 105.307C161.93 106.09 162.147 106.276 163.27 106.997L164.054 107.44C164.322 107.564 164.672 107.739 164.94 107.863L165.693 108.162C165.93 108.244 166.249 108.358 166.486 108.43L167.208 108.626C167.435 108.677 167.723 108.75 167.95 108.791L168.651 108.914C168.867 108.945 169.146 108.976 169.362 108.997L170.053 109.048C170.259 109.048 170.537 109.069 170.743 109.069H171.434C171.64 109.048 171.918 109.038 172.125 109.018L172.825 108.945C173.042 108.914 173.32 108.873 173.537 108.842L174.258 108.698C174.475 108.646 174.774 108.574 174.99 108.512L175.732 108.286C175.969 108.203 176.279 108.09 176.516 107.997L177.299 107.657C177.557 107.523 177.907 107.358 178.155 107.214L178.979 106.719C179.67 106.234 180.443 105.688 181.329 104.802L182.061 104.008C182.432 103.534 182.917 102.895 183.257 102.4L183.834 101.441C184.051 101.019 184.349 100.462 184.545 100.04L184.968 99.0293C185.102 98.6583 185.287 98.1635 185.411 97.7821L185.7 96.7925C185.782 96.4627 185.896 96.0298 185.968 95.6999L186.153 94.7928C186.205 94.5145 186.267 94.1435 186.308 93.8652L186.411 93.0921C186.432 92.8653 186.463 92.5664 186.483 92.3499L186.524 91.7521C186.524 91.5975 186.545 91.381 186.545 91.2264V90.8656C186.545 90.7831 186.555 90.6698 186.555 90.577C186.555 88.3196 185.102 86.0622 182.185 84.3099C182.185 84.7944 182.216 93.9579 177.196 100.514L177.258 100.493Z" fill="#92A7DE"/>
<path d="M177.258 100.494C180.587 102.493 180.474 105.689 177 107.626C173.526 109.564 168.012 109.502 164.682 107.503C161.951 105.854 161.538 103.411 163.394 101.514C163.27 101.267 163.105 100.937 162.982 100.689C161.662 98.2877 164.002 92.4742 169.249 94.3399C170.496 94.7831 172.619 95.9891 172.856 99.0711C174.485 99.2772 176.021 99.7514 177.258 100.494C182.278 93.9379 182.247 84.764 182.247 84.2898C176.248 80.6821 166.321 80.5791 160.075 84.0631C156.859 85.8566 155.24 88.248 155.251 90.6394C155.251 90.8043 155.251 91.0208 155.261 91.196L155.282 91.6804C155.292 91.8557 155.313 92.0928 155.323 92.2783L155.395 92.9586C155.426 93.1957 155.467 93.5152 155.498 93.7523L155.632 94.5975C155.684 94.8862 155.756 95.2675 155.818 95.5562L156.044 96.5148C156.137 96.8446 156.261 97.2879 156.364 97.6177L156.714 98.6382C156.859 99.0092 157.055 99.4937 157.209 99.8545L157.694 100.865C157.92 101.267 158.219 101.803 158.456 102.194L159.075 103.112C159.436 103.565 159.92 104.153 160.302 104.586L161.023 105.297C161.94 106.08 162.157 106.266 163.28 106.987L164.064 107.431C164.332 107.554 164.682 107.73 164.95 107.853L165.703 108.152C165.94 108.235 166.259 108.348 166.496 108.42L167.218 108.616C167.445 108.668 167.733 108.74 167.96 108.781L168.661 108.905C168.878 108.936 169.156 108.966 169.372 108.987L170.063 109.039C170.269 109.039 170.547 109.059 170.754 109.059H171.444C171.65 109.039 171.929 109.028 172.135 109.008L172.836 108.936C173.052 108.905 173.331 108.863 173.547 108.832L174.269 108.688C174.485 108.637 174.784 108.564 175 108.503L175.743 108.276C175.98 108.193 176.289 108.08 176.526 107.987L177.309 107.647C177.567 107.513 177.917 107.348 178.165 107.204L178.989 106.709C179.68 106.225 180.453 105.678 181.34 104.792L182.071 103.998C182.443 103.524 182.927 102.885 183.267 102.39L183.844 101.432C184.061 101.009 184.36 100.452 184.556 100.03L184.978 99.0195C185.112 98.6485 185.298 98.1537 185.421 97.7723L185.71 96.7828C185.793 96.4529 185.906 96.02 185.978 95.6902L186.164 94.7831C186.215 94.5048 186.277 94.1337 186.318 93.8554L186.421 93.0823C186.442 92.8555 186.473 92.5566 186.493 92.3402L186.535 91.7423C186.535 91.5877 186.555 91.3712 186.555 91.2166V90.8558C186.555 90.7734 186.566 90.66 186.566 90.5672C186.566 88.3098 185.112 86.0524 182.195 84.3001C182.195 84.7846 182.226 93.9481 177.206 100.504L177.258 100.494Z" fill="#4367C6"/>
<path d="M177.619 100.019C177.567 100.256 177.742 100.586 177.763 100.833C180.567 102.843 180.288 105.802 177.01 107.636C173.537 109.574 168.022 109.512 164.693 107.513C164.6 107.461 164.518 107.399 164.435 107.348C164.27 107.265 164.054 107.152 163.889 107.08C154.931 101.936 156.302 90.7316 162.374 88.9484C168.156 87.2476 175.99 92.9478 177.629 100.029C182.288 93.5147 182.267 84.7738 182.267 84.2996C176.268 80.6919 166.342 80.5888 160.096 84.0728C156.88 85.8664 155.261 88.2578 155.272 90.6492C155.272 90.8141 155.272 91.0306 155.282 91.2058L155.302 91.6902C155.313 91.8655 155.333 92.1025 155.344 92.2881L155.416 92.9684C155.447 93.2055 155.488 93.525 155.519 93.7621L155.653 94.6073C155.704 94.8959 155.777 95.2773 155.838 95.5659L156.065 96.5246C156.158 96.8544 156.282 97.2976 156.385 97.6275L156.735 98.648C156.88 99.019 157.075 99.5035 157.23 99.8643L157.714 100.874C157.941 101.276 158.24 101.812 158.477 102.204L159.096 103.121C159.456 103.575 159.941 104.163 160.322 104.595L161.044 105.307C161.961 106.09 162.178 106.276 163.301 106.997L164.085 107.44C164.353 107.564 164.703 107.739 164.971 107.863L165.724 108.162C165.961 108.244 166.28 108.358 166.517 108.43L167.239 108.626C167.466 108.677 167.754 108.75 167.981 108.791L168.682 108.914C168.898 108.945 169.177 108.976 169.393 108.997L170.084 109.048C170.29 109.048 170.568 109.069 170.774 109.069H171.465C171.671 109.048 171.949 109.038 172.156 109.018L172.856 108.945C173.073 108.914 173.351 108.873 173.568 108.842L174.289 108.698C174.506 108.646 174.805 108.574 175.021 108.512L175.763 108.286C176 108.203 176.31 108.09 176.547 107.997L177.33 107.657C177.588 107.523 177.938 107.358 178.186 107.214L179.01 106.719C179.701 106.234 180.474 105.688 181.36 104.802L182.092 104.008C182.463 103.534 182.948 102.895 183.288 102.4L183.865 101.441C184.082 101.019 184.38 100.462 184.576 100.04L184.999 99.0293C185.133 98.6583 185.318 98.1635 185.442 97.7821L185.731 96.7925C185.813 96.4627 185.927 96.0298 185.999 95.6999L186.184 94.7928C186.236 94.5145 186.298 94.1435 186.339 93.8652L186.442 93.0921C186.463 92.8653 186.494 92.5664 186.514 92.3499L186.555 91.7521C186.555 91.5975 186.576 91.381 186.576 91.2264V90.8656C186.576 90.7831 186.586 90.6698 186.586 90.577C186.586 88.3196 185.133 86.0622 182.216 84.3099C182.216 84.7841 182.247 93.525 177.577 100.04L177.619 100.019Z" fill="#2952BE"/>
</g>
<mask id="mask11_29_4893" style="mask-type:luminance" maskUnits="userSpaceOnUse" x="180" y="84" width="6" height="14">
<path d="M185.36 91.5776C184.917 93.6907 184.484 95.8141 184.041 97.9272C184.494 95.7316 183.309 93.4433 180.464 91.7322L181.412 84.7539C184.546 86.6402 185.855 89.1656 185.35 91.5776H185.36Z" fill="white"/>
</mask>
<g mask="url(#mask11_29_4893)">
<path d="M185.36 91.5776L184.041 97.9272C184.494 95.7316 183.309 93.4433 180.464 91.7322L181.412 84.7539C184.546 86.6402 185.855 89.1656 185.35 91.5776H185.36Z" fill="#2952BE"/>
</g>
<mask id="mask12_29_4893" style="mask-type:luminance" maskUnits="userSpaceOnUse" x="156" y="82" width="26" height="17">
<path d="M157.879 98.0089C157.426 95.8958 156.972 93.7827 156.529 91.6696C155.983 89.1236 157.446 86.4642 160.889 84.547C166.682 81.3207 175.876 81.4134 181.432 84.7531L180.484 91.7315C175.444 88.701 167.105 88.6185 161.848 91.5459C158.724 93.2879 157.395 95.6999 157.89 98.0089H157.879Z" fill="white"/>
</mask>
<g mask="url(#mask12_29_4893)">
<path d="M181.422 84.7531L180.474 91.7315C175.433 88.701 167.094 88.6185 161.837 91.5459C158.714 93.2879 157.384 95.6999 157.879 98.0089L156.529 91.6696C155.983 89.1236 157.446 86.4642 160.889 84.547C166.682 81.3207 175.876 81.4134 181.432 84.7531H181.422Z" fill="#2952BE"/>
</g>
<path d="M180.463 91.7305C185.504 94.7609 185.329 99.5952 180.082 102.523C174.825 105.45 166.486 105.368 161.446 102.337C156.405 99.3066 156.58 94.4723 161.827 91.5449C167.084 88.6175 175.423 88.7 180.463 91.7305Z" fill="#D6DEF3"/>
<mask id="mask13_29_4893" style="mask-type:luminance" maskUnits="userSpaceOnUse" x="156" y="91" width="30" height="14">
<path d="M156.519 91.6596C156.89 93.4016 158.199 95.0818 160.456 96.4424C166.012 99.7821 175.207 99.8749 181 96.6486C183.515 95.2467 184.978 93.4428 185.36 91.5771C184.917 93.6902 184.484 95.8136 184.04 97.9267C183.69 99.6172 182.371 101.256 180.082 102.524C174.825 105.451 166.486 105.369 161.446 102.338C159.395 101.112 158.209 99.5759 157.879 97.9989C157.426 95.8858 156.972 93.7727 156.529 91.6596H156.519Z" fill="white"/>
</mask>
<g mask="url(#mask13_29_4893)">
<path d="M156.519 91.6596L157.869 97.9989C158.209 99.5759 159.394 101.101 161.435 102.338C166.476 105.369 174.815 105.451 180.072 102.524C182.36 101.246 183.679 99.6172 184.03 97.9267L185.349 91.5771C184.958 93.4428 183.504 95.2467 180.989 96.6486C175.196 99.8749 166.002 99.7821 160.446 96.4424C158.188 95.0818 156.879 93.4016 156.508 91.6596H156.519Z" fill="#2952BE"/>
</g>
<path d="M182.257 84.2889C188.256 87.8966 188.05 93.6483 181.793 97.1323C175.547 100.616 165.62 100.513 159.621 96.9055C153.622 93.2978 153.828 87.5461 160.085 84.0621C166.332 80.5781 176.258 80.6812 182.257 84.2889ZM181.422 84.7527C175.866 81.413 166.672 81.3202 160.879 84.5466C155.086 87.7729 154.9 93.1019 160.456 96.4416C166.012 99.7813 175.207 99.8741 181 96.6478C186.792 93.4215 186.978 88.0924 181.422 84.7527Z" fill="#5676CC"/>
<mask id="mask14_29_4893" style="mask-type:luminance" maskUnits="userSpaceOnUse" x="155" y="90" width="32" height="20">
<path d="M163.301 106.976C162.796 106.657 162.126 106.224 161.673 105.832C160.944 105.2 160.254 104.509 159.601 103.76C159.219 103.327 158.776 102.678 158.467 102.194C158.116 101.627 157.684 100.833 157.395 100.235C156.952 99.3383 156.292 97.6066 155.859 95.679C155.601 94.5039 155.282 92.6795 155.261 90.6489C155.261 92.9062 156.715 95.1636 159.632 96.916C165.631 100.524 175.557 100.627 181.804 97.1427C185.02 95.3492 186.638 92.9578 186.628 90.5664C186.617 92.9887 186.195 94.9781 186.05 95.6275C185.731 97.1427 185.185 98.7919 184.597 100.049C184.339 100.596 184.02 101.286 183.309 102.41C182.958 102.967 182.412 103.647 181.989 104.152C181.628 104.585 181.082 105.121 180.659 105.492C180.216 105.884 179.577 106.347 179.093 106.688C178.216 107.306 176.691 108.007 175.815 108.285C175.073 108.512 174.588 108.667 173.599 108.842C173.052 108.945 172.156 109.048 171.486 109.058C170.795 109.069 169.166 109.1 167.259 108.626C165.291 108.131 163.93 107.389 163.301 106.997V106.976Z" fill="white"/>
</mask>
<g mask="url(#mask14_29_4893)">
<path d="M163.301 106.977C155.942 102.39 155.282 93.3088 155.261 90.6391C155.261 92.8965 156.715 95.1539 159.632 96.9062C165.631 100.514 175.557 100.617 181.804 97.133C185.02 95.3394 186.638 92.948 186.628 90.5566C186.617 93.8139 185.855 101.916 179.103 106.678C175.392 109.286 168.599 110.286 163.312 106.987L163.301 106.977Z" fill="#4367C6"/>
</g>
<path d="M113.783 147.392C111.371 149 109.176 148.464 108.042 146.763C106.908 145.062 107.259 142.836 109.671 141.228C112.083 139.62 115.649 139.238 116.783 140.939C117.917 142.64 116.195 145.784 113.783 147.392Z" fill="white"/>
<path d="M101.971 138.177C99.7234 136.342 97.497 136.651 96.1982 138.239C94.8994 139.816 95.0334 142.073 97.2702 143.908C99.507 145.743 103.022 146.485 104.321 144.898C105.619 143.321 104.207 140.022 101.971 138.177Z" fill="white"/>
<path d="M111.134 137.198C111.134 140.094 109.475 141.62 107.434 141.62C105.393 141.62 103.733 140.094 103.733 137.198C103.733 134.301 105.393 131.116 107.434 131.116C109.475 131.116 111.134 134.291 111.134 137.198Z" fill="white"/>
<path d="M71.0986 131.746L86.5086 140.631L88.0342 119.81L72.6345 110.914L71.0986 131.746Z" fill="#B2C1E8"/>
<path d="M75.3145 106.822L75.7062 106.605L78.3862 107.595L93.7859 116.491L88.0342 119.81L72.6345 110.914L75.3145 106.822Z" fill="#BFCBEC"/>
<path d="M86.5088 140.631L95.3219 135.549L93.786 116.49L88.0343 119.809L86.5088 140.631Z" fill="#D2DBF1"/>
<path d="M90.7247 115.717L91.1061 115.501L93.7861 116.491L88.0344 119.81L90.7247 115.717Z" fill="#D2DBF1"/>
<path d="M90.7556 136.055L91.137 135.838L95.3219 135.55L86.5088 140.631L90.7556 136.055Z" fill="#B2C1E8"/>
<path d="M91.1061 120.572L90.7247 120.799L88.0344 119.809L93.7861 116.49L91.1061 120.572Z" fill="#C7D2EE"/>
<path d="M154.591 74.8365C154.313 74.6818 153.942 74.6921 153.519 74.9292C152.664 75.4034 151.963 76.5888 151.953 77.5783C151.953 78.0834 152.118 78.4338 152.406 78.5988L153.468 79.2172C153.19 79.0523 153.014 78.7018 153.014 78.1968C153.025 77.2072 153.726 76.0219 154.581 75.5477C155.004 75.3106 155.375 75.3003 155.653 75.4549L154.591 74.8365Z" fill="#B0BFE7"/>
<path d="M156.127 74.63C155.735 74.4033 155.189 74.4239 154.591 74.764C153.375 75.4443 152.365 77.1451 152.354 78.5573C152.354 79.2788 152.592 79.7839 153.004 80.021L153.581 80.3508C153.179 80.1138 152.932 79.6087 152.932 78.8871C152.952 77.475 153.952 75.7742 155.169 75.0939C155.766 74.764 156.313 74.7331 156.704 74.9599L156.127 74.63Z" fill="#B0BFE7"/>
<path d="M152.262 79.2584C152.283 77.4236 153.592 75.2178 155.169 74.3313C156.756 73.4448 158.024 74.2179 157.993 76.0527C157.972 77.8875 156.663 80.0933 155.086 80.9798C153.499 81.8662 152.231 81.0932 152.262 79.2584Z" fill="#E3E9F7"/>
<path d="M155.849 76.4241C155.674 76.321 155.426 76.3313 155.148 76.4859C154.591 76.7951 154.127 77.5785 154.117 78.2279C154.117 78.5578 154.231 78.7845 154.416 78.8979L155.375 79.4545C155.189 79.3514 155.076 79.1144 155.076 78.7845C155.076 78.1351 155.54 77.3621 156.107 77.0425C156.385 76.8879 156.632 76.8776 156.808 76.9807L155.849 76.4241Z" fill="#B0BFE7"/>
<path d="M155.086 78.784C155.086 78.1346 155.55 77.3615 156.117 77.042C156.684 76.7224 157.127 77.0007 157.117 77.6501C157.106 78.2995 156.653 79.0726 156.086 79.3921C155.519 79.7117 155.076 79.4334 155.086 78.784Z" fill="#E3E9F7"/>
<path d="M156.241 77.6192C156.179 77.578 156.086 77.5883 155.983 77.6398C155.777 77.7532 155.612 78.0418 155.602 78.2789C155.602 78.4026 155.643 78.485 155.715 78.5263L163.951 83.3091C163.879 83.2678 163.837 83.1854 163.837 83.0617C163.837 82.8246 164.013 82.536 164.219 82.4226C164.322 82.371 164.415 82.3607 164.477 82.402L156.241 77.6192Z" fill="#B0BFE7"/>
<path d="M170.012 90.5671C169.146 90.5671 168.28 90.3712 167.61 89.9795L167.301 89.8043C165.662 88.856 164.466 87.6603 163.847 86.3409L162.147 82.7126L164.332 81.4551L170.022 82.3415C172.197 82.6817 174.196 83.3517 175.794 84.2794L176.103 84.4546C176.846 84.8875 177.258 85.4854 177.258 86.1554C177.258 86.8254 176.856 87.4129 176.114 87.8458L172.393 89.9899C171.723 90.3712 170.867 90.5671 170.012 90.5671ZM163.538 83.1558L164.816 85.8874C165.342 87.0006 166.383 88.0417 167.837 88.8766L168.146 89.0519C169.156 89.6291 170.846 89.6394 171.846 89.0519L175.567 86.9078C175.949 86.6914 176.165 86.4131 176.165 86.1554C176.165 85.8977 175.938 85.6194 175.547 85.3926L175.238 85.2174C173.743 84.3618 171.877 83.7331 169.836 83.4135L164.518 82.5786L163.518 83.1558H163.538Z" fill="#ACBCE6"/>
<path d="M172.722 92.7621C172.331 92.7621 171.918 92.6384 171.496 92.391L171.187 92.2158C169.579 91.2881 168.001 89.8966 166.62 88.1855L163.002 83.7016V81.1762L166.991 80.8361C168.445 80.7124 170.073 81.1453 171.723 82.0936L172.032 82.2689C173.382 83.0419 174.433 84.8664 174.433 86.4126V90.7109C174.433 91.5664 174.114 92.2158 173.547 92.5456C173.3 92.69 173.021 92.7621 172.722 92.7621ZM164.084 83.3203L167.465 87.5052C168.764 89.1132 170.238 90.4223 171.723 91.2778L172.032 91.453C172.423 91.6798 172.774 91.7313 173.001 91.6076C173.227 91.4839 173.351 91.1541 173.351 90.7109V86.4126C173.351 85.2581 172.496 83.7944 171.496 83.2069L171.187 83.0316C169.733 82.1967 168.321 81.805 167.094 81.9081L164.095 82.1658V83.3203H164.084Z" fill="#B6C4E9"/>
<path d="M60.9251 83.6603C60.3582 87.7731 64.1411 92.628 68.6044 93.7L69.0476 91.4941C69.0476 91.4941 62.1002 88.5977 61.9147 81.2998C61.4405 82.3203 60.9251 83.6603 60.9251 83.6603Z" fill="#ABABAB"/>
<defs>
<linearGradient id="paint0_linear_29_4893" x1="141.82" y1="80.9279" x2="134.429" y2="68.136" gradientUnits="userSpaceOnUse">
<stop offset="0.25" stop-color="#DFE5F5"/>
<stop offset="0.62" stop-color="#BDC9EB"/>
</linearGradient>
<linearGradient id="paint1_linear_29_4893" x1="142.201" y1="80.4539" x2="134.976" y2="67.93" gradientUnits="userSpaceOnUse">
<stop offset="0.25" stop-color="#D4DCF2"/>
<stop offset="0.62" stop-color="#B0BFE7"/>
</linearGradient>
<linearGradient id="paint2_linear_29_4893" x1="146.469" y1="86.0403" x2="134.584" y2="65.4558" gradientUnits="userSpaceOnUse">
<stop offset="0.25" stop-color="#E3E9F7"/>
<stop offset="0.89" stop-color="#E1E7F6"/>
</linearGradient>
<linearGradient id="paint3_linear_29_4893" x1="138.305" y1="90.2047" x2="153.89" y2="90.2047" gradientUnits="userSpaceOnUse">
<stop offset="0.38" stop-color="#D4DCF2"/>
<stop offset="0.75" stop-color="#F4F6FC"/>
</linearGradient>
<linearGradient id="paint4_linear_29_4893" x1="138.305" y1="88.4214" x2="155.725" y2="88.4214" gradientUnits="userSpaceOnUse">
<stop offset="0.38" stop-color="#D4DCF2"/>
<stop offset="0.75" stop-color="#F4F6FC"/>
</linearGradient>
<linearGradient id="paint5_linear_29_4893" x1="138.305" y1="86.3299" x2="155.88" y2="86.3299" gradientUnits="userSpaceOnUse">
<stop offset="0.41" stop-color="#E3E9F7"/>
<stop offset="0.58" stop-color="#F2F5FB"/>
</linearGradient>
<linearGradient id="paint6_linear_29_4893" x1="138.305" y1="77.083" x2="155.88" y2="77.083" gradientUnits="userSpaceOnUse">
<stop offset="0.41" stop-color="#E3E9F7"/>
<stop offset="0.58" stop-color="#F2F5FB"/>
</linearGradient>
<linearGradient id="paint7_linear_29_4893" x1="138.305" y1="79.5364" x2="157.828" y2="79.5364" gradientUnits="userSpaceOnUse">
<stop offset="0.41" stop-color="#E3E9F7"/>
<stop offset="0.58" stop-color="white"/>
</linearGradient>
<linearGradient id="paint8_linear_29_4893" x1="138.305" y1="73.9701" x2="157.828" y2="73.9701" gradientUnits="userSpaceOnUse">
<stop offset="0.41" stop-color="#E3E9F7"/>
<stop offset="0.58" stop-color="white"/>
</linearGradient>
</defs>
</svg>
