<svg width="240" height="240" viewBox="0 0 240 240" fill="none" xmlns="http://www.w3.org/2000/svg">
<path d="M138.918 64.4231V64.2269C138.918 63.8799 138.948 63.4272 139.008 62.8538C139.069 62.2804 139.189 61.6466 139.34 60.9676C139.597 59.8812 139.914 58.7344 140.321 57.5423C140.729 56.3653 141.242 55.3241 141.875 54.4791C141.906 54.449 141.906 54.4339 141.936 54.4188C141.966 54.3886 141.966 54.3735 141.996 54.3584C142.117 54.2226 142.268 54.1472 142.434 54.1321C142.6 54.1321 142.751 54.1924 142.871 54.3283C143.128 54.4339 143.354 54.6451 143.565 54.962C143.777 55.2789 143.958 55.6561 144.124 56.0635C144.244 56.3653 144.35 56.6822 144.41 57.0142C144.471 57.3461 144.501 57.6781 144.501 58.0252V58.2817C144.501 58.3722 144.486 58.508 144.44 58.6589C147.172 55.9881 148.56 54.7658 151.276 52.6533V53.0004C148.53 55.128 147.142 56.3653 144.38 59.0663C144.335 59.9566 144.154 60.9525 143.822 62.0842C143.49 63.2159 143.052 64.4231 142.509 65.6906C145.995 62.0842 147.806 60.4697 151.291 57.7837V58.1308C147.7 60.8922 145.859 62.5671 142.268 66.2942C142.056 66.7771 141.83 67.275 141.589 67.8031C141.347 68.3313 141.091 68.8443 140.849 69.3272C141.121 70.2929 141.257 70.7909 141.528 71.7566C145.406 67.6673 147.413 65.8264 151.306 62.8538V63.2461C149.767 64.4231 148.53 65.4794 147.609 66.2791C146.689 67.0939 145.452 68.2105 143.897 69.7195C144.938 68.9499 145.768 68.7689 146.372 69.1008C146.976 69.4328 147.277 70.1571 147.277 71.2284C148.318 70.308 149.662 69.1612 151.291 67.9389V68.3463C149.677 69.5837 148.303 70.7305 147.217 71.6962C147.172 72.7223 146.825 73.8993 146.176 75.2422C145.527 76.5852 144.697 77.9433 143.701 79.3466C143.701 79.422 143.716 79.4673 143.762 79.4522V79.6785C146.764 76.7361 148.303 75.4082 151.291 73.1448C151.291 73.2806 151.291 73.3561 151.291 73.4919C148.349 75.71 146.84 77.0228 143.882 79.9049C143.882 79.8596 143.912 79.9954 143.973 80.3123C144.033 80.6141 144.154 80.9461 144.259 81.2328C144.365 81.5496 144.441 82.0627 144.576 82.6964C144.622 82.8473 144.637 82.9982 144.637 83.134V83.5716C144.637 84.6882 144.305 85.8803 143.671 87.178C143.022 88.4757 142.102 89.7885 140.895 91.1918C140.849 91.2371 140.804 91.2974 140.744 91.3578C140.683 91.4181 140.608 91.5087 140.532 91.5841C139.627 92.5498 138.797 93.2138 138.058 93.5608C137.318 93.8928 136.896 93.6664 136.82 92.8516V92.3688C136.866 91.7652 137.077 91.0107 137.454 90.1054C137.831 89.2 138.284 88.4304 138.827 87.7967C138.873 87.7514 138.903 87.7062 138.948 87.6609C138.993 87.6156 139.023 87.5703 139.069 87.525C139.597 86.9365 140.065 86.6348 140.457 86.6197C140.849 86.6197 141.061 86.846 141.106 87.3138V87.4345C141.106 87.9174 140.97 88.4455 140.698 89.034C140.427 89.6225 140.125 90.1506 139.808 90.6335C139.687 90.8447 139.567 91.0258 139.446 91.1918C139.325 91.3427 139.204 91.4936 139.084 91.6294C139.038 91.6746 139.008 91.7199 138.963 91.7652C138.918 91.7652 138.888 91.7954 138.842 91.8406C138.888 92.0368 139.008 92.0821 139.235 91.9613C139.461 91.8557 139.702 91.6596 139.944 91.4483C140.049 91.3578 140.2 91.2371 140.351 91.1013C140.487 90.9655 140.608 90.8598 140.698 90.7693C140.744 90.724 140.774 90.6938 140.789 90.6637C140.804 90.6486 140.834 90.6033 140.879 90.558C141.905 89.3358 142.675 88.2192 143.188 87.1629C143.686 86.1066 143.958 85.1258 144.003 84.2054C144.003 84.0847 144.003 83.9639 144.003 83.813C144.003 83.6621 143.958 83.5565 143.943 83.4962C143.928 83.4056 143.943 83.2548 143.912 83.134C143.897 83.0133 143.867 82.9228 143.822 82.8473C143.55 81.9571 143.414 81.5195 143.128 80.6594C137.273 86.499 134.331 90.0752 129.351 97.6803V97.3332C133.033 91.7199 135.1 89.034 139.34 84.311C138.148 85.322 137.122 85.9558 136.262 86.1821C135.387 86.4084 134.738 86.2274 134.316 85.6087C132.248 88.2946 131.237 89.6979 129.351 92.5951V92.2028C131.222 89.3358 132.218 87.9476 134.255 85.2918C134.18 85.1711 134.119 84.99 134.089 84.7788C134.044 84.5675 134.014 84.3563 133.968 84.145V83.6923C133.968 83.2095 134.014 82.6813 134.119 82.123C134.21 81.5647 134.346 80.9762 134.497 80.3726C132.354 83.1491 131.313 84.6128 129.351 87.6005V87.2082C131.343 84.145 132.414 82.6663 134.602 79.8294C135.025 78.411 135.583 76.9021 136.247 75.3026C136.926 73.7031 137.62 72.1187 138.359 70.5494C136.368 72.8581 134.844 74.8197 133.727 76.2985C132.58 77.8376 131.101 79.8596 129.396 82.4701C129.381 82.3645 129.366 82.3192 129.336 82.2136C132.807 76.9021 134.738 74.352 138.722 69.7799C138.797 69.6139 138.873 69.4479 138.933 69.3121C138.993 69.1612 139.084 69.0254 139.144 68.9047C139.235 68.7538 139.295 68.5878 139.355 68.4369C139.416 68.286 139.491 68.1502 139.567 68.0295C139.401 67.5768 139.265 67.0638 139.174 66.5205C139.069 65.9773 138.993 65.4039 138.963 64.7853C134.889 69.463 132.882 72.0735 129.336 77.5208V77.1737C132.882 71.7264 134.889 69.1159 138.963 64.4382V64.3477L138.918 64.4231ZM137.032 77.1888C136.549 78.3658 136.156 79.4824 135.87 80.5537C135.568 81.6251 135.402 82.5908 135.372 83.466V83.632C135.372 83.632 135.372 83.6923 135.402 83.7074C135.417 83.7074 135.432 83.7527 135.432 83.7829C136.428 82.5455 136.926 81.9269 137.952 80.7499C137.907 80.6895 137.892 80.599 137.892 80.4783V80.0859C137.892 79.2108 138.193 78.0639 138.797 76.6304C139.401 75.1969 140.11 73.9294 140.895 72.8279C139.34 74.5028 138.556 75.378 137.047 77.2039L137.032 77.1888ZM140.578 78.1998C140.2 78.6072 139.718 79.1353 139.099 79.8294C139.099 80.3274 139.28 80.5688 139.627 80.5537C139.974 80.5537 140.382 80.4028 140.834 80.101C140.91 80.0558 140.97 80.0256 140.985 80.0256C141 80.0256 141.015 80.0558 141.015 80.1312C141.015 80.1765 141 80.2369 140.955 80.3425C140.91 80.4481 140.849 80.5235 140.774 80.5688C140.744 80.599 140.744 80.6141 140.713 80.6292C140.05 81.1422 139.506 81.4289 139.054 81.4893C138.601 81.5345 138.284 81.3837 138.073 81.0064C137.001 82.2438 136.473 82.8775 135.432 84.1903C135.674 85.1862 136.322 85.3975 137.409 84.8693C138.495 84.3563 139.733 83.3302 141.136 81.8514C141.181 81.8062 141.211 81.7609 141.257 81.7156C141.302 81.6704 141.332 81.6251 141.377 81.5798C141.619 81.278 141.875 80.9913 142.117 80.6895C142.358 80.4028 142.6 80.1312 142.796 79.8747C142.479 78.577 142.313 77.9432 141.981 76.6908C141.362 77.3397 140.879 77.8376 140.547 78.1998H140.578ZM140.819 72.4959C140.578 71.6962 140.442 71.3039 140.2 70.5192C140.08 70.7607 139.959 71.0021 139.823 71.2435C139.702 71.4699 139.582 71.7113 139.461 71.9678C139.099 72.677 138.722 73.4164 138.359 74.186C137.997 74.9404 137.65 75.71 137.333 76.4645C138.707 74.8348 139.401 74.0351 140.819 72.5111V72.4959ZM140.517 77.8678C140.849 77.5056 141.302 77.0228 141.875 76.4192C141.679 75.6647 141.574 75.3026 141.377 74.5481C140.834 75.2724 140.351 76.1023 139.899 77.0529C139.446 78.0036 139.189 78.8033 139.099 79.422C139.672 78.7732 140.14 78.2601 140.517 77.8527V77.8678ZM139.838 63.8195C139.793 64.0157 139.778 64.1817 139.778 64.3175V64.6947C139.778 65.1172 139.808 65.5096 139.868 65.8717C139.929 66.2489 140.019 66.5658 140.14 66.8374C140.185 66.762 140.231 66.6563 140.291 66.5205C140.351 66.3998 140.427 66.264 140.502 66.1433C140.955 65.2379 141.392 64.2873 141.83 63.2914C142.268 62.2955 142.63 61.375 142.916 60.4998C141.664 61.7824 141.045 62.4464 139.808 63.8195H139.838ZM143.128 59.9717C143.248 59.5039 143.354 59.0512 143.445 58.6137C143.535 58.1911 143.565 57.8139 143.565 57.497V57.2103C143.565 56.8633 143.46 56.652 143.248 56.5917C143.037 56.5313 142.705 56.7124 142.313 57.15C141.724 57.7988 141.272 58.6589 140.91 59.5945C140.563 60.5451 140.276 61.4354 140.08 62.2804C140.034 62.4766 140.004 62.6727 139.989 62.8387C139.974 63.0198 139.944 63.2008 139.899 63.397C141.181 61.9635 141.83 61.2845 143.128 59.9566V59.9717ZM143.943 74.352C144.486 73.8238 145.044 73.2806 145.633 72.7374C145.421 72.164 144.999 71.9678 144.35 72.1338C143.701 72.2998 142.947 72.8279 142.071 73.7333C142.298 74.5029 142.403 74.8801 142.63 75.6647C142.962 75.3328 143.399 74.8801 143.943 74.352ZM142.811 80.6442C142.811 80.6442 142.917 80.5386 142.992 80.4632V80.3425C142.992 80.3425 142.917 80.4179 142.901 80.4632C142.886 80.5084 142.856 80.5387 142.811 80.5839C142.766 80.6292 142.735 80.6744 142.72 80.7046C142.705 80.7499 142.66 80.78 142.63 80.8253C142.72 80.7348 142.781 80.6745 142.811 80.6292V80.6442ZM144.033 74.6537C143.505 75.1668 143.067 75.6044 142.69 75.9967C142.901 76.5098 143.037 76.9624 143.128 77.3246V77.4453C143.248 77.7773 143.399 78.2752 143.565 78.909C144.184 77.9885 144.712 77.0228 145.135 76.0118C145.557 75.0008 145.768 74.1558 145.768 73.4768V73.1599C145.768 73.1599 145.723 73.0694 145.708 73.0694C145.24 73.2504 144.561 74.1407 144.048 74.6537H144.033Z" fill="black"/>
<path d="M150.914 53.2868V52.9397C155.607 49.2428 157.946 47.8093 162.125 46.2551C162.125 43.2221 162.125 41.683 162.125 38.5443C162.322 38.4689 162.427 38.4387 162.623 38.3633C162.623 38.4387 162.623 38.5142 162.654 38.5896C162.669 38.6651 162.684 38.7405 162.684 38.816C162.759 39.2687 162.865 39.7515 162.986 40.2645C163.106 40.7776 163.393 41.2605 163.831 41.7282C163.936 41.8489 164.042 41.9697 164.147 42.0904C164.253 42.196 164.359 42.3016 164.464 42.3922C164.751 42.6638 165.023 42.9203 165.279 43.1617C165.536 43.3881 165.777 43.6446 165.973 43.9162C166.003 43.9916 166.049 44.052 166.094 44.0973C166.139 44.1425 166.184 44.2029 166.23 44.2783C166.29 44.384 166.381 44.4896 166.456 44.6103C166.547 44.731 166.607 44.8668 166.637 45.0177C168.252 44.6858 169.021 44.5801 170.53 44.4292V44.7914C169.097 44.9423 168.357 45.0328 166.833 45.3346C166.969 45.6666 167.075 45.9986 167.135 46.3607C167.196 46.7228 167.241 47.1001 167.241 47.4773V47.9149C167.241 48.0507 167.211 48.2016 167.195 48.3676C167.15 48.6694 167.12 49.0014 167.075 49.2881C167.029 49.5898 166.969 49.8765 166.894 50.1632C168.388 49.8916 169.112 49.8162 170.53 49.7106V50.0727C169.052 50.1783 168.297 50.2689 166.743 50.5556C166.637 50.963 166.516 51.3402 166.381 51.7024C166.245 52.0645 166.109 52.3814 165.973 52.6832C165.943 52.7737 165.898 52.8642 165.837 52.9699C165.792 53.0755 165.747 53.166 165.702 53.2566C165.596 53.2717 165.551 53.2868 165.445 53.3169C165.521 53.1057 165.596 52.8944 165.671 52.653C165.762 52.4267 165.837 52.1701 165.898 51.9438C165.958 51.7325 166.034 51.5213 166.109 51.2949C166.185 51.0686 166.245 50.8574 166.32 50.6461C164.887 50.9328 164.147 51.0837 162.608 51.6118V56.1387C162.608 56.2292 162.593 56.3348 162.548 56.4103C165.988 55.2182 167.512 55.1126 170.515 54.9919V55.3993C167.482 55.52 165.928 55.6256 162.442 56.8479C162.337 57.1497 162.186 57.4515 162.005 57.7532C161.824 58.055 161.597 58.387 161.326 58.7039C161.114 58.9453 160.858 59.2018 160.586 59.4433C160.315 59.6998 160.043 59.911 159.787 60.1223C159.59 60.2732 159.394 60.4392 159.213 60.575C159.017 60.7108 158.821 60.8315 158.625 60.922C158.006 61.2389 157.478 61.3596 157.055 61.254C156.633 61.1484 156.422 60.8617 156.422 60.3637C156.422 60.243 156.422 60.1223 156.452 60.0016C156.467 59.8808 156.497 59.7601 156.542 59.6545C154.339 60.9673 153.192 61.7519 150.899 63.5476V63.1402C153.268 61.2993 154.445 60.4844 156.723 59.1415C156.844 58.8397 156.995 58.5228 157.206 58.1757C157.402 57.8287 157.659 57.5118 157.855 57.2402C158.051 56.9686 158.278 56.6517 158.534 56.3952C158.791 56.1236 159.047 55.8671 159.319 55.6256C159.515 55.4596 159.711 55.3087 159.892 55.1729C160.088 55.0522 160.269 54.9315 160.466 54.856C160.813 54.7052 161.13 54.5995 161.431 54.5392C161.733 54.4788 161.959 54.5241 162.095 54.6599C162.095 54.0412 162.095 53.5584 162.095 53.2113V51.7627C157.915 53.3019 155.577 54.7353 150.884 58.4021V58.055C155.577 54.3883 157.915 52.9548 162.095 51.4157V46.6021C157.915 48.1563 155.577 49.5898 150.884 53.2868H150.914ZM170.53 60.2581V60.6655C163.785 60.7108 159.696 61.8576 150.914 68.6478V68.2404C159.696 61.4501 163.785 60.3184 170.53 60.2581ZM170.53 65.5997V65.9619C163.785 65.8412 159.696 67.0634 150.914 73.8084V73.4614C159.696 66.7164 163.785 65.5092 170.53 65.6148V65.5997ZM165.611 45.229C165.234 44.7763 164.781 44.4142 164.268 44.1878C163.755 43.9615 163.212 43.9162 162.623 44.0671C162.623 44.8668 162.623 45.2592 162.623 46.0589C163.861 45.6364 164.449 45.4855 165.611 45.2139V45.229ZM162.623 46.421V51.2346C164.208 50.6914 164.962 50.5254 166.426 50.2387C166.456 50.0727 166.501 49.9218 166.532 49.7558C166.562 49.5898 166.592 49.4389 166.637 49.273C166.637 49.1522 166.637 49.0164 166.667 48.8655C166.682 48.7146 166.698 48.5487 166.698 48.3978V48.1111C166.698 47.9903 166.698 47.8847 166.667 47.764C166.652 47.6584 166.622 47.5377 166.592 47.432C166.516 47.1001 166.426 46.7681 166.305 46.4362C166.184 46.1042 166.034 45.8024 165.868 45.5308C164.615 45.8175 163.966 45.9533 162.623 46.421Z" fill="black"/>
<path d="M170.334 44.8073V44.4451C173.85 44.0679 175.464 44.1433 178.799 44.1131C178.86 44.0679 178.92 44.0377 178.98 44.0226C179.041 44.0075 179.101 43.9924 179.161 43.9924C179.222 43.9471 179.282 43.9321 179.342 43.9321C179.403 43.9321 179.463 43.9321 179.523 43.9321C179.584 43.9321 179.659 43.9321 179.735 43.9321C179.81 43.9321 179.901 43.9471 179.991 43.9924C180.052 43.9924 180.127 43.9924 180.202 44.0226C180.278 44.0377 180.353 44.0679 180.414 44.1131C182.858 44.083 184.08 44.0528 186.676 43.751V44.1433C184.277 44.43 183.13 44.4451 180.866 44.4904C181.047 44.7469 181.168 45.0185 181.213 45.3505C181.259 45.6674 181.289 46.0295 181.289 46.4067C181.289 47.1612 181.017 47.8553 180.58 48.4438C180.142 49.0323 179.644 49.4699 179.101 49.7415C182.058 49.8471 183.537 49.9226 186.691 49.6359V50.0282C182.541 50.4054 180.685 50.164 176.792 50.0282V55.1737C180.685 55.4604 182.556 55.8075 186.691 55.5509V56.0187C182.541 56.2752 180.685 55.9282 176.792 55.6113V60.6965C180.685 61.1642 182.556 61.6018 186.691 61.466V61.9338C182.541 62.0696 180.685 61.6169 176.792 61.134V66.2644C176.641 66.2343 176.581 66.2343 176.43 66.2041V61.0888C174.061 60.8021 172.869 60.6663 170.379 60.6965V60.289C172.884 60.2438 174.061 60.3947 176.43 60.6663V55.5962C174.061 55.4151 172.869 55.3246 170.379 55.4302V55.0228C172.884 54.9021 174.061 54.9926 176.43 55.1586V50.0282C174.061 49.9527 172.869 49.9226 170.379 50.1036V49.7566C172.884 49.5604 174.061 49.5906 176.43 49.6661V47.5686C176.43 46.95 176.596 46.3615 176.928 45.8182C177.26 45.2599 177.652 44.8374 178.105 44.5507C175.072 44.5507 173.578 44.5206 170.364 44.8525L170.334 44.8073ZM186.661 67.3509V67.7432C179.84 67.8036 177.109 66.0381 170.334 65.9627V65.6005C177.094 65.6609 179.84 67.4112 186.661 67.3509ZM177.652 46.7689C177.547 46.8745 177.456 46.9801 177.396 47.1008C177.245 47.3423 177.124 47.5837 177.034 47.81C176.943 48.0364 176.898 48.2477 176.898 48.4589V48.5193C176.898 48.6852 176.928 48.7909 176.988 48.8663C177.049 48.9267 177.139 48.987 177.26 49.0323C177.275 49.0323 177.29 49.0323 177.305 49.0323C177.32 49.0323 177.335 49.0323 177.351 49.0323C177.532 49.0323 177.743 48.987 177.984 48.8663C178.226 48.7456 178.467 48.5947 178.709 48.3835C178.829 48.308 178.95 48.2175 179.056 48.1118C179.161 48.0062 179.267 47.9157 179.357 47.8402C179.508 47.6742 179.674 47.4932 179.84 47.2819C180.006 47.0707 180.157 46.8745 180.278 46.7085C180.429 46.4671 180.549 46.1955 180.64 45.939C180.731 45.6824 180.791 45.4561 180.776 45.3052C180.776 45.1845 180.7 45.0789 180.64 44.9883C180.58 44.8978 180.504 44.8676 180.414 44.8676C180.384 44.8676 180.353 44.8676 180.338 44.8676C180.323 44.8676 180.278 44.8676 180.218 44.8676C180.097 44.8676 179.946 44.9129 179.78 45.0034C179.614 45.0939 179.418 45.1694 179.252 45.2599C179.131 45.3203 179.01 45.4259 178.905 45.5165C178.799 45.607 178.694 45.7428 178.603 45.8333C178.497 45.9239 178.316 46.0144 178.211 46.1502C178.105 46.2709 177.984 46.3765 177.909 46.4671C177.818 46.5727 177.713 46.7085 177.607 46.8142L177.652 46.7689Z" fill="black"/>
<path d="M206.307 38.0176V38.4099C200.679 40.96 197.842 41.639 193.014 42.8764V48.4293C197.842 47.1769 200.679 46.4375 206.307 43.7817V44.1741C200.679 46.8449 197.842 47.5692 193.014 48.8367C193.014 51.085 193.014 52.2017 193.014 54.4651C197.842 53.1674 200.679 52.3827 206.307 49.6063V50.059C197.42 54.4651 193.255 55.6571 186.45 56.0193V55.5515C188.773 55.4157 189.95 55.2648 192.531 54.5858V48.9574C189.966 49.6214 188.773 49.8326 186.45 50.0288V49.6364C188.773 49.4403 189.95 49.2139 192.531 48.55C192.531 46.3017 192.531 45.1851 192.531 42.982C189.966 43.6308 188.773 43.8874 186.45 44.159V43.7666C188.773 43.495 189.95 43.2385 192.531 42.5897V37.2329C191.927 37.3838 191.64 37.4743 191.052 37.6101V37.1575C191.64 37.0217 191.927 36.9311 192.531 36.7802V35.1958C192.531 34.6828 192.651 34.1848 192.908 33.6567C193.164 33.1286 193.481 32.691 193.828 32.2987C194.115 31.9818 194.432 31.68 194.779 31.4084C195.111 31.1368 195.458 30.9104 195.805 30.7294C195.926 30.6992 196.032 30.6539 196.152 30.6086C196.273 30.5634 196.379 30.5181 196.499 30.4879C197.118 30.3219 197.631 30.3521 198.023 30.6086C198.416 30.8652 198.612 31.2726 198.612 31.8611C198.612 31.9516 198.612 32.027 198.582 32.1176C198.567 32.2081 198.551 32.2987 198.551 32.3741C198.476 32.7664 198.31 33.1738 198.084 33.5813C197.842 33.9887 197.571 34.381 197.254 34.7733C197.058 34.9997 196.861 35.2109 196.635 35.392C196.424 35.5731 196.228 35.7391 196.031 35.8749C198.159 35.2864 199.291 34.9695 201.569 34.1848V34.6375C197.963 35.8749 196.197 36.3125 193.014 37.1122V42.469C197.842 41.2467 200.679 40.5677 206.307 38.0176ZM206.307 55.3855V55.8382C197.42 60.4254 193.255 61.7382 186.45 61.9042V61.4364C193.24 61.2553 197.42 59.9426 206.307 55.3704V55.3855ZM206.307 61.195V61.5722C197.42 66.3254 193.255 67.7287 186.45 67.7438V67.3515C193.24 67.3515 197.42 65.9331 206.307 61.195Z" fill="black"/>
<path d="M206.051 38.5148V38.1224C215.452 34.3048 221.11 27.6202 227.372 20V20.3621C224.098 25.3417 222.272 27.3184 218.5 30.6079V30.789C218.545 31.1662 218.605 31.5585 218.711 31.9659C218.817 32.3733 219.013 32.6902 219.284 32.9317C219.36 32.9769 219.45 33.0222 219.526 33.0524C219.601 33.0826 219.692 33.1429 219.767 33.158C219.858 33.1882 219.994 33.1882 220.099 33.2184C220.205 33.2485 220.356 33.2033 220.431 33.2184C220.492 33.2184 220.597 33.2938 220.703 33.324C220.808 33.3542 220.914 33.3542 221.035 33.3693C223.706 30.6381 224.988 29.0688 227.372 25.4473V25.8094C225.124 29.2498 223.902 30.7437 221.397 33.3693C221.548 33.3693 221.699 33.3843 221.835 33.4296C221.97 33.4598 222.106 33.5051 222.212 33.5352C222.634 33.5956 222.996 33.8068 223.253 34.1841C223.525 34.5613 223.66 35.1046 223.66 35.7987V35.9194C225.199 34.0634 225.939 33.0524 227.372 30.8795V31.302C225.954 33.49 225.199 34.4859 223.66 36.357C223.615 37.1416 223.494 38.0319 223.253 39.0278C223.027 40.0237 222.77 40.9593 222.499 41.8495C222.423 42.1061 222.348 42.3626 222.257 42.604C222.182 42.8605 222.106 43.0869 222.016 43.2981C224.249 40.8084 225.335 39.4201 227.342 36.3117V36.7342C224.053 41.8043 222.197 43.8715 218.409 47.3874V49.0623C218.409 49.5602 218.289 50.1337 218.047 50.7976C217.806 51.4615 217.459 52.1556 217.006 52.8799C216.764 53.3024 216.493 53.7249 216.206 54.1323C215.919 54.5398 215.603 54.9321 215.271 55.2791C220.431 51.1144 222.981 48.5342 227.357 41.7892V42.1513C221.08 50.0733 215.301 57.1352 206.036 61.7073V61.33C208.827 59.8513 210.261 58.9911 213.068 56.9541C212.645 57.0899 212.313 57.0899 212.087 56.9541C211.86 56.8183 211.74 56.5467 211.74 56.1242C211.74 55.6564 211.891 55.0981 212.177 54.4341C212.479 53.7702 212.826 53.1364 213.249 52.5329C213.505 52.1405 213.762 51.7633 214.033 51.3861C214.305 51.0088 214.592 50.6769 214.878 50.36C213.037 51.7935 211.559 52.7592 210.457 53.4533C209.356 54.1474 207.892 55.0075 206.081 55.9431C206.051 55.7771 206.051 55.6866 206.021 55.5206C210.759 53.1063 213.234 51.5973 217.851 47.4477V42.3324C213.234 46.4066 210.759 47.8702 206.021 50.1789V49.7262C210.759 47.4175 213.234 45.9539 217.851 41.8948V36.704C213.234 40.6876 210.759 42.091 206.021 44.3091V43.9168C210.759 41.6986 213.234 40.3104 217.851 36.3268V31.1662C213.234 35.0593 210.759 36.4173 206.021 38.5299L206.051 38.5148ZM222.981 36.7191V36.538C222.785 35.6628 222.272 35.2253 221.427 35.18C220.582 35.1347 219.647 35.4969 218.621 36.2966C218.575 36.3268 218.545 36.357 218.53 36.372C218.515 36.3871 218.485 36.4173 218.439 36.4475V41.3818C220.295 39.6917 221.216 38.7713 222.981 36.7191ZM218.439 41.8193C218.439 43.8715 218.439 44.8825 218.439 46.9347C219.767 45.7124 220.416 45.0636 221.684 43.6603C221.759 43.4037 221.835 43.1623 221.925 42.9058C222.001 42.6493 222.076 42.4078 222.166 42.1513C222.363 41.3968 222.559 40.582 222.755 39.7068C222.951 38.8316 223.042 38.0319 223.042 37.3378V37.0964C221.261 39.1787 220.326 40.1142 218.455 41.8193H218.439Z" fill="black"/>
<path opacity="0.2" d="M54.4015 213.371C68.2536 221.368 90.7671 221.323 104.695 213.28C118.622 205.238 118.698 192.231 104.861 184.248C91.0085 176.251 68.495 176.296 54.5674 184.339C40.6398 192.381 40.5644 205.389 54.4015 213.371Z" fill="#E3E3E3"/>
<path d="M46.4646 186.391C46.4646 187.266 45.7555 187.975 44.8803 187.975C44.0051 187.975 43.2959 187.266 43.2959 186.391C43.2959 185.516 44.0051 184.807 44.8803 184.807C45.7555 184.807 46.4646 185.516 46.4646 186.391Z" fill="#202020"/>
<path d="M53.2247 210.096C53.2247 210.971 52.5155 211.68 51.6403 211.68C50.7651 211.68 50.0559 210.971 50.0559 210.096C50.0559 209.221 50.7651 208.512 51.6403 208.512C52.5155 208.512 53.2247 209.221 53.2247 210.096Z" fill="#202020"/>
<path d="M94.3736 214.14C94.3736 215.015 93.6644 215.724 92.7892 215.724C91.914 215.724 91.2048 215.015 91.2048 214.14C91.2048 213.265 91.914 212.556 92.7892 212.556C93.6644 212.556 94.3736 213.265 94.3736 214.14Z" fill="#202020"/>
<path d="M112.949 192.488C112.949 193.363 112.24 194.072 111.364 194.072C110.489 194.072 109.78 193.363 109.78 192.488C109.78 191.613 110.489 190.903 111.364 190.903C112.24 190.903 112.949 191.613 112.949 192.488Z" fill="#202020"/>
<path d="M83.7054 175.662C83.7054 176.537 82.9962 177.246 82.121 177.246C81.2458 177.246 80.5366 176.537 80.5366 175.662C80.5366 174.786 81.2458 174.077 82.121 174.077C82.9962 174.077 83.7054 174.786 83.7054 175.662Z" fill="#202020"/>
<path d="M51.1424 209.705L50.2672 209.192L49.573 208.754V207.517L72.2826 192.322L42.8733 185.094V183.857L74.4405 189.923L83.0414 172.087V173.324L82.966 173.943L79.1785 190.375H112.873V191.628L79.933 195.053L94.1623 211.712V212.949L92.1555 213.523L91.5821 212.994L75.6778 196.306L51.1424 209.72V209.705Z" fill="#ACACAC"/>
<path d="M51.1424 208.467L50.2672 207.954L49.573 207.516L50.2521 207.064L72.2826 189.816L42.8733 183.856L43.9296 182.679L74.4405 187.357L80.8233 171.875L83.0565 172.086L82.9811 172.705L79.1936 187.794L112.526 189.062L112.888 190.375L79.9481 190.526L94.1774 211.681L92.1706 212.254L91.5972 211.726L75.6929 191.763L51.1574 208.452L51.1424 208.467Z" fill="#CECECE"/>
<path d="M91.7932 211.274L75.7531 191.13L51.1422 207.864L50.4179 207.442L50.1312 207.26L50.4179 207.079L72.9918 189.41L43.4617 183.419L44.0653 182.77L74.6365 187.448L81.0194 171.951L82.7094 172.117L82.6792 172.419L78.8012 187.84L112.285 189.123L112.481 189.832L79.3746 189.983L93.6944 211.274L92.2459 211.682L91.7932 211.274Z" fill="#DFDFDF"/>
<path d="M80.4611 189.711V173.671H72.2524V189.711C72.2524 190.315 72.6598 190.918 73.4596 191.386C75.0742 192.321 77.6695 192.321 79.269 191.386C80.0687 190.918 80.4611 190.315 80.4611 189.711Z" fill="url(#paint0_linear_29_3628)"/>
<path d="M79.2691 175.346C77.6696 176.266 75.0742 176.266 73.4597 175.346C71.8451 174.41 71.8451 172.916 73.4446 171.996C75.044 171.076 77.6395 171.076 79.254 171.996C80.8686 172.932 80.8685 174.425 79.2691 175.346Z" fill="#A9A9A9"/>
<path d="M79.3448 173.324V151.354H73.3694V173.324C73.3694 173.761 73.6712 174.199 74.2446 174.546C75.4216 175.225 77.3077 175.225 78.4696 174.546C79.0581 174.214 79.3448 173.761 79.3448 173.324Z" fill="url(#paint1_linear_29_3628)"/>
<path d="M78.1827 157.254C77.1868 157.827 75.5571 157.827 74.5461 157.254C73.5351 156.666 73.5351 155.73 74.5461 155.157C75.542 154.583 77.1717 154.583 78.1827 155.157C79.1937 155.745 79.1937 156.681 78.1827 157.254Z" fill="#464646"/>
<path d="M47.3096 132.899H105.117V141.908C105.163 146.193 102.371 150.479 96.7275 153.753C85.4708 160.242 67.1673 160.211 55.8503 153.678C50.2068 150.418 47.3699 146.163 47.3247 141.908V132.899H47.3096Z" fill="#666675"/>
<path d="M96.7123 144.729C85.4556 151.232 67.1521 151.187 55.835 144.653C44.5028 138.12 44.4575 127.557 55.6992 121.054C66.9559 114.55 85.2594 114.595 96.5765 121.129C107.894 127.663 107.954 138.225 96.7123 144.729Z" fill="#747484"/>
<path d="M95.7919 143.446C85.0482 149.647 67.5746 149.617 56.7554 143.37C45.9363 137.123 45.891 127.043 56.6347 120.842C67.3784 114.64 84.852 114.67 95.6711 120.917C106.49 127.164 106.536 137.244 95.7919 143.446Z" fill="#87879B"/>
<path d="M115.212 67.2295C116.163 68.4065 124.794 78.607 123.647 81.4287C122.5 84.2504 120.554 84.2806 118.486 85.4274C116.419 86.5591 110.474 80.0253 108.95 77.1734C107.426 74.3215 115.212 67.2446 115.212 67.2446V67.2295Z" fill="#FFA496"/>
<path d="M101.813 52.0186C103.85 52.6825 118.291 68.4057 119.045 69.6129C119.8 70.82 117.823 77.4292 114.367 78.8325C110.912 80.2359 109.69 79.7982 108.935 79.2399C108.181 78.6816 98.3573 67.3495 97.12 64.6937C95.8827 62.038 91.3709 48.6385 101.813 52.0186Z" fill="#E5F0FF"/>
<path d="M100.802 195.897C100.078 195.324 97.3615 196.335 96.9088 196.652C96.4712 196.969 95.8374 200.832 95.9581 202.024C96.0788 203.216 99.8814 206.309 100.787 207.003C101.692 207.697 102.582 207.26 103.02 208.588C103.458 209.915 107.879 215.8 110.218 218.381C112.557 220.961 122.018 219.95 124.236 218.818C126.454 217.687 125.503 215.287 125.503 214.714C125.503 214.141 119.905 208.256 119.905 208.256L100.802 195.897Z" fill="#2D3240"/>
<path d="M114.473 195.46C115.182 197.044 122.365 208.21 123.617 210.987C124.885 213.763 124.885 215.785 124.885 216.042C124.885 216.298 124.628 217.491 121.852 218.185C119.075 218.879 114.714 217.611 113.704 216.796C112.693 215.982 105.631 208.98 103.986 206.928C102.341 204.876 97.7993 200.741 97.9954 197.723C98.1916 194.705 101.406 191.808 101.587 190.284C101.783 188.775 103.986 185.742 104.62 185.682C105.253 185.622 114.458 195.46 114.458 195.46H114.473Z" fill="#40485C"/>
<path d="M89.741 114.188C90.9029 116.451 90.5257 120.525 90.8124 122.034C91.0991 123.543 103.216 131.586 107.758 138.119C112.3 144.653 117.038 148.908 110.881 153.827C104.725 158.747 82.5736 146.826 73.1125 143.325C63.6514 139.824 56.8611 131.963 57.1176 119.786C57.3591 107.608 61.5237 104.696 62.0217 104.515C62.5197 104.334 89.7561 114.188 89.7561 114.188H89.741Z" fill="#1D274D"/>
<path d="M98.8403 150.236C98.8403 150.9 100.923 162.353 99.8815 167.846C98.8403 173.338 98.946 188.579 99.5043 191.793C100.063 195.007 101.873 195.867 101.873 195.867C101.873 195.867 115.454 199.172 116.193 196.953C116.933 194.735 123.844 145.891 123.074 140.685C122.304 135.479 110.293 134.061 110.293 134.061L98.8403 150.252V150.236Z" fill="#1D274D"/>
<path d="M96.9995 103.881C97.5729 104.198 121.007 119.514 124.387 122.819C127.767 126.123 126.545 133.789 122.048 136.882C117.536 139.975 111.018 141.167 106.008 135.992C100.998 130.816 89.1379 122.2 86.1502 118.352C83.1625 114.504 85.6673 103.368 86.8141 102.719C87.9609 102.086 96.9995 103.881 96.9995 103.881Z" fill="#202A54"/>
<path d="M116.495 197.165C115.741 198.025 116.42 200.605 116.736 201.465C117.053 202.325 118.97 204.438 120.539 204.981C122.093 205.524 124.613 204.755 125.79 205.072C126.967 205.389 133.335 208.95 136.232 210.172C139.129 211.394 144.773 210.413 147.896 208.15C151.02 205.886 150.597 204.378 150.597 203.261C150.597 202.144 147.972 199.881 147.262 199.443C146.553 199.006 133.38 196.772 133.38 196.772L116.495 197.165Z" fill="#2D3240"/>
<path d="M116.118 194.795C116.118 194.795 114.654 198.477 117.068 200.318C119.483 202.174 123.195 201.224 125.669 202.733C128.144 204.241 134.648 207.501 138.661 209.025C142.675 210.549 148.937 206.143 149.782 203.698C150.627 201.254 148.107 197.149 148.107 197.149C148.107 197.149 132.067 188.684 129.2 187.055C126.333 185.425 121.429 182.618 121.067 182.181C120.72 181.743 116.118 194.795 116.118 194.795Z" fill="#40485C"/>
<path d="M119.347 122.442C120.343 122.668 123.346 121.37 125.307 124.026C127.269 126.682 133.456 182.995 133.38 189.333C128.385 192.306 117.129 194.041 115.695 189.771C114.277 185.485 107.547 151.081 106.928 142.073C106.31 133.064 106.083 126.395 106.279 125.595C106.476 124.795 119.332 122.442 119.332 122.442H119.347Z" fill="#202A54"/>
<path d="M88.9568 52.4865C97.6634 54.0559 98.78 50.2684 99.625 52.23C104.484 63.5622 101.285 75.2716 100.41 80.1606C99.5344 85.0496 99.3835 89.2897 99.2779 92.1718C99.1723 95.0539 100.123 101.844 99.9268 105.3C99.7306 108.755 95.8527 112.92 87.7194 114.67C79.5711 116.421 66.6545 121.008 61.5392 121.159C56.4238 121.294 57.0425 121.913 56.8464 121.159C56.6502 120.404 55.2771 105.632 55.3827 99.0979C55.4733 92.5641 56.5597 61.6006 58.3101 58.4318C60.0605 55.263 80.5218 49.0612 81.231 48.7745C81.9402 48.4878 88.9417 52.4715 88.9417 52.4715L88.9568 52.4865Z" fill="#DCE7F5"/>
<path d="M88.7606 58.8846C88.0062 60.8764 87.3422 63.004 81.6082 62.7626C75.8742 62.5211 70.7287 56.2741 71.9962 53.7239C73.2788 51.1738 75.6931 51.038 77.021 48.7897C78.3489 46.5263 77.5491 39.6757 79.8578 37.5933C82.1816 35.511 91.0693 46.0132 91.4013 50.4646C91.7333 54.916 88.7455 58.8846 88.7455 58.8846H88.7606Z" fill="#FFA496"/>
<path d="M82.3623 42.6036C80.5818 46.7683 77.5337 52.0647 77.5337 54.4489C77.5337 56.833 83.0263 64.257 84.2485 65.3736C85.4708 66.4902 88.2623 65.9772 89.1224 65.3736C89.9825 64.77 93.5888 61.8879 96.1389 58.6135C98.689 55.3391 100.409 55.0072 102.19 49.922C103.97 44.8369 103.925 40.5213 102.19 38.3333C100.455 36.1453 89.5298 33.9574 87.5531 35.587C85.5764 37.2167 82.3623 42.6036 82.3623 42.6036Z" fill="#FFA496"/>
<path d="M100.455 49.4693C93.0459 50.5406 88.1267 46.723 88.1267 46.723C88.1267 46.723 87.2364 48.6846 86.1047 49.0015C84.9881 49.3184 83.3585 49.0618 82.9058 49.5749C82.4531 50.0879 80.9291 50.9028 80.9291 50.9028L79.8577 49.2731C79.8577 49.2731 81.276 45.6064 80.6725 44.5501C80.0689 43.4788 78.8467 42.9204 78.4846 44.037C78.1224 45.1537 78.2129 48.081 76.206 48.5488C75.6779 41.2908 76.3116 39.7667 76.8247 37.0054C77.3528 34.244 79.1334 30.9394 82.8001 28.51C86.4669 26.0806 96.1392 24.8282 100.485 27.8913C104.831 30.9545 105.344 35.0136 105.615 38.3634C105.887 41.7133 105.419 45.7573 104.71 47.0248C104.001 48.2923 102.507 48.911 102.507 48.911L100.44 49.4843L100.455 49.4693Z" fill="#2C3240"/>
<path d="M79.6612 46.5713C79.9178 45.9677 81.0797 43.9306 79.2991 42.9649C77.5186 41.9992 76.5076 42.467 76.2963 44.3833C76.0851 46.3148 75.572 48.4726 76.8244 49.8306C78.0768 51.1887 78.9672 49.1968 78.9672 49.1968L79.6612 46.5562V46.5713Z" fill="#FFA496"/>
<path d="M62.2183 81.2928C61.5393 86.1969 56.6654 94.7224 55.5488 97.9063C54.4322 101.09 43.6281 100.653 44.458 95.4467C45.2879 90.2559 48.5925 86.4383 50.1166 81.0061C51.6406 75.5588 62.2334 81.2928 62.2334 81.2928H62.2183Z" fill="#FFA496"/>
<path d="M50.0258 95.4466C53.1946 96.8348 54.5225 96.9103 55.5184 99.9433C56.5143 102.976 57.4045 112.12 57.6762 116.572C57.9478 121.023 53.1645 121.37 51.5046 121.174C49.8448 120.978 43.477 105.179 43.8995 100.004C44.322 94.828 44.2617 95.0543 45.5443 94.496C46.8118 93.9377 50.0258 95.4617 50.0258 95.4617V95.4466Z" fill="#FFA496"/>
<path d="M59.5929 57.482C65.1005 57.0745 67.2432 66.1886 66.4888 71.3341C65.7192 76.4645 62.9729 88.8227 61.7809 88.9887C54.387 90.0601 51.9124 87.9174 49.9055 86.6499C46.8272 84.7033 47.3251 82.5304 47.974 80.3576C48.3663 79.0297 55.8356 57.663 59.5929 57.482Z" fill="#E5F0FF"/>
<path d="M87.1606 104.137C87.1606 107.714 89.6806 109.162 92.8041 107.351C95.9276 105.556 98.4475 101.195 98.4475 97.6188C98.4475 94.0426 95.9276 92.594 92.8041 94.4047C89.6806 96.2154 87.1606 100.561 87.1606 104.137Z" fill="#3E3028"/>
<path d="M104.287 91.6449C104.031 91.7958 103.804 92.1579 103.774 92.4899L103.593 94.0441L103.548 94.527L103.442 95.372L103.397 95.8548L103.291 96.7149L103.246 97.1978L103.14 98.0428L103.08 98.5256L102.899 100.08C102.854 100.442 103.05 100.653 103.337 100.533L103.608 100.427C103.608 100.427 103.653 100.412 103.684 100.397C103.94 100.246 104.167 99.8837 104.212 99.5517L105.072 91.9617C105.117 91.5845 104.921 91.3732 104.634 91.494L104.363 91.6147C104.363 91.6147 104.317 91.6298 104.287 91.6449Z" fill="#685143"/>
<path d="M98.7947 99.0387C98.7343 99.3405 98.6589 99.6272 98.5835 99.9441L103.156 98.0579L103.261 97.2129L98.8098 99.0538L98.7947 99.0387Z" fill="#F76706"/>
<path d="M98.1763 99.279C98.116 99.5807 98.0405 99.8825 97.95 100.184L98.5687 99.9278C98.6592 99.626 98.7195 99.3243 98.7799 99.0225L98.1763 99.2639V99.279Z" fill="#685143"/>
<path d="M98.9758 97.695C98.9758 97.8308 98.9457 97.9666 98.9457 98.1024C98.9306 98.2533 98.9003 98.3891 98.8853 98.54L103.306 96.7293L103.412 95.8691L98.9909 97.695H98.9758Z" fill="#F76706"/>
<path d="M98.3723 97.9362C98.3723 98.072 98.3421 98.2078 98.3421 98.3436C98.327 98.4945 98.2968 98.6454 98.2817 98.7812L98.8853 98.5247C98.9154 98.3738 98.9306 98.238 98.9457 98.0871C98.9457 97.9513 98.9758 97.8155 98.9758 97.6797L98.3723 97.9211V97.9362Z" fill="#685143"/>
<path d="M98.9758 96.4121C98.9909 96.6083 98.9909 96.8044 99.006 97.0006C99.006 97.076 99.006 97.1364 99.006 97.2118L103.457 95.386L103.563 94.541L98.9909 96.4272L98.9758 96.4121Z" fill="#F76706"/>
<path d="M96.9386 99.7914C96.8631 100.108 96.7726 100.41 96.667 100.712L97.9647 100.184C98.0552 99.8819 98.1307 99.5801 98.191 99.2783L96.9537 99.7914H96.9386Z" fill="#F76706"/>
<path d="M98.3574 96.6686C98.3725 96.8949 98.3876 97.1213 98.3876 97.3628C98.3876 97.3929 98.3876 97.4382 98.3876 97.4684L98.9911 97.2118C98.9911 97.2118 98.9911 97.076 98.9911 97.0006C98.9911 96.7893 98.9912 96.5932 98.961 96.4121L98.3423 96.6686H98.3574Z" fill="#685143"/>
<path d="M97.135 98.4491C97.135 98.585 97.1198 98.7208 97.1048 98.8717C97.1048 99.0075 97.0595 99.1583 97.0444 99.3092L98.2818 98.7962C98.312 98.6604 98.327 98.5095 98.3421 98.3586C98.3421 98.2228 98.3723 98.087 98.3723 97.9512L97.135 98.4642V98.4491Z" fill="#F76706"/>
<path d="M97.0596 97.1971C97.1048 97.4385 97.135 97.6951 97.135 97.9818L98.3875 97.4687C98.3875 97.4687 98.3875 97.3933 98.3875 97.3631C98.3875 97.1217 98.3874 96.8953 98.3572 96.6689L97.0596 97.1971Z" fill="#F76706"/>
<path d="M87.825 104.818C88.2475 107.187 89.9827 108.303 92.2763 107.353C92.5177 107.247 92.7592 107.126 93.0006 106.991C95.0226 105.829 96.8484 103.369 97.7689 100.729L96.441 101.272C95.6865 103.067 94.404 104.667 93.0157 105.482C92.8347 105.587 92.6385 105.678 92.4574 105.753C90.8579 106.417 89.6055 105.753 89.1528 104.275L87.825 104.818Z" fill="#F76706"/>
<path d="M93.1059 94.0582C93.1059 94.0582 92.9852 94.1337 92.9098 94.1789C90.9632 95.3861 89.2128 97.7702 88.3225 100.351L89.6504 99.8073C89.8164 99.415 89.9974 99.0226 90.2087 98.6605C90.9028 97.4533 91.8233 96.3971 92.8192 95.7482C92.9098 95.6879 93.0003 95.6426 93.0757 95.5823C93.2568 95.4767 93.453 95.3861 93.634 95.3106C95.2486 94.6467 96.501 95.3107 96.9386 96.8045L98.2665 96.2613C97.8591 93.8771 96.1087 92.7756 93.8151 93.7263C93.5888 93.8168 93.3624 93.9375 93.1361 94.0582C93.1361 94.0582 93.1059 94.0733 93.0908 94.0884L93.1059 94.0582Z" fill="#F76706"/>
<path d="M87.1909 105.088C87.5832 107.895 89.56 109.223 92.2006 108.136C92.4722 108.031 92.7439 107.895 93.0004 107.744C95.3242 106.401 97.4367 103.519 98.4175 100.471L97.7837 100.742C96.8633 103.383 95.0375 105.843 93.0155 107.004C92.7741 107.14 92.5326 107.261 92.2912 107.367C89.9976 108.317 88.2472 107.201 87.8398 104.832L87.206 105.088H87.1909Z" fill="#685143"/>
<path d="M87.7343 103.595C87.7343 103.595 87.7343 103.67 87.7343 103.7C87.7343 103.942 87.7494 104.168 87.7645 104.394L89.0471 103.866C89.0018 103.625 88.9716 103.368 88.9716 103.097L87.7192 103.61L87.7343 103.595Z" fill="#F76706"/>
<path d="M87.1157 103.837C87.1157 104.123 87.1157 104.38 87.1308 104.636L87.7495 104.38C87.7344 104.153 87.7193 103.927 87.7193 103.686C87.7193 103.656 87.7193 103.61 87.7193 103.58L87.1157 103.822V103.837Z" fill="#685143"/>
<path d="M87.8398 102.267C87.8247 102.403 87.7946 102.539 87.7795 102.689C87.7795 102.825 87.7493 102.976 87.7493 103.112L88.9866 102.599C88.9866 102.463 89.0017 102.327 89.0168 102.176C89.0168 102.041 89.0621 101.89 89.0771 101.754L87.8398 102.267Z" fill="#F76706"/>
<path d="M87.2365 102.523C87.2214 102.659 87.1913 102.795 87.1762 102.946C87.1762 103.081 87.146 103.232 87.146 103.368L87.7495 103.112C87.7495 102.976 87.7797 102.825 87.7797 102.689C87.7948 102.538 87.825 102.402 87.8401 102.267L87.2365 102.508V102.523Z" fill="#685143"/>
<path d="M88.157 100.863C88.0664 101.165 87.991 101.467 87.9307 101.768L89.1679 101.255C89.2434 100.954 89.334 100.637 89.4396 100.335L88.157 100.863Z" fill="#F76706"/>
<path d="M87.5382 101.119C87.4627 101.421 87.3873 101.708 87.3269 102.01L87.9305 101.753C87.9909 101.451 88.0663 101.149 88.1568 100.848L87.5382 101.104V101.119Z" fill="#685143"/>
<path d="M93.1212 93.3044C90.7974 94.6474 88.6849 97.5294 87.7041 100.593L88.3378 100.336C89.2281 97.7709 90.9785 95.3868 92.9251 94.1645C92.9854 94.1192 93.0457 94.089 93.1212 94.0438C93.1212 94.0438 93.1514 94.0287 93.1665 94.0136C93.3928 93.8778 93.6192 93.7722 93.8455 93.6816C96.1542 92.731 97.8895 93.8476 98.2969 96.2167L98.9307 95.9451C98.5383 93.1535 96.5616 91.7955 93.921 92.8819C93.6493 92.9875 93.3777 93.1233 93.1212 93.2742V93.3044Z" fill="#685143"/>
<path d="M82.8301 106.416L87.1456 104.636C87.1306 104.379 87.1154 104.123 87.1305 103.836L82.9356 105.571L82.8904 105.933L82.8301 106.416Z" fill="#F76706"/>
<path d="M83.0715 104.229L82.981 105.074L87.1457 103.368C87.1457 103.233 87.1759 103.082 87.1759 102.946C87.191 102.795 87.2211 102.659 87.2362 102.523L83.0715 104.229Z" fill="#F76706"/>
<path d="M74.7273 111.563L67.258 107.217C67.8918 107.579 67.9974 108.696 65.7491 115.863C65.0248 118.157 65.3416 119.469 66.1866 119.952L73.6559 124.298C72.8109 123.8 72.4941 122.502 73.2184 120.209C75.4667 113.041 75.346 111.925 74.7273 111.563Z" fill="#BE5005"/>
<path d="M27.2709 129.248C27.0898 129.353 26.9389 129.595 26.9087 129.836C26.8786 130.093 27.0143 130.229 27.2105 130.153C27.2255 130.153 27.2407 130.138 27.2558 130.123C27.3614 130.063 27.467 129.942 27.5425 129.806C27.5877 129.716 27.6028 129.64 27.6179 129.549C27.6179 129.519 27.6179 129.504 27.6179 129.489C27.6179 129.429 27.6179 129.368 27.5877 129.338C27.5424 129.233 27.4368 129.187 27.301 129.248C27.2859 129.248 27.2709 129.263 27.2558 129.278L27.2709 129.248Z" fill="#C8BC94"/>
<path d="M25.2789 128.794C25.0979 128.9 24.947 129.141 24.9168 129.383C24.8866 129.639 25.0224 129.775 25.2185 129.699C25.2336 129.699 25.2487 129.684 25.2638 129.669C25.3695 129.609 25.4751 129.488 25.5505 129.352C25.5958 129.262 25.626 129.171 25.626 129.081C25.626 129.066 25.626 129.035 25.626 129.02C25.626 128.96 25.6259 128.9 25.5957 128.87C25.5505 128.764 25.4449 128.719 25.3091 128.779C25.294 128.779 25.2789 128.779 25.2638 128.809L25.2789 128.794Z" fill="#C8BC94"/>
<path d="M23.287 128.341C23.1059 128.447 22.955 128.688 22.9249 128.929C22.8947 129.186 23.0305 129.322 23.2267 129.246C23.2417 129.246 23.2568 129.246 23.2719 129.216C23.3775 129.156 23.4831 129.035 23.5586 128.899C23.6039 128.809 23.634 128.718 23.634 128.628C23.634 128.613 23.634 128.582 23.634 128.567C23.634 128.507 23.6341 128.462 23.6039 128.416C23.5586 128.311 23.453 128.266 23.3172 128.326C23.3021 128.326 23.287 128.341 23.2719 128.356L23.287 128.341Z" fill="#C8BC94"/>
<path d="M29.0818 126.154L83.1321 103.731L83.1775 103.354L83.2227 102.886L29.2175 125.278C29.1572 125.55 29.1271 125.837 29.0818 126.139V126.154Z" fill="#685143"/>
<path d="M83.1318 103.716V103.746L87.3267 102.026C87.3871 101.724 87.4626 101.422 87.538 101.136L83.2224 102.901L83.1318 103.731V103.716Z" fill="#F76706"/>
<path d="M78.5903 91.4479C76.8701 92.4438 75.2555 94.0885 74.1389 96.02C72.5846 98.7361 71.7397 102.388 72.2678 105.692L72.9015 105.421C72.3432 102.297 73.1127 98.8417 74.5613 96.3067C75.5572 94.5714 77.0058 93.0926 78.5601 92.2024C78.8769 92.0213 79.1938 91.8553 79.5258 91.7346C80.2652 91.4328 80.9593 91.2819 81.5931 91.297C82.8304 91.297 83.4038 91.629 83.947 91.9308C84.792 92.4136 85.6672 92.8965 88.2626 91.8402C89.017 91.5234 89.7112 91.1914 90.3449 90.8142C92.9252 89.3203 94.6756 87.419 96.3958 85.5479C98.0707 83.7221 99.7758 81.851 102.522 80.2817C103.292 79.8441 104.122 79.4216 105.072 79.0444C113.326 75.6492 116.027 83.4505 115.031 92.142C114.352 98.1325 112.481 103.716 109.614 108.273C107.456 111.713 104.801 114.399 102.024 116.014C101.466 116.33 100.923 116.602 100.349 116.843C95.8073 118.715 93.6948 117.749 91.6426 116.843C90.4958 116.33 89.4245 115.848 87.991 115.802C86.648 115.772 85.4408 115.983 84.2789 116.451C83.8715 116.617 83.4943 116.813 83.1171 117.025C81.412 118.005 79.9482 119.499 78.228 121.219C77.7452 121.702 77.2472 122.095 76.7342 122.381C76.538 122.502 76.3419 122.593 76.1457 122.668C75.2252 123.045 74.501 122.97 74.1992 122.472C73.9427 122.034 73.9729 121.28 74.3199 120.193C76.0099 114.837 76.5985 112.241 76.2363 110.928L75.5271 111.2C75.9948 112.075 75.6478 114.188 73.7616 120.208C73.3391 121.551 73.3089 122.532 73.656 123.136C74.0483 123.785 74.9536 123.92 76.0552 123.453C76.2664 123.362 76.4777 123.256 76.7041 123.136C77.2926 122.804 77.8961 122.321 78.5148 121.687C80.0841 120.088 81.4874 118.669 83.102 117.749C83.4491 117.553 83.7961 117.372 84.1733 117.221C85.2597 116.783 86.4066 116.572 87.6892 116.602C89.0472 116.647 90.1035 117.115 91.2201 117.613C93.3327 118.564 95.5206 119.56 100.244 117.613C100.832 117.372 101.421 117.085 101.994 116.738C104.921 115.048 107.698 112.226 109.976 108.605C112.949 103.851 114.895 98.0722 115.605 91.8855C116.631 82.8167 113.794 74.6835 105.133 78.2446C104.152 78.652 103.292 79.0746 102.492 79.5423C99.6551 81.1871 97.8745 83.1185 96.1392 85.0198C94.4945 86.8155 92.8045 88.6564 90.3147 90.0899C89.696 90.4369 89.0472 90.7689 88.3229 91.0707C85.9237 92.0515 85.1994 91.6441 84.3394 91.1612C83.7509 90.8292 83.1472 90.4973 81.8344 90.4822C81.1403 90.4822 80.3859 90.6331 79.5861 90.965C79.2391 91.1008 78.892 91.2819 78.5601 91.4781L78.5903 91.4479Z" fill="#685143"/>
<path d="M74.5612 96.307C73.1126 98.842 72.343 102.297 72.9014 105.421L83.464 100.879L83.2829 102.403L87.689 100.577C88.6698 97.5141 90.7824 94.632 93.1062 93.2891C93.3778 93.1382 93.6343 93.0024 93.9059 92.8967C96.5465 91.8103 98.5232 93.1533 98.9156 95.9599L98.2818 96.2315L98.9156 95.975L103.578 94.0435L103.759 92.4893C103.805 92.1423 104.016 91.7801 104.272 91.6443L104.619 91.4934C104.906 91.3727 105.102 91.584 105.057 91.9612L104.197 99.5512C104.152 99.8832 103.94 100.245 103.669 100.396L103.322 100.547C103.035 100.668 102.839 100.457 102.884 100.094L103.065 98.5402L98.4025 100.457C97.4217 103.52 95.3092 106.387 92.9854 107.73C92.7138 107.881 92.4573 108.016 92.1856 108.122C89.545 109.208 87.5683 107.865 87.176 105.074L82.7698 106.885L82.5888 108.409L76.2211 110.914C76.5832 112.211 75.9947 114.807 74.3047 120.178C73.9576 121.265 73.9274 122.019 74.1839 122.457C74.5008 122.955 75.2252 123.03 76.1305 122.653C76.3267 122.578 76.5228 122.472 76.7189 122.366C77.2169 122.08 77.73 121.672 78.2129 121.205C79.9331 119.469 81.3967 117.991 83.1018 117.01C83.4791 116.798 83.8563 116.602 84.2637 116.436C85.4256 115.969 86.6328 115.742 87.9757 115.787C89.4092 115.818 90.4805 116.316 91.6273 116.829C93.6795 117.749 95.8071 118.715 100.334 116.829C100.892 116.602 101.451 116.316 102.009 115.999C104.785 114.399 107.441 111.713 109.599 108.258C112.451 103.701 114.337 98.1177 115.016 92.1272C115.997 83.4357 113.311 75.6193 105.057 79.0296C104.121 79.4219 103.276 79.8293 102.507 80.2669C99.7757 81.8512 98.0555 83.7224 96.3806 85.5331C94.6754 87.3891 92.91 89.3055 90.3297 90.7993C89.6959 91.1766 89.0018 91.5085 88.2473 91.8254C85.6519 92.8967 84.7768 92.3988 83.9318 91.9159C83.3885 91.6141 82.8151 91.2822 81.5778 91.2822C80.944 91.2822 80.2499 91.418 79.5106 91.7198C79.1937 91.8556 78.8617 92.0065 78.5448 92.1876C76.9906 93.0929 75.542 94.5566 74.5461 96.2919L74.5612 96.307Z" fill="#F76706"/>
<path d="M73.7162 95.7335L66.2469 91.3877C64.6625 94.1491 63.6365 98.0422 64.1496 101.633L71.6188 105.979C71.1057 102.388 72.1318 98.4948 73.7162 95.7335Z" fill="#BE5005"/>
<path d="M64.1492 101.634C64.4208 104.531 67.2576 107.217 67.2576 107.217L69.0532 104.486L64.1492 101.634Z" fill="#BE5005"/>
<path d="M112.255 77.3543L104.785 73.0085C103.035 71.9975 100.711 71.907 97.7535 73.1141C96.7425 73.5366 95.8371 73.9742 95.0223 74.442C92.1855 76.0868 90.3597 78.0182 88.6395 79.8893C86.9193 81.7604 85.3047 83.5711 82.8602 84.9744C82.2717 85.3064 81.638 85.6233 80.9439 85.91C77.1715 87.4642 78.0165 85.3215 74.6364 85.2913C73.8971 85.2762 73.0672 85.4573 72.2071 85.8044C71.8298 85.9553 71.4526 86.1514 71.0753 86.3627C69.2948 87.3888 67.5294 89.109 66.2317 91.3724L73.7009 95.7182C74.9986 93.4547 76.7792 91.7345 78.5446 90.7084C78.9219 90.4821 79.2991 90.301 79.6764 90.1501C80.5214 89.8031 81.3513 89.622 82.1057 89.6371C85.4858 89.6673 84.6408 91.8099 88.4131 90.2557C89.1072 89.969 89.741 89.6522 90.3295 89.3202C92.7589 87.9169 94.3886 86.1061 96.1088 84.235C97.829 82.364 99.6548 80.4325 102.492 78.7878C103.306 78.32 104.212 77.8673 105.223 77.4599C108.18 76.2527 110.504 76.3282 112.255 77.3543Z" fill="#BE5005"/>
<path d="M73.716 95.7333C72.1316 98.4947 71.1055 102.373 71.6186 105.979L72.2675 105.692C71.7394 102.373 72.5843 98.721 74.1386 96.02C75.2552 94.0886 76.8698 92.4438 78.59 91.4479C78.937 91.2518 79.269 91.0858 79.616 90.9349C80.4158 90.6029 81.1702 90.4369 81.8644 90.452C83.1771 90.4671 83.7807 90.7991 84.3692 91.1311C85.2142 91.5988 85.9536 92.0213 88.3528 91.0405C89.0771 90.7387 89.726 90.4219 90.3446 90.0597C92.8193 88.6262 94.5244 86.7853 96.1691 84.9896C97.9044 83.1035 99.685 81.1569 102.522 79.5122C103.306 79.0595 104.182 78.6219 105.162 78.2145C113.824 74.6534 116.676 82.7866 115.635 91.8554C114.925 98.042 112.979 103.836 110.006 108.574C107.728 112.196 104.951 115.033 102.024 116.708C101.435 117.04 100.862 117.326 100.274 117.583C95.5656 119.529 93.3625 118.534 91.25 117.583C90.1333 117.085 89.0771 116.617 87.7191 116.572C86.4365 116.542 85.2896 116.753 84.2032 117.191C83.8411 117.341 83.4789 117.523 83.1318 117.719C81.5172 118.654 80.114 120.073 78.5447 121.657C77.926 122.291 77.3224 122.759 76.7339 123.106C76.5227 123.226 76.2963 123.332 76.0851 123.422C74.9835 123.875 74.0782 123.754 73.6859 123.106C73.3238 122.517 73.3689 121.536 73.7914 120.178C75.6776 114.158 76.0247 112.045 75.557 111.185L74.6969 111.517C75.3608 111.849 75.5418 112.83 73.2331 120.193C72.026 124.056 73.7462 125.128 75.9945 124.207C76.236 124.101 76.4774 123.981 76.7339 123.845C77.3677 123.483 78.0165 122.97 78.6352 122.351C80.2347 120.737 81.5777 119.363 83.1017 118.473C83.4186 118.292 83.7505 118.126 84.0976 117.99C85.0633 117.583 86.1498 117.372 87.4324 117.402C91.2802 117.507 92.8042 121.4 100.168 118.368C100.787 118.111 101.405 117.809 102.009 117.462C108.693 113.599 114.82 103.987 116.223 91.6139C117.325 81.9114 114.095 73.7933 105.238 77.4449C104.227 77.8674 103.337 78.305 102.507 78.7728C99.6699 80.4175 97.8441 82.349 96.1239 84.2201C94.4037 86.0912 92.7891 87.9019 90.3446 89.3052C89.7561 89.6372 89.1224 89.9541 88.4282 90.2408C84.6559 91.795 85.5009 89.6523 82.1209 89.6221C81.3815 89.607 80.5516 89.7881 79.6915 90.1351C79.3142 90.286 78.937 90.4822 78.5598 90.6934C76.7792 91.7195 75.0137 93.4397 73.716 95.7032V95.7333Z" fill="#F76706"/>
<path d="M28.6743 129.685L74.6821 111.532L75.5422 111.2L76.2363 110.929L82.604 108.439L82.7851 106.915L28.7346 129.338C28.7045 129.413 28.7045 129.489 28.7045 129.534C28.7045 129.61 28.6894 129.67 28.6894 129.7L28.6743 129.685Z" fill="#685143"/>
<path d="M25.6111 128.87C25.6262 129.172 25.6111 129.277 25.5508 129.353L28.8554 127.995L82.9209 105.572L87.1158 103.837L87.7194 103.595L88.9717 103.082L96.9239 99.8078L98.1612 99.2947L98.7649 99.0533L103.216 97.2124L103.261 96.7295L98.8403 98.5402L98.2367 98.7967L96.9993 99.3098L88.9416 102.629L87.7043 103.143L87.1006 103.399L82.9359 105.104L28.9157 127.512L25.5659 128.885L25.6111 128.87Z" fill="#E3D195"/>
<path d="M28.7646 128.84L82.8302 106.417L82.8905 105.934L82.9357 105.572L28.9004 127.98C28.84 128.297 28.7948 128.599 28.7646 128.84Z" fill="#685143"/>
<path d="M27.6026 129.323C27.6177 129.64 27.6026 129.731 27.5574 129.806L28.7192 129.338L82.7848 106.915L87.1908 105.105L87.8247 104.848L89.1526 104.305L96.4407 101.302L97.7686 100.759L98.4023 100.487L103.065 98.5708L103.125 98.0879L98.5533 99.9741L97.9345 100.231L96.6369 100.759L89.0318 103.882L87.7492 104.41L87.1305 104.667L82.815 106.447L28.7796 128.855L27.5875 129.338L27.6026 129.323Z" fill="#E3D195"/>
<path d="M28.9306 127.496L82.9811 105.074L83.0716 104.229L29.0514 126.636C28.9759 126.938 28.9457 127.225 28.9155 127.496H28.9306Z" fill="#685143"/>
<path d="M21.2955 127.889C21.1145 127.994 20.9636 128.236 20.9334 128.477C20.9032 128.734 21.039 128.87 21.2352 128.794C21.2503 128.794 21.2653 128.779 21.2804 128.764C21.3861 128.704 21.4917 128.583 21.5671 128.447C21.6124 128.357 21.6275 128.281 21.6426 128.191C21.6426 128.175 21.6426 128.145 21.6426 128.13C21.6426 128.07 21.6426 128.01 21.6124 127.964C21.5672 127.859 21.4615 127.813 21.3257 127.874C21.3106 127.874 21.2955 127.874 21.2804 127.904L21.2955 127.889Z" fill="#C8BC94"/>
<path d="M21.6122 127.964C21.6273 128.281 21.6122 128.371 21.5669 128.447L29.1569 125.323L83.2224 102.9L87.5381 101.135L88.1567 100.878L89.4393 100.35L97.0595 97.2113L98.3572 96.6832L98.9758 96.4267L103.548 94.5405L103.593 94.0576L98.9306 95.9891L98.2968 96.2456L96.969 96.7888L89.6656 99.7916L88.3377 100.335L87.704 100.591L83.2979 102.417L29.2776 124.825L21.6273 127.979L21.6122 127.964Z" fill="#E3D195"/>
<path d="M29.2476 124.825L83.2829 102.418L83.464 100.894L72.9014 105.435L72.2676 105.707L71.6187 105.994L29.2928 124.418C29.2928 124.418 29.2777 124.584 29.2476 124.841V124.825Z" fill="#685143"/>
<path d="M71.6187 105.979L67.0918 103.354L25.792 122.366L29.2928 124.403L71.6187 105.979Z" fill="#3E3028"/>
<path d="M29.2778 124.284L25.7921 122.262C25.6563 122.292 23.2722 122.005 22.8647 122.02L26.3504 124.042C26.7578 124.042 29.142 124.314 29.2778 124.284Z" fill="#BE5005"/>
<path d="M23.6192 128.418C23.6343 128.719 23.6192 128.825 23.5588 128.9L29.0061 126.652L83.0717 104.229L87.2364 102.524L87.8399 102.283L89.0772 101.77L97.1351 98.4499L98.3724 97.9368L98.9759 97.6954L103.397 95.8695L103.442 95.3867L98.991 97.2125L98.3875 97.4691L97.1351 97.9821L89.1829 101.256L87.9455 101.77L87.342 102.026L83.1471 103.746L29.142 126.139L23.6343 128.402L23.6192 128.418Z" fill="#E3D195"/>
<path d="M26.3501 124.026L22.8644 122.004C22.8644 122.004 22.8041 122.019 22.7287 122.049C22.3816 122.2 21.4611 122.698 20.3596 123.332L23.8453 125.354C24.9468 124.72 25.8673 124.207 26.2143 124.071C26.2747 124.041 26.3199 124.026 26.3501 124.026Z" fill="#BE5005"/>
<path d="M23.8457 125.354C21.6427 126.622 18.6852 128.417 18.0363 128.9C16.5576 129.956 15.6823 131.45 15.5163 133.005C15.2447 135.479 16.9197 135.389 17.0103 135.389C17.2668 135.343 17.5082 135.268 17.7345 135.162C17.9005 135.102 18.0363 135.027 18.1872 134.936C19.0322 134.438 19.5754 133.684 19.9526 133.02C20.3299 132.356 20.3601 132.326 20.5562 132.205C20.8128 132.054 21.0693 131.933 21.3258 131.843C23.8156 130.817 24.7964 131.752 25.2944 131.556C26.1243 131.209 28.5687 130.062 28.6442 130.032L28.6895 129.685C28.6895 129.685 28.6895 129.594 28.7046 129.519V129.323L27.5729 129.79C27.4974 129.926 27.4069 130.047 27.2862 130.107C27.2711 130.107 27.256 130.122 27.2409 130.138C27.0447 130.213 26.9089 130.077 26.9391 129.821C26.9692 129.594 27.1201 129.338 27.3012 129.232C27.3163 129.232 27.3314 129.217 27.3465 129.202C27.4823 129.142 27.5728 129.202 27.6332 129.293C27.6483 129.338 27.6634 129.383 27.6634 129.443C27.6634 129.383 27.6634 129.323 27.6332 129.293L28.7951 128.81L28.8857 127.965L25.5811 129.323C25.5207 129.459 25.4151 129.579 25.2944 129.64C25.2793 129.64 25.2641 129.655 25.249 129.67C25.0529 129.745 24.9171 129.609 24.9472 129.353C24.9774 129.127 25.1284 128.87 25.3095 128.764C25.3246 128.764 25.3396 128.749 25.3547 128.734C25.4905 128.674 25.5961 128.734 25.6414 128.825C25.6565 128.87 25.6716 128.93 25.6716 128.976C25.6716 128.915 25.6716 128.855 25.6414 128.825L28.946 127.467L29.0365 126.622L23.5892 128.87C23.5289 129.006 23.4233 129.127 23.3025 129.187C23.2874 129.187 23.2723 129.202 23.2572 129.217C23.0611 129.293 22.9252 129.157 22.9554 128.9C22.9856 128.659 23.1366 128.417 23.3176 128.312C23.3327 128.312 23.3478 128.297 23.3629 128.282C23.4987 128.221 23.5892 128.282 23.6496 128.372C23.6647 128.417 23.6798 128.463 23.6798 128.523C23.6798 128.463 23.6797 128.417 23.6496 128.372L29.0968 126.124L29.1874 125.279L21.5974 128.402C21.522 128.538 21.4314 128.659 21.3107 128.719C21.2956 128.719 21.2805 128.734 21.2654 128.749C21.0692 128.825 20.9335 128.689 20.9637 128.432C20.9939 128.206 21.1447 127.95 21.3258 127.844C21.3409 127.844 21.356 127.829 21.371 127.814C21.5068 127.753 21.5974 127.814 21.6577 127.904C21.6728 127.95 21.688 128.01 21.688 128.07C21.688 128.01 21.6879 127.95 21.6577 127.904L29.2478 124.781L29.3081 124.222C29.1723 124.253 26.7882 123.966 26.3808 123.981C26.3506 123.981 26.3204 123.996 26.245 124.026C25.8979 124.177 24.9775 124.675 23.8759 125.309L23.8457 125.354Z" fill="#F76706"/>
<path d="M23.8455 125.354L20.3598 123.332C18.1567 124.6 15.1992 126.395 14.5504 126.878C13.0716 127.934 12.1964 129.428 12.0304 130.982C11.8795 132.34 12.3172 132.929 12.7547 133.17L16.2404 135.192C15.8028 134.936 15.3652 134.347 15.5161 133.004C15.6971 131.435 16.5573 129.956 18.0361 128.9C18.7 128.432 21.6424 126.637 23.8455 125.354Z" fill="#BE5005"/>
<path d="M54.5979 116.919C54.5828 116.677 54.1452 112.211 54.5979 111.547C55.0656 110.883 56.6802 111.366 56.6802 111.366C56.6802 111.366 57.0122 110.792 57.9327 110.943C58.8531 111.079 58.9285 111.547 58.9285 111.547C58.9285 111.547 58.6267 110.34 59.9546 111.321C61.2674 112.301 62.203 118.065 62.1728 118.307C62.1426 118.548 61.539 121.43 60.9204 121.974C60.3017 122.517 59.2303 122.125 59.2303 122.125C59.2303 122.125 58.8531 123.06 57.9779 123.075C57.1027 123.09 56.3935 122.834 56.3935 122.834C56.3935 122.834 56.3935 123.784 55.1864 123.799C53.9792 123.815 53.3002 122.819 53.3002 122.819C53.3002 122.819 51.3688 123.513 50.5841 122.668C49.7995 121.838 49.739 121.37 49.739 121.37L51.4592 120.646C51.4291 120.314 51.7912 116.345 52.5155 115.847C53.2398 115.364 53.7981 115.878 53.7981 115.878L54.5979 116.904V116.919Z" fill="#FFA496"/>
<path d="M116.751 78.7425C118.502 77.6561 121.142 77.8371 122.38 79.7233C123.617 81.6095 123.904 80.5532 123.391 82.5299C122.863 84.5217 122.606 86.4834 120.735 90.2859C118.2 95.4767 114.02 100.32 113.417 101.437C112.813 102.554 111.591 106.16 110.127 107.111C108.663 108.061 105.721 107.684 104.604 107.397C103.488 107.111 103.005 104.983 103.005 104.983C103.005 104.983 101.541 103.897 100.394 103.519C99.2627 103.142 98.8252 102.282 98.8252 102.282C98.8252 102.282 98.2065 102.373 98.2065 101.286C98.2065 100.2 100.953 97.6949 101.707 96.7442C102.462 95.7936 105.027 94.0885 106.4 94.0432C107.773 93.9979 109.493 94.1489 110.097 93.6962C110.701 93.2435 113.734 84.2501 114.563 82.3036C115.393 80.3571 116.736 78.7274 116.736 78.7274L116.751 78.7425Z" fill="#FFA496"/>
<path d="M97.1803 99.6265C97.2709 99.5661 97.7236 98.8418 99.5494 98.2382C101.375 97.6346 101.602 97.2876 101.722 98.4344C101.843 99.5661 100.259 100.366 99.2326 100.834C98.2065 101.301 96.3354 100.713 96.109 100.456C95.8827 100.2 97.1803 99.6415 97.1803 99.6415V99.6265Z" fill="#59A4E4"/>
<path d="M100.651 95.6579C100.651 95.6579 103.865 93.983 104.906 93.8321C105.947 93.6812 109.086 94.1942 109.614 94.3602C110.142 94.5111 109.297 96.2464 107.848 96.7595C106.4 97.2725 105.313 96.5784 105.313 96.5784L102.099 97.8761C102.099 97.8761 100.802 99.0531 100.077 99.204C99.3532 99.3549 98.8401 98.5099 98.8853 98.2232C98.9155 97.9365 100.651 95.673 100.651 95.673V95.6579Z" fill="#FFA496"/>
<defs>
<linearGradient id="paint0_linear_29_3628" x1="72.2524" y1="182.875" x2="80.4611" y2="182.875" gradientUnits="userSpaceOnUse">
<stop stop-color="#ACACAC"/>
<stop offset="0.32" stop-color="#B1B1B1"/>
<stop offset="0.72" stop-color="#C1C1C1"/>
<stop offset="0.95" stop-color="#CECECE"/>
</linearGradient>
<linearGradient id="paint1_linear_29_3628" x1="73.3694" y1="163.199" x2="79.3448" y2="163.199" gradientUnits="userSpaceOnUse">
<stop stop-color="#ACACAC"/>
<stop offset="0.32" stop-color="#B1B1B1"/>
<stop offset="0.72" stop-color="#C1C1C1"/>
<stop offset="0.95" stop-color="#CECECE"/>
</linearGradient>
</defs>
</svg>
