<svg width="240" height="240" viewBox="0 0 240 240" fill="none" xmlns="http://www.w3.org/2000/svg">
<path opacity="0.2" d="M103.192 166.203L158.218 197.966L192.737 146.607L189.176 144.551L103.192 166.203Z" fill="#E3E3E3"/>
<path d="M156.067 36.0463L188.869 148.844L192.737 146.607L159.543 32.6973L156.067 36.0463Z" fill="#F28843"/>
<path d="M156.067 36.0457L159.543 32.6967L155.982 30.6406L152.506 33.9897L156.067 36.0457Z" fill="#E38A52"/>
<path d="M156.067 36.0463L188.869 148.844L185.308 146.788L152.506 33.9902L156.067 36.0463Z" fill="#A84825"/>
<path d="M136.354 111.791L179.288 117.907L177.115 116.645L134.181 110.53L136.354 111.791Z" fill="#F4A04E"/>
<path d="M179.288 117.907L136.354 111.792L135.337 114.908L180.348 120.917L179.288 117.907Z" fill="#E38A52"/>
<path d="M128.342 22.7137L106.753 168.26L110.622 166.024L131.818 22.0566L128.342 22.7137Z" fill="#F28843"/>
<path d="M131.818 22.0561L128.342 22.7132L124.791 20.6571L128.257 20L131.818 22.0561Z" fill="#E38A52"/>
<path d="M106.753 168.259L128.342 22.7133L124.791 20.6572L103.192 166.203L106.753 168.259Z" fill="#BF6A35"/>
<path d="M112.603 95.5654L110.759 95.9258L105.237 96.975L104.686 99.1688L162.786 132.712L115.857 98.8615L112.296 96.8054L112.603 95.5654Z" fill="#FFB776"/>
<path d="M175.917 51.6888L174.752 56.3521L126.847 28.7012L128.013 24.0273L175.917 51.6888Z" fill="#BF6A35"/>
<path d="M175.917 51.6887L179.394 51.021L131.489 23.3701L128.013 24.0272L175.917 51.6887Z" fill="#E38A52"/>
<path d="M179.807 52.4314L167.322 128.58L169.41 128.177L168.859 130.371L166.771 130.774L158.218 197.967L162.087 195.741L183.283 51.7637L179.807 52.4314Z" fill="#F28843"/>
<path d="M183.283 51.7631L179.807 52.4308L176.246 50.3747L179.722 49.707L183.283 51.7631Z" fill="#E38A52"/>
<path d="M158.218 197.967L179.807 52.4311L176.246 50.375L154.657 195.91L158.218 197.967Z" fill="#BF6A35"/>
<path d="M169.41 128.177L167.322 128.58L115.857 98.8623L112.137 100.229L161.249 131.823L162.786 132.713L170.947 129.067L169.41 128.177Z" fill="#E38A52"/>
<path d="M170.947 129.067L168.848 129.46L163.337 130.519L162.786 132.713L168.308 131.653L170.396 131.261L170.947 129.067Z" fill="#F28843"/>
<path d="M105.237 96.9756L163.337 130.519L162.786 132.713L104.686 99.1694L105.237 96.9756Z" fill="#BF6A35"/>
<path d="M164.069 129.194L167.322 128.579L178.26 58.6201L175.006 59.2454L164.069 129.194Z" fill="#CAD2ED"/>
<path d="M119.98 27.4827L123.234 26.8574L178.26 58.6204L175.006 59.2458L119.98 27.4827Z" fill="white"/>
<path d="M109.042 97.431L164.069 129.194L175.006 59.2454L119.98 27.4824L109.042 97.431Z" fill="#BAC1DA"/>
<path d="M120.404 60.4016C120.658 62.0867 121.368 63.6447 122.64 64.8317C122.958 65.1284 123.329 65.4358 123.403 65.8703C123.467 66.2519 123.276 66.6228 123.085 66.9619C121.919 69.071 120.754 71.1694 119.588 73.2785C119.259 73.8826 118.91 74.5397 119.026 75.218C119.132 75.8645 119.641 76.3626 120.139 76.7971C121.665 78.1113 123.435 79.2771 124.399 81.047C125.364 82.8169 125.109 85.4877 123.265 86.3144C126.106 87.088 127.812 90.6173 126.667 93.3304C126.456 93.8286 126.169 94.3373 126.286 94.8672C126.456 95.5879 127.282 95.9058 128.003 96.0966C129.762 96.5735 131.511 97.061 133.27 97.538C132.253 98.407 131.468 99.5516 131.013 100.813C131.373 99.8166 134.351 102.275 134.595 102.466C135.231 102.975 135.029 103.568 135.782 103.961C136.259 104.204 137.446 103.939 138.039 104.077C139.926 104.501 144.398 105.402 143.72 107.659C143.307 109.058 143.762 110.68 144.854 111.644C145.946 112.609 147.61 112.884 148.945 112.301C149.517 112.058 150.037 111.665 150.62 111.453C152.76 110.69 154.986 112.418 157.265 112.492C160.275 112.598 162.808 109.122 161.79 106.292C161.515 105.529 161.038 104.851 160.762 104.077C159.109 99.541 164.62 94.1571 161.981 90.1086C161.599 89.5151 161.059 89.0275 160.783 88.381C160.518 87.7663 160.508 87.088 160.508 86.4203C160.497 83.3574 160.487 80.2945 160.476 77.2316C160.476 76.14 160.444 74.9742 159.851 74.0522C159.119 72.9393 157.72 72.473 156.862 71.4556C155.982 70.417 155.686 68.7212 156.035 67.4177C156.279 66.5062 157.699 66.4638 157.127 65.0754C156.841 64.3654 156.162 63.9096 155.505 63.5175C154.848 63.1254 154.149 62.7332 153.735 62.0867C152.93 60.7937 153.629 59.1404 153.82 57.6355C153.863 57.2857 153.873 56.9254 153.714 56.618C153.545 56.2789 153.206 56.0669 152.888 55.8761C150.058 54.1804 147.112 52.6861 144.07 51.3931C143.445 51.1281 142.724 50.7784 142.597 50.1107C142.416 49.2416 143.307 48.203 142.703 47.5671C142.522 47.3763 142.247 47.2915 141.982 47.2386C139.778 46.7404 137.266 46.8358 135.157 47.6943C134.436 47.991 130.599 49.9305 130.801 50.9162C130.44 49.0932 128.194 48.1394 126.392 48.6163C124.601 49.0932 123.244 50.5876 122.269 52.1561C120.764 54.5726 119.98 57.6672 120.393 60.4122L120.404 60.4016Z" fill="#AE9FDA"/>
<path d="M149.539 95.1842C149.401 94.9935 149.486 94.7391 149.539 94.5165C149.687 93.7852 149.316 93.001 148.733 92.524C148.15 92.0471 147.398 91.8246 146.656 91.7186C145.935 91.6126 145.193 91.6126 144.504 91.39C143.816 91.1675 143.158 90.6481 143.031 89.9275C142.978 89.6095 143.031 89.2704 142.904 88.9736C142.639 88.3059 141.749 88.2106 141.039 88.2212C140.308 88.2212 139.576 88.2423 138.845 88.2529C138.644 88.2529 138.41 88.2529 138.262 88.1046C138.029 87.882 138.135 87.5005 138.092 87.1719C138.029 86.642 137.52 86.2499 137.001 86.1545C135.899 85.9425 134.871 86.695 133.758 86.3029C133.069 86.0591 132.56 85.19 132.963 84.5859C132.783 84.8509 130.557 84.4694 130.07 84.8297C129.836 84.9993 129.921 85.3278 129.635 85.4868C129.275 85.6881 128.512 85.4868 128.077 85.6458C127.611 85.826 127.187 86.2287 127.155 86.7268C127.123 87.1931 127.409 87.6065 127.611 88.0198C127.812 88.4331 127.918 88.9948 127.579 89.3128C127.431 89.4611 127.229 89.5247 127.081 89.6625C126.657 90.0652 126.943 90.7965 127.388 91.1781C127.823 91.5596 128.406 91.814 128.702 92.3121C128.84 92.5452 128.904 92.8102 129.02 93.054C129.201 93.4461 129.518 93.764 129.699 94.1456C130.133 95.0358 129.847 96.0957 129.826 97.0813C129.826 97.3251 129.847 97.6006 130.006 97.7914C130.144 97.9504 130.356 98.014 130.557 98.067C132.126 98.5015 133.684 98.9254 135.252 99.3599C135.284 100.346 135.379 101.331 135.538 102.296C137.573 102.264 139.799 102.296 141.378 103.589C142.077 104.161 142.586 104.924 143.19 105.592C143.794 106.259 144.579 106.853 145.479 106.885C146.317 106.916 147.387 106.556 147.832 107.266C148.118 107.733 147.885 108.379 148.161 108.856C148.33 109.153 148.659 109.312 148.966 109.46C149.92 109.905 151.044 110.35 151.966 109.842C152.305 109.661 152.57 109.365 152.909 109.185C153.322 108.962 153.82 108.93 154.287 108.941C155.59 108.962 156.883 109.227 158.091 109.714C158.823 110.011 159.639 110.393 160.349 110.054C161.271 109.619 161.313 108.347 161.218 107.33C161.144 106.577 161.038 105.74 160.465 105.242C159.84 104.701 158.717 104.574 158.59 103.758C158.515 103.324 158.802 102.868 158.653 102.455C158.409 101.776 157.201 101.734 157.138 101.013C157.095 100.558 157.593 100.134 157.434 99.6991C157.36 99.4977 157.159 99.3811 156.968 99.2751C156.163 98.8512 155.315 98.5015 154.446 98.2259C154.064 98.1093 153.619 97.9398 153.545 97.5476C153.481 97.2191 153.725 96.8905 153.63 96.5726C153.555 96.35 153.333 96.2123 153.11 96.1063C152.167 95.6611 151.139 95.3962 150.1 95.3432C149.899 95.3432 149.666 95.3114 149.539 95.1524V95.1842Z" fill="#838CDA"/>
<path d="M133.175 69.4314C133.09 69.8341 133.185 70.2686 133.493 70.5442C133.609 70.6502 133.747 70.735 133.8 70.8833C133.895 71.1271 133.694 71.3815 133.567 71.6146C133.281 72.1339 133.323 72.8228 133.683 73.2892C134.044 73.7555 134.701 73.978 135.273 73.8297C135.665 74.1476 136.057 74.4655 136.45 74.7835C136.768 75.0379 137.096 75.3028 137.488 75.377C137.88 75.4618 138.357 75.2922 138.495 74.9107C138.527 74.8047 138.538 74.6987 138.601 74.6139C138.802 74.349 139.205 74.5715 139.523 74.6457C140.138 74.7729 140.678 74.2536 141.081 73.7873C141.537 73.2679 141.993 72.4731 141.537 71.9538C141.378 71.7736 141.145 71.6782 141.007 71.4768C140.551 70.788 141.812 69.9295 141.473 69.177C141.208 68.5729 140.212 68.6895 139.862 68.1384C139.502 67.5767 140.032 66.8666 139.873 66.2731C139.831 66.1247 136.439 65.5206 135.983 65.5736C135.453 65.6266 134.902 65.9445 134.574 66.3685C134.033 67.0468 134.627 67.8204 134.256 68.3397C134.15 68.4881 133.959 68.5305 133.789 68.6047C133.45 68.7531 133.228 69.0922 133.154 69.4526L133.175 69.4314Z" fill="#DAC196"/>
<path d="M136.153 93.5105C136.153 93.5105 136.132 93.5847 136.132 93.6165C136.153 93.7225 136.269 93.7755 136.365 93.8178L138.368 94.5279C138.135 95.4818 136.778 95.5242 136.026 96.1601C135.92 96.2448 135.814 96.372 135.835 96.5098C135.856 96.6476 135.983 96.7324 136.11 96.796C136.566 97.0397 137.064 97.2199 137.435 97.5802C137.806 97.9406 137.997 98.5553 137.69 98.9686C137.35 99.4349 136.566 99.4243 136.269 99.9225C136.015 100.357 136.322 100.94 136.767 101.184C137.213 101.417 137.742 101.417 138.241 101.417C139.035 101.427 139.523 101.788 140.212 102.01C140.816 102.212 142.692 102.01 143.105 102.455C141.982 101.237 140.604 100.24 139.099 99.5621C139.714 98.8096 140.53 98.2267 141.441 97.8982C140.837 97.0185 140.116 96.2236 139.29 95.5559C139.915 95.026 140.646 94.6127 141.431 94.3584C140.689 93.1078 138.537 93.2879 137.891 91.9949C138.686 91.8784 139.481 91.7618 140.275 91.6558C140.148 91.2425 139.682 91.0305 139.247 90.9563C138.823 90.8715 138.357 90.8503 138.007 90.596C137.658 90.3416 137.541 89.7163 137.912 89.4937C138.039 89.4195 138.219 89.3878 138.283 89.25C138.325 89.144 138.283 89.0274 138.241 88.9215C137.87 88.1372 137.287 87.0773 136.322 87.0244C135.782 86.9926 134.637 87.3635 134.701 88.01C134.807 89.1334 137.001 89.3772 135.019 90.3522C135.156 90.543 136.926 92.3553 136.948 92.3341L136.216 93.4151C136.216 93.4151 136.174 93.4787 136.163 93.5105H136.153Z" fill="#DAC196"/>
<path opacity="0.2" d="M123.064 194.383C116.461 198.188 105.736 198.178 99.0905 194.341C92.456 190.504 92.4136 184.315 99.0163 180.5C105.619 176.695 116.344 176.705 122.99 180.542C129.624 184.379 129.667 190.568 123.064 194.383Z" fill="#E3E3E3"/>
<path d="M123.011 191.682C116.769 195.285 106.605 195.264 100.32 191.639C94.0353 188.015 94.0035 182.143 100.246 178.54C106.488 174.937 116.652 174.947 122.937 178.582C129.222 182.207 129.253 188.078 123.011 191.682Z" fill="#989898"/>
<path d="M101.994 180.267C100.829 181.115 99.8324 180.903 99.3554 182.323C98.8785 183.754 98.8785 185.704 99.0905 186.34C99.3025 186.976 102.683 187.93 104.538 187.983C106.382 188.036 109.668 185.768 109.668 185.768C109.668 185.768 109.88 184.655 110.303 184.443C110.727 184.231 111.893 184.231 112.73 184.602C113.568 184.973 122.979 184.231 125.724 183.224C128.469 182.217 121.548 178.571 121.124 178.783C120.7 178.995 101.994 180.267 101.994 180.267Z" fill="#2D3240"/>
<path d="M102.789 173.134C102.259 174.194 99.8853 179.525 99.8853 181.433V183.542C99.8853 183.542 101.729 185.386 104.75 185.078C107.76 184.76 110.293 182.704 111.406 182.598C112.518 182.492 118.803 182.757 120.806 182.333C122.809 181.909 123.869 180.691 124.028 179.906C124.187 179.112 122.99 177.532 122.11 177.267C121.23 177.002 114.204 174.787 113.144 174.522C112.084 174.258 106.382 170.93 106.382 170.93L102.789 173.145V173.134Z" fill="#40485C"/>
<path d="M116.949 138.679C118.899 138.096 122.576 135.775 122.068 142.431C121.548 149.087 114.098 175.349 113.621 177.511C113.144 179.673 109.657 180.309 106.064 179.62C102.472 178.931 101.2 178.189 101.147 177.193C101.094 176.186 103.786 158.752 104.369 154.365C104.952 149.977 105.376 141 106.69 139.675C108.004 138.351 116.938 138.668 116.938 138.668L116.949 138.679Z" fill="#1D274D"/>
<path opacity="0.2" d="M141.918 210.005C135.315 213.81 124.59 213.8 117.945 209.963C111.31 206.126 111.268 199.937 117.871 196.122C124.473 192.317 135.199 192.328 141.844 196.164C148.478 200.001 148.521 206.19 141.918 210.005Z" fill="#E3E3E3"/>
<path opacity="0.2" d="M86.5739 220L113.292 204.569L73.7183 181.729L47 197.15L86.5739 220Z" fill="#E3E3E3"/>
<path d="M101.793 205.258L105.905 207.632L103.743 196.186L99.6206 193.812L101.793 205.258Z" fill="#803F1B"/>
<path d="M94.0668 201.771L103.743 196.186L105.905 207.632L111.639 204.325L110.219 171.195L87.5913 184.263L86.1711 219.025L91.9048 215.719L94.0668 201.771Z" fill="#B56530"/>
<path d="M82.0591 216.651L86.1712 219.025L87.5914 184.263L83.4792 181.889L82.0591 216.651Z" fill="#E68845"/>
<path d="M68.3876 185.97L72.4997 188.344L70.3377 176.897L66.2256 174.523L68.3876 185.97Z" fill="#E68845"/>
<path d="M60.6614 182.482L70.3376 176.897L72.4996 188.343L78.2333 185.037L76.8131 151.917L54.1858 164.974L52.7656 199.736L58.4993 196.43L60.6614 182.482Z" fill="#B56530"/>
<path d="M48.6536 197.363L52.7657 199.737L54.1859 164.975L50.0737 162.601L48.6536 197.363Z" fill="#E68845"/>
<path d="M86.1711 185.1L111.639 170.4V167.168L86.1711 181.868V185.1Z" fill="#C66E34"/>
<path d="M86.1712 185.099V181.867L48.6533 160.204V163.447L86.1712 185.099Z" fill="#B56530"/>
<path d="M86.1712 181.868L111.639 167.168L74.121 145.505L48.6533 160.205L86.1712 181.868Z" fill="#EEA669"/>
<path d="M117.298 74.0399C117.076 73.9869 112.413 76.5199 112.084 77.5373C111.756 78.5548 111.469 82.4549 111.024 83.0696C110.579 83.6843 102.376 89.047 96.0065 91.7814C89.6475 94.5157 87.4855 94.7489 86.1395 96.1373C84.7935 97.5257 85.1857 103.768 88.0578 104.584C90.9299 105.4 96.9073 101.935 101.867 97.8648C106.838 93.7845 113.144 88.0402 114.543 87.4785C115.942 86.9168 117.553 85.9735 117.775 84.5746C117.998 83.1756 116.048 81.1725 116.154 80.0491C116.27 78.9363 119.227 76.9756 119.227 76.9756C119.227 76.9756 121.686 77.5161 122.354 77.5267C123.021 77.5267 123.53 76.4139 123.53 76.4139C123.53 76.4139 123.085 75.8522 122.555 75.5766C122.025 75.3011 120.711 75.0467 120.573 75.0467H119.291L117.309 74.0293L117.298 74.0399Z" fill="#FFA496"/>
<path d="M88.9801 102.498C90.2095 101.215 90.3154 99.3181 89.7007 97.9721C89.086 96.6261 83.3206 92.6094 81.9852 91.9629C80.6498 91.3164 75.9124 93.7328 76.029 96.7427C76.1456 99.7526 84.3592 103.398 86.1397 103.833C87.9308 104.267 88.9801 102.498 88.9801 102.498Z" fill="#FFA496"/>
<path d="M86.8602 96.2967C86.5847 97.3035 87.051 100.6 83.0448 101.437C79.0387 102.274 63.8514 93.8379 64.8052 91.3897C65.7591 88.9415 66.8719 87.2457 68.9915 86.0799C71.1112 84.9141 76.6329 86.9384 77.6291 87.9452C78.6253 88.952 85.6626 93.7213 86.1395 94.4102C86.6165 95.0991 86.8602 96.3073 86.8602 96.3073V96.2967Z" fill="#E5F0FF"/>
<path d="M116.408 196.504C115.719 196.673 114.267 197.246 113.706 197.998C113.144 198.74 112.752 202.206 113.038 203.043C113.313 203.88 117.616 205.385 119.015 205.385C120.414 205.385 122.121 204.824 122.121 204.824C122.121 204.824 125.713 208.003 128.723 208.512C131.733 209.02 135.92 210.186 140.053 209.349C144.186 208.512 144.737 207.007 144.97 206.721C145.193 206.445 144.854 204.389 144.631 204.378C144.409 204.368 141.06 201.644 140.392 201.644C139.724 201.644 116.408 196.504 116.408 196.504Z" fill="#2D3240"/>
<path d="M118.167 190.134C118.167 190.134 114.818 195.783 114.426 197.68C114.034 199.577 113.812 200.298 114.034 200.69C114.257 201.082 120.955 202.364 123.414 203.647C125.872 204.929 132.348 207.886 136.534 208.056C140.721 208.225 142.565 207.494 143.116 206.826C143.678 206.159 144.621 204.813 144.621 204.813C144.621 204.813 143.667 202.746 143.063 202.354C142.459 201.962 129.836 194.32 129.55 194.151C129.274 193.981 124.526 188.014 123.414 187.898C122.301 187.781 118.167 190.134 118.167 190.134Z" fill="#40485C"/>
<path d="M86.8603 131.865C92.0428 130.858 115.264 131.43 118.952 132.713C122.64 133.995 121.993 139.909 122.068 142.368C122.131 144.826 109.127 146.066 106.223 147.063C103.319 148.059 84.5074 152.425 83.4476 146.268C82.3878 140.121 86.8603 131.865 86.8603 131.865Z" fill="#1D274D"/>
<path d="M66.5326 148.218C66.5326 152.627 64.4129 155.881 67.9316 160.639C71.4502 165.409 76.1346 167.475 86.8601 167.136C97.5855 166.797 112.646 163.003 116.45 163.565C120.255 164.126 123.096 166.299 127.282 165.07C131.468 163.84 136.153 162.166 136.545 158.764C136.937 155.362 136.661 152.288 134.87 149.893C133.079 147.498 126.985 144.255 122.131 144.647C117.277 145.039 103.362 145.855 102.302 145.484C101.242 145.113 97.3948 143.47 96.6105 143.142C95.8262 142.803 90.8344 143.534 88.1001 143.65C85.3657 143.767 66.5538 148.229 66.5538 148.229L66.5326 148.218Z" fill="#202A54"/>
<path d="M120.965 154.799C119.291 162.727 118.57 165.514 118.623 171.491C118.676 177.469 116.896 189.805 116.45 192.423C116.005 195.041 120.361 196.726 123.933 197.447C127.504 198.167 130.292 197.054 130.578 195.889C130.854 194.712 136.333 165.97 136.555 158.763C136.778 151.567 120.976 154.799 120.976 154.799H120.965Z" fill="#202A54"/>
<path d="M71.3972 86.0908C67.603 86.0908 63.8088 90.5527 62.6324 93.4036C61.456 96.2546 61.0109 99.7096 60.7354 106.969C60.4598 114.229 63.8618 127.233 63.8618 130.635C63.8618 134.037 62.908 143.417 63.8089 149.617C64.6991 155.817 65.9285 156.368 66.8188 157.544C67.709 158.721 72.1179 160.946 78.71 160.618C85.3021 160.279 88.5346 155.7 90.9298 150.91C93.325 146.109 93.7172 144.381 93.2191 137.069C92.7209 129.756 91.1524 121.436 91.1524 116.137C91.1524 110.838 86.2348 99.7202 83.8396 95.873C81.4444 92.0259 78.2013 88.1681 76.5268 87.0553C74.8523 85.9424 71.3866 86.1014 71.3866 86.1014L71.3972 86.0908Z" fill="#DCE7F5"/>
<path d="M67.9316 78.217C69.7757 83.3571 69.4896 85.1376 69.1081 87.3739C68.7159 89.6101 67.3805 91.1151 68.6629 92.3445C69.9453 93.5739 80.6072 98.9896 80.9993 97.0289C81.3915 95.0788 82.1757 90.5534 82.5043 90.1612C82.8434 89.7691 86.3515 86.1445 86.1289 81.4495C85.9063 76.765 83.172 73.9141 81.4974 73.3524C79.8229 72.7907 67.9316 78.2064 67.9316 78.2064V78.217Z" fill="#FFA496"/>
<path d="M86.1396 65.0957C88.3016 66.8868 89.372 68.8369 89.425 71.2957C89.478 73.7545 90.2623 84.2256 90.0927 86.0803C89.9232 87.935 89.7006 89.0478 88.9163 89.6625C88.1321 90.2772 82.8011 89.8215 82.8011 89.8215C82.8011 89.8215 79.5898 88.4331 78.3075 87.0977C77.0251 85.7623 77.0887 75.482 77.0251 74.0936C76.9615 72.6947 78.53 67.8407 78.9752 66.9504C79.4203 66.0601 86.129 65.1063 86.129 65.1063L86.1396 65.0957Z" fill="#FFA496"/>
<path d="M85.4081 70.3419C84.1257 70.9036 82.8433 71.2639 83.1188 73.32C83.3944 75.3655 83.9879 76.3723 83.5746 76.7115C83.1718 77.0506 80.9886 77.8243 80.6071 79.1702C80.2255 80.5162 80.6071 83.187 80.6071 83.187H78.5934C78.5934 83.187 77.7561 80.1135 76.3571 79.5624C74.9582 79.0007 73.7288 78.9477 72.8385 81.0673C71.9483 83.187 71.7787 86.695 69.712 86.3665C68.0905 81.2369 67.2532 81.2475 66.1404 78.3648C65.0276 75.4821 63.512 70.0663 65.2501 66.4417C66.9777 62.8171 70.1678 59.9662 76.5267 59.7436C82.8857 59.521 88.0259 63.3682 88.9161 66.0496C89.8064 68.731 89.0857 69.6742 88.9161 69.7378C88.7465 69.8014 85.3975 70.3525 85.3975 70.3525L85.4081 70.3419Z" fill="#2C3240"/>
<path d="M123.806 76.1816C123.806 76.1816 112.19 76.3512 110.515 77.3263C108.841 78.3013 123.35 77.6336 124.389 77.5806C125.417 77.5276 125.226 76.33 123.806 76.1816Z" fill="#202A54"/>
<path d="M124.092 76.9341C123.954 76.5738 123.784 75.4609 125.321 75.4609C126.858 75.4609 127.335 76.9659 127.42 76.9341C127.504 76.9129 128.172 77.4322 126.72 77.8562C125.268 78.2801 124.092 76.9341 124.092 76.9341Z" fill="#202A54"/>
<path d="M72.6797 125.696C72.6797 126.703 73.1672 130.381 77.0674 138.255C80.9675 146.13 82.3983 147.55 84.8253 146.882C87.2523 146.214 87.92 135.372 87.5067 132.712C87.0827 130.052 83.4051 117.991 83.4051 117.991L72.6903 125.696H72.6797Z" fill="#FFA496"/>
<path d="M109.625 129.957C105.884 130.964 89.8594 134.927 87.8563 135.373C85.8426 135.818 85.1219 134.98 83.5004 137.768C81.8789 140.555 79.3035 147.635 83.723 146.999C88.1424 146.363 93.6642 144.519 100.701 140.333C107.739 136.146 112.476 133.74 113.483 133.465C114.49 133.189 121.856 133.242 122.968 132.511C124.081 131.78 126.572 128.24 126.794 127.657C127.017 127.074 125.819 127.159 125.819 127.159C125.819 127.159 121.771 126.152 119.789 126.406C117.807 126.661 115.242 126.544 114.267 127.381C113.292 128.219 109.636 129.946 109.636 129.946L109.625 129.957Z" fill="#FFA496"/>
<path d="M127.494 117.398C123.307 116.836 121.739 116.836 117.839 118.903C113.928 120.97 110.431 125.315 112.412 127.678C114.394 130.042 126.095 129.289 129.115 127.329C132.136 125.368 132.857 119.963 131.903 118.617C130.949 117.271 127.494 117.388 127.494 117.388V117.398Z" fill="#DCE7F5"/>
<path d="M121.824 80.8338C122.301 80.0814 123.445 78.5976 123.53 77.8451C123.615 77.0926 122.608 76.8913 121.993 76.9231C121.379 76.9549 119.927 78.9897 119.672 79.2971C119.418 79.6044 118.496 79.827 117.436 80.6643C116.376 81.5015 114.893 81.9467 114.564 82.8157C114.225 83.6848 114.246 87.9029 116.472 86.4403C118.697 84.9672 121.824 80.8444 121.824 80.8444V80.8338Z" fill="#FFA496"/>
<path d="M121.548 128.038C122.915 127.731 124.972 127.498 125.671 127.138C126.37 126.777 125.947 125.558 125.671 125.474C125.395 125.389 123.636 125.06 122.862 125.474C122.078 125.897 118.56 124.997 116.885 125.781C115.211 126.565 113.451 127.593 112.593 128.462C111.724 129.331 114.267 130.306 115.38 130.084C116.493 129.861 119.291 128.748 119.566 128.632C119.842 128.515 121.548 128.049 121.548 128.049V128.038Z" fill="#FFA496"/>
<path d="M75.0536 106.184C73.6758 107.435 68.6523 108.198 69.4047 115.225C70.1572 122.262 72.5842 129.713 73.9302 131.8C75.2656 133.899 87.2204 132.299 86.8495 127.36C86.4891 122.421 84.1151 111.113 83.0341 108.77C81.9637 106.428 75.043 106.174 75.043 106.174L75.0536 106.184Z" fill="#E5F0FF"/>
<path d="M76.3043 79.7953C76.2513 78.7884 75.5836 77.5908 74.1952 77.8452C72.8068 78.0995 73.4639 81.7347 74.1952 83.1019C74.9371 84.4691 75.9651 84.999 76.5268 84.1617C77.0886 83.3245 76.3043 79.7953 76.3043 79.7953Z" fill="#FFA496"/>
</svg>
