<svg width="240" height="240" viewBox="0 0 240 240" fill="none" xmlns="http://www.w3.org/2000/svg">
<path opacity="0.2" d="M105.228 220L197.554 166.699L135.326 130.767L43 184.068L105.228 220Z" fill="#E3E3E3"/>
<path d="M105.589 56.3965C107.063 58.8188 112.423 65.6631 113.165 67.065C113.897 68.4668 107.135 73.6825 105.589 72.5796C104.042 71.4767 98.0124 61.2514 98.301 59.7053C98.6 58.1591 105.589 56.3965 105.589 56.3965Z" fill="#FFA496"/>
<path d="M98.0124 42.0479C99.775 42.1922 101.249 44.3259 103.599 48.7376C105.949 53.1493 108.815 59.6637 108.897 60.3234C108.969 60.9831 101.744 65.5082 99.7338 65.7453C98.9195 65.8484 92.5699 56.6745 92.271 54.0357C91.9721 51.3866 98.0124 42.0479 98.0124 42.0479Z" fill="#E5F0FF"/>
<path d="M65.667 163.844C65.667 164.421 65.7082 164.999 65.9247 165.535C66.5741 167.112 68.0481 167.555 69.5221 168.009C70.4395 168.287 71.3465 168.658 72.0578 169.318C73.0267 170.194 73.8204 171.276 74.8924 172.039C76.0675 172.874 77.3456 173.379 78.7784 173.564C80.407 173.781 83.0561 174.348 84.5507 173.399C84.8496 173.204 85.0661 172.905 85.2413 172.585C85.6742 171.822 85.9319 170.792 85.3753 170.101C85.0764 169.73 84.6125 169.544 84.1693 169.379C83.0252 168.967 81.8604 168.575 80.675 168.307C79.7061 168.081 78.9742 167.359 78.0981 166.875C77.2013 166.39 76.253 166.019 75.3047 165.648C74.0574 165.164 72.8102 164.679 71.563 164.195C70.3261 163.71 69.5324 163.123 68.6047 162.174C67.9965 161.556 67.1822 160.979 66.337 161.154C66.1514 161.195 65.9762 161.267 65.8628 161.422C65.7494 161.587 65.7288 161.793 65.7185 161.989C65.6876 162.556 65.6773 163.123 65.6773 163.69C65.6773 163.741 65.6773 163.803 65.6773 163.855L65.667 163.844Z" fill="#EC2D2D"/>
<path d="M79.4998 156.371C79.6029 157.061 79.7781 157.773 80.2316 158.298C80.7779 158.937 81.6335 159.205 82.4581 159.36C83.2827 159.525 84.1383 159.618 84.8804 160.009C85.2618 160.216 85.5916 160.484 85.9318 160.752C87.4573 161.968 89.086 163.122 90.9208 163.761C93.3431 164.607 95.9818 164.524 98.5587 164.431C98.7649 164.431 99.002 164.411 99.1463 164.266C99.2906 164.132 99.3215 163.916 99.3421 163.72C99.3834 163.102 99.3215 162.452 98.9917 161.927C98.5588 161.257 97.7754 160.916 97.0745 160.556C95.3222 159.638 93.7863 158.319 91.9927 157.494C90.2817 156.701 88.3954 156.391 86.5297 156.154C85.7978 156.062 85.0351 155.979 84.3135 156.134C83.6538 156.268 83.6538 156.299 83.025 155.958C82.4994 155.68 81.8912 155.505 81.3964 155.185C80.9635 154.907 80.5512 154.443 79.9637 154.732C79.4483 154.99 79.407 155.711 79.4895 156.278C79.4895 156.309 79.4895 156.34 79.4998 156.371Z" fill="#EC2D2D"/>
<path d="M86.2411 149.795C90.6528 151.784 91.9104 152.98 95.0336 155.959C98.2496 159.02 99.6824 162.793 99.0433 163.277C98.0125 164.06 96.1675 164.019 92.6113 163.277C89.0654 162.545 86.2411 158.309 84.8393 158.391C83.4374 158.463 80.4585 157.969 79.8607 155.536C79.2731 153.114 79.8607 150.351 81.3141 149.795C82.3036 149.413 86.2308 149.795 86.2308 149.795H86.2411Z" fill="white"/>
<path d="M90.725 106.688C91.1682 115.584 91.3022 114.409 90.5703 126.396C89.8385 138.384 88.8593 147.558 89.2819 149.403C89.7045 151.238 91.5908 153.124 92.3123 154.289C92.6113 154.774 92.7865 155.165 92.8793 155.474C93.0854 156.175 92.4876 156.856 91.7557 156.794C90.4467 156.68 87.5296 156.577 84.2517 153.413C82.4685 151.691 80.1389 152.073 81.314 149.785C82.4891 147.507 81.6026 141.909 80.4275 136.467C79.2525 131.025 80.8708 115.656 82.0459 111.162C83.2209 106.667 90.725 106.678 90.725 106.678V106.688Z" fill="#263163"/>
<path d="M87.7151 71.1461C90.8692 77.8667 91.7042 83.6184 92.838 93.5653C93.9719 103.512 90.9311 120.602 90.3951 123.808C89.8591 127.014 84.8495 127.818 82.8395 127.313C80.8192 126.818 80.3038 126.23 78.1289 120.025C75.954 113.82 74.1089 76.4236 74.1089 76.4236L87.7151 71.1357V71.1461Z" fill="#263163"/>
<path d="M73.0678 155.856C74.6139 156.516 75.892 158.454 76.9434 159.68C77.3867 160.196 77.8196 160.876 78.3556 161.298C78.7782 161.628 79.273 161.886 79.7059 162.236C80.7573 163.092 81.7469 164.009 82.6745 164.989C83.4682 165.834 84.231 166.731 84.7464 167.772C85.2618 168.813 85.4989 170.019 85.2412 171.142C84.901 172.596 83.3858 172.926 82.087 172.967C80.5615 173.008 78.7473 172.812 77.4588 171.967C76.5517 171.369 75.7993 170.565 74.9953 169.844C73.8511 168.802 72.573 167.906 71.2123 167.184C70.027 166.555 68.5633 166.236 67.6665 165.184C67.0583 164.473 66.3368 163.896 66.0173 162.989C65.605 161.824 65.6565 160.505 65.7493 159.299C65.9142 157.217 67.2954 155.196 67.2954 155.196L73.0678 155.877V155.856Z" fill="white"/>
<path d="M81.6334 89.0099C82.4477 102.822 77.6958 98.4003 78.6648 105.616C79.644 112.831 80.716 125.118 79.8708 128.571C79.0256 132.024 74.7066 132.065 72.4389 131.282C70.1712 130.498 68.254 126.54 66.7285 121.634C65.1926 116.727 61.286 109.265 59.5027 102.101C57.7195 94.9369 58.8843 89.4325 61.0489 83.3201C63.2032 77.2076 70.4186 70.085 70.4186 70.085L81.6437 89.0306L81.6334 89.0099Z" fill="#2C3873"/>
<path d="M78.5926 107.935C79.3966 113.965 80.0254 126.262 79.8399 128.705C79.51 132.962 75.4385 143.899 75.5106 148.754C75.5828 153.609 75.5931 155.33 76.0157 157.402C76.2219 158.422 77.6237 160.484 76.4074 161.247C76.0776 161.453 75.6756 161.494 75.2839 161.525C74.15 161.607 73.0162 161.556 71.872 161.535C70.9649 161.525 70.4289 161.071 69.6662 160.618C67.5221 159.34 66.8728 157.897 67.0171 155.99C67.1614 154.083 67.0892 152.269 67.0892 152.269C67.0892 152.269 64.6154 139.446 66.0172 131.643C67.4191 123.85 72.7069 116.449 72.6348 114.47C72.5626 112.481 78.5926 107.925 78.5926 107.925V107.935Z" fill="#2C3873"/>
<path d="M63.1414 77.5267C63.4403 81.6498 65.4915 86.7933 71.2329 89.1435C76.9743 91.4936 86.2409 89.5867 88.2922 86.7212C90.3434 83.8556 91.2299 82.5981 92.5596 80.3201C93.879 78.0421 98.0742 71.1978 99.9193 66.2707C101.764 61.3436 102.342 48.2528 101.022 45.748C99.7028 43.2432 91.1989 42.2125 91.1989 42.2125C91.1989 42.2125 85.8492 39.0996 82.0869 41.3776C68.8003 49.397 67.9448 50.7266 66.6975 52.4893C65.4503 54.2519 64.9864 60.2922 65.2853 65.7037C65.5843 71.1153 63.1517 77.5164 63.1517 77.5164L63.1414 77.5267Z" fill="#DCE7F5"/>
<path d="M91.2091 45.4082C95.5074 51.5103 96.2702 54.0873 95.394 60.8182C94.5179 67.5491 90.9514 77.4445 90.9514 77.4445C90.9514 77.4445 92.7965 76.7436 93.683 75.6097C94.5694 74.4656 97.3525 67.2605 98.4657 59.0968C99.5789 50.9331 96.0022 46.7791 92.9511 44.2021C92.3945 44.3877 91.2194 45.4185 91.2194 45.4185L91.2091 45.4082Z" fill="#C3B04B"/>
<path d="M69.1199 49.8912C75.9951 49.6232 80.4584 56.2407 80.9531 62.178C81.4479 68.1152 79.6338 78.5569 78.603 81.2988C81.9839 79.5774 82.2004 78.8455 82.6333 78.4023C83.0765 77.9591 85.303 67.8988 84.3135 61.1884C83.3239 54.4781 80.2007 48.2935 71.7999 47.9121C71.4288 48.1698 69.1199 49.9015 69.1199 49.9015V49.8912Z" fill="#C3B04B"/>
<path d="M98.0432 61.6737C93.4253 65.9411 87.9623 68.3531 80.7984 68.9715C79.747 69.0643 74.3561 70.0641 72.7274 72.2288C71.0885 74.3831 67.1201 87.68 66.6768 94.1017C66.2336 100.523 70.1918 113.429 71.0988 116.49C71.9956 119.541 98.7544 114.841 96.6929 103.008C94.6313 91.1744 93.8274 86.0926 93.7861 83.1446C93.7449 80.1966 96.6723 77.2589 98.9915 73.4142C100.579 70.7857 101.744 63.8795 101.146 60.6738C100.393 60.8284 98.0329 61.6943 98.0329 61.6943L98.0432 61.6737Z" fill="#C3B04B"/>
<path d="M93.4255 43.6253C90.7764 45.6869 92.4463 50.2429 90.6321 51.9333C88.818 53.6238 84.6743 53.3043 81.2624 50.6346C77.6238 47.7896 78.1804 46.6764 78.3247 45.5529C78.469 44.4293 81.4171 40.8835 82.4478 38.5745C83.4786 36.2656 84.4063 31.2148 84.4063 31.2148L93.4255 43.6253Z" fill="#FFA496"/>
<path d="M87.1069 32.1723C86.5503 34.2854 85.334 41.0163 85.571 42.7274C85.7772 44.222 86.8492 48.1802 93.2297 50.417C93.5904 50.5407 94.4253 50.2727 94.6418 50.1799C96.3941 49.3862 98.9607 46.4691 100.765 42.3357C102.568 38.2023 102.754 33.1825 102.723 31.7703C102.692 30.3685 94.8892 28.2039 91.9206 29.3583C88.952 30.5128 87.0966 32.1723 87.0966 32.1723H87.1069Z" fill="#FFA496"/>
<path d="M99.1154 31.9771C98.7134 33.5851 89.8075 34.1211 88.0552 36.3681C86.3029 38.6152 86.1998 41.12 86.1998 41.12L85.0453 36.8526C85.0453 36.8526 83.19 36.5537 83.7878 38.8626C84.3857 41.1715 84.1383 47.552 84.1383 47.552C84.1383 47.552 78.1495 46.0883 78.201 43.1815C78.2526 40.2748 79.7163 33.4923 81.4686 29.3692C83.2312 25.2461 82.8704 21.6797 88.653 20.9787C94.5387 17.6081 100.579 23.7927 102.002 26.7098C103.424 29.6269 103.826 31.6885 103.63 32.6368C103.434 33.5954 102.672 33.7809 102.672 33.7809C102.672 33.7809 102.733 32.8326 102.373 32.3894C102.012 31.9358 100.064 33.1418 99.105 31.9874L99.1154 31.9771Z" fill="#2C3240"/>
<path d="M82.8911 34.6363C83.5198 34.5126 84.4991 36.0897 84.4991 36.0897C84.4991 36.0897 85.602 38.6975 84.4991 39.9035C83.3961 41.1095 81.2315 37.7904 81.4068 36.5329C81.582 35.2754 82.8911 34.626 82.8911 34.626V34.6363Z" fill="#FFA496"/>
<path d="M184.04 168.514L184.03 120.655L178.216 117.295L179.082 165.659L184.04 168.514Z" fill="#805034"/>
<path d="M184.041 168.514V120.655L189.864 117.295L188.988 165.659L184.041 168.514Z" fill="#805034"/>
<path d="M56.5133 139.002L62.3681 135.621L56.5442 132.261L50.6895 135.642L56.5133 139.002Z" fill="#AF6E48"/>
<path d="M56.5133 186.872V139.003L50.6895 135.643L51.5656 184.017L56.5133 186.872Z" fill="#805034"/>
<path d="M56.5132 186.872V139.003L62.337 135.643L61.4712 184.017L56.5132 186.872Z" fill="#805034"/>
<path d="M104.372 166.648L110.227 163.257L104.413 159.896L98.5481 163.277L104.372 166.648Z" fill="#AF6E48"/>
<path d="M104.372 214.507V166.648L98.5481 163.277L99.4243 211.651L104.372 214.507Z" fill="#805034"/>
<path d="M104.372 214.507L104.382 166.648L110.196 163.277L109.33 211.651L104.372 214.507Z" fill="#805034"/>
<path d="M104.382 166.648L189.864 117.295L136.171 86.2891L50.6895 135.642L104.382 166.648Z" fill="#B7744A"/>
<path d="M136.13 93.0406L141.985 89.6494L136.171 86.2891L130.306 89.6803L136.13 93.0406Z" fill="#AF6E48"/>
<path d="M104.382 166.648L189.864 117.294V111.027L104.382 159.453V166.648Z" fill="#AF6E48"/>
<path d="M184.03 120.655L189.895 117.264L184.071 113.903L178.216 117.295L184.03 120.655Z" fill="#AF6E48"/>
<path d="M104.382 166.647V159.452L50.6895 128.437V135.642L104.382 166.647Z" fill="#AF6E48"/>
<path d="M136.13 140.899L141.119 138.023L136.161 135.168L131.182 138.044L136.13 140.899Z" fill="#805034"/>
<path d="M136.13 140.9V93.041L130.306 89.6807L131.182 138.044L136.13 140.9Z" fill="#805034"/>
<path d="M136.13 140.9L136.14 93.041L141.954 89.6807L141.088 138.044L136.13 140.9Z" fill="#805034"/>
<path d="M105.228 163.68L197.554 110.378V104.946L105.228 158.247V163.68Z" fill="#D58557"/>
<path d="M105.228 163.68V158.248L43 122.325V127.747L105.228 163.68Z" fill="#D58557"/>
<path d="M105.228 158.248L197.554 104.946L135.326 69.0137L43 122.325L105.228 158.248Z" fill="#EC9461"/>
<path d="M138.182 120.933L145.603 116.645C150.973 113.542 150.303 108.131 144.098 104.554L126.338 94.2977C120.133 90.721 110.753 90.3293 105.382 93.4319L97.9609 97.7199C92.5905 100.823 93.2605 106.234 99.4658 109.811L117.226 120.067C123.431 123.644 132.811 124.035 138.182 120.933Z" fill="#FFDE86"/>
<path d="M79.6234 72.5285C80.1387 74.0025 82.4889 78.342 82.9322 81.2075C83.3754 84.0731 78.2937 89.1548 76.9021 87.7529C75.5106 86.3511 68.9549 75.394 69.8414 72.5285C70.7278 69.6629 79.6234 72.5285 79.6234 72.5285Z" fill="#FFA496"/>
<path d="M110.897 66.7142C111.649 66.8276 112 65.9721 113.36 66.9307C114.721 67.8893 125.07 84.7424 125.668 85.8453C126.255 86.9482 128.863 86.5463 128.863 86.5463C128.863 86.5463 130.079 86.4741 130.481 86.6184C130.883 86.7627 131.914 87.3193 131.914 87.3193C131.914 87.3193 132.832 91.731 132.502 92.5041C132.172 93.2772 131.182 93.8235 131.182 93.8235L130.121 94.2667C130.121 94.2667 129.564 94.8542 128.616 94.9986C127.657 95.1429 126.111 95.0398 125.338 94.7409C124.565 94.4419 123.349 93.1226 123.349 93.1226C123.349 93.1226 121.71 90.2364 121.297 88.8036C120.885 87.3709 107.062 75.2387 105.722 72.6515C104.382 70.0642 110.897 66.7039 110.897 66.7039V66.7142Z" fill="#FFA496"/>
<path d="M68.9548 51.4072C71.8925 51.9948 76.531 55.6849 77.1288 60.5399C77.7164 65.3948 81.8292 75.218 81.6333 75.7644C81.4375 76.3107 71.6142 79.6607 71.0988 79.001C70.5834 78.3413 64.7493 62.4983 64.739 59.5606C64.7286 56.6229 65.1306 52.0669 68.9548 51.4072Z" fill="#E5F0FF"/>
<path d="M130.183 90.9168C130.193 91.7827 129.595 92.1434 128.853 91.7311C128.111 91.3188 127.503 90.2777 127.492 89.4222C127.482 88.5563 128.08 88.1956 128.822 88.6079C129.564 89.0202 130.172 90.0613 130.193 90.9168H130.183Z" fill="#BD6F42"/>
<mask id="mask0_29_4004" style="mask-type:luminance" maskUnits="userSpaceOnUse" x="122" y="88" width="8" height="7">
<path d="M124.575 94.8444C124.338 94.9784 124.008 94.9682 123.637 94.762C122.895 94.3497 122.287 93.3086 122.266 92.453C122.266 92.0201 122.411 91.7006 122.658 91.5666L127.874 88.5361C127.626 88.6804 127.472 88.9897 127.482 89.4226C127.492 90.2884 128.101 91.3192 128.843 91.7315C129.203 91.9377 129.533 91.948 129.781 91.814C128.214 92.7211 126.132 93.9374 124.565 94.8444H124.575Z" fill="white"/>
</mask>
<g mask="url(#mask0_29_4004)">
<path d="M124.575 94.8444L129.791 91.814C129.554 91.948 129.224 91.9377 128.853 91.7315C128.111 91.3192 127.503 90.2781 127.493 89.4226C127.493 88.9793 127.637 88.6701 127.884 88.5361L122.669 91.5666C122.421 91.7109 122.267 92.0201 122.277 92.453C122.287 93.3189 122.895 94.3497 123.648 94.762C124.009 94.9682 124.338 94.9784 124.586 94.8444H124.575Z" fill="#9E5D38"/>
</g>
<mask id="mask1_29_4004" style="mask-type:luminance" maskUnits="userSpaceOnUse" x="124" y="90" width="7" height="5">
<path d="M129.781 91.8132L124.565 94.8437C124.812 94.6994 124.967 94.3902 124.957 93.9572L130.172 90.9268C130.172 91.37 130.028 91.6792 129.781 91.8132Z" fill="white"/>
</mask>
<g mask="url(#mask1_29_4004)">
<path d="M124.967 93.9475L130.183 90.917C130.183 91.3602 130.039 91.6694 129.791 91.8034L124.575 94.8339C124.823 94.6896 124.977 94.3804 124.967 93.9475Z" fill="#9E5D38"/>
</g>
<mask id="mask2_29_4004" style="mask-type:luminance" maskUnits="userSpaceOnUse" x="122" y="88" width="9" height="6">
<path d="M122.668 91.5561L127.884 88.5257C128.121 88.3813 128.451 88.402 128.822 88.6081C129.564 89.0204 130.172 90.0615 130.193 90.917L124.977 93.9475C124.967 93.0817 124.359 92.0509 123.606 91.6386C123.245 91.4324 122.916 91.4221 122.668 91.5561Z" fill="white"/>
</mask>
<g mask="url(#mask2_29_4004)">
<path d="M122.668 91.5561L127.884 88.5257C128.121 88.3813 128.451 88.402 128.822 88.6081C129.564 89.0204 130.172 90.0615 130.193 90.917L124.977 93.9475C124.967 93.0817 124.359 92.0509 123.606 91.6386C123.245 91.4324 122.916 91.4221 122.668 91.5561Z" fill="#9E5D38"/>
</g>
<path d="M126.4 94.7511C126.42 96.5344 125.194 97.2868 123.658 96.4313C122.122 95.5758 120.854 93.4318 120.834 91.6485C120.813 89.8653 122.04 89.1128 123.575 89.9684C125.111 90.8239 126.379 92.9679 126.4 94.7511ZM124.957 93.9471C124.946 93.0813 124.338 92.0505 123.586 91.6382C122.843 91.2259 122.246 91.5867 122.256 92.4525C122.266 93.3184 122.874 94.3492 123.627 94.7615C124.369 95.1738 124.967 94.813 124.957 93.9471Z" fill="#BD6F42"/>
<mask id="mask3_29_4004" style="mask-type:luminance" maskUnits="userSpaceOnUse" x="102" y="89" width="24" height="19">
<path d="M107.217 107.275C106.723 107.564 106.042 107.533 105.279 107.11C103.744 106.255 102.476 104.111 102.455 102.328C102.445 101.42 102.754 100.781 103.269 100.482L121.638 89.8037C121.122 90.1026 120.813 90.7417 120.823 91.6488C120.844 93.432 122.112 95.576 123.648 96.4316C124.4 96.8542 125.091 96.8851 125.586 96.5965C120.071 99.8022 112.722 104.07 107.217 107.275Z" fill="white"/>
</mask>
<g mask="url(#mask3_29_4004)">
<path d="M107.217 107.275L125.586 96.5965C125.091 96.8851 124.411 96.8542 123.648 96.4316C122.112 95.576 120.844 93.432 120.823 91.6488C120.813 90.7417 121.122 90.1026 121.638 89.8037L103.269 100.482C102.754 100.781 102.445 101.42 102.455 102.328C102.476 104.111 103.744 106.255 105.279 107.11C106.032 107.533 106.723 107.564 107.217 107.275Z" fill="#9E5D38"/>
</g>
<mask id="mask4_29_4004" style="mask-type:luminance" maskUnits="userSpaceOnUse" x="107" y="94" width="20" height="14">
<path d="M125.596 96.5961L107.227 107.275C107.743 106.976 108.052 106.337 108.042 105.43L126.41 94.751C126.42 95.6581 126.111 96.2971 125.596 96.5961Z" fill="white"/>
</mask>
<g mask="url(#mask4_29_4004)">
<path d="M108.032 105.43L126.4 94.751C126.41 95.6581 126.101 96.2971 125.586 96.5961L107.217 107.275C107.733 106.976 108.042 106.337 108.032 105.43Z" fill="#9E5D38"/>
</g>
<mask id="mask5_29_4004" style="mask-type:luminance" maskUnits="userSpaceOnUse" x="103" y="89" width="24" height="17">
<path d="M103.269 100.482L121.638 89.8036C122.132 89.515 122.813 89.5459 123.575 89.9685C125.111 90.824 126.379 92.9681 126.4 94.7513L108.031 105.43C108.011 103.647 106.743 101.503 105.207 100.647C104.455 100.225 103.764 100.194 103.269 100.482Z" fill="white"/>
</mask>
<g mask="url(#mask5_29_4004)">
<path d="M103.269 100.482L121.638 89.8036C122.132 89.515 122.813 89.5459 123.575 89.9685C125.111 90.824 126.379 92.9681 126.4 94.7513L108.031 105.43C108.011 103.647 106.743 101.503 105.207 100.647C104.455 100.225 103.764 100.194 103.269 100.482Z" fill="#9E5D38"/>
</g>
<path d="M108.032 105.431C108.052 107.214 106.825 107.967 105.29 107.111C103.754 106.255 102.486 104.111 102.465 102.328C102.445 100.545 103.671 99.7925 105.207 100.648C106.743 101.504 108.011 103.648 108.032 105.431ZM106.588 104.627C106.578 103.761 105.97 102.73 105.218 102.318C104.475 101.906 103.878 102.266 103.888 103.132C103.898 103.998 104.506 105.029 105.259 105.441C106.001 105.853 106.599 105.493 106.588 104.627Z" fill="#BD6F42"/>
<mask id="mask6_29_4004" style="mask-type:luminance" maskUnits="userSpaceOnUse" x="98" y="102" width="9" height="7">
<path d="M100.981 108.544C100.744 108.678 100.414 108.667 100.043 108.461C99.3008 108.049 98.6927 107.008 98.6824 106.152C98.6824 105.719 98.8267 105.4 99.074 105.266L104.29 102.235C104.042 102.38 103.888 102.689 103.898 103.122C103.908 103.988 104.517 105.018 105.269 105.431C105.63 105.637 105.96 105.647 106.207 105.513C104.64 106.42 102.558 107.637 100.991 108.544H100.981Z" fill="white"/>
</mask>
<g mask="url(#mask6_29_4004)">
<path d="M100.981 108.544L106.196 105.513C105.959 105.658 105.63 105.637 105.258 105.431C104.516 105.018 103.908 103.977 103.888 103.122C103.888 102.679 104.032 102.369 104.279 102.235L99.0636 105.266C98.8162 105.41 98.6616 105.719 98.6719 106.152C98.6822 107.018 99.2903 108.049 100.032 108.461C100.393 108.667 100.723 108.678 100.971 108.544H100.981Z" fill="#9E5D38"/>
</g>
<mask id="mask7_29_4004" style="mask-type:luminance" maskUnits="userSpaceOnUse" x="100" y="104" width="7" height="5">
<path d="M106.197 105.512L100.981 108.543C101.228 108.399 101.383 108.089 101.373 107.656L106.588 104.626C106.588 105.069 106.444 105.378 106.197 105.512Z" fill="white"/>
</mask>
<g mask="url(#mask7_29_4004)">
<path d="M101.373 107.656L106.588 104.626C106.588 105.069 106.444 105.378 106.197 105.512L100.981 108.543C101.228 108.399 101.383 108.089 101.373 107.656Z" fill="#9E5D38"/>
</g>
<mask id="mask8_29_4004" style="mask-type:luminance" maskUnits="userSpaceOnUse" x="99" y="102" width="8" height="6">
<path d="M99.074 105.266L104.29 102.235C104.527 102.101 104.857 102.111 105.228 102.318C105.97 102.73 106.578 103.771 106.599 104.627L101.383 107.657C101.373 106.791 100.764 105.76 100.012 105.348C99.6512 105.142 99.3214 105.132 99.074 105.266Z" fill="white"/>
</mask>
<g mask="url(#mask8_29_4004)">
<path d="M99.074 105.266L104.29 102.235C104.527 102.101 104.857 102.111 105.228 102.318C105.97 102.73 106.578 103.771 106.599 104.627L101.383 107.657C101.373 106.791 100.764 105.76 100.012 105.348C99.6512 105.142 99.3214 105.132 99.074 105.266Z" fill="#9E5D38"/>
</g>
<path d="M101.373 107.657C101.383 108.523 100.785 108.884 100.043 108.471C99.3009 108.059 98.6928 107.018 98.6825 106.162C98.6722 105.297 99.27 104.936 100.012 105.348C100.754 105.76 101.363 106.802 101.383 107.657H101.373Z" fill="#BD6F42"/>
<path d="M80.4687 78.8975C82.0149 80.4848 83.2724 81.3816 84.1795 83.0721C85.0866 84.7626 95.3427 101.131 96.6106 101.884C97.8784 102.636 101.94 101.667 102.826 101.884C103.713 102.1 106.362 105.924 106.393 106.666C106.434 107.398 105.661 107.842 105.661 107.842C105.661 107.842 105.444 108.831 104.3 108.944L103.156 109.058C103.156 109.058 102.568 109.718 101.94 109.903C101.311 110.089 100.558 110.202 100.558 110.202C100.558 110.202 100.167 110.573 99.2494 110.46C98.332 110.346 97.0744 109.986 96.7858 109.614C96.4972 109.243 96.6003 108.326 96.6003 108.326C96.6003 108.326 95.9406 108.542 94.4356 108.14C92.9307 107.738 92.3535 106.048 91.2506 104.945C90.1476 103.842 78.4072 91.3595 76.5002 86.6488C74.5933 81.9382 80.4584 78.8975 80.4584 78.8975H80.4687Z" fill="#FFA496"/>
<path d="M136.192 85.3913L136.821 85.0305C139.944 83.2266 144.665 83.0308 147.366 84.5976L157.22 92.2253C158.117 92.7406 158.003 93.6477 156.972 94.2456L150.458 98.0079C149.427 98.6057 147.86 98.6676 146.964 98.1522L135.429 91.4934C132.729 89.937 133.069 87.2054 136.182 85.4016L136.192 85.3913Z" fill="#EC9461"/>
<path d="M140.49 63.3736C138.8 62.3943 136.501 63.9096 136.501 66.1566V76.3716C136.501 78.6187 137.872 81.2368 139.552 82.2057L146.314 86.1124V66.7339L140.49 63.3736ZM142.686 78.9073C142.686 80.7421 141.572 81.577 140.201 80.7833C138.831 79.9896 137.717 77.8662 137.717 76.0314V67.744C137.717 65.9093 138.831 65.0743 140.201 65.868C141.572 66.6617 142.686 68.7851 142.686 70.6199V78.9073Z" fill="#FAF9F8"/>
<path d="M138.13 81.9886C136.759 81.1949 135.646 79.0715 135.646 77.2368V68.9494C135.646 67.1146 136.759 66.2796 138.13 67.0733C139.501 67.867 140.614 69.9904 140.614 71.8252V80.1126C140.614 81.9474 139.501 82.7823 138.13 81.9886Z" fill="url(#paint0_linear_29_4004)"/>
<path d="M138.583 81.5043C137.264 80.7415 136.192 78.6903 136.192 76.9277V68.6815C136.192 66.9189 137.264 66.1046 138.583 66.8674C139.903 67.6301 140.975 69.6814 140.975 71.444V79.6901C140.975 81.4527 139.903 82.2671 138.583 81.5043Z" fill="url(#paint1_linear_29_4004)"/>
<path d="M137.985 63.4766L136.027 64.6104L141.83 67.0327L141.026 64.899L137.985 63.4766Z" fill="#FAF9F8"/>
<path d="M138.418 64.5699C136.728 63.5906 134.429 65.1059 134.429 67.3529V77.5679C134.429 79.8149 135.8 82.4331 137.48 83.402L144.242 87.3087V67.9302L138.418 64.5699ZM140.614 80.1036C140.614 81.9384 139.501 82.7733 138.13 81.9796C136.759 81.1859 135.646 79.0625 135.646 77.2277V68.9403C135.646 67.1055 136.759 66.2706 138.13 67.0643C139.501 67.858 140.614 69.9814 140.614 71.8162V80.1036Z" fill="url(#paint2_linear_29_4004)"/>
<path d="M140.882 87.4522L141.511 87.0914C144.634 85.2875 147.407 83.9681 150.107 85.5246L153.282 89.2869C154.179 89.8023 154.065 90.7094 153.035 91.3072L146.52 95.0696C145.489 95.6674 143.923 95.7293 143.026 95.2139L140.129 93.544C137.429 91.9875 137.769 89.256 140.882 87.4522Z" fill="url(#paint3_linear_29_4004)"/>
<path d="M153.715 90.6985L155.725 86.7609L138.305 85.8848V90.9562L153.715 90.6985Z" fill="url(#paint4_linear_29_4004)"/>
<path d="M140.882 82.4026L141.511 82.0419C144.634 80.238 147.685 81.0111 150.386 82.5675L155.272 85.3919C156.169 85.9072 156.055 86.8143 155.024 87.4122L148.51 91.1745C147.479 91.7723 145.912 91.8342 145.016 91.3188L140.13 88.4945C137.429 86.938 137.769 84.2065 140.882 82.4026Z" fill="url(#paint5_linear_29_4004)"/>
<path d="M155.88 68.3427V86.2677L138.305 85.8864V67.8994L155.88 68.3427Z" fill="url(#paint6_linear_29_4004)"/>
<path d="M140.882 75.0433L141.511 74.6825C144.634 72.8786 147.685 73.6517 150.386 75.2082L157.22 79.156C158.117 79.6714 158.003 80.5785 156.973 81.1763L150.458 84.9387C149.427 85.5365 147.86 85.5983 146.964 85.083L140.13 81.1351C137.429 79.5787 137.769 76.8471 140.882 75.0433Z" fill="url(#paint7_linear_29_4004)"/>
<path d="M157.828 69.4765V80.0316L138.305 78.5267V67.8994L157.828 69.4765Z" fill="url(#paint8_linear_29_4004)"/>
<path d="M140.882 64.4866L141.511 64.1258C144.634 62.322 147.685 63.0951 150.386 64.6515L157.22 68.5994C158.116 69.1148 158.003 70.0218 156.972 70.6197L150.458 74.382C149.427 74.9799 147.86 75.0417 146.963 74.5263L140.129 70.5785C137.429 69.022 137.769 66.2905 140.882 64.4866Z" fill="white"/>
<path d="M170.97 112.603C178.251 112.583 184.144 109.147 184.132 104.929C184.12 100.71 178.208 97.3071 170.927 97.3274C163.646 97.3478 157.753 100.784 157.765 105.002C157.777 109.221 163.689 112.624 170.97 112.603Z" fill="#AF6E48"/>
<mask id="mask9_29_4004" style="mask-type:luminance" maskUnits="userSpaceOnUse" x="162" y="98" width="18" height="12">
<path d="M170.98 103.986C170.98 103.986 170.97 103.986 170.96 103.986C170.96 103.986 170.96 103.986 170.96 103.997C170.96 103.997 170.97 103.997 170.98 103.997C170.991 103.997 170.98 103.997 170.98 103.986C171.351 103.78 176.495 100.904 177.258 100.482C180.587 102.481 180.474 105.677 177 107.615C173.526 109.552 168.012 109.491 164.682 107.491C161.353 105.491 161.466 102.296 164.94 100.358C168.414 98.4201 173.928 98.4819 177.258 100.482C176.505 100.904 171.351 103.77 170.98 103.986Z" fill="white"/>
</mask>
<g mask="url(#mask9_29_4004)">
<path d="M170.98 103.986C171.351 103.78 176.495 100.904 177.258 100.482C173.928 98.4819 168.414 98.4201 164.94 100.358C161.466 102.296 161.353 105.491 164.682 107.491C168.012 109.491 173.526 109.552 177 107.615C180.474 105.677 180.587 102.481 177.258 100.482C176.505 100.904 171.351 103.77 170.98 103.986C170.98 103.986 170.98 103.986 170.98 103.997C170.98 104.007 170.97 103.997 170.96 103.997C170.96 103.997 170.96 103.997 170.96 103.986C170.96 103.986 170.97 103.986 170.98 103.986Z" fill="#B12222"/>
</g>
<mask id="mask10_29_4004" style="mask-type:luminance" maskUnits="userSpaceOnUse" x="155" y="81" width="32" height="29">
<path d="M155.261 90.6384C155.261 88.247 156.869 85.8556 160.085 84.0621C166.331 80.5781 176.258 80.6812 182.257 84.2889C182.257 84.7733 182.288 93.9369 177.268 100.493C173.939 98.4929 168.424 98.431 164.95 100.369C161.477 102.307 161.363 105.502 164.693 107.502C168.022 109.502 173.537 109.563 177.01 107.626C180.484 105.688 180.597 102.492 177.268 100.493C182.288 93.9369 182.257 84.763 182.257 84.2889C185.164 86.0412 186.617 88.2985 186.627 90.5559C186.627 91.2981 186.576 93.2978 186.04 95.6995C185.463 98.2867 184.648 99.9875 184.411 100.451C184.257 100.75 184.061 101.152 183.896 101.441C183.587 101.967 183.143 102.647 182.793 103.152C182.422 103.688 181.824 104.317 181.391 104.801C180.886 105.358 179.546 106.512 178.144 107.265C177.484 107.615 175.949 108.44 173.609 108.842C172.485 109.038 170.733 109.203 168.713 108.904C165.414 108.409 162.6 106.955 160.343 104.595C158.425 102.595 157.333 100.255 156.745 98.6475C156.539 98.0703 156.055 96.7302 155.663 94.6069C155.55 94.0193 155.302 92.4423 155.282 90.659L155.261 90.6384Z" fill="white"/>
</mask>
<g mask="url(#mask10_29_4004)">
<path d="M155.261 90.6384C155.292 93.4627 156.003 103.008 164.084 107.409C168.702 109.924 176.309 109.883 181.319 104.842C186.174 99.9566 186.597 92.6896 186.617 90.5869C186.617 88.2985 185.164 86.0412 182.247 84.2889C182.247 84.7733 182.278 93.9369 177.258 100.493C180.587 102.492 180.474 105.688 177 107.626C173.526 109.563 168.012 109.502 164.682 107.502C161.353 105.502 161.466 102.307 164.94 100.369C168.414 98.431 173.928 98.4929 177.258 100.493C182.278 93.9369 182.247 84.763 182.247 84.2889C176.248 80.6812 166.321 80.5781 160.075 84.0621C156.859 85.8556 155.24 88.247 155.251 90.6384H155.261Z" fill="#F48585"/>
<path d="M177.258 100.492C180.587 102.492 180.474 105.687 177 107.625C173.526 109.563 168.012 109.501 164.682 107.501C161.353 105.502 161.466 102.306 164.94 100.368C165.383 100.121 165.857 99.9045 166.352 99.7293C166.146 99.4819 165.878 99.1521 165.672 98.915C165.26 95.8227 168.166 95.8536 169.465 96.6988C170.424 97.3276 170.352 97.9461 170.228 98.9768C172.753 98.8531 175.361 99.3582 177.247 100.502C182.267 93.9466 182.236 84.7728 182.236 84.2986C176.237 80.6909 166.311 80.5879 160.065 84.0719C156.849 85.8654 155.23 88.2568 155.241 90.6482C155.241 90.8131 155.241 91.0296 155.251 91.2048L155.271 91.6893C155.282 91.8645 155.302 92.1016 155.313 92.2871L155.385 92.9674C155.416 93.2045 155.457 93.524 155.488 93.7611L155.622 94.6063C155.673 94.895 155.746 95.2764 155.807 95.565L156.034 96.5236C156.127 96.8534 156.251 97.2967 156.354 97.6265L156.704 98.647C156.849 99.018 157.044 99.5025 157.199 99.8633L157.683 100.873C157.91 101.275 158.209 101.811 158.446 102.203L159.065 103.121C159.425 103.574 159.91 104.162 160.291 104.595L161.013 105.306C161.93 106.089 162.147 106.275 163.27 106.996L164.054 107.439C164.322 107.563 164.672 107.738 164.94 107.862L165.693 108.161C165.93 108.243 166.249 108.357 166.486 108.429L167.208 108.625C167.435 108.676 167.723 108.749 167.95 108.79L168.651 108.913C168.867 108.944 169.146 108.975 169.362 108.996L170.053 109.047C170.259 109.047 170.537 109.068 170.743 109.068H171.434C171.64 109.047 171.918 109.037 172.125 109.017L172.825 108.944C173.042 108.913 173.32 108.872 173.537 108.841L174.258 108.697C174.475 108.645 174.774 108.573 174.99 108.511L175.732 108.285C175.969 108.202 176.279 108.089 176.516 107.996L177.299 107.656C177.557 107.522 177.907 107.357 178.155 107.213L178.979 106.718C179.67 106.233 180.443 105.687 181.329 104.801L182.061 104.007C182.432 103.533 182.917 102.894 183.257 102.399L183.834 101.44C184.051 101.018 184.349 100.461 184.545 100.039L184.968 99.0284C185.102 98.6573 185.287 98.1625 185.411 97.7811L185.7 96.7916C185.782 96.4617 185.896 96.0288 185.968 95.699L186.153 94.7919C186.205 94.5136 186.267 94.1425 186.308 93.8642L186.411 93.0911C186.432 92.8643 186.463 92.5654 186.483 92.349L186.524 91.7511C186.524 91.5965 186.545 91.38 186.545 91.2254V90.8647C186.545 90.7822 186.555 90.6688 186.555 90.576C186.555 88.3187 185.102 86.0613 182.185 84.3089C182.185 84.7934 182.216 93.957 177.196 100.513L177.258 100.492Z" fill="#F48585"/>
<path d="M177.258 100.493C180.587 102.492 180.474 105.688 177 107.625C173.526 109.563 168.012 109.502 164.682 107.502C161.951 105.853 161.539 103.41 163.394 101.513C163.27 101.266 163.105 100.936 162.982 100.688C161.662 98.2867 164.002 92.4732 169.249 94.3389C170.496 94.7821 172.619 95.9881 172.856 99.0701C174.485 99.2763 176.021 99.7504 177.258 100.493C182.278 93.9369 182.247 84.763 182.247 84.2889C176.248 80.6812 166.321 80.5781 160.075 84.0621C156.859 85.8556 155.24 88.247 155.251 90.6384C155.251 90.8033 155.251 91.0198 155.261 91.195L155.282 91.6795C155.292 91.8547 155.313 92.0918 155.323 92.2773L155.395 92.9576C155.426 93.1947 155.467 93.5143 155.498 93.7513L155.632 94.5966C155.684 94.8852 155.756 95.2666 155.818 95.5552L156.044 96.5138C156.137 96.8436 156.261 97.2869 156.364 97.6167L156.714 98.6372C156.859 99.0083 157.055 99.4927 157.209 99.8535L157.694 100.864C157.921 101.266 158.219 101.802 158.456 102.193L159.075 103.111C159.436 103.564 159.92 104.152 160.302 104.585L161.023 105.296C161.94 106.079 162.157 106.265 163.28 106.986L164.064 107.43C164.332 107.553 164.682 107.729 164.95 107.852L165.703 108.151C165.94 108.234 166.259 108.347 166.496 108.419L167.218 108.615C167.445 108.667 167.733 108.739 167.96 108.78L168.661 108.904C168.878 108.935 169.156 108.966 169.372 108.986L170.063 109.038C170.269 109.038 170.547 109.058 170.754 109.058H171.444C171.65 109.038 171.929 109.027 172.135 109.007L172.836 108.935C173.052 108.904 173.331 108.862 173.547 108.832L174.269 108.687C174.485 108.636 174.784 108.564 175 108.502L175.743 108.275C175.98 108.192 176.289 108.079 176.526 107.986L177.309 107.646C177.567 107.512 177.917 107.347 178.165 107.203L178.989 106.708C179.68 106.224 180.453 105.677 181.34 104.791L182.071 103.997C182.443 103.523 182.927 102.884 183.267 102.389L183.844 101.431C184.061 101.008 184.36 100.451 184.556 100.029L184.978 99.0186C185.112 98.6475 185.298 98.1527 185.421 97.7713L185.71 96.7818C185.793 96.452 185.906 96.019 185.978 95.6892L186.164 94.7821C186.215 94.5038 186.277 94.1327 186.318 93.8544L186.421 93.0813C186.442 92.8546 186.473 92.5556 186.493 92.3392L186.535 91.7413C186.535 91.5867 186.555 91.3703 186.555 91.2156V90.8549C186.555 90.7724 186.566 90.659 186.566 90.5663C186.566 88.3089 185.112 86.0515 182.195 84.2991C182.195 84.7836 182.226 93.9472 177.206 100.503L177.258 100.493Z" fill="#EC2D2D"/>
<path d="M177.619 100.008C177.567 100.245 177.742 100.575 177.763 100.822C180.567 102.832 180.288 105.791 177.01 107.625C173.537 109.563 168.022 109.502 164.693 107.502C164.6 107.45 164.518 107.388 164.435 107.337C164.27 107.254 164.054 107.141 163.889 107.069C154.931 101.925 156.302 90.7208 162.374 88.9376C168.156 87.2368 175.99 92.937 177.629 100.018C182.288 93.5039 182.267 84.763 182.267 84.2889C176.268 80.6812 166.342 80.5781 160.096 84.0621C156.88 85.8556 155.261 88.247 155.272 90.6384C155.272 90.8033 155.272 91.0198 155.282 91.195L155.302 91.6795C155.313 91.8547 155.333 92.0918 155.344 92.2773L155.416 92.9576C155.447 93.1947 155.488 93.5143 155.519 93.7513L155.653 94.5966C155.704 94.8852 155.777 95.2666 155.838 95.5552L156.065 96.5138C156.158 96.8436 156.282 97.2869 156.385 97.6167L156.735 98.6372C156.88 99.0083 157.075 99.4927 157.23 99.8535L157.714 100.864C157.941 101.266 158.24 101.802 158.477 102.193L159.096 103.111C159.456 103.564 159.941 104.152 160.322 104.585L161.044 105.296C161.961 106.079 162.178 106.265 163.301 106.986L164.085 107.43C164.353 107.553 164.703 107.729 164.971 107.852L165.724 108.151C165.961 108.234 166.28 108.347 166.517 108.419L167.239 108.615C167.466 108.667 167.754 108.739 167.981 108.78L168.682 108.904C168.898 108.935 169.177 108.966 169.393 108.986L170.084 109.038C170.29 109.038 170.568 109.058 170.774 109.058H171.465C171.671 109.038 171.949 109.027 172.156 109.007L172.856 108.935C173.073 108.904 173.351 108.862 173.568 108.832L174.289 108.687C174.506 108.636 174.805 108.564 175.021 108.502L175.763 108.275C176 108.192 176.31 108.079 176.547 107.986L177.33 107.646C177.588 107.512 177.938 107.347 178.186 107.203L179.01 106.708C179.701 106.224 180.474 105.677 181.36 104.791L182.092 103.997C182.463 103.523 182.948 102.884 183.288 102.389L183.865 101.431C184.082 101.008 184.38 100.451 184.576 100.029L184.999 99.0186C185.133 98.6475 185.318 98.1527 185.442 97.7713L185.731 96.7818C185.813 96.452 185.927 96.019 185.999 95.6892L186.184 94.7821C186.236 94.5038 186.298 94.1327 186.339 93.8544L186.442 93.0813C186.463 92.8546 186.494 92.5556 186.514 92.3392L186.555 91.7413C186.555 91.5867 186.576 91.3703 186.576 91.2156V90.8549C186.576 90.7724 186.586 90.659 186.586 90.5663C186.586 88.3089 185.133 86.0515 182.216 84.2991C182.216 84.7733 182.247 93.5142 177.577 100.029L177.619 100.008Z" fill="#B12222"/>
</g>
<mask id="mask11_29_4004" style="mask-type:luminance" maskUnits="userSpaceOnUse" x="180" y="84" width="6" height="14">
<path d="M185.36 91.5776C184.917 93.6907 184.484 95.8141 184.041 97.9272C184.494 95.7316 183.309 93.4433 180.464 91.7322L181.412 84.7539C184.546 86.6402 185.855 89.1656 185.35 91.5776H185.36Z" fill="white"/>
</mask>
<g mask="url(#mask11_29_4004)">
<path d="M185.36 91.5776L184.041 97.9272C184.494 95.7316 183.309 93.4433 180.464 91.7322L181.412 84.7539C184.546 86.6402 185.855 89.1656 185.35 91.5776H185.36Z" fill="#DB0D0D"/>
</g>
<mask id="mask12_29_4004" style="mask-type:luminance" maskUnits="userSpaceOnUse" x="156" y="82" width="26" height="16">
<path d="M157.869 97.9971C157.415 95.884 156.962 93.771 156.519 91.6579C155.972 89.1119 157.436 86.4525 160.879 84.5353C166.672 81.3089 175.866 81.4017 181.422 84.7414L180.474 91.7197C175.433 88.6893 167.094 88.6068 161.837 91.5342C158.714 93.2762 157.385 95.6882 157.879 97.9971H157.869Z" fill="white"/>
</mask>
<g mask="url(#mask12_29_4004)">
<path d="M181.422 84.7414L180.474 91.7197C175.433 88.6893 167.095 88.6068 161.838 91.5342C158.714 93.2762 157.385 95.6882 157.879 97.9971L156.529 91.6579C155.983 89.1119 157.447 86.4525 160.889 84.5353C166.682 81.3089 175.877 81.4017 181.433 84.7414H181.422Z" fill="#DB0D0D"/>
</g>
<path d="M180.463 91.7314C185.504 94.7619 185.329 99.5962 180.082 102.524C174.825 105.451 166.486 105.369 161.446 102.338C156.405 99.3076 156.58 94.4733 161.827 91.5459C167.084 88.6185 175.423 88.701 180.463 91.7314Z" fill="#FFDE86"/>
<mask id="mask13_29_4004" style="mask-type:luminance" maskUnits="userSpaceOnUse" x="156" y="91" width="30" height="14">
<path d="M156.519 91.6586C156.89 93.4006 158.199 95.0808 160.456 96.4414C166.012 99.7811 175.207 99.8739 181 96.6475C183.515 95.2457 184.978 93.4419 185.36 91.5762C184.917 93.6893 184.484 95.8126 184.04 97.9257C183.69 99.6162 182.371 101.255 180.082 102.523C174.825 105.45 166.486 105.368 161.446 102.337C159.395 101.111 158.209 99.5749 157.879 97.9979C157.426 95.8848 156.972 93.7717 156.529 91.6586H156.519Z" fill="white"/>
</mask>
<g mask="url(#mask13_29_4004)">
<path d="M156.519 91.6586L157.869 97.9979C158.209 99.5749 159.394 101.1 161.435 102.337C166.476 105.368 174.815 105.45 180.072 102.523C182.36 101.245 183.679 99.6162 184.03 97.9257L185.349 91.5762C184.958 93.4419 183.504 95.2457 180.989 96.6475C175.196 99.8739 166.002 99.7811 160.446 96.4414C158.188 95.0808 156.879 93.4006 156.508 91.6586H156.519Z" fill="#B12222"/>
</g>
<path d="M182.257 84.2781C188.256 87.8858 188.05 93.6375 181.793 97.1215C175.547 100.606 165.62 100.502 159.621 96.8947C153.622 93.287 153.828 87.5354 160.085 84.0513C166.332 80.5673 176.258 80.6704 182.257 84.2781ZM181.422 84.742C175.866 81.4023 166.672 81.3095 160.879 84.5358C155.086 87.7621 154.9 93.0912 160.456 96.4309C166.012 99.7706 175.207 99.8634 181 96.6371C186.792 93.4107 186.978 88.0817 181.422 84.742Z" fill="#FF3B3B"/>
<mask id="mask14_29_4004" style="mask-type:luminance" maskUnits="userSpaceOnUse" x="155" y="90" width="32" height="20">
<path d="M163.301 106.975C162.796 106.656 162.126 106.223 161.673 105.831C160.944 105.199 160.254 104.508 159.601 103.759C159.219 103.326 158.776 102.677 158.467 102.193C158.116 101.626 157.684 100.832 157.395 100.234C156.952 99.3373 156.292 97.6056 155.859 95.678C155.601 94.503 155.282 92.6785 155.261 90.6479C155.261 92.9053 156.715 95.1627 159.632 96.915C165.631 100.523 175.557 100.626 181.804 97.1418C185.02 95.3482 186.638 92.9568 186.628 90.5654C186.617 92.9877 186.195 94.9771 186.05 95.6265C185.731 97.1418 185.185 98.791 184.597 100.049C184.339 100.595 184.02 101.285 183.308 102.409C182.958 102.966 182.412 103.646 181.989 104.151C181.628 104.584 181.082 105.12 180.659 105.491C180.216 105.883 179.577 106.347 179.093 106.687C178.216 107.305 176.691 108.006 175.815 108.284C175.073 108.511 174.588 108.666 173.599 108.841C173.052 108.944 172.156 109.047 171.486 109.057C170.795 109.068 169.166 109.099 167.259 108.625C165.291 108.13 163.93 107.388 163.301 106.996V106.975Z" fill="white"/>
</mask>
<g mask="url(#mask14_29_4004)">
<path d="M163.301 106.976C155.942 102.389 155.282 93.3078 155.261 90.6381C155.261 92.8955 156.715 95.1529 159.632 96.9052C165.631 100.513 175.557 100.616 181.804 97.132C185.02 95.3384 186.638 92.9471 186.628 90.5557C186.617 93.8129 185.855 101.915 179.103 106.677C175.392 109.285 168.599 110.285 163.312 106.986L163.301 106.976Z" fill="#EC2D2D"/>
</g>
<path d="M113.783 147.382C111.371 148.99 109.176 148.454 108.042 146.753C106.908 145.053 107.259 142.826 109.671 141.218C112.083 139.61 115.649 139.229 116.783 140.929C117.917 142.63 116.195 145.774 113.783 147.382Z" fill="white"/>
<path d="M101.971 138.177C99.7235 136.342 97.497 136.651 96.1982 138.239C94.8994 139.816 95.0334 142.073 97.2702 143.908C99.507 145.743 103.022 146.485 104.321 144.898C105.619 143.321 104.207 140.022 101.971 138.177Z" fill="white"/>
<path d="M111.124 137.198C111.124 140.094 109.464 141.62 107.423 141.62C105.382 141.62 103.723 140.094 103.723 137.198C103.723 134.301 105.382 131.116 107.423 131.116C109.464 131.116 111.124 134.291 111.124 137.198Z" fill="white"/>
<path d="M71.0989 131.735L86.5089 140.631L88.0344 119.799L72.6347 110.903L71.0989 131.735Z" fill="#FFB84A"/>
<path d="M75.3148 106.821L75.6962 106.595L78.3865 107.584L93.7862 116.48L88.0345 119.799L72.6348 110.903L75.3148 106.821Z" fill="#FFC469"/>
<path d="M86.5088 140.63L95.3219 135.538L93.786 116.479L88.0343 119.799L86.5088 140.63Z" fill="#FFD696"/>
<path d="M90.7248 115.717L91.1061 115.49L93.7861 116.48L88.0344 119.799L90.7248 115.717Z" fill="#FFD696"/>
<path d="M90.7556 136.054L91.1369 135.828L95.3219 135.539L86.5088 140.631L90.7556 136.054Z" fill="#FFB84A"/>
<path d="M91.1061 120.572L90.7248 120.788L88.0344 119.799L93.7861 116.479L91.1061 120.572Z" fill="#FFCC7D"/>
<path d="M154.591 74.8257C154.313 74.6711 153.942 74.6814 153.519 74.9185C152.664 75.3926 151.963 76.578 151.953 77.5676C151.953 78.0726 152.118 78.4231 152.406 78.588L153.468 79.2065C153.19 79.0416 153.014 78.6911 153.014 78.186C153.025 77.1965 153.726 76.0111 154.581 75.537C155.004 75.2999 155.375 75.2896 155.653 75.4442L154.591 74.8257Z" fill="#BEBEBE"/>
<path d="M156.127 74.63C155.735 74.4033 155.189 74.4239 154.591 74.764C153.375 75.4444 152.365 77.1451 152.354 78.5573C152.354 79.2788 152.592 79.7839 153.004 80.021L153.581 80.3508C153.179 80.1137 152.932 79.6087 152.932 78.8871C152.952 77.475 153.952 75.7742 155.169 75.0939C155.766 74.764 156.313 74.7331 156.704 74.9599L156.127 74.63Z" fill="#BEBEBE"/>
<path d="M152.262 79.2584C152.283 77.4236 153.592 75.2178 155.169 74.3313C156.756 73.4448 158.024 74.2179 157.993 76.0527C157.972 77.8875 156.663 80.0933 155.086 80.9798C153.499 81.8662 152.231 81.0932 152.262 79.2584Z" fill="#E8E8E8"/>
<path d="M155.849 76.4241C155.674 76.321 155.427 76.3313 155.148 76.4859C154.592 76.7951 154.128 77.5785 154.117 78.2279C154.117 78.5578 154.231 78.7845 154.416 78.8979L155.375 79.4545C155.189 79.3515 155.076 79.1144 155.076 78.7845C155.076 78.1352 155.54 77.3621 156.107 77.0425C156.385 76.8879 156.632 76.8776 156.808 76.9807L155.849 76.4241Z" fill="#BEBEBE"/>
<path d="M155.076 78.7742C155.076 78.1248 155.54 77.3517 156.107 77.0322C156.674 76.7127 157.117 76.991 157.106 77.6404C157.096 78.2897 156.643 79.0628 156.076 79.3824C155.509 79.7019 155.066 79.4236 155.076 78.7742Z" fill="#E8E8E8"/>
<path d="M156.241 77.6094C156.179 77.5682 156.086 77.5785 155.983 77.63C155.777 77.7434 155.612 78.0321 155.602 78.2691C155.602 78.3928 155.643 78.4753 155.715 78.5165L163.951 83.2993C163.879 83.258 163.837 83.1756 163.837 83.0519C163.837 82.8148 164.013 82.5262 164.219 82.4128C164.322 82.3613 164.415 82.351 164.476 82.3922L156.241 77.6094Z" fill="#BEBEBE"/>
<path d="M170.002 90.5563C169.136 90.5563 168.27 90.3605 167.6 89.9688L167.291 89.7936C165.652 88.8453 164.456 87.6496 163.837 86.3302L162.137 82.7019L164.322 81.4443L170.012 82.3308C172.187 82.671 174.186 83.3409 175.784 84.2686L176.093 84.4439C176.835 84.8768 177.248 85.4746 177.248 86.1446C177.248 86.8147 176.846 87.4022 176.104 87.8351L172.383 89.9791C171.713 90.3605 170.857 90.5563 170.002 90.5563ZM163.528 83.1451L164.806 85.8766C165.332 86.9899 166.373 88.031 167.827 88.8659L168.136 89.0411C169.146 89.6183 170.836 89.6287 171.836 89.0411L175.557 86.8971C175.939 86.6807 176.155 86.4023 176.155 86.1446C176.155 85.887 175.928 85.6087 175.537 85.3819L175.227 85.2066C173.733 84.3511 171.867 83.7223 169.826 83.4028L164.507 82.5679L163.508 83.1451H163.528Z" fill="#B2B7F4"/>
<path d="M172.723 92.7621C172.331 92.7621 171.919 92.6384 171.496 92.391L171.187 92.2158C169.579 91.2881 168.002 89.8966 166.621 88.1855L163.003 83.7016V81.1762L166.992 80.8361C168.445 80.7124 170.074 81.1453 171.723 82.0936L172.032 82.2689C173.383 83.0419 174.434 84.8664 174.434 86.4126V90.7109C174.434 91.5664 174.114 92.2158 173.547 92.5456C173.3 92.69 173.022 92.7621 172.723 92.7621ZM164.085 83.3203L167.466 87.5052C168.765 89.1132 170.239 90.4223 171.723 91.2778L172.032 91.453C172.424 91.6798 172.774 91.7314 173.001 91.6077C173.228 91.484 173.352 91.1541 173.352 90.7109V86.4126C173.352 85.2581 172.496 83.7944 171.496 83.2069L171.187 83.0316C169.734 82.1967 168.321 81.805 167.095 81.9081L164.095 82.1658V83.3203H164.085Z" fill="#B9BFFF"/>
<path d="M60.9149 83.6602C60.348 87.773 64.1309 92.628 68.5941 93.7L69.0374 91.4941C69.0374 91.4941 62.0899 88.5977 61.9044 81.2998C61.4303 82.3203 60.9149 83.6602 60.9149 83.6602Z" fill="#C3B04B"/>
<defs>
<linearGradient id="paint0_linear_29_4004" x1="141.82" y1="80.9269" x2="134.429" y2="68.135" gradientUnits="userSpaceOnUse">
<stop offset="0.25" stop-color="#E8E5E3"/>
<stop offset="0.62" stop-color="#CBC8C6"/>
</linearGradient>
<linearGradient id="paint1_linear_29_4004" x1="142.201" y1="80.4426" x2="134.976" y2="67.9187" gradientUnits="userSpaceOnUse">
<stop offset="0.25" stop-color="#DEDBD9"/>
<stop offset="0.62" stop-color="#C2BFBD"/>
</linearGradient>
<linearGradient id="paint2_linear_29_4004" x1="146.469" y1="86.0305" x2="134.573" y2="65.446" gradientUnits="userSpaceOnUse">
<stop offset="0.25" stop-color="#EBE7E5"/>
<stop offset="0.89" stop-color="#E6E6E6"/>
</linearGradient>
<linearGradient id="paint3_linear_29_4004" x1="138.305" y1="90.2043" x2="153.89" y2="90.2043" gradientUnits="userSpaceOnUse">
<stop offset="0.38" stop-color="#DEDBD9"/>
<stop offset="0.75" stop-color="#F7F7F7"/>
</linearGradient>
<linearGradient id="paint4_linear_29_4004" x1="138.305" y1="88.4205" x2="155.725" y2="88.4205" gradientUnits="userSpaceOnUse">
<stop offset="0.38" stop-color="#DEDBD9"/>
<stop offset="0.75" stop-color="#F7F7F7"/>
</linearGradient>
<linearGradient id="paint5_linear_29_4004" x1="138.305" y1="86.3299" x2="155.88" y2="86.3299" gradientUnits="userSpaceOnUse">
<stop offset="0.41" stop-color="#EBE7E5"/>
<stop offset="0.58" stop-color="#F5F5F5"/>
</linearGradient>
<linearGradient id="paint6_linear_29_4004" x1="138.305" y1="77.0836" x2="155.88" y2="77.0836" gradientUnits="userSpaceOnUse">
<stop offset="0.41" stop-color="#EBE7E5"/>
<stop offset="0.58" stop-color="#F5F5F5"/>
</linearGradient>
<linearGradient id="paint7_linear_29_4004" x1="138.305" y1="79.5271" x2="157.828" y2="79.5271" gradientUnits="userSpaceOnUse">
<stop offset="0.41" stop-color="#EBE7E5"/>
<stop offset="0.58" stop-color="white"/>
</linearGradient>
<linearGradient id="paint8_linear_29_4004" x1="138.305" y1="73.9707" x2="157.828" y2="73.9707" gradientUnits="userSpaceOnUse">
<stop offset="0.41" stop-color="#EBE7E5"/>
<stop offset="0.58" stop-color="white"/>
</linearGradient>
</defs>
</svg>
