<svg width="240" height="240" viewBox="0 0 240 240" fill="none" xmlns="http://www.w3.org/2000/svg">
<path opacity="0.2" d="M96.3127 220L135.916 197.176L66.6037 157.083L27 179.907L96.3127 220Z" fill="#E3E3E3"/>
<path d="M34.675 181.374L36.3555 182.339L37.5845 176.495C37.5845 174.639 38.9013 172.369 40.5316 171.429L62.666 158.675C64.2838 157.747 65.6005 158.499 65.6005 160.355V163.566L67.2685 164.531L68.4974 158.687C68.4974 154.988 65.8764 153.495 62.666 155.352L40.5316 168.105C37.3086 169.961 34.6876 174.476 34.6876 178.176V181.386L34.675 181.374Z" fill="#CCCDD8"/>
<path d="M36.3557 182.338L39.2526 180.671V177.46C39.2526 175.604 40.5819 173.334 42.1997 172.394L64.3341 159.64C65.9519 158.712 67.2686 159.464 67.2686 161.32V164.531L70.1656 162.863V159.652C70.1656 155.953 67.5571 154.46 64.3341 156.316L42.1997 169.07C38.9767 170.926 36.3557 175.441 36.3557 179.141V182.351V182.338Z" fill="#BEC0CF"/>
<path d="M66.6665 154.862L68.5476 155.941L68.1212 158.023C68.1212 158.023 65.2368 156.141 65.2368 156.104C65.2368 156.066 66.6665 154.862 66.6665 154.862Z" fill="#CCCDD8"/>
<path d="M41.3467 169.296L44.2436 167.628L44.3063 95.0676C44.3063 93.0736 45.7234 90.6407 47.4666 89.6375L55.8689 84.7967C57.612 83.7935 59.0166 84.5961 59.0166 86.5901L58.9539 159.151L61.8508 157.483L61.9135 84.9222C61.9135 81.0972 59.2047 79.5422 55.8689 81.4609L47.4666 86.3016C44.1307 88.2204 41.4094 92.9106 41.4094 96.7355L41.3467 169.296Z" fill="#CCCDD8"/>
<path d="M47.4663 86.2881L49.1342 87.2663L57.5365 82.4256L55.8561 81.46L47.4663 86.2881Z" fill="#CCCDD8"/>
<path d="M43.0146 170.261L45.9116 168.593L45.9743 96.0325C45.9743 94.0385 47.3914 91.6056 49.1345 90.6023L57.5368 85.7616C59.28 84.7583 60.6846 85.5609 60.6846 87.5549L60.6218 160.116L63.5188 158.448L63.5815 85.887C63.5815 82.0621 60.8727 80.507 57.5368 82.4257L49.1345 87.2665C45.7987 89.1852 43.0773 93.8754 43.0773 97.7004L43.0146 170.261Z" fill="#BEC0CF"/>
<path d="M78.8184 97.4383C82.8064 99.4323 84.9884 104.398 84.8003 112.487C84.6122 120.576 84.5621 144.253 84.5621 145.532C84.5621 149.081 75.8086 148.316 75.8086 142.748C75.8086 140.967 72.385 103.571 73.7143 99.5828C75.0436 95.6074 78.8184 97.4258 78.8184 97.4258V97.4383Z" fill="#3A4254"/>
<path d="M68.6603 99.1313C72.9618 96.6106 78.1035 96.7234 80.2354 102.354C82.3799 107.985 83.2829 118.331 82.7938 125.73C82.3047 133.129 81.1133 146.56 81.0631 148.667C81.013 150.774 78.9187 152.906 76.2851 154.398C73.6516 155.891 66.2024 157.935 61.4369 156.317C56.6714 154.699 55.2794 153.734 54.853 150.837C54.4266 147.94 55.5678 135.825 54.8655 131.7C54.1758 127.574 49.5232 114.067 51.0281 111.17C52.5329 108.273 57.2984 102.705 68.6603 99.1313Z" fill="#FFF9FA"/>
<path d="M70.0148 97.5518C73.7394 97.0125 78.4923 96.0594 82.2294 101.853C85.1389 106.368 84.4742 110.281 83.8974 128.603C83.3205 146.925 83.6842 142.598 83.2453 145.056C82.7938 147.514 76.5736 153.96 77.0125 148.781C77.4514 143.601 78.0283 135.575 77.79 123.674C77.5643 111.773 76.1096 99.458 69.3125 100.888C62.5154 102.317 61.3993 102.882 61.0857 104.876C60.7597 106.857 68.4848 107.672 71.2061 114.996C73.9275 122.32 73.1876 149.232 72.5354 153.019C71.8959 156.794 53.7243 155.026 53.4108 148.191C53.0973 141.357 54.5395 137.256 53.8247 131.951C53.1098 126.646 48.6579 114.908 50.9027 109.804C53.16 104.7 64.6599 98.3418 70.0022 97.5643L70.0148 97.5518Z" fill="#2C3240"/>
<path d="M79.082 140.302C79.082 139.274 77.6272 140.804 77.6022 139.863C77.251 126.558 76.9751 118.469 75.7085 112.349C74.3416 105.79 73.9528 102.617 70.1279 102.128C66.3155 101.639 66.4033 98.8927 68.6606 98.5917C70.9179 98.2907 75.0313 98.3283 77.4015 102.028C79.7717 105.727 80.8502 111.458 80.8502 111.458L78.5929 113.553L80.9255 115.359C80.7373 118.77 79.082 140.29 79.082 140.29V140.302Z" fill="#3A4254"/>
<path d="M72.8993 103.458C71.5198 100.912 69.7139 99.9963 68.1589 100.347C66.6164 100.699 62.7789 102.492 62.4152 102.856C62.0641 103.232 63.6317 105.251 65.8012 106.028C67.9708 106.806 72.0716 108.825 72.0716 108.825L72.8867 103.47L72.8993 103.458Z" fill="#A29E9F"/>
<path d="M68.1087 98.7422C65.0739 99.4319 62.3651 101.551 62.3651 101.551C62.3651 101.551 61.0608 104.511 62.3651 105.314C62.2397 103.821 62.2146 102.994 63.5815 102.492C64.9485 101.99 68.3721 100.285 68.3721 100.285L68.1087 98.7422Z" fill="#3A4254"/>
<path d="M72.9245 146.511C71.846 134.723 65.9518 121.267 65.9518 120.251L67.4066 117.542C67.4066 117.542 64.2212 113.717 63.3559 112.739C61.6253 110.808 60.4088 110.319 59.4432 106.193C58.8161 103.534 62.3652 101.54 62.3652 101.54L61.8886 104.261C61.8886 104.261 68.7986 107.698 70.3662 111.773C71.9338 115.849 74.467 126.245 72.937 146.511H72.9245Z" fill="#3A4254"/>
<path d="M56.2576 109.352C60.1076 111.609 61.9511 116.701 61.2237 124.765C60.4964 132.828 59.3552 156.568 58.7908 157.722C58.2265 158.875 50.238 160.869 50.2506 154.373C50.2506 152.592 49.448 115.045 51.0406 111.17C52.6333 107.295 56.2701 109.352 56.2701 109.352H56.2576Z" fill="#3A4254"/>
<path d="M70.6543 103.183L69.3751 102.443L69.0491 102.456L70.3157 103.196L70.6543 103.183Z" fill="#5B4C51"/>
<path d="M71.0055 101.114L70.3158 103.195L69.0366 102.455L69.1495 102.142L69.7138 100.424C70.1402 100.549 70.554 100.775 70.9679 101.088C70.9804 101.088 70.993 101.101 71.0055 101.114Z" fill="#5B4C51"/>
<path d="M72.6984 103.107L70.6543 103.183H70.3157L71.0054 101.113C71.6074 101.565 72.1843 102.229 72.6984 103.107Z" fill="#4A3D41"/>
<path d="M70.3158 103.196H70.6544L65.751 106.017L65.5879 105.955L64.8982 104.6L69.162 102.142L70.9804 101.089C70.9804 101.089 71.0055 101.101 71.0181 101.114L70.3283 103.196H70.3158Z" fill="#4A3D41"/>
<path d="M70.9681 101.088L69.1497 102.142L64.8859 104.6L63.6067 103.86L69.6012 100.411C69.6012 100.411 69.6764 100.436 69.714 100.436C70.1404 100.562 70.5543 100.787 70.9681 101.101V101.088Z" fill="#5B4C51"/>
<path d="M64.8858 104.588L63.6191 103.848L64.3214 105.177L65.6006 105.917L64.8858 104.588Z" fill="#5B4C51"/>
<path d="M64.8856 104.587L64.2962 105.252C63.8573 104.951 63.4936 104.638 63.1926 104.312L63.619 103.835L64.8982 104.575L64.8856 104.587Z" fill="#5B4C51"/>
<path d="M65.6004 105.916L65.5753 105.941C65.1113 105.753 64.6849 105.515 64.2961 105.252L64.8856 104.587L65.6004 105.916Z" fill="#4A3D41"/>
<path d="M85.0637 105.841C83.9099 106.644 76.9122 110.356 76.9122 110.356C76.9122 110.356 70.1903 114.569 69.4128 115.146C68.6353 115.736 67.5568 116.638 67.1555 118.482C66.7542 120.325 67.1555 122.934 67.9079 124.539C68.6604 126.132 72.6107 134.283 72.6107 134.283C72.6107 134.283 73.6767 140.052 75.4198 139.989C77.163 139.927 89.3024 135.374 91.9235 128.941C94.5445 122.508 93.0145 112.049 91.2086 108.888C89.4028 105.741 85.0637 105.828 85.0637 105.828V105.841Z" fill="#C90047"/>
<path d="M84.023 110.92L82.7439 110.18L82.4053 110.192L83.6844 110.932L84.023 110.92Z" fill="#5B4C51"/>
<path d="M84.3867 108.789L83.1201 108.049L82.4053 110.193L83.6844 110.933L84.3867 108.789Z" fill="#5B4C51"/>
<path d="M100.389 108.199L99.1096 107.446L83.1201 108.048L84.3867 108.788L100.389 108.199Z" fill="#5B4C51"/>
<path d="M84.3866 108.788L83.6843 110.932L84.0229 110.92L99.6863 110.343L100.389 108.198L84.3866 108.788Z" fill="#4A3D41"/>
<path d="M78.9691 113.654L77.6899 112.901L77.3513 113.278L78.6305 114.03L78.9691 113.654Z" fill="#5B4C51"/>
<path d="M78.2542 112.325L78.969 113.654L78.6304 114.03L84.0229 110.92L83.6843 110.933L84.3866 108.788L78.2542 112.325Z" fill="#4A3D41"/>
<path d="M84.3864 108.789L83.1198 108.049L76.9749 111.585L78.254 112.325L84.3864 108.789Z" fill="#5B4C51"/>
<path d="M78.254 112.324L76.9749 111.584L77.6897 112.901L78.9688 113.653L78.254 112.324Z" fill="#5B4C51"/>
<path d="M78.254 112.324L76.9749 111.584L61.0105 129.404L62.2897 130.144L78.254 112.324Z" fill="#5B4C51"/>
<path d="M62.2897 130.145L61.0105 129.405L61.7253 130.735L63.0045 131.474L62.2897 130.145Z" fill="#5B4C51"/>
<path d="M78.2542 112.324L62.2898 130.145L63.0046 131.474L78.6304 114.03L78.969 113.654L78.2542 112.324Z" fill="#4A3D41"/>
<path d="M93.1274 136.19C92.5379 134.647 92.9267 133.33 94.093 130.772C95.5728 127.536 98.6704 126.257 98.8334 123.084C98.9965 119.899 97.2156 119.523 96.0744 114.795C94.9332 110.067 93.4033 106.681 91.8858 105.69C90.3684 104.7 88.6879 104.487 88.1236 104.725C87.5593 104.951 83.3832 105.991 84.863 106.794C86.3554 107.597 90.0925 110.18 91.5974 115.623C94.256 125.267 89.5909 132.44 87.4213 127.085C83.4584 117.278 78.2666 115.46 76.8871 113.892C75.5202 112.324 76.0845 111.371 76.2977 111.133C76.5109 110.895 76.6363 110.707 78.0785 110.004C78.6679 109.202 72.9744 112.387 70.9052 113.992C68.8359 115.598 66.5535 116.488 66.8294 120.99C67.1053 125.48 71.4695 130.421 72.1592 136.102C72.2972 137.205 72.3473 138.033 72.3348 138.71C73.8899 142.36 81.4895 143.701 87.7223 141.005C91.7604 139.262 92.9392 137.594 93.1274 136.202V136.19ZM77.0376 128.138C76.8495 136.779 75.6581 137.494 74.705 137.933C73.7519 138.372 72.3599 130.509 69.6887 127.336C67.0175 124.175 67.2683 119.974 67.2934 118.595C67.3185 117.228 68.4096 115.986 69.7013 115.033C74.1908 113.792 77.2257 119.485 77.0376 128.126V128.138Z" fill="url(#paint0_linear_29_4115)"/>
<path d="M70.5415 118.771L61.0105 129.418L62.2897 130.158L71.2438 120.15C71.018 119.686 70.7797 119.222 70.5415 118.771Z" fill="#5B4C51"/>
<path d="M71.2563 120.149L62.3022 130.157L63.0171 131.486L71.8959 121.567C71.7078 121.09 71.4946 120.613 71.2689 120.149H71.2563Z" fill="#4A3D41"/>
<path d="M89.4782 183.794C80.7373 187.569 70.1028 185.776 67.7075 180.747C67.8705 176.985 68.2844 151.301 69.0745 148.592C71.0684 141.795 72.2849 141.532 72.335 138.71C73.8901 142.36 81.4898 143.702 87.7225 141.005C91.7607 139.262 92.9395 137.594 93.1276 136.202C93.2906 136.616 93.5038 137.042 93.8048 137.506C94.8959 139.224 97.2535 164.933 97.1155 177.185C96.7519 179.129 95.0087 181.424 89.4657 183.819L89.4782 183.794Z" fill="url(#paint1_linear_29_4115)"/>
<path d="M98.8084 115.295C97.7801 115.32 90.3434 118.28 88.826 120.048C86.0043 123.346 91.7856 124.5 96.4758 122.719C101.166 120.951 102.596 116.161 101.467 115.659C100.338 115.17 98.821 115.283 98.821 115.283L98.8084 115.295Z" fill="#792C9A"/>
<path d="M97.3917 118.656L96.1125 117.903L95.7739 117.916L97.0531 118.668L97.3917 118.656Z" fill="#5B4C51"/>
<path d="M97.7553 116.524L96.4762 115.771L95.7739 117.916L97.0531 118.668L97.7553 116.524Z" fill="#5B4C51"/>
<path d="M113.757 115.935L112.478 115.183L96.4761 115.772L97.7552 116.524L113.757 115.935Z" fill="#5B4C51"/>
<path d="M97.7553 116.524L97.053 118.668L97.3916 118.656L113.055 118.079L113.757 115.935L97.7553 116.524Z" fill="#4A3D41"/>
<path d="M92.3377 121.378L91.0586 120.638L90.72 121.014L91.9991 121.754L92.3377 121.378Z" fill="#5B4C51"/>
<path d="M91.6228 120.061L92.3376 121.378L91.999 121.754L97.3915 118.656L97.0529 118.669L97.7552 116.524L91.6228 120.061Z" fill="#4A3D41"/>
<path d="M97.7551 116.524L96.4759 115.771L90.3435 119.308L91.6227 120.06L97.7551 116.524Z" fill="#5B4C51"/>
<path d="M91.6227 120.061L90.3435 119.309L91.0583 120.638L92.3375 121.378L91.6227 120.061Z" fill="#5B4C51"/>
<path d="M91.6227 120.061L90.3435 119.309L74.3792 137.142L75.6583 137.881L91.6227 120.061Z" fill="#5B4C51"/>
<path d="M75.6583 137.881L74.3792 137.141L75.094 138.47L76.3731 139.21L75.6583 137.881Z" fill="#5B4C51"/>
<path d="M91.6228 120.061L75.6584 137.881L76.3733 139.21L91.999 121.754L92.3376 121.377L91.6228 120.061Z" fill="#4A3D41"/>
<path d="M108.177 114.418C113.105 114.581 115.413 115.584 116.805 116.851C118.197 118.117 114.334 128.138 113.155 129.893C112.077 130.194 108.992 129.367 108.365 129.128C107.738 128.89 108.164 114.418 108.164 114.418H108.177Z" fill="#792C9A"/>
<path d="M110.045 114.932C108.014 113.565 98.5328 114.957 97.053 115.183C95.5732 115.409 88.287 119.522 88.287 119.522C81.3896 126.006 76.6868 133.129 75.9845 134.069C75.2822 135.01 80.6497 144.491 80.6497 144.491C80.6497 144.491 80.6246 168.042 80.6246 172.243C80.6246 176.445 89.679 173.322 96.3256 170.049C104.176 166.174 110.66 161.458 110.66 158.725C110.66 153.633 110.685 126.231 110.685 123.523C110.685 120.814 112.077 116.324 110.058 114.957L110.045 114.932ZM96.4761 122.733C91.7859 124.501 86.0046 123.36 88.8262 120.061C90.3437 118.293 97.7803 115.334 98.8087 115.308C98.8087 115.308 100.326 115.196 101.455 115.685C102.596 116.174 101.154 120.964 96.4635 122.745L96.4761 122.733Z" fill="url(#paint2_linear_29_4115)"/>
<path d="M82.9823 143.425C82.9823 143.425 84.136 137.919 83.5215 132.339C82.907 126.758 81.1137 127.235 81.1137 127.235C81.1137 127.235 74.9562 134.872 73.9153 136.427C72.8745 137.982 78.8188 146.861 80.6372 147.124C81.8285 146.347 82.9823 143.425 82.9823 143.425Z" fill="#792C9A"/>
<path d="M52.1191 88.9225L110.935 122.946V119.509L52.1317 85.4863L52.1191 88.9225Z" fill="#BEC0CF"/>
<path d="M110.935 119.51L113.356 118.118L54.5397 84.0947L52.1318 85.4868L110.935 119.51Z" fill="#CCCDD8"/>
<path d="M101.617 204.16L104.514 202.492L104.577 129.931C104.577 127.937 105.994 125.504 107.737 124.501L116.14 119.66C117.883 118.657 119.287 119.459 119.287 121.453L119.225 194.014L122.122 192.346L122.184 119.785C122.184 115.96 119.475 114.405 116.14 116.324L107.737 121.165C104.401 123.084 101.68 127.774 101.68 131.599L101.617 204.16Z" fill="#CCCDD8"/>
<path d="M120.479 115.936L122.184 116.926L120.78 118.381C120.78 118.381 119.149 116.989 119.124 116.851C119.112 116.713 120.479 115.936 120.479 115.936Z" fill="#CCCDD8"/>
<path d="M107.737 121.164L109.418 122.13L117.808 117.289L116.14 116.323L107.737 121.164Z" fill="#CCCDD8"/>
<path d="M94.9583 216.236L96.6387 217.202L97.8677 211.358C97.8677 209.501 99.1845 207.232 100.815 206.291L122.949 193.537C124.567 192.609 125.884 193.362 125.884 195.218V198.428L127.552 199.394L128.781 193.55C128.781 189.85 126.16 188.358 122.949 190.214L100.815 202.968C97.5918 204.824 94.9708 209.338 94.9708 213.038V216.248L94.9583 216.236Z" fill="#CCCDD8"/>
<path d="M128.943 190.892L126.912 189.713L126.222 190.892L128.266 191.933L128.943 190.892Z" fill="#CCCDD8"/>
<path d="M103.298 205.125L106.195 203.457L106.258 130.897C106.258 128.903 107.675 126.47 109.418 125.467L117.82 120.626C119.563 119.623 120.968 120.425 120.968 122.419L120.905 194.98L123.802 193.312L123.865 120.751C123.865 116.926 121.156 115.371 117.82 117.29L109.418 122.131C106.082 124.049 103.361 128.74 103.361 132.565L103.298 205.125Z" fill="#BEC0CF"/>
<path d="M96.6262 217.202L99.5231 215.534V212.323C99.5231 210.467 100.852 208.197 102.47 207.257L124.605 194.503C126.222 193.575 127.539 194.327 127.539 196.183V199.394L130.436 197.726V194.515C130.436 190.816 127.828 189.324 124.605 191.18L102.47 203.934C99.2472 205.79 96.6262 210.304 96.6262 214.004V217.214V217.202Z" fill="#BEC0CF"/>
<path d="M94.118 116.125L92.8389 115.372L92.8514 117.868L94.1306 118.62L94.118 116.125Z" fill="#B2BBD5"/>
<path d="M97.0779 108.914L95.8113 108.174V109.553L97.0904 110.293L97.0779 108.914Z" fill="#D4DFFF"/>
<path d="M93.5663 114.896L92.2871 114.156C92.6383 114.357 92.8389 114.796 92.8514 115.373L94.1306 116.113C94.1306 115.536 93.9174 115.097 93.5788 114.896H93.5663Z" fill="#B2BBD5"/>
<path d="M94.1683 113.854L92.8892 113.114C92.7261 113.014 92.5381 112.964 92.3374 112.938L93.6165 113.678C93.8172 113.703 94.0053 113.766 94.1683 113.854Z" fill="#D4DFFF"/>
<path d="M93.6166 113.679L92.35 112.939L91.6477 112.864L92.9268 113.604L93.6166 113.679Z" fill="#D4DFFF"/>
<path d="M96.3377 107.283L95.0586 106.543C95.5101 106.806 95.7985 107.371 95.7985 108.173L97.0776 108.913C97.0776 108.111 96.7892 107.546 96.3377 107.283Z" fill="#B2BBD5"/>
<path d="M91.2712 112.739L92.5504 113.479C92.6633 113.542 92.7887 113.579 92.9266 113.605L91.6475 112.865C91.5095 112.852 91.3841 112.815 91.2712 112.739Z" fill="#D4DFFF"/>
<path d="M90.6697 113.78L91.9488 114.52C91.4346 114.219 91.1462 113.592 91.1337 112.752L89.8545 112.012C89.8545 112.852 90.1555 113.492 90.6697 113.78Z" fill="#D4DFFF"/>
<path d="M91.1337 112.338L89.8545 111.598V112.012L91.1337 112.751V112.338Z" fill="#D4DFFF"/>
<path d="M96.9525 106.242L95.6733 105.502C95.0588 105.139 94.1935 105.189 93.2529 105.741L94.5321 106.48C95.4726 105.941 96.338 105.891 96.9525 106.242Z" fill="#D4DFFF"/>
<path d="M94.5321 106.468C92.651 107.547 91.1335 110.181 91.1335 112.338V112.751C91.1335 113.868 91.6603 114.607 92.4879 114.695L93.1777 114.77C93.7546 114.833 94.1057 115.347 94.1182 116.112V118.608L94.9836 118.119V115.623C94.9836 114.507 94.4568 113.767 93.6292 113.679L92.9394 113.604C92.3625 113.541 92.0114 113.027 91.9989 112.262V111.848C91.9989 110.231 93.1275 108.262 94.5321 107.459C95.9367 106.657 97.0778 107.309 97.0778 108.914V110.293L97.9432 109.804V108.425C97.9432 106.268 96.4007 105.39 94.5321 106.481V106.468Z" fill="#9EABCB"/>
<path d="M101.279 111.297L95.1214 107.723L94.833 110.356L101.279 111.297Z" fill="#CCCDD8"/>
<path d="M94.5322 106.467L93.253 105.728C91.3719 106.806 89.8545 109.44 89.8545 111.597L91.1337 112.337C91.1337 110.18 92.6511 107.546 94.5322 106.467Z" fill="#D4DFFF"/>
<path d="M80.7495 108.386L79.4829 107.646V110.142L80.7621 110.882L80.7495 108.386Z" fill="#B2BBD5"/>
<path d="M83.7218 101.175L82.4426 100.436V101.815L83.7218 102.567V101.175Z" fill="#D4DFFF"/>
<path d="M80.1976 107.159L78.9185 106.419C79.2696 106.62 79.4703 107.059 79.4703 107.635L80.7494 108.375C80.7494 107.798 80.5362 107.359 80.1976 107.159Z" fill="#B2BBD5"/>
<path d="M80.7997 106.117L79.5205 105.377C79.3575 105.276 79.1694 105.226 78.9688 105.201L80.2479 105.941C80.4486 105.966 80.6367 106.016 80.7997 106.117Z" fill="#D4DFFF"/>
<path d="M80.2604 105.941L78.9812 105.201L78.2915 105.126L79.5581 105.866L80.2604 105.941Z" fill="#D4DFFF"/>
<path d="M82.9691 99.5456L81.6899 98.8057C82.1414 99.069 82.4298 99.6333 82.4298 100.436L83.709 101.176C83.709 100.373 83.4206 99.8089 82.9691 99.5456Z" fill="#B2BBD5"/>
<path d="M77.9153 105.002L79.1944 105.742C79.3073 105.805 79.4327 105.842 79.5707 105.867L78.2915 105.127C78.1535 105.115 78.0281 105.077 77.9153 105.002Z" fill="#D4DFFF"/>
<path d="M77.301 106.054L78.5801 106.794C78.066 106.493 77.7775 105.866 77.765 105.026L76.4858 104.286C76.4858 105.126 76.7868 105.766 77.301 106.054Z" fill="#D4DFFF"/>
<path d="M77.7649 104.6L76.4983 103.86V104.274L77.7649 105.014V104.6Z" fill="#D4DFFF"/>
<path d="M83.5838 98.5049L82.3047 97.765C81.6902 97.4013 80.8248 97.4514 79.8843 98.0032L81.1634 98.7431C82.104 98.2039 82.9693 98.1537 83.5838 98.5049Z" fill="#D4DFFF"/>
<path d="M81.1634 98.7429C79.2823 99.8214 77.7649 102.455 77.7649 104.612V105.026C77.7649 106.142 78.2916 106.882 79.1193 106.97L79.809 107.045C80.3859 107.108 80.7371 107.622 80.7496 108.387V110.882L81.6149 110.393V107.898C81.6149 106.782 81.0882 106.042 80.2605 105.954L79.5708 105.879C78.9939 105.816 78.6427 105.302 78.6427 104.537V104.123C78.6427 102.518 79.7714 100.536 81.176 99.7336C82.5805 98.931 83.7217 99.5831 83.7217 101.188V102.568L84.5871 102.079V100.699C84.5871 98.5422 83.0445 97.6644 81.176 98.7554L81.1634 98.7429Z" fill="#9EABCB"/>
<path d="M87.5969 103.37L81.8909 100.072L82.2796 103.095L87.5969 103.37Z" fill="#CCCDD8"/>
<path d="M81.1635 98.7438L79.8844 98.0039C78.0033 99.0824 76.4858 101.716 76.4858 103.873L77.765 104.613C77.765 102.456 79.2824 99.8223 81.1635 98.7438Z" fill="#D4DFFF"/>
<path d="M67.3937 100.648L66.1145 99.9082V102.404L67.3937 103.144V100.648Z" fill="#B2BBD5"/>
<path d="M70.3534 93.4372L69.0742 92.6973V94.0767L70.3534 94.8292V93.4372Z" fill="#D4DFFF"/>
<path d="M66.8294 99.4323L65.5503 98.6924C65.9014 98.893 66.1021 99.332 66.1021 99.9088L67.3812 100.649C67.3812 100.072 67.168 99.6329 66.8294 99.4323Z" fill="#B2BBD5"/>
<path d="M67.444 98.3784L66.1648 97.6385C66.0018 97.5381 65.8137 97.488 65.613 97.4629L66.8922 98.2028C67.0929 98.2279 67.281 98.2906 67.444 98.3784Z" fill="#D4DFFF"/>
<path d="M66.8922 98.2038L65.6131 97.4639L64.9233 97.3887L66.2025 98.1286L66.8922 98.2038Z" fill="#D4DFFF"/>
<path d="M69.6134 91.8073L68.3342 91.0674C68.7857 91.3307 69.0741 91.8951 69.0741 92.6977L70.3533 93.4376C70.3533 92.635 70.0648 92.0706 69.6134 91.8073Z" fill="#B2BBD5"/>
<path d="M64.5469 97.2637L65.826 98.0036C65.9389 98.0663 66.0643 98.1039 66.2022 98.129L64.9231 97.3891C64.7852 97.3765 64.6597 97.3389 64.5469 97.2637Z" fill="#D4DFFF"/>
<path d="M63.945 98.3161L65.2242 99.056C64.71 98.755 64.4216 98.128 64.409 97.2878L63.1299 96.5479C63.1299 97.3881 63.4309 98.0277 63.945 98.3161Z" fill="#D4DFFF"/>
<path d="M64.409 96.8745L63.1299 96.1221V96.5359L64.409 97.2884V96.8745Z" fill="#D4DFFF"/>
<path d="M70.2154 90.7666L68.9362 90.0267C68.3217 89.663 67.4564 89.7132 66.5159 90.265L67.795 91.0048C68.7356 90.4656 69.6009 90.4154 70.2154 90.7666Z" fill="#D4DFFF"/>
<path d="M67.7953 91.0056C65.9142 92.0841 64.3967 94.7176 64.3967 96.8747V97.2885C64.3967 98.4046 64.9234 99.1445 65.7511 99.2323L66.4409 99.3076C67.0178 99.3703 67.3689 99.8844 67.3814 100.649V103.145L68.2467 102.656V100.16C68.2467 99.0442 67.72 98.3043 66.8923 98.2165L66.2026 98.1413C65.6257 98.0786 65.2746 97.5644 65.262 96.7994V96.3856C65.262 94.7678 66.3907 92.7989 67.7953 91.9963C69.1998 91.1937 70.341 91.8458 70.341 93.451V94.8305L71.2064 94.3414V92.9619C71.2064 90.8049 69.6639 89.9271 67.7953 91.0181V91.0056Z" fill="#9EABCB"/>
<path d="M73.5389 95.2438L68.4348 92.2842L68.6856 95.0181L73.5389 95.2438Z" fill="#CCCDD8"/>
<path d="M67.7951 91.0055L66.516 90.2656C64.6349 91.3441 63.1174 93.9777 63.1174 96.1347L64.3966 96.8746C64.3966 94.7176 65.914 92.084 67.7951 91.0055Z" fill="#D4DFFF"/>
<path opacity="0.2" d="M196.665 178.712C196.71 170.429 185.118 163.651 170.775 163.573C156.431 163.496 144.767 170.148 144.722 178.431C144.677 186.715 156.269 193.493 170.612 193.57C184.956 193.648 196.62 186.996 196.665 178.712Z" fill="#E3E3E3"/>
<path d="M187.471 31.8385C187.534 33.3434 187.471 34.8482 187.409 36.3531C187.271 39.4758 186.706 43.0624 188.123 45.997C188.412 46.5989 189.277 46.8247 189.44 47.5019C190.105 50.1354 182.53 52.8317 180.837 53.4336C176.849 54.8884 168.058 51.7281 166.867 49.082C165.901 46.925 165.788 44.2413 165.099 41.9588C164.283 39.25 163.769 36.6165 163.418 33.8199C163.029 30.7223 164.509 25.9819 166.741 23.7497C168.61 21.8686 170.993 20.0251 173.789 20C174.805 20 175.796 20.3511 176.749 20.7023C176.887 20.7524 177.025 20.8026 177.138 20.9155C177.188 20.9656 177.226 21.0158 177.276 21.0409C177.351 21.0785 177.439 21.0785 177.527 21.0785C179.082 21.0158 180.361 20.7148 181.941 21.1914C182.468 21.3544 182.994 21.5676 183.433 21.9062C183.784 22.1821 184.073 22.5458 184.361 22.8969C186.042 24.9661 186.832 26.8096 187.246 29.4056C187.371 30.2082 187.446 31.0233 187.484 31.8385H187.471Z" fill="#6A3014"/>
<path d="M211.625 80.1574C211.625 80.1574 209.455 81.6498 206.922 82.1765C204.376 82.6907 200.187 80.1574 198.695 80.4083C197.19 80.6716 195.635 81.2861 194.908 80.9851C194.193 80.6716 193.516 76.8592 193.666 76.4078C193.666 76.3701 193.666 76.1319 193.654 75.718C193.403 71.2033 191.196 46.1218 191.196 46.1218C192.4 44.2909 194.971 45.5074 196.563 46.0215C198.168 46.5232 200.501 46.4228 201.743 50.7118C202.984 55.0132 204.539 61.8856 206.659 65.0458C208.778 68.2061 209.969 72.031 209.969 72.031C209.969 72.031 212.402 74.6646 212.979 76.7965C213.543 78.9159 211.637 80.1574 211.637 80.1574H211.625Z" fill="#FC3700"/>
<path d="M152.846 181.237C150.125 181.814 146.476 179.067 145.084 175.255C143.692 171.455 145.008 168.458 144.457 166.087C143.917 163.717 143.529 162.288 143.754 160.532C143.993 158.789 145.736 158.362 147.128 158.362C148.52 158.362 153.373 162.012 153.298 167.442C153.223 172.872 152.947 174.239 153.649 176.133C154.351 178.039 152.834 181.212 152.834 181.212L152.846 181.237Z" fill="#F53100"/>
<path d="M169.965 171.217C169.024 172.082 168.522 171.881 168.297 173.625C168.058 175.368 167.795 176.258 168.259 177.55C168.723 178.829 170.855 179.218 173.576 179.494C176.298 179.77 179.282 183.607 183.509 185.2C187.735 186.792 189.716 185.388 189.954 184.623C190.193 183.845 189.955 182.428 188.086 180.472C186.217 178.516 179.333 174.502 178.191 174.227C177.05 173.951 169.965 171.242 169.965 171.242V171.217Z" fill="#F53100"/>
<path d="M200.238 154.6C200.238 154.6 201.015 157.321 199.536 157.472C198.068 157.622 196.902 158.161 195.422 158.864C193.942 159.553 189.528 159.867 189.29 158.312C189.064 156.757 188.199 154.826 183.396 154.512C178.58 154.198 178.894 157.848 178.894 158.864C178.894 159.879 180.21 161.572 175.633 162.049C171.056 162.513 171.683 160.105 169.664 158.864C167.645 157.622 165.55 160.105 160.572 157.773C155.593 155.44 154.364 151.327 153.737 148.844C149.937 150.085 147.993 148.066 148.068 147.376C148.144 146.674 149.235 143.652 149.235 143.652C149.235 143.652 144.106 142.485 144.733 139.689C145.36 136.892 148.144 130.221 149.937 126.96C151.718 123.699 155.931 97.6899 160.007 91.3819C162.929 86.8421 163.882 84.4218 164.259 82.4027C164.409 81.6001 164.472 80.8727 164.534 80.0952C164.735 77.3613 164.171 74.8657 161.738 68.8712C159.305 62.8642 159.669 50.2357 161.424 49.4582C163.18 48.6806 165.713 48.3671 170.278 47.1758C174.83 45.9844 182.555 45.8464 191.196 46.1098C191.196 46.1098 192.024 47.0629 192.55 48.2417C193.09 49.4331 196.2 60.6696 195.736 67.73C195.272 74.7905 191.459 79.7566 192.475 82.4027C193.478 85.0363 195.498 88.9239 197.83 102.042C200.163 115.159 197.604 129.368 198.683 131.462C199.774 133.556 201.555 143.501 202.169 146.06C202.796 148.63 202.169 150.098 202.169 150.098C202.169 150.098 202.558 152.43 202.558 153.358C202.558 154.286 200.225 154.6 200.225 154.6H200.238Z" fill="#F53100"/>
<path d="M185.803 88.4716C186.782 75.7051 186.255 69.2341 185.327 65.4468C184.399 61.672 181.439 54.2102 180.825 52.3542C180.198 50.4856 179.897 49.6705 179.897 49.6705C179.897 49.6705 175.545 43.9645 172.397 44.0648C169.237 44.1651 169.701 46.7485 170.429 48.2283C171.156 49.7081 178.241 50.3226 178.655 50.8995C179.069 51.4638 182.919 61.2331 183.897 67.7543C185.164 76.1816 183.684 88.8603 183.684 88.8603L185.816 88.459L185.803 88.4716Z" fill="#FC3700"/>
<path d="M154.665 129.53C152.495 135.901 150.94 145.984 150.163 150.411C149.385 154.838 148.921 157.007 148.068 158.249C147.216 159.49 146.125 159.064 145.347 160.23C144.569 161.396 144.344 162.525 145.497 164.582C146.664 166.638 147.241 170.827 148.52 172.119C149.799 173.398 152.483 173.473 152.746 172.307C153.009 171.14 152.897 166.061 153.285 164.97C153.674 163.879 154.803 159.264 156.232 157.283C157.662 155.302 163.845 145.796 164.07 144.554C164.296 143.313 159.104 134.07 159.104 134.07L154.64 129.53H154.665Z" fill="#FFA496"/>
<path d="M170.266 151.691C169.337 156.155 169.212 162.526 169.601 166.288C169.99 170.05 168.786 172.345 168.71 173.311C168.635 174.277 170.767 175.832 174.028 176.22C177.288 176.609 180.16 178.741 181.79 178.942C183.421 179.13 184.512 178.365 183.571 177.625C182.643 176.885 179.42 174.941 178.442 172.345C177.464 169.749 177.627 158.525 177.627 158.525L179.22 144.981L170.253 151.691H170.266Z" fill="#FFA496"/>
<path d="M200.238 154.599C200.238 154.599 201.015 157.321 199.536 157.471C198.068 157.622 196.902 158.161 195.422 158.863C193.942 159.553 189.528 159.867 189.29 158.311C189.064 156.756 188.199 154.825 183.396 154.512C178.58 154.198 178.894 157.847 178.894 158.863C178.894 159.879 180.21 161.572 175.633 162.049C171.056 162.513 171.683 160.105 169.664 158.863C167.645 157.622 165.55 160.105 160.572 157.772C155.593 155.44 154.364 151.326 153.737 148.843C149.937 150.085 147.993 148.066 148.068 147.376C148.144 146.674 149.235 143.651 149.235 143.651C149.235 143.651 144.106 142.485 144.733 139.688C145.36 136.892 148.144 130.22 149.937 126.96C150.15 126.571 150.401 125.856 150.677 124.878C152.721 117.742 156.433 96.9371 160.007 91.3815C162.929 86.8418 163.882 84.4214 164.259 82.4023C164.033 84.133 173.589 88.9486 178.868 89.0489C184.148 89.1493 190.469 88.7354 192.488 82.4023C193.491 85.0359 195.51 88.9235 197.843 102.041C200.175 115.159 197.617 129.367 198.695 131.462C199.786 133.556 201.567 143.501 202.182 146.059C202.809 148.63 202.182 150.097 202.182 150.097C202.182 150.097 202.571 152.43 202.571 153.358C202.571 154.286 200.238 154.599 200.238 154.599Z" fill="#FC3700"/>
<path d="M200.238 154.599C200.238 154.599 201.015 157.321 199.536 157.471C198.068 157.622 196.902 158.161 195.422 158.863C193.942 159.553 189.528 159.867 189.29 158.312C189.064 156.757 188.199 154.825 183.396 154.512C178.58 154.198 178.894 157.848 178.894 158.863C178.894 159.879 180.21 161.572 175.633 162.049C171.056 162.513 171.683 160.105 169.664 158.863C167.645 157.622 165.55 160.105 160.572 157.772C155.593 155.44 154.364 151.326 153.737 148.843C149.937 150.085 147.993 148.066 148.068 147.376C148.144 146.674 149.235 143.651 149.235 143.651C149.235 143.651 144.106 142.485 144.733 139.689C145.36 136.892 148.144 130.22 149.937 126.96C150.15 126.571 150.401 125.856 150.677 124.878C153.511 125.743 152.495 128.051 152.107 129.907C151.718 131.775 153.875 132.101 154.978 132.478C156.082 132.854 156.609 136.428 160.258 137.205C163.907 137.983 166.629 138.372 170.504 140.316C174.391 142.259 176.712 141.557 180.06 139.689C183.396 137.82 184.713 138.058 187.584 138.685C190.456 139.312 190.619 137.908 193.88 137.13C197.14 136.353 198.921 135.036 198.695 131.462C199.786 133.556 201.567 143.501 202.182 146.059C202.809 148.63 202.182 150.097 202.182 150.097C202.182 150.097 202.571 152.43 202.571 153.358C202.571 154.286 200.238 154.599 200.238 154.599Z" fill="#F53100"/>
<path d="M182.58 36.1021C181.84 40.6794 181.69 45.4575 181.803 47.7524C180.022 49.3075 180.298 50.8123 180.298 50.8123C180.298 50.8123 178.116 49.6962 175.67 49.2698C173.915 48.9563 172.021 47.9154 172.021 47.9154C172.021 47.9154 168.723 39.6887 172.523 33.9827C176.322 28.2766 180.749 29.3677 180.749 29.3677L182.568 36.1271L182.58 36.1021Z" fill="#FF8978"/>
<path d="M181.138 33.5694C181.376 36.8676 181.64 38.5355 181.138 40.5169C180.636 42.4984 179.972 43.6647 179.232 44.9062C178.492 46.1477 173.601 49.1826 171.193 48.8314C168.321 48.4051 166.34 43.9782 165.337 39.7519C164.334 35.5257 165.65 29.2679 166.541 28.1518C167.431 27.0231 172.435 24.5024 176.623 26.4462C180.812 28.39 181.126 33.5944 181.126 33.5944L181.138 33.5694Z" fill="#FFA496"/>
<path d="M169.877 28.9161C170.968 27.9881 176.122 29.3049 177.84 30.8223C179.546 32.3397 180.398 34.5845 180.524 36.1019C180.637 37.6194 180.837 39.8265 180.837 39.8265C180.837 39.8265 181.188 37.3058 182.229 35.9389C183.283 34.5845 182.154 39.3124 182.104 39.8265C182.054 40.3282 181.84 43.4007 181.84 43.4007C181.84 43.4007 184.449 38.3216 184.75 34.434C185.063 30.5464 185.101 26.7465 183.195 23.6866C181.289 20.6267 175.67 21.3916 175.67 21.3916C175.67 21.3916 173.651 21.818 172.874 23.3355C172.096 24.8529 169.576 27.6871 169.889 28.9286L169.877 28.9161Z" fill="#6A3014"/>
<path d="M171.319 26.6223C171.319 26.6223 170.504 28.5285 169.877 28.9173C169.25 29.306 167.619 28.679 166.967 28.9173C166.315 29.1555 165.738 30.0961 165.588 30.7858C165.437 31.4756 165.049 34.3098 165.049 34.3098C165.049 34.3098 164.647 30.8485 164.973 29.2559C165.299 27.6632 167.105 23.8257 169.852 22.2707C172.598 20.7156 174.58 20.7909 175.658 21.3803C175.47 23.5122 171.306 26.6223 171.306 26.6223H171.319Z" fill="#6A3014"/>
<path d="M181.954 37.2928C181.954 35.3616 182.882 34.5966 183.734 34.3207C184.587 34.0448 185.051 35.1358 184.625 37.0295C184.198 38.9357 182.606 40.2901 181.941 40.0142C181.289 39.7383 181.941 37.2803 181.941 37.2803L181.954 37.2928Z" fill="#FFA496"/>
<path d="M159.255 71.0656C159.255 71.0656 160.107 72.0814 160.885 73.6992C161.663 75.3295 160.735 76.4958 158.64 79.0541C156.546 81.6124 153.21 80.2956 148.545 81.1484C143.892 82.0012 141.71 78.7406 139.541 77.8126C137.371 76.8846 135.164 72.859 136.192 69.7739C136.92 67.5919 138.813 65.0837 142.174 65.0837C143.642 63.7669 150.714 57.0075 152.809 54.9132C154.903 52.8189 155.066 51.4268 156.997 49.6711C158.941 47.9154 161.274 47.9154 163.832 48.8434C163.832 48.8434 165.224 50.0223 165.387 53.3581C165.538 56.6939 165.161 63.9927 163.832 66.087C162.515 68.1813 159.255 71.0531 159.255 71.0531V71.0656Z" fill="#FC3700"/>
<path d="M146.288 79.3812C149.624 79.0677 164.071 84.7361 166.478 85.2753C168.886 85.8146 168.259 79.9957 167.482 79.3812C166.704 78.7542 155.681 73.6375 153.737 73.1735C151.793 72.7095 146.288 79.3812 146.288 79.3812Z" fill="#FFA496"/>
<path d="M158.628 79.0671C156.533 81.6254 153.198 80.3086 148.532 81.1614C143.88 82.0141 141.698 78.7536 139.528 77.8255C137.359 76.8975 135.152 72.8719 136.18 69.7869C136.907 67.6048 138.801 65.0967 142.162 65.0967C140.682 69.4483 145.272 72.7842 147.755 73.7122C150.238 74.6402 151.016 73.3234 153.963 71.9314C156.91 70.5394 158.226 72.6211 159.242 71.0786C159.242 71.0786 160.095 72.0944 160.873 73.7122C161.65 75.3425 160.722 76.5088 158.628 79.0671Z" fill="#FF4814"/>
<path d="M197.19 80.4589C193.88 83.1551 188.337 87.4942 187.195 87.7074C186.054 87.9081 184.662 87.9708 183.258 88.7483C181.853 89.5258 179.408 91.4446 178.63 91.8584C177.853 92.2722 176.436 92.5356 175.997 92.9996C175.558 93.4636 175.758 93.8273 175.997 94.0029C176.235 94.1784 177.89 94.3916 178.843 94.028C179.796 93.6643 181.126 92.5732 181.54 92.5481C181.953 92.5231 181.953 93.0623 181.953 93.0623L179.671 98.1037C179.671 98.1037 177.752 102.117 177.627 102.731C177.501 103.358 178.605 104.048 178.605 104.048C178.605 104.048 177.978 104.7 178.505 105.34C179.019 105.992 179.822 105.34 179.822 105.34C179.822 105.34 180.524 105.365 180.963 104.688C181.402 104.01 182.593 102.907 182.593 102.907C182.593 102.907 182.593 103.973 183.596 103.709C184.6 103.446 187.12 97.2384 187.446 96.511C187.785 95.7837 189.102 93.1501 189.704 92.661C190.293 92.1719 207.148 83.5564 209.292 80.0325C211.437 76.5085 206.822 75.8689 205.091 75.7812C203.36 75.7059 197.178 80.4463 197.178 80.4463L197.19 80.4589Z" fill="#FFA496"/>
<path d="M211.625 80.1585C211.625 80.1585 209.455 81.6508 206.922 82.1775C204.376 82.6917 200.188 80.1585 198.695 80.4093C197.19 80.6726 195.635 81.2871 194.908 80.9862C194.193 80.6726 193.516 76.8603 193.666 76.4088C193.666 76.3712 193.666 76.1329 193.654 75.719C195.272 76.3837 196.538 75.8068 197.755 75.092C199.222 74.2142 201.705 74.4775 204.314 75.0042C206.922 75.5184 210.396 73.5495 209.957 72.0195C209.957 72.0195 212.39 74.6531 212.967 76.785C213.531 78.9044 211.625 80.1459 211.625 80.1459V80.1585Z" fill="#FF4814"/>
<defs>
<linearGradient id="paint0_linear_29_4115" x1="91.8864" y1="138.85" x2="75.8209" y2="110.97" gradientUnits="userSpaceOnUse">
<stop offset="0.09" stop-color="#C90047"/>
<stop offset="0.28" stop-color="#E50048"/>
<stop offset="0.3" stop-color="#E60048"/>
<stop offset="0.54" stop-color="#FF0058"/>
</linearGradient>
<linearGradient id="paint1_linear_29_4115" x1="97.1332" y1="161.409" x2="67.7001" y2="161.384" gradientUnits="userSpaceOnUse">
<stop offset="0.42" stop-color="#E50048"/>
<stop offset="0.46" stop-color="#E10047"/>
<stop offset="0.73" stop-color="#C90047"/>
</linearGradient>
<linearGradient id="paint2_linear_29_4115" x1="75.8973" y1="143.524" x2="111.112" y2="143.555" gradientUnits="userSpaceOnUse">
<stop offset="0.27" stop-color="#B700FF"/>
<stop offset="0.85" stop-color="#AD00E6"/>
<stop offset="0.88" stop-color="#AD00E5"/>
</linearGradient>
</defs>
</svg>
