<svg width="240" height="240" viewBox="0 0 240 240" fill="none" xmlns="http://www.w3.org/2000/svg">
<path d="M94.2035 219.631L26 180.245L139.333 114.821L207.536 154.198L94.2035 219.631Z" fill="#E3E3E3" fill-opacity="0.5"/>
<path d="M34.3803 180.582L44.2065 135.065L39.6752 132.683L31.4782 180.012C31.3764 180.623 31.6615 181.234 32.191 181.549C33.0565 182.048 34.1664 181.559 34.3803 180.582Z" fill="#5B5B5B"/>
<path d="M91.78 215.447L81.6177 156.673L86.1591 159.585L94.1627 215.07C94.3053 216.068 93.2361 216.801 92.3604 216.292C92.0447 216.109 91.8309 215.804 91.7698 215.447H91.78Z" fill="#5B5B5B"/>
<path d="M91.0364 170.43L34.7874 137.947V135.758L91.0364 168.24V170.43Z" fill="#5B5B5B"/>
<path d="M89.6413 192.973L36.5286 162.313V160.124L89.6413 190.784V192.973Z" fill="#5B5B5B"/>
<path d="M198.749 108.244L91.0364 170.429V168.24L198.749 106.055V108.244Z" fill="#5B5B5B"/>
<path d="M94.5293 170.684L31.2949 134.179V119.384L94.5293 155.889V170.684Z" fill="#919191"/>
<path d="M142.092 118.386L151.919 72.8691L147.387 70.4863L139.19 117.815C139.089 118.426 139.374 119.037 139.903 119.353C140.769 119.852 141.879 119.363 142.092 118.386Z" fill="#333333"/>
<path d="M199.492 153.262L189.33 94.4873L193.871 97.3995L201.875 152.885C202.017 153.883 200.948 154.616 200.073 154.107C199.757 153.923 199.543 153.618 199.482 153.262H199.492Z" fill="#5B5B5B"/>
<path d="M156.674 65.9141V68.0728L154.566 67.9099L154.74 66.7592L156.674 65.9141Z" fill="#C7C7C7"/>
<path d="M94.5293 155.889L31.2949 119.384L139.007 57.1982L202.241 93.7031L94.5293 155.889Z" fill="#A9A9A9"/>
<path d="M94.2034 119.883L133.152 97.2471L154.2 109.395L115.241 132.031L94.2034 119.883Z" fill="#989898"/>
<path d="M94.5293 155.889V170.684L202.242 108.499V93.7031L94.5293 155.889Z" fill="#989898"/>
<path d="M95.7615 156.602L200.999 95.8418V107.786L95.7615 168.546V156.602Z" fill="#E9E9E9"/>
<path d="M161.032 171.437C161.776 171.987 161.725 170.734 162.499 171.956C163.313 173.239 163.598 174.156 163.242 175.836C162.886 177.526 160.869 178.809 158.833 179.634C156.796 180.459 156.165 181.793 153.619 182.343C151.074 182.893 148.986 182.465 148.324 181.243C147.663 180.021 148.284 179.278 149.852 178.3C151.42 177.323 153.161 174.074 153.935 172.761C154.709 171.447 155.931 168.922 155.931 168.922L161.032 171.437Z" fill="#202020"/>
<path d="M154.719 149.584C155.035 153.942 155.778 164.451 155.075 167.709C154.373 170.968 153.039 174.735 152.53 175.478C152.021 176.222 152.316 176.751 153.08 176.415C154.811 175.662 155.747 174.033 157.356 173.564C158.965 173.096 160.503 173.768 161.714 172.821C162.926 171.884 162.498 170.336 161.826 168.33C161.165 166.334 163.038 154.797 162.651 152.914C162.254 151.03 154.729 149.584 154.729 149.584H154.719Z" fill="#BEBEBE"/>
<path d="M154.2 149.227C154.495 164.43 153.314 171.538 153.314 171.538C153.314 171.538 163.914 171.752 164.23 169.399C164.535 167.047 162.651 141.652 162.234 139.177C161.816 136.703 154.2 149.227 154.2 149.227Z" fill="#656565"/>
<path d="M149.821 173.127C150.055 173.046 151.542 172.812 151.786 174.339C152.021 175.866 152.693 176.335 151.786 177.669C150.88 179.003 148.996 179.593 148.803 180.337C148.609 181.08 149.159 182.027 147.825 183.127C146.491 184.226 144.384 185.173 142.775 185.051C141.166 184.929 139.038 183.595 138.915 181.874C138.793 180.143 141.624 179.359 142.561 178.616C143.498 177.872 144.597 174.298 144.872 173.952C145.147 173.596 149.811 173.127 149.811 173.127H149.821Z" fill="#202020"/>
<path d="M151.664 144.453C154.017 151.275 154.251 154.493 153.395 157.864C152.53 161.234 150.178 166.804 150.341 169.156C150.504 171.508 150.565 172.852 151.115 173.708C151.664 174.563 150.371 174.981 148.294 175.174C146.217 175.368 144.068 177.506 143.722 179.278C143.376 181.049 141.757 180.764 142.001 179.634C142.235 178.494 142.907 177.435 142.938 175.948C142.979 174.461 142.541 159.707 141.971 155.593C141.411 151.479 140.657 138.242 140.657 138.242C141.716 136.561 151.675 144.453 151.675 144.453H151.664Z" fill="#BEBEBE"/>
<path d="M151.176 170.683C149.811 173.127 142.133 175.489 141.665 173.728C141.197 171.966 139.893 141.316 140.698 136.143C141.512 130.96 152.357 140.726 151.909 149.228C151.45 157.741 151.176 170.683 151.176 170.683Z" fill="#656565"/>
<path d="M182.487 219.234L213.066 201.578C215.041 200.437 214.797 198.421 212.506 197.108L181.316 179.105C179.035 177.791 175.553 177.638 173.577 178.779L142.999 196.436C141.023 197.576 141.268 199.592 143.559 200.906L174.748 218.909C177.029 220.222 180.512 220.375 182.487 219.234Z" fill="#E3E3E3" fill-opacity="0.5"/>
<path d="M156.277 189.836C156.277 190.518 155.717 191.078 155.035 191.078C154.352 191.078 153.792 190.528 153.792 189.836C153.792 189.144 154.352 188.594 155.035 188.594C155.717 188.594 156.277 189.144 156.277 189.836Z" fill="#202020"/>
<path d="M161.572 208.349C161.572 209.031 161.012 209.591 160.329 209.591C159.647 209.591 159.087 209.041 159.087 208.349C159.087 207.656 159.647 207.106 160.329 207.106C161.012 207.106 161.572 207.656 161.572 208.349Z" fill="#202020"/>
<path d="M193.698 211.515C193.698 212.197 193.148 212.757 192.456 212.757C191.763 212.757 191.214 212.197 191.214 211.515C191.214 210.833 191.774 210.272 192.456 210.272C193.138 210.272 193.698 210.822 193.698 211.515Z" fill="#202020"/>
<path d="M208.198 194.602C208.198 195.284 207.638 195.844 206.956 195.844C206.274 195.844 205.714 195.284 205.714 194.602C205.714 193.919 206.274 193.359 206.956 193.359C207.638 193.359 208.198 193.919 208.198 194.602Z" fill="#202020"/>
<path d="M185.369 181.466C185.369 182.148 184.819 182.708 184.126 182.708C183.434 182.708 182.884 182.148 182.884 181.466C182.884 180.784 183.434 180.224 184.126 180.224C184.819 180.224 185.369 180.784 185.369 181.466Z" fill="#202020"/>
<path d="M159.943 208.043L159.25 207.646L158.7 207.299V206.342L176.438 194.479L153.477 188.838V187.881L178.129 192.565L184.849 178.696V179.653L184.798 180.132L181.835 192.911L208.147 192.983V193.94L182.426 195.039L193.535 209.611V210.568L191.967 211.016L191.519 210.609L179.096 196.017L159.932 208.053L159.943 208.043Z" fill="#ACACAC"/>
<path d="M159.943 207.086L159.25 206.689L158.7 206.343L159.23 205.987L176.438 192.525L153.477 187.872L154.301 186.945L178.119 190.6L183.098 178.514L184.839 178.677L184.788 179.155L181.825 190.937L207.852 191.934L208.137 192.963L182.416 193.075L193.525 209.591L191.957 210.039L191.509 209.632L179.086 194.052L159.922 207.076L159.943 207.086Z" fill="#CECECE"/>
<path d="M191.682 209.265L179.157 193.533L159.932 206.607L159.372 206.281L159.148 206.139L159.372 205.996L177.009 192.199L153.945 187.525L154.403 187.005L178.281 190.671L183.271 178.574L184.584 178.696L184.564 178.941L181.53 190.977L207.689 191.975L207.842 192.535L181.988 192.647L193.158 209.265L192.038 209.591L191.682 209.265Z" fill="#DFDFDF"/>
<path d="M182.385 192.025V181.252H176.866V192.015C176.866 192.422 177.141 192.83 177.681 193.135C178.76 193.756 180.512 193.766 181.581 193.135C182.12 192.819 182.385 192.412 182.385 192.005V192.025Z" fill="url(#paint0_linear_29_5129)"/>
<path d="M181.591 182.382C180.522 183.003 178.77 183.003 177.691 182.382C176.611 181.761 176.601 180.753 177.681 180.132C178.75 179.511 180.501 179.511 181.581 180.132C182.66 180.753 182.67 181.761 181.591 182.382Z" fill="#A9A9A9"/>
<path d="M181.642 181.027V166.272H177.63V181.027C177.63 181.322 177.834 181.618 178.22 181.842C179.005 182.3 180.277 182.3 181.061 181.842C181.459 181.618 181.652 181.322 181.642 181.017V181.027Z" fill="url(#paint1_linear_29_5129)"/>
<path d="M181.051 167.088C180.267 167.536 179.005 167.536 178.21 167.088C177.426 166.63 177.416 165.896 178.21 165.448C178.994 165 180.257 165 181.051 165.448C181.835 165.907 181.846 166.64 181.051 167.088Z" fill="#464646"/>
<path d="M203.871 157.068C203.372 157.068 202.913 156.977 202.588 156.783L187.751 148.22C182.782 145.348 177.161 129.677 177.1 128.088C177.06 127.019 177.06 125.991 177.1 125.034C177.151 123.812 177.65 122.875 178.506 122.406C179.381 121.928 180.481 122.02 181.601 122.671L201.926 134.402C204.431 135.848 205.836 137.497 207.618 139.585L207.791 139.788C208.076 140.124 208.331 140.603 208.575 141.244C208.911 142.14 209.074 143.067 209.054 143.922C209.043 144.452 209.043 145.216 209.054 146.081C209.054 147.873 209.064 150.103 208.942 151.875C208.748 154.696 207.129 155.958 206.182 156.457C205.449 156.844 204.604 157.048 203.86 157.048L203.871 157.068ZM179.717 123.618C179.534 123.618 179.371 123.659 179.229 123.73C178.862 123.934 178.638 124.412 178.607 125.095C178.567 126.011 178.567 126.999 178.607 128.027C178.668 129.494 184.198 144.421 188.505 146.906L203.341 155.47C203.545 155.592 204.492 155.663 205.49 155.134C206.304 154.696 207.312 153.759 207.445 151.773C207.567 150.063 207.557 147.863 207.547 146.091C207.547 145.205 207.547 144.432 207.547 143.882C207.567 143.21 207.435 142.487 207.16 141.774C206.925 141.153 206.732 140.878 206.64 140.766L206.467 140.562C204.716 138.505 203.443 137.019 201.172 135.705L180.848 123.975C180.43 123.74 180.043 123.618 179.717 123.618Z" fill="#DFDFDF"/>
<path d="M202.71 157.74C202.211 157.74 201.753 157.649 201.427 157.455L186.591 148.891C181.622 146.02 176.001 130.349 175.94 128.76C175.899 127.691 175.899 126.663 175.94 125.705C175.991 124.484 176.49 123.547 177.345 123.078C178.221 122.6 179.32 122.691 180.44 123.343L200.765 135.074C203.27 136.519 204.675 138.169 206.457 140.257L206.63 140.46C206.915 140.796 207.17 141.275 207.414 141.916C207.75 142.812 207.913 143.739 207.893 144.594C207.883 145.124 207.883 145.888 207.893 146.753C207.893 148.545 207.903 150.775 207.781 152.547C207.587 155.368 205.968 156.63 205.021 157.129C204.288 157.516 203.443 157.72 202.7 157.72L202.71 157.74ZM178.557 124.29C178.373 124.29 178.21 124.331 178.068 124.402C177.701 124.606 177.477 125.084 177.447 125.767C177.406 126.683 177.406 127.671 177.447 128.699C177.508 130.165 183.037 145.093 187.344 147.578L202.18 156.141C202.384 156.264 203.331 156.335 204.329 155.805C205.144 155.368 206.152 154.441 206.284 152.445C206.406 150.734 206.396 148.535 206.386 146.763C206.386 145.877 206.386 145.103 206.386 144.554C206.406 143.882 206.274 143.159 205.999 142.446C205.765 141.825 205.571 141.55 205.48 141.438L205.307 141.234C203.555 139.177 202.282 137.69 200.012 136.377L179.687 124.647C179.269 124.412 178.883 124.29 178.557 124.29Z" fill="#DFDFDF"/>
<path d="M175.492 124.148C176.357 123.262 177.783 123.191 179.371 124.107L199.696 135.838C200.429 136.266 201.081 136.703 201.671 137.162L203.993 135.818V134.494C203.993 134.494 202.384 134.708 202.017 134.494L181.693 122.763C180.104 121.847 178.19 121.175 177.324 122.061C177.324 122.061 176.133 122.407 175.492 122.824C174.932 123.14 175.492 124.148 175.492 124.148Z" fill="#464646"/>
<path d="M175.491 122.824C176.561 122.193 177.783 121.867 179.371 122.784L199.696 134.514C200.429 134.942 201.08 135.38 201.671 135.838L203.993 134.494C203.402 134.035 202.75 133.587 202.017 133.17L181.693 121.439C180.104 120.523 178.964 121.032 177.813 121.48L175.491 122.824Z" fill="#6B6B6B"/>
<path d="M201.457 153.219L174.524 137.67C173.903 137.314 173.333 137.294 172.946 137.558L143.437 154.594L175.451 179.755L204.981 162.71L201.468 153.219H201.457Z" fill="#6B6B6B"/>
<path d="M171.928 170.265L175.441 179.755L144.923 162.139C143.711 161.436 142.734 159.725 142.775 158.361L142.846 155.876C142.876 154.563 143.834 154.054 144.994 154.726L171.928 170.275V170.265Z" fill="url(#paint2_linear_29_5129)"/>
<path d="M142.225 90.1074C142.225 90.1074 144.261 90.3925 144.944 90.4536C145.626 90.5249 148.131 92.2458 148.813 93.1419C149.495 94.0278 154.2 96.5938 154.933 96.7465C155.666 96.8992 169.158 99.9846 170.726 100.249C172.294 100.514 169.942 105.534 167.121 105.85C164.301 106.165 150.86 101.033 150.228 100.982C149.597 100.932 148.446 100.982 146.878 100.249C145.31 99.5162 143.009 96.6447 141.339 96.2272C139.669 95.8097 142.225 90.1074 142.225 90.1074Z" fill="#BEBEBE"/>
<path d="M100.944 118.129L133.244 99.3623C133.131 99.5354 133.142 99.8002 133.254 100.106C133.376 100.401 133.569 100.655 133.814 100.788L101.514 119.555C101.28 119.422 101.076 119.168 100.954 118.872C100.832 118.577 100.832 118.302 100.944 118.129Z" fill="#2952BE"/>
<path d="M101.514 119.555L133.814 100.788L147.54 108.72L115.241 127.487L101.514 119.555Z" fill="#2952BE"/>
<path d="M147.998 108.762L115.699 127.529C115.577 127.6 115.414 127.579 115.241 127.478L147.54 108.711C147.713 108.813 147.876 108.823 147.998 108.762Z" fill="#2952BE"/>
<path d="M148.701 109.983L116.402 128.75C116.483 128.699 116.554 128.638 116.615 128.566C116.921 128.2 116.962 127.548 116.738 126.825L149.037 108.059C149.271 108.782 149.231 109.433 148.915 109.8C148.854 109.881 148.782 109.942 148.701 109.983Z" fill="#496CC8"/>
<path d="M107.93 104.923L140.219 86.1562L141.095 87.1949L108.805 105.962L107.93 104.923Z" fill="#496CC8"/>
<path d="M108.805 105.961L141.094 87.1943L133.243 99.3626L100.944 118.129L108.805 105.961Z" fill="#2952BE"/>
<path d="M105.842 92.9683L116.748 126.816C116.982 127.538 116.941 128.19 116.626 128.557C116.32 128.923 115.801 128.954 115.241 128.628L101.515 120.706C100.934 120.37 100.405 119.718 100.109 118.975C99.814 118.221 99.7937 117.519 100.079 117.091L107.94 104.923L108.816 105.972L100.954 118.14C100.842 118.313 100.853 118.578 100.965 118.883C101.087 119.179 101.28 119.433 101.525 119.565L115.251 127.488C115.475 127.62 115.668 127.61 115.801 127.457C115.923 127.304 115.943 127.06 115.852 126.765L104.946 92.9072L105.852 92.9582L105.842 92.9683Z" fill="#2D55BF"/>
<path d="M105.842 92.9678L138.131 74.2012L149.037 108.048L116.737 126.815L105.842 92.9678Z" fill="#496CC8"/>
<path d="M104.936 92.917L137.225 74.1504L138.132 74.2013L105.842 92.9679L104.936 92.917Z" fill="#496CC8"/>
<path d="M108.204 91.1462L135.911 75.0475C137.296 74.243 139.078 74.9253 139.567 76.4527L148.67 104.71C149.067 105.931 148.558 107.255 147.448 107.897L119.741 123.996C118.357 124.8 116.575 124.118 116.086 122.59L106.983 94.3334C106.585 93.1115 107.095 91.7877 108.204 91.1462Z" fill="#BBC8EA"/>
<path d="M108.805 91.1668L136.512 75.068C137.897 74.2635 139.679 74.9458 140.168 76.4732L149.271 104.72C149.668 105.942 149.159 107.266 148.049 107.907L120.342 124.006C118.957 124.81 117.175 124.128 116.687 122.601L107.583 94.3437C107.186 93.1218 107.695 91.7981 108.805 91.1566V91.1668Z" fill="#EEF1FA"/>
<path d="M119.08 123.72C118.255 123.72 117.532 123.191 117.277 122.417L108.174 94.1599C107.879 93.2333 108.266 92.1947 109.111 91.7059L136.818 75.6071C137.103 75.4442 137.429 75.3525 137.765 75.3525C138.59 75.3525 139.313 75.882 139.567 76.6559L148.66 104.903C148.956 105.829 148.569 106.868 147.723 107.357L120.016 123.455C119.731 123.618 119.405 123.71 119.069 123.71L119.08 123.72Z" fill="#2952BE"/>
<path d="M191.203 130.726C192.303 133.71 194.655 135.196 195.592 144.218C196.529 153.24 193.474 157.089 191.906 158.963C190.338 160.846 183.821 161.865 181.947 161.396C180.064 160.928 154.8 142.253 154.332 138.485C153.864 134.718 154.933 126.959 156.195 125.625C157.448 124.291 173.873 131.816 176.693 133.078C179.514 134.341 191.203 130.726 191.203 130.726Z" fill="#656565"/>
<path d="M185.084 140.532C186.021 143.434 187.833 145.949 187.833 154.024C187.833 162.099 183.831 163.748 180.145 165.317C176.459 166.885 168.537 167.282 159.668 160.378C156.134 157.629 148.304 148.454 146.695 146.804C145.076 145.155 140.799 141.143 140.647 138.241C140.249 130.919 146.074 129.311 147.724 128.995C149.373 128.679 156.165 132.742 157.967 133.76C159.77 134.779 167.539 139.565 168.557 139.646C169.576 139.727 170.645 138.332 171.673 137.935C172.702 137.538 185.084 140.522 185.084 140.522V140.532Z" fill="#656565"/>
<path d="M164.606 141.55C165.299 144.635 174.646 144.921 183.434 142.568C192.222 140.216 193.26 136.163 193.372 135.013C193.484 133.862 191.285 127.742 191.285 124.759C191.285 121.775 191.57 108.446 190.867 101.542C190.165 94.6386 187.415 92.2864 184.595 91.1052C181.774 89.924 177.141 90.6368 175.105 91.1052C173.068 91.5736 167.804 94.8626 166.083 96.4409C164.362 98.0192 157.438 101.176 156.969 102.194C156.501 103.212 154.475 112.367 156.511 118.486C158.548 124.606 163.914 138.414 164.616 141.55H164.606Z" fill="#616161"/>
<path d="M168.567 95.2397C168.73 93.2846 167.783 90.6575 166.897 90.2706C166.001 89.8836 163.384 89.8836 162.264 89.2625C161.144 88.6413 159.25 83.4584 159.138 81.4524C159.026 79.4464 158.751 73.6932 159.637 71.5752C160.533 69.4572 172.752 69.0092 176.327 74.3143C179.901 79.6195 178.954 83.5296 179.84 86.5946C180.736 89.6698 183.129 92.0627 183.465 93.2337C183.801 94.4047 178.994 95.7997 176.041 95.2397C173.078 94.6797 169.453 94.1196 168.557 95.2397H168.567Z" fill="#BEBEBE"/>
<path d="M162.264 82.0121C162.264 81.7881 162.875 79.11 164.107 79.721C165.34 80.332 164.27 82.7351 165.564 84.6901C166.847 86.6452 168.69 88.0402 171.704 87.0932C174.718 86.1463 175.726 88.0402 176.113 88.5494C176.5 89.0585 180.695 87.4293 181.978 83.4173C183.261 79.3951 182.874 73.6521 179.076 68.3979C175.278 63.1538 167.295 64.7728 164.281 66.2799C161.267 67.7869 159.759 69.355 159.311 71.1879C158.863 73.031 159.474 75.709 159.984 76.3811C160.482 77.0531 161.155 77.5521 161.267 79.2831C161.379 81.0142 162.326 83.4173 162.326 83.4173L162.275 82.0223L162.264 82.0121Z" fill="#363636"/>
<path d="M163.099 81.5133C163.048 81.3504 162.763 80.0063 164.107 79.7314C165.451 79.4564 165.889 82.0225 165.502 83.3564C165.115 84.7005 164.779 86.5945 163.995 85.9835C163.211 85.3726 163.099 81.5133 163.099 81.5133Z" fill="#BEBEBE"/>
<path d="M176.948 80.9019C178.312 78.173 178.638 76.3197 180.634 77.7758C182.63 79.232 180.97 84.0789 182.192 85.871C183.424 87.653 186.102 90.7791 186.041 93.2433C185.99 95.6973 185.542 98.0393 182.192 97.8764C178.842 97.7135 175.94 96.9294 175.777 92.9073C175.614 88.8851 176.897 85.7081 176.673 84.3131C176.449 82.9181 176.948 80.9121 176.948 80.9121V80.9019Z" fill="#363636"/>
<path d="M144.974 94.0076C144.272 93.8243 142.775 92.5515 142.276 91.8591C141.777 91.1667 142.225 90.5455 142.378 90.4539C142.531 90.3622 143.895 90.8408 144.313 91.1259C144.73 91.411 146.38 92.2257 147.062 92.6941C147.744 93.1625 149.811 94.1603 150.982 95.1277C152.153 96.0951 152.102 96.6755 151.919 97.1439C151.736 97.6123 150.117 98.0094 148.864 97.6632C147.612 97.3272 146.441 96.5431 146.033 95.9118C145.626 95.2805 144.964 94.0076 144.964 94.0076H144.974Z" fill="#BEBEBE"/>
<path d="M128.723 91.4615C128.814 91.2884 129.038 90.7996 129.639 90.7283C130.24 90.6571 131.258 91.991 131.37 92.0928C131.482 92.1845 133.672 93.386 135.036 95.4836C136.401 97.5813 135.474 98.8032 136.238 100.168C137.001 101.522 139.516 106.043 141.4 107.978C143.284 109.923 146.644 113.751 147.469 115.258C148.294 116.765 145.28 122.549 142.979 121.816C140.677 121.083 137.348 117.091 135.25 111.277C133.152 105.463 131.554 103.304 131.187 102.774C130.82 102.245 127.501 99.516 127.195 99.129C126.89 98.7421 125.902 96.5732 125.79 95.6771C125.678 94.781 126.014 94.4756 126.014 94.4756C126.014 94.4756 126.004 93.8035 126.167 93.4369C126.34 93.0703 126.931 93.1823 126.931 93.1823C126.931 93.1823 126.91 92.439 127.155 92.0623C127.399 91.6855 128.723 91.4513 128.723 91.4513V91.4615Z" fill="#BEBEBE"/>
<path d="M142.103 117.112C142.5 114.291 144.343 112.753 148.457 110.676C152.571 108.599 159.719 111.46 160.269 116.124C160.819 120.788 146.614 122.203 142.968 121.816C141.828 119.82 142.103 117.112 142.103 117.112Z" fill="#BEBEBE"/>
<path d="M177.528 91.1151C179.178 90.2699 184.483 90.2292 186.601 91.1151C188.719 92.0009 192.059 96.1351 191.764 101.522C191.468 106.908 180.909 101.522 180.909 101.522L177.539 91.1151H177.528Z" fill="#363636"/>
<path d="M160.574 102.092C163.629 104.994 165.136 112.366 163.955 115.584C162.773 118.802 152.499 122.885 151.481 122.804C150.463 122.722 146.929 117.702 146.227 114.097C145.524 110.493 147.011 110.493 147.092 110.248C147.174 110.014 155.32 103.141 156.99 101.99C158.66 100.84 160.574 102.092 160.574 102.092Z" fill="#767676"/>
<path d="M207.374 108.456L207.272 108.385C206.305 107.723 205.398 107.652 204.798 108.08L175.298 125.105L178.557 181.548L208.087 164.502L208.789 134.728L210.011 113.527C210.113 111.776 208.942 109.536 207.374 108.456Z" fill="url(#paint3_linear_29_5129)"/>
<path d="M172.437 147.415L174.565 126.591C174.728 124.85 176.154 124.331 177.752 125.43L177.854 125.502C179.422 126.581 180.593 128.831 180.491 130.573L179.27 151.773L178.567 181.547L175.451 179.765L171.938 170.275L172.447 147.415H172.437Z" fill="url(#paint4_linear_29_5129)"/>
<path d="M172.253 175.327C171.754 175.327 171.296 175.235 170.97 175.042L156.134 166.478C151.165 163.607 145.544 147.936 145.483 146.347C145.442 145.278 145.442 144.25 145.483 143.292C145.534 142.071 146.033 141.134 146.888 140.665C147.764 140.187 148.864 140.278 149.984 140.93L170.309 152.66C172.813 154.106 174.219 155.756 176.001 157.843L176.174 158.047C176.459 158.383 176.713 158.862 176.958 159.503C177.294 160.399 177.457 161.326 177.436 162.181C177.426 162.711 177.426 163.474 177.436 164.34C177.436 166.132 177.447 168.362 177.324 170.134C177.131 172.955 175.512 174.217 174.565 174.716C173.832 175.103 172.987 175.307 172.243 175.307L172.253 175.327ZM148.1 141.877C147.917 141.877 147.754 141.918 147.611 141.989C147.245 142.193 147.021 142.671 146.99 143.354C146.949 144.27 146.949 145.258 146.99 146.286C147.051 147.752 152.58 162.68 156.888 165.165L171.724 173.728C171.928 173.851 172.875 173.922 173.872 173.392C174.687 172.955 175.695 172.028 175.828 170.032C175.95 168.321 175.94 166.122 175.929 164.35C175.929 163.464 175.929 162.69 175.929 162.141C175.95 161.468 175.817 160.746 175.542 160.033C175.308 159.412 175.115 159.137 175.023 159.025L174.85 158.821C173.099 156.764 171.826 155.277 169.555 153.964L149.23 142.233C148.813 141.999 148.426 141.877 148.1 141.877Z" fill="#DFDFDF"/>
<path d="M171.093 175.989C170.594 175.989 170.136 175.898 169.81 175.704L154.974 167.14C150.004 164.269 144.384 148.598 144.323 147.009C144.282 145.94 144.282 144.912 144.323 143.955C144.373 142.733 144.872 141.796 145.728 141.327C146.603 140.849 147.703 140.94 148.823 141.592L169.148 153.323C171.653 154.769 173.058 156.418 174.84 158.506L175.013 158.709C175.298 159.045 175.553 159.524 175.797 160.165C176.133 161.061 176.296 161.988 176.276 162.843C176.266 163.373 176.266 164.137 176.276 165.002C176.276 166.794 176.286 169.024 176.164 170.796C175.97 173.617 174.351 174.879 173.414 175.378C172.681 175.765 171.836 175.969 171.093 175.969V175.989ZM146.939 142.539C146.756 142.539 146.593 142.58 146.451 142.651C146.084 142.855 145.86 143.333 145.83 144.016C145.789 144.932 145.789 145.92 145.83 146.948C145.891 148.415 151.42 163.342 155.727 165.827L170.563 174.39C170.767 174.513 171.714 174.584 172.712 174.054C173.526 173.617 174.535 172.69 174.667 170.694C174.789 168.984 174.779 166.784 174.769 165.012C174.769 164.126 174.769 163.353 174.769 162.803C174.789 162.131 174.657 161.408 174.382 160.695C174.148 160.074 173.954 159.799 173.862 159.687L173.689 159.483C171.938 157.426 170.665 155.94 168.394 154.626L148.07 142.896C147.652 142.661 147.265 142.539 146.939 142.539Z" fill="#BDBDBD"/>
<path d="M143.874 142.406C144.74 141.52 146.165 141.449 147.754 142.365L168.079 154.096C168.812 154.523 169.463 154.961 170.054 155.419L172.376 154.075V152.752C172.376 152.752 170.767 152.965 170.4 152.752L150.076 141.021C148.487 140.105 146.573 139.433 145.707 140.319C145.707 140.319 144.516 140.665 143.874 141.082C143.314 141.398 143.874 142.406 143.874 142.406Z" fill="#464646"/>
<path d="M143.874 141.082C144.943 140.451 146.165 140.125 147.754 141.041L168.078 152.772C168.812 153.2 169.463 153.637 170.054 154.096L172.376 152.751C171.785 152.293 171.133 151.845 170.4 151.428L150.076 139.697C148.487 138.781 147.347 139.29 146.196 139.738L143.874 141.082Z" fill="#6B6B6B"/>
<path d="M51.3446 119.505L56.4359 109.597C57.2506 108.009 59.0122 107.133 60.7636 107.449L77.4835 110.402C78.3796 110.565 78.8785 111.542 78.4509 112.357L73.3595 122.264C72.5449 123.853 70.7833 124.729 69.0319 124.413L52.312 121.47C51.4159 121.307 50.9271 120.33 51.3446 119.515V119.505Z" fill="#ACBCE6"/>
<path d="M51.3446 118.263L56.4359 108.355C57.2506 106.767 59.0122 105.891 60.7636 106.206L77.4835 109.149C78.3796 109.312 78.8785 110.29 78.4509 111.104L73.3595 121.012C72.5449 122.601 70.7833 123.476 69.0319 123.161L52.312 120.208C51.4159 120.045 50.9271 119.067 51.3446 118.253V118.263Z" fill="#F9FAFD"/>
<path d="M62.8612 92.398L68.7061 81.0342L61.6801 107.916L55.8352 119.28L62.8612 92.398Z" fill="#D4DCF2"/>
<path d="M64.4293 89.4449C65.3254 89.5977 66.0382 90.3512 66.028 91.1149C66.028 91.8786 65.2847 92.3673 64.3886 92.2146C63.4925 92.0619 62.7797 91.3083 62.7899 90.5446C62.7899 89.7809 63.5332 89.2922 64.4293 89.4449Z" fill="#ECEFF9"/>
<path d="M64.4395 88.8339C65.7327 89.0579 66.7612 90.1373 66.751 91.2472C66.7408 92.3469 65.6818 93.0597 64.3886 92.8357C64.0628 92.7746 63.7573 92.6728 62.8612 92.4081L55.8352 119.29L54.542 119.066L62.1281 90.0457C62.3826 89.1496 63.3194 88.6507 64.4395 88.8441V88.8339ZM64.3988 92.2146C65.2949 92.3673 66.028 91.8785 66.0382 91.1148C66.0382 90.3511 65.3254 89.5976 64.4395 89.4449C63.5435 89.2922 62.8103 89.7707 62.8001 90.5446C62.8001 91.3083 63.5129 92.0618 64.3988 92.2146Z" fill="#ACBCE6"/>
<path d="M70.2846 77.4703C69.2969 77.2972 68.4517 77.6637 68.0953 78.3663L62.2505 89.7302C62.6069 89.0276 63.4622 88.661 64.4398 88.8341C65.733 89.0581 66.7614 90.1375 66.7512 91.2474C66.7512 91.502 66.6901 91.7362 66.5781 91.95L72.423 80.5862C72.5248 80.3825 72.5859 80.1381 72.5961 79.8836C72.6063 78.7736 71.5778 77.6943 70.2846 77.4703Z" fill="#E1E7F6"/>
<path d="M64.073 65.4348L78.9498 36.4957C79.2451 35.9254 80.0903 36.0985 80.1514 36.7299L84.031 81.4725C84.143 82.8166 83.8782 84.1709 83.2673 85.3623L68.3904 114.301C68.0951 114.872 67.2499 114.699 67.1889 114.067L63.3093 69.3246C63.1972 67.9805 63.462 66.6262 64.073 65.4348Z" fill="url(#paint5_linear_29_5129)"/>
<path d="M67.759 114.648L69.6225 114.841L81.4751 36.3531L79.5404 36.1494L67.759 114.648Z" fill="url(#paint6_linear_29_5129)"/>
<path d="M65.9873 65.6389L80.8641 36.6998C81.1594 36.1295 82.0046 36.3026 82.0657 36.934L85.9453 81.6766C86.0573 83.0207 85.7925 84.375 85.1816 85.5664L70.3047 114.505C70.0094 115.076 69.1643 114.903 69.1032 114.271L65.2236 69.5287C65.1116 68.1846 65.3763 66.8303 65.9873 65.6389Z" fill="#E1E7F6"/>
<path d="M82.0658 36.934C82.0149 36.3026 81.1595 36.1295 80.8642 36.6998L65.9873 65.6389C65.3662 66.8405 65.1014 68.1846 65.2236 69.5287L68.6348 108.925L85.4566 76.1881L82.0556 36.934H82.0658Z" fill="#F2F5FB"/>
<path d="M65.7429 68.2959L81.4242 37.7988L84.6114 74.5277L68.9301 105.025L65.7429 68.2959Z" fill="#2952BE"/>
<path d="M148.589 71.1059L156.032 66.8089C156.888 66.3099 156.888 65.5055 156.032 65.0065L150.106 61.5852C149.241 61.0862 147.846 61.0862 146.99 61.5852L139.547 65.8822L138.803 66.6867C138.345 67.1754 138.498 67.7966 139.19 68.1937L144.608 71.3198C145.3 71.7169 146.359 71.8085 147.214 71.5438L148.599 71.1161L148.589 71.1059Z" fill="url(#paint7_linear_29_5129)"/>
<path d="M138.529 67.2669V65.6682L156.674 64.3037V65.9126L147.601 70.8104L143.08 69.6191L138.529 67.2669Z" fill="url(#paint8_linear_29_5129)"/>
<path d="M148.589 69.5073L156.032 65.2102C156.888 64.7113 156.888 63.9068 156.032 63.4079L150.106 59.9865C149.241 59.4876 147.846 59.4876 146.99 59.9865L139.547 64.2836L138.803 65.088C138.345 65.5768 138.498 66.1979 139.19 66.5951L144.608 69.7212C145.3 70.1183 146.359 70.2099 147.214 69.9452L148.599 69.5175L148.589 69.5073Z" fill="url(#paint9_linear_29_5129)"/>
<path d="M146.166 69.65C145.616 69.65 145.086 69.5279 144.709 69.3038L139.292 66.1778C138.987 65.9945 138.793 65.7705 138.753 65.5363C138.722 65.353 138.793 65.1799 138.946 65.0068L139.669 64.2329L147.082 59.9561C147.459 59.7321 147.978 59.6201 148.518 59.6201C149.057 59.6201 149.587 59.7423 149.974 59.9663L155.9 63.3877C156.246 63.5914 156.44 63.8459 156.44 64.1005C156.44 64.3551 156.246 64.6096 155.91 64.8031L148.487 69.09L147.123 69.5075C146.827 69.5991 146.491 69.65 146.155 69.65H146.166Z" fill="#F1F1F1"/>
<path d="M143.691 67.7769L142.133 66.8706V66.5244L143.691 67.4307V67.7769Z" fill="#D3D3D3"/>
<path d="M143.691 67.7765L146.084 66.3917V66.0557L143.691 67.4303V67.7765Z" fill="#C8C8C8"/>
<path d="M143.691 67.4294L142.133 66.5231L144.516 65.1484L146.084 66.0547L143.691 67.4294Z" fill="#DCDCDC"/>
<path d="M144.822 66.6359L143.152 66.422L145.769 65.6074V66.086L144.822 66.6359Z" fill="#ACACAC"/>
<path d="M143.712 67.2773L142.398 66.5237V65.7295L144.822 66.6357L143.712 67.2773Z" fill="#ACACAC"/>
<path d="M144.822 66.2693L143.508 65.5158L144.455 64.8438L145.769 65.6074L144.822 66.2693Z" fill="#C1C1C1"/>
<path d="M143.712 66.483L142.398 65.7295L143.508 65.5156L144.822 66.2691L143.712 66.483Z" fill="#D5D5D5"/>
<path d="M147.53 36.0887C147.53 36.9542 148.141 37.3004 148.895 36.8626C149.648 36.4247 150.259 35.3759 150.259 34.5104C150.259 33.6448 149.648 33.2986 148.895 33.7365C148.141 34.1743 147.53 35.2231 147.53 36.0887Z" fill="#DCDCDC"/>
<path d="M147.815 36.2713C147.815 37.1368 148.426 37.483 149.18 37.0452C149.933 36.6073 150.544 35.5585 150.544 34.693C150.544 33.8274 149.933 33.4812 149.18 33.9191C148.426 34.3569 147.815 35.4058 147.815 36.2713Z" fill="#C7C7C7"/>
<path d="M150.025 64.3654L148.375 63.4185C147.815 63.0926 147.886 62.5224 148.528 62.1456C149.18 61.7689 150.167 61.7281 150.727 62.054L152.377 63.001C152.937 63.3268 152.866 63.897 152.224 64.2738C151.573 64.6506 150.585 64.6913 150.025 64.3654Z" fill="#CECECE"/>
<path d="M150.025 64.0803L148.375 63.1333C147.815 62.8075 147.886 62.2372 148.528 61.8605C149.18 61.4837 150.167 61.443 150.727 61.7688L152.377 62.7158C152.937 63.0417 152.866 63.6119 152.224 63.9886C151.573 64.3654 150.585 64.4061 150.025 64.0803Z" fill="#F1F1F1"/>
<path d="M151.766 63.5404L151.674 63.5913C151.308 63.8154 150.829 63.7543 150.534 63.4284L150.462 63.3571L149.709 36.6582L149.22 36.4749L150.076 62.5934L149.913 62.6749C149.526 62.8785 149.037 62.7665 148.782 62.4102L148.1 36.4138C148.12 35.9047 148.568 35.5279 149.078 35.5788L151.155 35.8028L151.766 63.5404Z" fill="#D3D3D3"/>
<path d="M133.496 24.9281L132.607 26.4844L149.894 36.3566L150.782 34.8003L133.496 24.9281Z" fill="#D3D3D3"/>
<path d="M132.663 26.9646C132.663 27.8302 133.274 28.1764 134.028 27.7385C134.781 27.3007 135.392 26.2519 135.392 25.3863C135.392 24.5208 134.781 24.1746 134.028 24.6125C133.274 25.0503 132.663 26.0991 132.663 26.9646Z" fill="#DCDCDC"/>
<path d="M132.948 27.159C132.948 28.0245 133.559 28.3707 134.313 27.9329C135.066 27.495 135.677 26.4462 135.677 25.5807C135.677 24.7151 135.066 24.3689 134.313 24.8068C133.559 25.2446 132.948 26.2935 132.948 27.159Z" fill="#C7C7C7"/>
<path d="M131.625 26.9136C131.778 27.0053 132.236 27.27 132.725 27.6569C133.315 28.1152 133.682 28.5123 133.722 28.553C133.845 28.6854 134.018 28.8687 134.13 29.0112C134.303 29.2251 134.527 29.5204 134.68 29.7444C135.016 30.2332 135.27 30.783 135.321 30.895C135.453 31.2107 135.606 31.5671 135.728 32.0457C135.769 32.2188 135.82 32.4428 135.851 32.6159C135.881 32.8297 135.922 33.1047 135.932 33.3185C135.952 33.6953 135.963 34.1229 135.891 34.7033C135.84 35.0903 135.759 35.5383 135.545 36.2002C135.362 36.7501 134.557 37.0963 133.122 37.137C134.669 32.4428 131.961 29.1436 131.818 28.9705C133.56 28.9196 133.458 27.9828 131.584 26.8932C131.472 26.8321 131.36 26.7711 131.248 26.71C131.36 26.7711 131.513 26.8525 131.625 26.9238V26.9136Z" fill="url(#paint10_linear_29_5129)"/>
<path d="M124.548 24.9789C124.976 24.9688 125.24 24.9789 125.515 24.9993C125.831 25.0197 126.187 25.0706 126.33 25.0808C125.861 25.0095 125.424 24.9789 125.047 24.9891C123.306 25.04 123.407 25.9768 125.281 27.0664C127.155 28.1559 130.077 29.0113 131.818 28.9604C131.961 29.1335 134.659 32.4326 133.122 37.1269C129.66 37.2287 123.845 35.5485 120.139 33.3694C117.97 32.0966 117.003 30.9358 117.247 30.1721C117.4 29.7648 117.624 29.2353 117.817 28.8382C117.919 28.6345 118.072 28.3799 118.204 28.1967C118.316 28.0439 118.469 27.8301 118.591 27.6875C118.723 27.5246 118.917 27.3209 119.059 27.1784C119.446 26.7914 119.772 26.5572 120.017 26.3841C120.292 26.1907 120.638 25.987 121.035 25.7935C121.147 25.7324 121.564 25.539 122.063 25.3862C122.236 25.3353 122.471 25.264 122.644 25.2233C122.888 25.1622 123.224 25.1011 123.479 25.0604C123.642 25.0299 124.151 24.9789 124.548 24.9688V24.9789Z" fill="url(#paint11_linear_29_5129)"/>
<path d="M133.916 23.6455C133.855 24.0732 133.783 24.5212 133.61 25.5293C133.539 25.9366 133.468 26.3337 133.386 26.741C133.315 27.1076 133.244 27.4844 133.121 28.0953C133.101 28.2175 133.071 28.3397 133.05 28.4619C132.989 28.7572 132.582 28.9507 131.818 28.9812C131.849 28.8387 132.48 26.0995 132.857 24.1139C133.529 24.0935 133.885 23.9204 133.916 23.6557V23.6455Z" fill="url(#paint12_linear_29_5129)"/>
<path d="M123.845 25.4268C124.202 24.6529 124.599 23.8485 124.599 23.8383C124.68 23.6754 124.782 23.4616 124.864 23.2986C125.088 22.8302 125.138 22.7386 125.291 22.4433C125.332 22.3517 125.393 22.2396 125.434 22.1582C125.536 21.9647 125.627 21.7814 125.729 21.588C125.79 21.4759 125.882 21.2825 126.014 21.0381C125.841 21.3639 126.248 21.8934 127.246 22.4738C128.855 23.4208 131.37 24.1438 132.867 24.1031C132.49 26.0887 131.859 28.8278 131.828 28.9704C130.087 29.0213 127.165 28.1761 125.291 27.0764C124.161 26.4145 123.672 25.8138 123.855 25.4268H123.845Z" fill="url(#paint13_linear_29_5129)"/>
<path d="M132.093 21.0386C132.48 21.2626 132.643 21.4052 132.847 21.5681C132.959 21.6699 133.183 21.8838 133.325 22.0671C133.417 22.1995 133.57 22.3929 133.702 22.7289C133.824 23.0242 133.885 23.3195 133.926 23.513C133.987 23.8592 133.641 24.0832 132.867 24.1036C131.37 24.1443 128.855 23.4214 127.246 22.4744C126.146 21.8329 125.76 21.2525 126.096 20.9368C126.187 20.8553 126.299 20.7535 126.391 20.6822C126.442 20.6415 126.503 20.5906 126.554 20.56C126.656 20.4888 126.89 20.336 127.124 20.2444C127.368 20.1527 127.491 20.112 127.827 20.0509C127.837 20.0509 128.142 20 128.529 20C129.833 20.0204 131.258 20.5397 132.093 21.0386Z" fill="url(#paint14_linear_29_5129)"/>
<path d="M148.477 36.6785C148.477 37.544 149.088 37.8903 149.842 37.4524C150.595 37.0145 151.206 35.9657 151.206 35.1002C151.206 34.2347 150.595 33.8885 149.842 34.3263C149.088 34.7642 148.477 35.813 148.477 36.6785Z" fill="#DCDCDC"/>
<path d="M148.762 36.8611C148.762 37.7267 149.373 38.0729 150.127 37.635C150.88 37.1972 151.491 36.1483 151.491 35.2828C151.491 34.4173 150.88 34.0711 150.127 34.5089C149.373 34.9468 148.762 35.9956 148.762 36.8611Z" fill="#C7C7C7"/>
<defs>
<linearGradient id="paint0_linear_29_5129" x1="176.876" y1="187.433" x2="182.385" y2="187.433" gradientUnits="userSpaceOnUse">
<stop stop-color="#ACACAC"/>
<stop offset="0.32" stop-color="#B1B1B1"/>
<stop offset="0.72" stop-color="#C1C1C1"/>
<stop offset="0.95" stop-color="#CECECE"/>
</linearGradient>
<linearGradient id="paint1_linear_29_5129" x1="177.63" y1="174.225" x2="181.642" y2="174.225" gradientUnits="userSpaceOnUse">
<stop stop-color="#ACACAC"/>
<stop offset="0.32" stop-color="#B1B1B1"/>
<stop offset="0.72" stop-color="#C1C1C1"/>
<stop offset="0.95" stop-color="#CECECE"/>
</linearGradient>
<linearGradient id="paint2_linear_29_5129" x1="157.937" y1="169.643" x2="161.165" y2="164.053" gradientUnits="userSpaceOnUse">
<stop offset="0.5" stop-color="#4A4A4A"/>
<stop offset="0.71" stop-color="#4C4C4C"/>
<stop offset="0.82" stop-color="#545454"/>
<stop offset="0.9" stop-color="#616161"/>
</linearGradient>
<linearGradient id="paint3_linear_29_5129" x1="205.429" y1="166.029" x2="180.176" y2="122.284" gradientUnits="userSpaceOnUse">
<stop offset="0.87" stop-color="#4A4A4A"/>
<stop offset="0.88" stop-color="#4D4D4D"/>
<stop offset="0.93" stop-color="#636363"/>
<stop offset="0.97" stop-color="#6B6B6B"/>
</linearGradient>
<linearGradient id="paint4_linear_29_5129" x1="165.055" y1="173.757" x2="189.157" y2="131.998" gradientUnits="userSpaceOnUse">
<stop offset="0.68" stop-color="#4A4A4A"/>
<stop offset="0.84" stop-color="#4C4C4C"/>
<stop offset="0.93" stop-color="#545454"/>
<stop offset="1" stop-color="#616161"/>
</linearGradient>
<linearGradient id="paint5_linear_29_5129" x1="72.2904" y1="114.811" x2="75.0397" y2="35.9967" gradientUnits="userSpaceOnUse">
<stop offset="0.52" stop-color="#ACBCE6"/>
<stop offset="0.58" stop-color="#B8C6EA"/>
</linearGradient>
<linearGradient id="paint6_linear_29_5129" x1="73.2373" y1="114.963" x2="75.9968" y2="36.0272" gradientUnits="userSpaceOnUse">
<stop offset="0.52" stop-color="#ACBCE6"/>
<stop offset="0.58" stop-color="#B8C6EA"/>
</linearGradient>
<linearGradient id="paint7_linear_29_5129" x1="156.674" y1="66.4525" x2="138.528" y2="66.4525" gradientUnits="userSpaceOnUse">
<stop offset="0.5" stop-color="#C7C7C7"/>
<stop offset="0.63" stop-color="#D8D8D8"/>
</linearGradient>
<linearGradient id="paint8_linear_29_5129" x1="156.674" y1="67.5622" x2="138.529" y2="67.5622" gradientUnits="userSpaceOnUse">
<stop offset="0.5" stop-color="#C7C7C7"/>
<stop offset="0.63" stop-color="#D8D8D8"/>
</linearGradient>
<linearGradient id="paint9_linear_29_5129" x1="156.674" y1="64.8436" x2="138.528" y2="64.8436" gradientUnits="userSpaceOnUse">
<stop stop-color="#E4E4E4"/>
<stop offset="0.77" stop-color="#F1F1F1"/>
</linearGradient>
<linearGradient id="paint10_linear_29_5129" x1="136.339" y1="33.6647" x2="119.243" y2="26.486" gradientUnits="userSpaceOnUse">
<stop stop-color="#E4E4E4"/>
<stop offset="0.77" stop-color="#F1F1F1"/>
</linearGradient>
<linearGradient id="paint11_linear_29_5129" x1="135.912" y1="34.6728" x2="118.825" y2="27.4839" gradientUnits="userSpaceOnUse">
<stop stop-color="#E4E4E4"/>
<stop offset="0.77" stop-color="#F1F1F1"/>
</linearGradient>
<linearGradient id="paint12_linear_29_5129" x1="133.529" y1="26.6087" x2="125.087" y2="22.7596" gradientUnits="userSpaceOnUse">
<stop offset="0.18" stop-color="#C7C7C7"/>
<stop offset="0.92" stop-color="#D8D8D8"/>
</linearGradient>
<linearGradient id="paint13_linear_29_5129" x1="133.132" y1="27.4837" x2="124.69" y2="23.6245" gradientUnits="userSpaceOnUse">
<stop offset="0.18" stop-color="#C7C7C7"/>
<stop offset="0.92" stop-color="#D8D8D8"/>
</linearGradient>
<linearGradient id="paint14_linear_29_5129" x1="131.065" y1="25.3357" x2="129.181" y2="20.2342" gradientUnits="userSpaceOnUse">
<stop stop-color="#E4E4E4"/>
<stop offset="0.77" stop-color="#F1F1F1"/>
</linearGradient>
</defs>
</svg>
