<svg width="240" height="240" viewBox="0 0 240 240" fill="none" xmlns="http://www.w3.org/2000/svg">
<path d="M103.192 166.203L158.218 197.977L192.737 146.607L189.187 144.551L103.192 166.203Z" fill="#E3E3E3" fill-opacity="0.5"/>
<path d="M156.067 36.0561L188.868 148.843L192.737 146.607L159.543 32.707L156.067 36.0561Z" fill="#A0A0A0"/>
<path d="M156.067 36.0555L159.543 32.7065L155.982 30.6504L152.506 33.9994L156.067 36.0555Z" fill="#9F9F9F"/>
<path d="M156.067 36.0561L188.869 148.843L185.308 146.787L152.506 34L156.067 36.0561Z" fill="#616161"/>
<path d="M136.354 111.791L179.288 117.906L177.115 116.655L134.181 110.54L136.354 111.791Z" fill="#B0B0B0"/>
<path d="M179.288 117.905L136.354 111.79L135.347 114.917L180.347 120.915L179.288 117.905Z" fill="#9F9F9F"/>
<path d="M128.352 22.7243L106.753 168.26L110.622 166.024L131.818 22.0566L128.352 22.7243Z" fill="#A0A0A0"/>
<path d="M131.818 22.0561L128.353 22.7238L124.792 20.6677L128.268 20L131.818 22.0561Z" fill="#9F9F9F"/>
<path d="M106.753 168.259L128.352 22.724L124.791 20.668L103.192 166.203L106.753 168.259Z" fill="#7E7E7E"/>
<path d="M112.603 95.5762L110.759 95.9259L105.238 96.9751L104.697 99.169L162.786 132.712L115.857 98.8722L112.296 96.8162L112.603 95.5762Z" fill="#C5C5C5"/>
<path d="M175.928 51.688L174.752 56.3618L126.847 28.7004L128.013 24.0371L175.928 51.688Z" fill="#7E7E7E"/>
<path d="M175.928 51.6887L179.394 51.0316L131.489 23.3701L128.013 24.0378L175.928 51.6887Z" fill="#9F9F9F"/>
<path d="M179.818 52.4315L167.322 128.58L169.41 128.188L168.859 130.371L166.771 130.774L158.218 197.978L162.087 195.741L183.283 51.7744L179.818 52.4315Z" fill="#A0A0A0"/>
<path d="M183.283 51.7738L179.818 52.4309L176.257 50.3749L179.733 49.7178L183.283 51.7738Z" fill="#9F9F9F"/>
<path d="M158.218 197.977L179.818 52.4311L176.257 50.375L154.657 195.921L158.218 197.977Z" fill="#7E7E7E"/>
<path d="M169.41 128.187L167.322 128.579L115.857 98.8721L112.137 100.239L161.249 131.822L162.786 132.712L170.947 129.067L169.41 128.187Z" fill="#9F9F9F"/>
<path d="M170.947 129.067L168.859 129.47L163.337 130.519L162.786 132.713L168.308 131.664L170.396 131.261L170.947 129.067Z" fill="#A0A0A0"/>
<path d="M105.238 96.9756L163.337 130.519L162.786 132.713L104.697 99.1694L105.238 96.9756Z" fill="#7E7E7E"/>
<path d="M164.069 129.206L167.322 128.58L178.26 58.6318L175.006 59.2465L164.069 129.206Z" fill="#A7B8E4"/>
<path d="M119.98 27.4827L123.234 26.8574L178.26 58.631L175.006 59.2457L119.98 27.4827Z" fill="white"/>
<path d="M109.042 97.431L164.069 129.205L175.006 59.2454L119.98 27.4824L109.042 97.431Z" fill="#879EDB"/>
<path d="M120.404 60.4114C120.658 62.0965 121.368 63.6544 122.64 64.8414C122.958 65.1382 123.329 65.4455 123.403 65.8801C123.467 66.2616 123.276 66.6326 123.085 66.9717C121.919 69.0808 120.754 71.1792 119.588 73.2883C119.259 73.8924 118.91 74.5495 119.026 75.2277C119.132 75.8742 119.641 76.3724 120.139 76.8069C121.665 78.1211 123.435 79.2869 124.399 81.0568C125.364 82.8267 125.11 85.4975 123.265 86.3241C126.106 87.0978 127.812 90.627 126.667 93.3402C126.455 93.8383 126.169 94.347 126.286 94.877C126.455 95.5976 127.282 95.9156 128.003 96.1064C129.762 96.5833 131.511 97.0708 133.27 97.5477C132.253 98.4168 131.468 99.5614 131.013 100.823C131.373 99.8263 134.351 102.285 134.595 102.476C135.231 102.985 135.029 103.578 135.782 103.97C136.259 104.214 137.446 103.949 138.039 104.087C139.926 104.511 144.398 105.412 143.72 107.669C143.307 109.068 143.762 110.69 144.854 111.654C145.946 112.618 147.61 112.894 148.945 112.311C149.517 112.067 150.037 111.675 150.62 111.463C152.76 110.7 154.986 112.428 157.265 112.502C160.275 112.608 162.808 109.132 161.79 106.302C161.515 105.539 161.038 104.861 160.762 104.087C159.109 99.5508 164.62 94.1668 161.981 90.1183C161.599 89.5248 161.059 89.0373 160.783 88.3908C160.518 87.7761 160.508 87.0978 160.508 86.4301C160.497 83.3672 160.487 80.3043 160.476 77.2414C160.476 76.1498 160.444 74.984 159.851 74.0619C159.119 72.9491 157.72 72.4828 156.862 71.4654C155.982 70.4267 155.685 68.731 156.035 67.4274C156.279 66.516 157.699 66.4736 157.127 65.0852C156.841 64.3751 156.162 63.9194 155.505 63.5273C154.848 63.1351 154.149 62.743 153.735 62.0965C152.93 60.8035 153.629 59.1502 153.82 57.6452C153.863 57.2955 153.873 56.9351 153.714 56.6278C153.545 56.2886 153.205 56.0767 152.888 55.8859C150.058 54.1902 147.112 52.6958 144.07 51.4028C143.445 51.1379 142.724 50.7881 142.597 50.1204C142.416 49.2514 143.307 48.2128 142.703 47.5769C142.522 47.3861 142.247 47.3013 141.982 47.2483C139.777 46.7502 137.266 46.8456 135.157 47.704C134.436 48.0008 130.599 49.9403 130.801 50.9259C130.44 49.103 128.194 48.1492 126.392 48.6261C124.601 49.103 123.244 50.5974 122.269 52.1659C120.764 54.5823 119.98 57.677 120.393 60.422L120.404 60.4114Z" fill="#5878CC"/>
<path d="M149.539 95.1842C149.401 94.9934 149.486 94.7391 149.539 94.5165C149.687 93.7852 149.316 93.001 148.733 92.524C148.15 92.0471 147.398 91.8246 146.656 91.7186C145.935 91.6126 145.193 91.6126 144.504 91.39C143.816 91.1675 143.158 90.6481 143.031 89.9275C142.978 89.6095 143.031 89.2704 142.904 88.9736C142.639 88.3059 141.749 88.2105 141.039 88.2211C140.308 88.2211 139.576 88.2423 138.845 88.2529C138.644 88.2529 138.41 88.2529 138.262 88.1046C138.029 87.882 138.135 87.5005 138.093 87.1719C138.029 86.642 137.52 86.2499 137.001 86.1545C135.899 85.9425 134.871 86.695 133.758 86.3029C133.069 86.0591 132.56 85.19 132.963 84.5859C132.783 84.8509 130.557 84.4694 130.07 84.8297C129.836 84.9993 129.921 85.3278 129.635 85.4868C129.275 85.6881 128.512 85.4868 128.077 85.6458C127.611 85.8259 127.187 86.2287 127.155 86.7268C127.123 87.1931 127.409 87.6065 127.611 88.0198C127.812 88.4331 127.918 88.9948 127.579 89.3128C127.431 89.4611 127.229 89.5247 127.081 89.6625C126.657 90.0652 126.943 90.7965 127.388 91.178C127.823 91.5596 128.406 91.814 128.702 92.3121C128.84 92.5452 128.904 92.8102 129.02 93.054C129.201 93.4461 129.519 93.764 129.699 94.1456C130.133 95.0358 129.847 96.0957 129.826 97.0813C129.826 97.3251 129.847 97.6006 130.006 97.7914C130.144 97.9504 130.356 98.0139 130.557 98.0669C132.126 98.5015 133.684 98.9254 135.252 99.3599C135.284 100.346 135.379 101.331 135.538 102.296C137.573 102.264 139.799 102.296 141.378 103.589C142.077 104.161 142.586 104.924 143.19 105.592C143.794 106.259 144.579 106.853 145.479 106.885C146.317 106.916 147.387 106.556 147.832 107.266C148.118 107.733 147.885 108.379 148.161 108.856C148.33 109.153 148.659 109.312 148.966 109.46C149.92 109.905 151.044 110.35 151.966 109.842C152.305 109.661 152.57 109.365 152.909 109.185C153.322 108.962 153.82 108.93 154.287 108.941C155.59 108.962 156.883 109.227 158.091 109.714C158.823 110.011 159.639 110.393 160.349 110.054C161.271 109.619 161.313 108.347 161.218 107.33C161.144 106.577 161.038 105.74 160.465 105.242C159.84 104.701 158.717 104.574 158.59 103.758C158.515 103.324 158.802 102.868 158.653 102.455C158.409 101.776 157.201 101.734 157.138 101.013C157.095 100.558 157.593 100.134 157.434 99.6991C157.36 99.4977 157.159 99.3811 156.968 99.2751C156.163 98.8512 155.315 98.5015 154.446 98.2259C154.064 98.1093 153.619 97.9398 153.545 97.5476C153.481 97.2191 153.725 96.8905 153.63 96.5726C153.555 96.35 153.333 96.2123 153.11 96.1063C152.167 95.6611 151.139 95.3962 150.1 95.3432C149.899 95.3432 149.666 95.3114 149.539 95.1524V95.1842Z" fill="#2952BE"/>
<path d="M133.175 69.4314C133.09 69.8341 133.185 70.2686 133.493 70.5442C133.609 70.6502 133.747 70.7349 133.8 70.8833C133.895 71.1271 133.694 71.3814 133.567 71.6146C133.281 72.1339 133.323 72.8228 133.683 73.2891C134.044 73.7555 134.701 73.978 135.273 73.8296C135.665 74.1476 136.058 74.4655 136.45 74.7835C136.768 75.0379 137.096 75.3028 137.488 75.377C137.88 75.4618 138.357 75.2922 138.495 74.9107C138.527 74.8047 138.538 74.6987 138.601 74.6139C138.802 74.349 139.205 74.5715 139.523 74.6457C140.138 74.7729 140.678 74.2536 141.081 73.7873C141.537 73.2679 141.993 72.4731 141.537 71.9538C141.378 71.7736 141.145 71.6782 141.007 71.4768C140.551 70.788 141.812 69.9295 141.473 69.177C141.208 68.5729 140.212 68.6895 139.862 68.1384C139.502 67.5767 140.032 66.8666 139.873 66.2731C139.831 66.1247 136.439 65.5206 135.983 65.5736C135.453 65.6266 134.902 65.9445 134.574 66.3685C134.033 67.0468 134.627 67.8204 134.256 68.3397C134.15 68.4881 133.959 68.5305 133.79 68.6047C133.45 68.7531 133.228 69.0922 133.154 69.4526L133.175 69.4314Z" fill="#8BA2DC"/>
<path d="M136.153 93.5105C136.153 93.5105 136.132 93.5847 136.132 93.6165C136.153 93.7225 136.269 93.7755 136.365 93.8178L138.368 94.5279C138.135 95.4818 136.778 95.5242 136.026 96.1601C135.92 96.2448 135.814 96.372 135.835 96.5098C135.856 96.6476 135.983 96.7324 136.11 96.796C136.566 97.0397 137.064 97.2199 137.435 97.5802C137.806 97.9406 137.997 98.5553 137.69 98.9686C137.35 99.4349 136.566 99.4243 136.269 99.9224C136.015 100.357 136.322 100.94 136.767 101.184C137.213 101.417 137.743 101.417 138.241 101.417C139.036 101.427 139.523 101.788 140.212 102.01C140.816 102.212 142.692 102.01 143.105 102.455C141.982 101.237 140.604 100.24 139.099 99.5621C139.714 98.8096 140.53 98.2267 141.441 97.8982C140.837 97.0185 140.117 96.2236 139.29 95.5559C139.915 95.026 140.646 94.6127 141.431 94.3583C140.689 93.1077 138.537 93.2879 137.891 91.9949C138.686 91.8784 139.481 91.7618 140.275 91.6558C140.148 91.2425 139.682 91.0305 139.247 90.9563C138.823 90.8715 138.357 90.8503 138.007 90.596C137.658 90.3416 137.541 89.7163 137.912 89.4937C138.039 89.4195 138.219 89.3878 138.283 89.25C138.325 89.144 138.283 89.0274 138.241 88.9214C137.87 88.1372 137.287 87.0773 136.322 87.0244C135.782 86.9926 134.637 87.3635 134.701 88.01C134.807 89.1334 137.001 89.3772 135.019 90.3522C135.156 90.543 136.926 92.3553 136.948 92.3341L136.216 93.4151C136.216 93.4151 136.174 93.4787 136.163 93.5105H136.153Z" fill="#8BA2DC"/>
<path d="M123.074 194.383C116.472 198.188 105.746 198.178 99.101 194.341C92.4665 190.504 92.4241 184.315 99.0268 180.5C105.63 176.695 116.355 176.705 123 180.542C129.635 184.379 129.677 190.568 123.074 194.383Z" fill="#E3E3E3" fill-opacity="0.5"/>
<path d="M123.011 191.682C116.768 195.285 106.605 195.264 100.32 191.639C94.0351 188.015 94.0032 182.143 100.246 178.54C106.488 174.937 116.652 174.947 122.937 178.582C129.221 182.207 129.253 188.078 123.011 191.682Z" fill="#989898"/>
<path d="M102.005 180.267C100.839 181.115 99.8429 180.903 99.3659 182.323C98.889 183.754 98.889 185.704 99.101 186.34C99.313 186.976 102.694 187.93 104.548 187.983C106.393 188.036 109.678 185.768 109.678 185.768C109.678 185.768 109.89 184.655 110.314 184.443C110.738 184.231 111.904 184.231 112.741 184.602C113.578 184.973 122.989 184.231 125.734 183.224C128.479 182.217 121.559 178.571 121.135 178.783C120.711 178.995 102.005 180.267 102.005 180.267Z" fill="#323232"/>
<path d="M102.789 173.134C102.259 174.194 99.8853 179.525 99.8853 181.433V183.542C99.8853 183.542 101.729 185.386 104.75 185.078C107.76 184.76 110.293 182.704 111.406 182.598C112.518 182.492 118.803 182.757 120.806 182.333C122.809 181.91 123.869 180.691 124.028 179.906C124.187 179.112 122.989 177.532 122.11 177.267C121.23 177.003 114.204 174.787 113.144 174.523C112.084 174.258 106.382 170.93 106.382 170.93L102.789 173.145V173.134Z" fill="#484848"/>
<path d="M116.959 138.679C118.909 138.096 122.587 135.775 122.078 142.431C121.559 149.087 114.108 175.349 113.631 177.511C113.154 179.673 109.667 180.309 106.075 179.62C102.482 178.931 101.21 178.189 101.157 177.193C101.104 176.186 103.796 158.752 104.379 154.365C104.962 149.977 105.386 141 106.7 139.675C108.014 138.351 116.948 138.668 116.948 138.668L116.959 138.679Z" fill="#282828"/>
<path d="M141.918 210.016C135.315 213.821 124.59 213.81 117.945 209.974C111.31 206.137 111.268 199.948 117.871 196.132C124.473 192.328 135.199 192.338 141.844 196.175C148.478 200.011 148.521 206.201 141.918 210.016Z" fill="#E3E3E3" fill-opacity="0.5"/>
<path d="M86.5739 220L113.292 204.579L73.7182 181.729L47 197.161L86.5739 220Z" fill="#E3E3E3" fill-opacity="0.5"/>
<path d="M101.793 205.259L105.906 207.633L103.743 196.197L99.6313 193.812L101.793 205.259Z" fill="#4F4F4F"/>
<path d="M94.0671 201.771L103.743 196.197L105.905 207.632L111.639 204.326L110.219 171.206L87.5916 184.263L86.1714 219.025L91.9051 215.719L94.0671 201.771Z" fill="#777777"/>
<path d="M82.0593 216.652L86.1714 219.026L87.5916 184.264L83.4795 181.89L82.0593 216.652Z" fill="#9D9D9D"/>
<path d="M68.3876 185.969L72.4997 188.343L70.3377 176.907L66.2256 174.533L68.3876 185.969Z" fill="#9D9D9D"/>
<path d="M60.6614 182.493L70.3375 176.908L72.4996 188.343L78.2333 185.037L76.8131 151.917L54.1858 164.974L52.7656 199.736L58.4993 196.43L60.6614 182.493Z" fill="#777777"/>
<path d="M48.6536 197.363L52.7657 199.737L54.1859 164.975L50.0737 162.601L48.6536 197.363Z" fill="#9D9D9D"/>
<path d="M86.1711 185.111L111.639 170.411V167.168L86.1711 181.868V185.111Z" fill="#828282"/>
<path d="M86.1712 185.11V181.867L48.6533 160.204V163.447L86.1712 185.11Z" fill="#777777"/>
<path d="M86.1712 181.868L111.639 167.168L74.121 145.505L48.6533 160.205L86.1712 181.868Z" fill="#B5B5B5"/>
<path d="M117.309 74.0506C117.086 73.9976 112.423 76.5306 112.095 77.5481C111.766 78.5655 111.48 82.4657 111.035 83.0804C110.59 83.6951 102.387 89.0578 96.017 91.7921C89.658 94.5265 87.496 94.7596 86.15 96.148C84.804 97.5364 85.1962 103.779 88.0683 104.595C90.9404 105.411 96.9178 101.945 101.878 97.8755C106.848 93.7952 113.154 88.051 114.553 87.4892C115.952 86.9275 117.563 85.9843 117.786 84.5853C118.008 83.1863 116.058 81.1833 116.164 80.0598C116.281 78.947 119.238 76.9864 119.238 76.9864C119.238 76.9864 121.697 77.5269 122.364 77.5375C123.032 77.5375 123.541 76.4247 123.541 76.4247C123.541 76.4247 123.096 75.8629 122.566 75.5874C122.036 75.3118 120.722 75.0575 120.584 75.0575H119.301L117.319 74.04L117.309 74.0506Z" fill="#BEBEBE"/>
<path d="M88.9798 102.497C90.2092 101.214 90.3152 99.3171 89.7005 97.9711C89.0858 96.6251 83.3203 92.6084 81.9849 91.9619C80.6496 91.3154 75.9121 93.7318 76.0287 96.7417C76.1453 99.7516 84.3589 103.397 86.1395 103.832C87.9306 104.266 88.9798 102.497 88.9798 102.497Z" fill="#BEBEBE"/>
<path d="M86.8602 96.3084C86.5847 97.3152 87.051 100.611 83.0449 101.449C79.0387 102.286 63.8514 93.8496 64.8052 91.4014C65.7591 88.9532 66.8719 87.2575 68.9915 86.0917C71.1112 84.9258 76.6329 86.9501 77.6291 87.9569C78.6254 88.9638 85.6626 93.733 86.1395 94.4219C86.6165 95.1108 86.8602 96.319 86.8602 96.319V96.3084Z" fill="#EEEEEE"/>
<path d="M116.408 196.504C115.719 196.673 114.267 197.246 113.706 197.998C113.144 198.74 112.752 202.206 113.038 203.043C113.313 203.88 117.616 205.385 119.015 205.385C120.414 205.385 122.121 204.824 122.121 204.824C122.121 204.824 125.713 208.003 128.723 208.512C131.733 209.02 135.92 210.186 140.053 209.349C144.186 208.512 144.737 207.007 144.97 206.721C145.193 206.445 144.854 204.389 144.631 204.378C144.409 204.368 141.06 201.644 140.392 201.644C139.724 201.644 116.408 196.504 116.408 196.504Z" fill="#323232"/>
<path d="M118.178 190.145C118.178 190.145 114.829 195.794 114.437 197.691C114.045 199.588 113.822 200.308 114.045 200.701C114.267 201.093 120.965 202.375 123.424 203.658C125.883 204.94 132.358 207.897 136.545 208.066C140.731 208.236 142.575 207.505 143.126 206.837C143.688 206.169 144.631 204.823 144.631 204.823C144.631 204.823 143.677 202.757 143.073 202.365C142.469 201.972 129.847 194.331 129.561 194.161C129.285 193.992 124.537 188.025 123.424 187.908C122.311 187.792 118.178 190.145 118.178 190.145Z" fill="#484848"/>
<path d="M86.8603 131.865C92.0428 130.858 115.264 131.43 118.952 132.713C122.64 133.995 121.994 139.909 122.068 142.368C122.131 144.826 109.127 146.066 106.223 147.063C103.319 148.059 84.5074 152.425 83.4476 146.268C82.3878 140.121 86.8603 131.865 86.8603 131.865Z" fill="#282828"/>
<path d="M66.5326 148.218C66.5326 152.627 64.4129 155.881 67.9316 160.639C71.4502 165.409 76.1347 167.475 86.8601 167.136C97.5856 166.797 112.646 163.003 116.45 163.565C120.255 164.126 123.096 166.299 127.282 165.07C131.468 163.84 136.153 162.166 136.545 158.764C136.937 155.362 136.661 152.288 134.87 149.893C133.079 147.498 126.985 144.255 122.131 144.647C117.277 145.039 103.362 145.855 102.302 145.484C101.242 145.113 97.3948 143.47 96.6105 143.142C95.8262 142.803 90.8344 143.534 88.1001 143.65C85.3657 143.767 66.5538 148.229 66.5538 148.229L66.5326 148.218Z" fill="#2C2C2C"/>
<path d="M120.966 154.81C119.291 162.737 118.57 165.525 118.623 171.502C118.676 177.48 116.896 189.816 116.451 192.434C116.006 195.051 120.361 196.737 123.933 197.457C127.505 198.178 130.292 197.065 130.578 195.899C130.854 194.723 136.333 165.98 136.556 158.774C136.778 151.577 120.976 154.81 120.976 154.81H120.966Z" fill="#2C2C2C"/>
<path d="M71.3972 86.0908C67.603 86.0908 63.8089 90.5527 62.6325 93.4036C61.4561 96.2546 61.0109 99.7096 60.7354 106.969C60.4598 114.229 63.8619 127.233 63.8619 130.635C63.8619 134.037 62.908 143.417 63.8089 149.617C64.6991 155.817 65.9285 156.368 66.8188 157.544C67.709 158.721 72.1179 160.946 78.7101 160.618C85.3022 160.279 88.5347 155.7 90.9299 150.91C93.3251 146.109 93.7172 144.381 93.2191 137.069C92.721 129.756 91.1524 121.436 91.1524 116.137C91.1524 110.838 86.2348 99.7202 83.8396 95.873C81.4444 92.0259 78.2013 88.1681 76.5268 87.0553C74.8523 85.9424 71.3866 86.1014 71.3866 86.1014L71.3972 86.0908Z" fill="#E5E5E5"/>
<path d="M67.9316 78.216C69.7757 83.3562 69.4896 85.1367 69.1081 87.3729C68.7159 89.6092 67.3805 91.1141 68.6629 92.3435C69.9453 93.5729 80.6072 98.9886 80.9993 97.028C81.3915 95.0779 82.1757 90.5524 82.5043 90.1603C82.8434 89.7681 86.3515 86.1435 86.1289 81.4485C85.9063 76.764 83.1719 73.9131 81.4974 73.3514C79.8229 72.7897 67.9316 78.2054 67.9316 78.2054V78.216Z" fill="#BEBEBE"/>
<path d="M86.1396 65.1064C88.3016 66.8976 89.372 68.8476 89.425 71.3064C89.478 73.7652 90.2623 84.2363 90.0927 86.091C89.9232 87.9457 89.7006 89.0585 88.9163 89.6732C88.132 90.2879 82.8011 89.8322 82.8011 89.8322C82.8011 89.8322 79.5898 88.4439 78.3075 87.1085C77.0251 85.7731 77.0887 75.4928 77.0251 74.1044C76.9615 72.7054 78.53 67.8514 78.9752 66.9611C79.4203 66.0709 86.129 65.1171 86.129 65.1171L86.1396 65.1064Z" fill="#BEBEBE"/>
<path d="M85.408 70.3526C84.1257 70.9143 82.8433 71.2747 83.1188 73.3308C83.3944 75.3762 83.9879 76.3831 83.5746 76.7222C83.1718 77.0613 80.9886 77.835 80.607 79.181C80.2255 80.527 80.607 83.1977 80.607 83.1977H78.5934C78.5934 83.1977 77.7561 80.1242 76.3571 79.5731C74.9582 79.0114 73.7288 78.9584 72.8385 81.0781C71.9483 83.1977 71.7787 86.7058 69.712 86.3772C68.0905 81.2477 67.2532 81.2583 66.1404 78.3755C65.0276 75.4928 63.512 70.0771 65.2501 66.4525C66.9777 62.8279 70.1678 59.9769 76.5267 59.7544C82.8857 59.5318 88.0258 63.379 88.9161 66.0603C89.8063 68.7417 89.0856 69.6849 88.9161 69.7485C88.7465 69.8121 85.3975 70.3632 85.3975 70.3632L85.408 70.3526Z" fill="#323232"/>
<path d="M123.806 76.1816C123.806 76.1816 112.19 76.3512 110.515 77.3263C108.841 78.3013 123.35 77.6336 124.389 77.5806C125.417 77.5276 125.226 76.33 123.806 76.1816Z" fill="#2C2C2C"/>
<path d="M124.092 76.9341C123.954 76.5738 123.784 75.4609 125.321 75.4609C126.858 75.4609 127.335 76.9659 127.42 76.9341C127.504 76.9129 128.172 77.4322 126.72 77.8561C125.268 78.2801 124.092 76.9341 124.092 76.9341Z" fill="#2C2C2C"/>
<path d="M72.6794 125.697C72.6794 126.704 73.1669 130.382 77.0671 138.256C80.9673 146.131 82.398 147.551 84.8251 146.883C87.2521 146.215 87.9197 135.373 87.5064 132.713C87.0825 130.053 83.4049 117.992 83.4049 117.992L72.69 125.697H72.6794Z" fill="#BEBEBE"/>
<path d="M109.636 129.969C105.894 130.975 89.8699 134.939 87.8668 135.384C85.8531 135.829 85.1324 134.992 83.5109 137.779C81.8894 140.567 79.314 147.647 83.7335 147.011C88.1529 146.375 93.6746 144.531 100.712 140.344C107.749 136.158 112.487 133.752 113.493 133.477C114.5 133.201 121.866 133.254 122.979 132.523C124.092 131.791 126.582 128.252 126.805 127.669C127.027 127.086 125.83 127.171 125.83 127.171C125.83 127.171 121.781 126.164 119.799 126.418C117.818 126.673 115.253 126.556 114.278 127.393C113.303 128.23 109.646 129.958 109.646 129.958L109.636 129.969Z" fill="#BEBEBE"/>
<path d="M127.494 117.409C123.308 116.847 121.739 116.847 117.839 118.914C113.928 120.98 110.431 125.326 112.412 127.689C114.394 130.053 126.095 129.3 129.115 127.339C132.136 125.379 132.857 119.974 131.903 118.628C130.949 117.282 127.494 117.398 127.494 117.398V117.409Z" fill="#E5E5E5"/>
<path d="M121.834 80.8446C122.311 80.0921 123.456 78.6083 123.541 77.8559C123.625 77.1034 122.619 76.902 122.004 76.9338C121.389 76.9656 119.937 79.0005 119.683 79.3078C119.429 79.6152 118.506 79.8377 117.447 80.675C116.387 81.5123 114.903 81.9574 114.574 82.8265C114.235 83.6955 114.257 87.9136 116.482 86.4511C118.708 84.9779 121.834 80.8552 121.834 80.8552V80.8446Z" fill="#BEBEBE"/>
<path d="M121.548 128.039C122.915 127.732 124.971 127.499 125.671 127.138C126.37 126.778 125.946 125.559 125.671 125.475C125.395 125.39 123.636 125.061 122.862 125.475C122.078 125.898 118.56 124.998 116.885 125.782C115.21 126.566 113.451 127.594 112.593 128.463C111.724 129.332 114.267 130.307 115.38 130.085C116.493 129.862 119.291 128.749 119.566 128.633C119.842 128.516 121.548 128.05 121.548 128.05V128.039Z" fill="#BEBEBE"/>
<path d="M75.0644 106.185C73.6866 107.436 68.663 108.199 69.4155 115.226C70.1679 122.263 72.595 129.714 73.941 131.801C75.2763 133.9 87.2312 132.3 86.8602 127.361C86.4999 122.422 84.1259 111.114 83.0449 108.771C81.9744 106.429 75.0538 106.175 75.0538 106.175L75.0644 106.185Z" fill="#EEEEEE"/>
<path d="M76.3043 79.806C76.2513 78.7992 75.5836 77.6015 74.1952 77.8559C72.8068 78.1103 73.4639 81.7455 74.1952 83.1127C74.9371 84.4798 75.9651 85.0097 76.5268 84.1725C77.0886 83.3352 76.3043 79.806 76.3043 79.806Z" fill="#BEBEBE"/>
</svg>
