<svg width="240" height="240" viewBox="0 0 240 240" fill="none" xmlns="http://www.w3.org/2000/svg">
<path opacity="0.2" d="M94.2035 219.621L26 180.244L139.333 114.811L207.536 154.187L94.2035 219.621Z" fill="#E3E3E3"/>
<path d="M34.3803 180.571L44.2065 135.055L39.6752 132.672L31.4782 180.001C31.3764 180.612 31.6615 181.223 32.191 181.538C33.0565 182.037 34.1664 181.549 34.3803 180.571Z" fill="#805034"/>
<path d="M91.78 215.435L81.6177 156.661L86.1591 159.573L94.1627 215.059C94.3053 216.057 93.2361 216.79 92.3604 216.281C92.0447 216.097 91.8309 215.792 91.7698 215.435H91.78Z" fill="#805034"/>
<path d="M91.0365 170.418L34.7773 137.945V135.756L91.0365 168.239V170.418Z" fill="#805034"/>
<path d="M89.6416 192.972L36.5288 162.302V160.123L89.6416 190.783V192.972Z" fill="#805034"/>
<path d="M198.749 108.232L91.0366 170.418V168.239L198.749 106.043V108.232Z" fill="#805034"/>
<path d="M94.5191 170.682L31.2949 134.177V119.382L94.5191 155.887V170.682Z" fill="#D57C48"/>
<path d="M142.082 118.384L151.908 72.8671L147.377 70.4844L139.18 117.813C139.078 118.424 139.363 119.035 139.893 119.351C140.758 119.85 141.868 119.361 142.082 118.384Z" fill="#323142"/>
<path d="M199.492 153.25L189.33 94.4756L193.871 97.3878L201.875 152.873C202.017 153.871 200.948 154.604 200.073 154.095C199.757 153.912 199.543 153.606 199.482 153.25H199.492Z" fill="#805034"/>
<path d="M156.674 65.9023V68.0611L154.566 67.9083L154.74 66.7475L156.674 65.9023Z" fill="#C7C7C7"/>
<path d="M94.5191 155.887L31.2949 119.382L139.007 57.1865L202.231 93.6914L94.5191 155.887Z" fill="#EC9461"/>
<path d="M94.1934 119.882L133.152 97.2354L154.2 109.393L115.241 132.03L94.1934 119.882Z" fill="#D58557"/>
<path d="M94.519 155.887V170.682L202.231 108.497V93.6914L94.519 155.887Z" fill="#D58557"/>
<path d="M95.7615 156.6L200.999 95.8301V107.785L95.7615 168.544V156.6Z" fill="#F5E5DA"/>
<path d="M161.032 171.437C161.776 171.987 161.725 170.734 162.499 171.956C163.313 173.239 163.598 174.156 163.242 175.836C162.886 177.526 160.869 178.809 158.833 179.634C156.796 180.459 156.165 181.793 153.619 182.343C151.074 182.892 148.986 182.465 148.324 181.243C147.663 180.021 148.284 179.278 149.852 178.3C151.42 177.323 153.161 174.074 153.935 172.761C154.709 171.447 155.931 168.922 155.931 168.922L161.032 171.437Z" fill="#202020"/>
<path d="M154.719 149.584C155.035 153.942 155.778 164.451 155.075 167.709C154.373 170.968 153.039 174.735 152.53 175.478C152.021 176.222 152.316 176.751 153.08 176.415C154.811 175.662 155.747 174.033 157.356 173.564C158.965 173.096 160.503 173.768 161.714 172.821C162.926 171.884 162.498 170.336 161.826 168.33C161.165 166.334 163.038 154.798 162.651 152.914C162.254 151.03 154.729 149.584 154.729 149.584H154.719Z" fill="#FFA496"/>
<path d="M154.2 149.227C154.495 164.43 153.314 171.538 153.314 171.538C153.314 171.538 163.914 171.752 164.23 169.399C164.535 167.047 162.651 141.652 162.234 139.177C161.816 136.703 154.2 149.227 154.2 149.227Z" fill="#3D64D4"/>
<path d="M149.821 173.116C150.055 173.034 151.542 172.8 151.786 174.327C152.021 175.855 152.693 176.323 151.786 177.657C150.88 178.991 148.996 179.582 148.803 180.325C148.609 181.068 149.159 182.015 147.825 183.115C146.491 184.215 144.384 185.162 142.775 185.039C141.166 184.917 139.038 183.583 138.915 181.863C138.793 180.131 141.624 179.347 142.561 178.604C143.498 177.861 144.597 174.287 144.872 173.94C145.147 173.584 149.811 173.116 149.811 173.116H149.821Z" fill="#202020"/>
<path d="M151.664 144.441C154.016 151.264 154.251 154.481 153.395 157.852C152.53 161.222 150.178 166.792 150.34 169.144C150.503 171.497 150.564 172.841 151.114 173.696C151.664 174.551 150.371 174.969 148.294 175.162C146.216 175.356 144.068 177.494 143.722 179.266C143.376 181.038 141.756 180.753 142.001 179.622C142.235 178.482 142.907 177.423 142.938 175.936C142.978 174.45 142.541 159.695 141.97 155.581C141.41 151.467 140.657 138.23 140.657 138.23C141.716 136.55 151.674 144.441 151.674 144.441H151.664Z" fill="#FFA496"/>
<path d="M151.176 170.683C149.811 173.127 142.133 175.489 141.665 173.728C141.197 171.966 139.893 141.316 140.698 136.143C141.512 130.96 152.357 140.726 151.909 149.228C151.45 157.741 151.176 170.683 151.176 170.683Z" fill="#3D64D4"/>
<path opacity="0.2" d="M182.487 219.234L213.066 201.578C215.041 200.437 214.797 198.421 212.506 197.108L181.316 179.105C179.035 177.791 175.553 177.638 173.577 178.779L142.999 196.435C141.023 197.576 141.268 199.592 143.559 200.906L174.748 218.909C177.029 220.222 180.512 220.375 182.487 219.234Z" fill="#E3E3E3"/>
<path d="M156.277 189.836C156.277 190.518 155.717 191.078 155.035 191.078C154.353 191.078 153.792 190.528 153.792 189.836C153.792 189.144 154.353 188.594 155.035 188.594C155.717 188.594 156.277 189.144 156.277 189.836Z" fill="#202020"/>
<path d="M161.572 208.349C161.572 209.031 161.012 209.591 160.33 209.591C159.647 209.591 159.087 209.041 159.087 208.349C159.087 207.656 159.647 207.106 160.33 207.106C161.012 207.106 161.572 207.656 161.572 208.349Z" fill="#202020"/>
<path d="M193.698 211.505C193.698 212.187 193.149 212.747 192.456 212.747C191.764 212.747 191.214 212.187 191.214 211.505C191.214 210.823 191.774 210.263 192.456 210.263C193.138 210.263 193.698 210.813 193.698 211.505Z" fill="#202020"/>
<path d="M208.198 194.602C208.198 195.284 207.638 195.844 206.956 195.844C206.274 195.844 205.714 195.284 205.714 194.602C205.714 193.919 206.274 193.359 206.956 193.359C207.638 193.359 208.198 193.919 208.198 194.602Z" fill="#202020"/>
<path d="M185.369 181.466C185.369 182.148 184.819 182.708 184.127 182.708C183.434 182.708 182.884 182.148 182.884 181.466C182.884 180.784 183.434 180.224 184.127 180.224C184.819 180.224 185.369 180.784 185.369 181.466Z" fill="#202020"/>
<path d="M159.943 208.043L159.25 207.646L158.701 207.299V206.342L176.439 194.479L153.477 188.838V187.881L178.129 192.565L184.85 178.696V179.653L184.799 180.132L181.836 192.911L208.148 192.983V193.94L182.426 195.039L193.535 209.611V210.568L191.967 211.016L191.519 210.609L179.096 196.017L159.933 208.053L159.943 208.043Z" fill="#ACACAC"/>
<path d="M159.943 207.075L159.25 206.678L158.701 206.332L159.23 205.976L176.439 192.514L153.477 187.861L154.302 186.934L178.119 190.59L183.098 178.503L184.839 178.666L184.788 179.144L181.825 190.926L207.852 191.924L208.137 192.952L182.416 193.064L193.525 209.58L191.957 210.028L191.509 209.621L179.086 194.042L159.922 207.065L159.943 207.075Z" fill="#CECECE"/>
<path d="M191.682 209.265L179.147 193.533L159.932 206.597L159.372 206.282L159.148 206.139L159.372 205.986L176.999 192.189L153.945 187.515L154.403 187.006L178.282 190.661L183.271 178.564L184.585 178.697L184.554 178.931L181.53 190.977L207.679 191.975L207.842 192.525L181.988 192.647L193.158 209.265L192.038 209.581L191.682 209.265Z" fill="#DFDFDF"/>
<path d="M182.385 192.025V181.252H176.866V192.015C176.866 192.422 177.141 192.83 177.681 193.135C178.76 193.756 180.512 193.766 181.581 193.135C182.121 192.819 182.385 192.412 182.385 192.005V192.025Z" fill="url(#paint0_linear_29_3398)"/>
<path d="M181.591 182.382C180.522 183.003 178.77 183.003 177.691 182.382C176.612 181.761 176.602 180.753 177.681 180.132C178.75 179.511 180.502 179.511 181.581 180.132C182.66 180.753 182.67 181.761 181.591 182.382Z" fill="#A9A9A9"/>
<path d="M181.632 181.017V166.263H177.62V181.017C177.62 181.313 177.824 181.608 178.21 181.832C178.995 182.29 180.267 182.29 181.051 181.832C181.449 181.608 181.642 181.313 181.632 181.007V181.017Z" fill="url(#paint1_linear_29_3398)"/>
<path d="M181.051 167.088C180.267 167.536 179.005 167.536 178.211 167.088C177.426 166.63 177.416 165.896 178.211 165.448C178.995 165 180.257 165 181.051 165.448C181.836 165.907 181.846 166.64 181.051 167.088Z" fill="#464646"/>
<path d="M203.87 157.059C203.371 157.059 202.913 156.968 202.587 156.774L187.751 148.211C182.782 145.339 177.161 129.668 177.1 128.08C177.059 127.01 177.059 125.982 177.1 125.025C177.151 123.803 177.65 122.866 178.505 122.398C179.381 121.919 180.481 122.011 181.601 122.662L201.925 134.393C204.43 135.839 205.836 137.488 207.618 139.576L207.791 139.779C208.076 140.116 208.33 140.594 208.575 141.236C208.911 142.132 209.074 143.058 209.053 143.914C209.043 144.443 209.043 145.207 209.053 146.072C209.053 147.865 209.064 150.095 208.941 151.866C208.748 154.687 207.129 155.95 206.182 156.449C205.449 156.835 204.604 157.039 203.86 157.039L203.87 157.059ZM179.717 123.609C179.534 123.609 179.371 123.65 179.228 123.721C178.862 123.925 178.638 124.404 178.607 125.086C178.566 126.002 178.566 126.99 178.607 128.019C178.668 129.485 184.197 144.413 188.505 146.897L203.341 155.461C203.545 155.583 204.491 155.654 205.489 155.125C206.304 154.687 207.312 153.75 207.444 151.765C207.567 150.054 207.556 147.854 207.546 146.083C207.546 145.197 207.546 144.423 207.546 143.873C207.567 143.201 207.434 142.478 207.159 141.765C206.925 141.144 206.732 140.869 206.64 140.757L206.467 140.553C204.716 138.496 203.443 137.01 201.172 135.696L180.847 123.966C180.43 123.732 180.043 123.609 179.717 123.609Z" fill="#DFDFDF"/>
<path d="M202.71 157.731C202.211 157.731 201.753 157.64 201.427 157.446L186.591 148.883C181.621 146.011 176.001 130.34 175.939 128.752C175.899 127.682 175.899 126.654 175.939 125.697C175.99 124.475 176.489 123.538 177.345 123.07C178.22 122.591 179.32 122.683 180.44 123.334L200.765 135.065C203.27 136.511 204.675 138.16 206.457 140.248L206.63 140.451C206.915 140.787 207.17 141.266 207.414 141.908C207.75 142.804 207.913 143.73 207.893 144.586C207.882 145.115 207.882 145.879 207.893 146.744C207.893 148.536 207.903 150.766 207.781 152.538C207.587 155.359 205.968 156.621 205.021 157.12C204.288 157.507 203.443 157.711 202.7 157.711L202.71 157.731ZM178.556 124.281C178.373 124.281 178.21 124.322 178.068 124.393C177.701 124.597 177.477 125.076 177.447 125.758C177.406 126.674 177.406 127.662 177.447 128.69C177.508 130.157 183.037 145.085 187.344 147.569L202.18 156.133C202.384 156.255 203.331 156.326 204.329 155.797C205.143 155.359 206.151 154.432 206.284 152.436C206.406 150.726 206.396 148.526 206.386 146.754C206.386 145.869 206.386 145.095 206.386 144.545C206.406 143.873 206.274 143.15 205.999 142.437C205.765 141.816 205.571 141.541 205.479 141.429L205.306 141.225C203.555 139.168 202.282 137.682 200.011 136.368L179.687 124.638C179.269 124.404 178.882 124.281 178.556 124.281Z" fill="#DFDFDF"/>
<path d="M175.492 124.148C176.357 123.262 177.783 123.191 179.371 124.107L199.696 135.838C200.429 136.266 201.081 136.703 201.671 137.162L203.993 135.818V134.494C203.993 134.494 202.384 134.708 202.017 134.494L181.693 122.763C180.104 121.847 178.19 121.175 177.324 122.061C177.324 122.061 176.133 122.407 175.492 122.824C174.932 123.14 175.492 124.148 175.492 124.148Z" fill="#434168"/>
<path d="M175.491 122.815C176.561 122.183 177.783 121.857 179.371 122.774L199.696 134.504C200.429 134.932 201.08 135.37 201.671 135.828L203.993 134.484C203.402 134.026 202.75 133.578 202.017 133.16L181.693 121.43C180.104 120.513 178.964 121.022 177.813 121.47L175.491 122.815Z" fill="#68668B"/>
<path d="M201.447 153.219L174.514 137.671C173.893 137.314 173.323 137.294 172.936 137.558L143.426 154.594L175.441 179.755L204.97 162.71L201.457 153.219H201.447Z" fill="#68668B"/>
<path d="M171.928 170.265L175.441 179.755L144.923 162.139C143.711 161.436 142.734 159.725 142.775 158.361L142.846 155.876C142.876 154.563 143.834 154.054 144.994 154.726L171.928 170.275V170.265Z" fill="url(#paint2_linear_29_3398)"/>
<path d="M142.225 90.1074C142.225 90.1074 144.261 90.3925 144.944 90.4536C145.626 90.5249 148.131 92.2458 148.813 93.1419C149.495 94.0278 154.2 96.5938 154.933 96.7465C155.666 96.8993 169.158 99.9846 170.726 100.249C172.294 100.514 169.942 105.534 167.121 105.85C164.301 106.166 150.86 101.033 150.228 100.983C149.597 100.932 148.446 100.983 146.878 100.249C145.31 99.5162 143.009 96.6447 141.339 96.2272C139.669 95.8097 142.225 90.1074 142.225 90.1074Z" fill="#FFA496"/>
<path d="M100.944 118.129L133.244 99.3623C133.131 99.5354 133.142 99.8002 133.254 100.106C133.376 100.401 133.569 100.656 133.814 100.788L101.514 119.555C101.28 119.422 101.076 119.168 100.954 118.872C100.832 118.577 100.832 118.302 100.944 118.129Z" fill="#D80F18"/>
<path d="M101.514 119.555L133.804 100.788L147.54 108.71L115.241 127.477L101.514 119.555Z" fill="#D80F18"/>
<path d="M147.998 108.762L115.699 127.528C115.577 127.6 115.414 127.579 115.241 127.478L147.54 108.711C147.713 108.813 147.876 108.823 147.998 108.762Z" fill="#D80F18"/>
<path d="M148.701 109.973L116.402 128.74C116.483 128.689 116.554 128.628 116.615 128.557C116.921 128.19 116.962 127.538 116.738 126.815L149.037 108.049C149.271 108.772 149.231 109.424 148.915 109.79C148.854 109.872 148.782 109.933 148.701 109.973Z" fill="#F0323C"/>
<path d="M107.919 104.913L140.219 86.1465L141.095 87.1953L108.805 105.962L107.919 104.913Z" fill="#F0323C"/>
<path d="M108.805 105.962L141.094 87.1953L133.243 99.3636L100.944 118.13L108.805 105.962Z" fill="#D80F18"/>
<path d="M105.842 92.9586L116.748 126.806C116.982 127.529 116.941 128.18 116.626 128.547C116.32 128.914 115.801 128.944 115.241 128.618L101.515 120.696C100.934 120.36 100.405 119.708 100.109 118.965C99.814 118.212 99.7937 117.509 100.079 117.081L107.94 104.913L108.816 105.962L100.954 118.13C100.842 118.303 100.853 118.568 100.965 118.873C101.087 119.169 101.28 119.423 101.525 119.556L115.251 127.478C115.475 127.61 115.668 127.6 115.801 127.447C115.923 127.294 115.943 127.05 115.852 126.755L104.946 92.8975L105.852 92.9484L105.842 92.9586Z" fill="#F50E19"/>
<path d="M105.842 92.9581L138.131 74.1914L149.037 108.039L116.737 126.815L105.842 92.9581Z" fill="#F0323C"/>
<path d="M104.936 92.9175L137.225 74.1406L138.132 74.1915L105.842 92.9582L104.936 92.9175Z" fill="#F0323C"/>
<path d="M108.205 91.1355L135.912 75.0367C137.297 74.2323 139.079 74.9145 139.567 76.4419L148.671 104.699C149.068 105.921 148.559 107.244 147.449 107.886L119.742 123.985C118.357 124.789 116.575 124.107 116.086 122.58L106.983 94.3227C106.586 93.1008 107.095 91.777 108.205 91.1355Z" fill="#C7C7C7"/>
<path d="M108.806 91.1667L136.513 75.068C137.897 74.2635 139.679 74.9458 140.168 76.4732L149.271 104.72C149.669 105.942 149.159 107.266 148.05 107.907L120.343 124.006C118.958 124.81 117.176 124.128 116.687 122.601L107.584 94.3437C107.187 93.1218 107.696 91.7981 108.806 91.1566V91.1667Z" fill="#F1F1F1"/>
<path d="M119.08 123.72C118.255 123.72 117.532 123.191 117.277 122.417L108.174 94.1599C107.879 93.2333 108.266 92.1947 109.111 91.7059L136.818 75.6071C137.103 75.4442 137.429 75.3525 137.765 75.3525C138.59 75.3525 139.313 75.882 139.567 76.6559L148.66 104.903C148.956 105.829 148.569 106.868 147.724 107.357L120.017 123.455C119.732 123.618 119.406 123.71 119.07 123.71L119.08 123.72Z" fill="#1E212B"/>
<path d="M191.203 130.715C192.303 133.699 194.655 135.186 195.592 144.207C196.529 153.229 193.474 157.078 191.906 158.952C190.338 160.836 183.821 161.854 181.947 161.386C180.064 160.917 154.8 142.242 154.332 138.475C153.864 134.707 154.933 126.948 156.195 125.614C157.448 124.28 173.873 131.805 176.693 133.068C179.514 134.33 191.203 130.715 191.203 130.715Z" fill="#3D64D4"/>
<path d="M185.084 140.522C186.021 143.424 187.833 145.939 187.833 154.014C187.833 162.089 183.831 163.739 180.145 165.307C176.459 166.875 168.537 167.272 159.668 160.368C156.134 157.619 148.304 148.444 146.695 146.795C145.076 145.145 140.799 141.133 140.647 138.231C140.249 130.91 146.074 129.301 147.724 128.985C149.373 128.67 156.165 132.732 157.967 133.751C159.77 134.769 167.539 139.555 168.557 139.636C169.575 139.718 170.645 138.323 171.673 137.926C172.702 137.528 185.084 140.512 185.084 140.512V140.522Z" fill="#3D64D4"/>
<path d="M164.606 141.54C165.299 144.626 174.646 144.911 183.434 142.559C192.222 140.206 193.26 136.154 193.372 135.003C193.484 133.852 191.285 127.733 191.285 124.749C191.285 121.766 191.57 108.436 190.867 101.533C190.165 94.6288 187.415 92.2766 184.595 91.0954C181.774 89.9142 177.141 90.627 175.105 91.0954C173.068 91.5638 167.804 94.8528 166.083 96.4312C164.362 98.0095 157.438 101.166 156.969 102.184C156.501 103.203 154.475 112.357 156.511 118.477C158.548 124.596 163.914 138.404 164.616 141.54H164.606Z" fill="#8738D1"/>
<path d="M168.567 95.2397C168.73 93.2846 167.783 90.6575 166.897 90.2706C166.001 89.8836 163.384 89.8836 162.264 89.2625C161.144 88.6413 159.25 83.4584 159.138 81.4524C159.026 79.4464 158.751 73.6932 159.637 71.5752C160.533 69.4572 172.752 69.0092 176.327 74.3143C179.901 79.6195 178.954 83.5296 179.84 86.5946C180.736 89.6698 183.129 92.0627 183.465 93.2337C183.801 94.4047 178.994 95.7997 176.041 95.2397C173.078 94.6797 169.453 94.1196 168.557 95.2397H168.567Z" fill="#FFA496"/>
<path d="M162.264 82.0121C162.264 81.7881 162.875 79.11 164.107 79.721C165.34 80.3319 164.27 82.7351 165.564 84.6901C166.847 86.6452 168.69 88.0402 171.704 87.0932C174.718 86.1463 175.726 88.0402 176.113 88.5494C176.5 89.0585 180.695 87.4293 181.978 83.4173C183.261 79.3952 182.874 73.6521 179.076 68.3979C175.278 63.1538 167.295 64.7728 164.281 66.2799C161.267 67.7869 159.759 69.3551 159.311 71.1879C158.863 73.031 159.474 75.709 159.983 76.3811C160.482 77.0531 161.155 77.5521 161.267 79.2831C161.379 81.0142 162.326 83.4173 162.326 83.4173L162.275 82.0223L162.264 82.0121Z" fill="#662510"/>
<path d="M163.099 81.5036C163.048 81.3407 162.763 79.9965 164.107 79.7216C165.451 79.4467 165.889 82.0127 165.502 83.3467C165.115 84.6908 164.779 86.5847 163.995 85.9738C163.211 85.3628 163.099 81.5036 163.099 81.5036Z" fill="#FFA496"/>
<path d="M176.948 80.8922C178.312 78.1632 178.638 76.3099 180.634 77.7661C182.63 79.2222 180.97 84.0691 182.192 85.8613C183.424 87.6433 186.102 90.7693 186.041 93.2335C185.99 95.6875 185.542 98.0295 182.192 97.8666C178.842 97.7037 175.94 96.9197 175.777 92.8975C175.614 88.8754 176.897 85.6984 176.673 84.3033C176.449 82.9083 176.948 80.9023 176.948 80.9023V80.8922Z" fill="#662510"/>
<path d="M144.964 94.0076C144.262 93.8243 142.765 92.5515 142.266 91.8591C141.767 91.1667 142.215 90.5455 142.368 90.4539C142.52 90.3622 143.885 90.8408 144.302 91.1259C144.72 91.411 146.369 92.2257 147.052 92.6941C147.734 93.1625 149.801 94.1604 150.972 95.1277C152.143 96.0951 152.092 96.6755 151.909 97.1439C151.725 97.6123 150.106 98.0094 148.854 97.6632C147.601 97.3272 146.43 96.5431 146.023 95.9118C145.616 95.2805 144.954 94.0076 144.954 94.0076H144.964Z" fill="#FFA496"/>
<path d="M128.713 91.4615C128.804 91.2884 129.028 90.7996 129.629 90.7283C130.23 90.6571 131.248 91.991 131.36 92.0928C131.472 92.1845 133.661 93.386 135.026 95.4836C136.39 97.5813 135.464 98.8032 136.227 100.168C136.991 101.522 139.506 106.043 141.39 107.978C143.274 109.923 146.634 113.751 147.459 115.258C148.284 116.765 145.27 122.549 142.968 121.816C140.667 121.083 137.337 117.091 135.24 111.277C133.142 105.463 131.543 103.304 131.177 102.774C130.81 102.245 127.491 99.516 127.185 99.129C126.88 98.7421 125.892 96.5732 125.78 95.6771C125.668 94.781 126.004 94.4756 126.004 94.4756C126.004 94.4756 125.994 93.8035 126.157 93.4369C126.33 93.0704 126.92 93.1824 126.92 93.1824C126.92 93.1824 126.9 92.439 127.144 92.0623C127.389 91.6855 128.713 91.4513 128.713 91.4513V91.4615Z" fill="#FFA496"/>
<path d="M142.103 117.112C142.5 114.291 144.343 112.753 148.457 110.676C152.571 108.599 159.719 111.46 160.269 116.124C160.819 120.788 146.614 122.203 142.968 121.816C141.828 119.82 142.103 117.112 142.103 117.112Z" fill="#FFA496"/>
<path d="M177.528 91.1151C179.178 90.2699 184.483 90.2292 186.601 91.1151C188.719 92.0009 192.059 96.1351 191.764 101.522C191.468 106.908 180.909 101.522 180.909 101.522L177.538 91.1151H177.528Z" fill="#662510"/>
<path d="M160.564 102.092C163.619 104.994 165.126 112.366 163.944 115.584C162.763 118.802 152.489 122.885 151.471 122.804C150.452 122.722 146.919 117.702 146.216 114.097C145.514 110.493 147 110.493 147.082 110.248C147.163 110.014 155.309 103.141 156.979 101.99C158.649 100.84 160.564 102.092 160.564 102.092Z" fill="#A445FF"/>
<path d="M207.374 108.447L207.272 108.375C206.305 107.713 205.398 107.642 204.798 108.07L175.298 125.095L178.557 181.538L208.087 164.492L208.789 134.718L210.011 113.518C210.113 111.766 208.942 109.526 207.374 108.447Z" fill="url(#paint3_linear_29_3398)"/>
<path d="M172.427 147.405L174.555 126.581C174.718 124.84 176.143 124.321 177.742 125.421L177.844 125.492C179.412 126.571 180.583 128.822 180.481 130.563L179.259 151.763L178.557 181.537L175.441 179.755L171.928 170.265L172.437 147.405H172.427Z" fill="url(#paint4_linear_29_3398)"/>
<path d="M172.254 175.315C171.755 175.315 171.296 175.224 170.971 175.03L156.134 166.467C151.165 163.595 145.545 147.924 145.483 146.335C145.443 145.266 145.443 144.238 145.483 143.281C145.534 142.059 146.033 141.122 146.889 140.654C147.764 140.175 148.864 140.267 149.984 140.918L170.309 152.649C172.814 154.095 174.219 155.744 176.001 157.832L176.174 158.035C176.459 158.371 176.714 158.85 176.958 159.491C177.294 160.388 177.457 161.314 177.437 162.17C177.426 162.699 177.426 163.463 177.437 164.328C177.437 166.12 177.447 168.35 177.325 170.122C177.131 172.943 175.512 174.205 174.565 174.704C173.832 175.091 172.987 175.295 172.243 175.295L172.254 175.315ZM148.1 141.865C147.917 141.865 147.754 141.906 147.612 141.977C147.245 142.181 147.021 142.66 146.99 143.342C146.95 144.258 146.95 145.246 146.99 146.274C147.052 147.741 152.581 162.668 156.888 165.153L171.724 173.717C171.928 173.839 172.875 173.91 173.873 173.381C174.687 172.943 175.695 172.016 175.828 170.02C175.95 168.31 175.94 166.11 175.93 164.338C175.93 163.453 175.93 162.679 175.93 162.129C175.95 161.457 175.818 160.734 175.543 160.021C175.308 159.4 175.115 159.125 175.023 159.013L174.85 158.809C173.099 156.752 171.826 155.266 169.555 153.952L149.231 142.222C148.813 141.988 148.426 141.865 148.1 141.865Z" fill="#DFDFDF"/>
<path d="M171.083 175.987C170.584 175.987 170.126 175.896 169.8 175.702L154.964 167.139C149.994 164.267 144.374 148.596 144.313 147.007C144.272 145.938 144.272 144.91 144.313 143.953C144.363 142.731 144.862 141.794 145.718 141.325C146.593 140.847 147.693 140.938 148.813 141.59L169.138 153.321C171.643 154.767 173.048 156.416 174.83 158.504L175.003 158.707C175.288 159.043 175.543 159.522 175.787 160.163C176.123 161.059 176.286 161.986 176.266 162.841C176.256 163.371 176.256 164.135 176.266 165C176.266 166.792 176.276 169.022 176.154 170.794C175.96 173.615 174.341 174.877 173.404 175.376C172.671 175.763 171.826 175.967 171.083 175.967V175.987ZM146.929 142.537C146.746 142.537 146.583 142.578 146.441 142.649C146.074 142.853 145.85 143.331 145.82 144.014C145.779 144.93 145.779 145.918 145.82 146.946C145.881 148.413 151.41 163.34 155.717 165.825L170.553 174.389C170.757 174.511 171.704 174.582 172.702 174.053C173.516 173.615 174.524 172.688 174.657 170.692C174.779 168.982 174.769 166.782 174.759 165.01C174.759 164.124 174.759 163.351 174.759 162.801C174.779 162.129 174.647 161.406 174.372 160.693C174.138 160.072 173.944 159.797 173.852 159.685L173.679 159.481C171.928 157.424 170.655 155.938 168.384 154.624L148.06 142.894C147.642 142.659 147.255 142.537 146.929 142.537Z" fill="#BDBDBD"/>
<path d="M143.864 142.395C144.73 141.509 146.155 141.438 147.744 142.355L168.069 154.085C168.802 154.513 169.453 154.95 170.044 155.409L172.366 154.065V152.741C172.366 152.741 170.757 152.955 170.39 152.741L150.066 141.01C148.477 140.094 146.563 139.422 145.697 140.308C145.697 140.308 144.506 140.654 143.864 141.072C143.304 141.387 143.864 142.395 143.864 142.395Z" fill="#434168"/>
<path d="M143.864 141.071C144.933 140.44 146.155 140.114 147.744 141.031L168.068 152.761C168.802 153.189 169.453 153.627 170.044 154.085L172.366 152.741C171.775 152.283 171.123 151.834 170.39 151.417L150.066 139.687C148.477 138.77 147.337 139.279 146.186 139.727L143.864 141.071Z" fill="#68668B"/>
<path d="M51.3446 119.494L56.4359 109.586C57.2506 107.998 59.0122 107.122 60.7636 107.438L77.4835 110.391C78.3796 110.554 78.8785 111.531 78.4509 112.346L73.3595 122.254C72.5449 123.842 70.7833 124.718 69.0319 124.402L52.312 121.459C51.4159 121.297 50.9271 120.319 51.3446 119.504V119.494Z" fill="#BCBCBC"/>
<path d="M51.3446 118.252L56.4359 108.344C57.2506 106.756 59.0122 105.88 60.7636 106.196L77.4835 109.138C78.3796 109.301 78.8785 110.279 78.4509 111.094L73.3595 121.001C72.5449 122.59 70.7833 123.466 69.0319 123.15L52.312 120.197C51.4159 120.034 50.9271 119.056 51.3446 118.242V118.252Z" fill="#F9F9F9"/>
<path d="M62.8612 92.397L68.7061 81.0332L61.6801 107.915L55.8352 119.279L62.8612 92.397Z" fill="#DDDDDD"/>
<path d="M64.4293 89.4439C65.3254 89.5967 66.0382 90.3502 66.028 91.1139C66.028 91.8776 65.2847 92.3664 64.3886 92.2136C63.4925 92.0609 62.7797 91.3074 62.7899 90.5437C62.7899 89.78 63.5332 89.2912 64.4293 89.4439Z" fill="#EDEFF4"/>
<path d="M64.4395 88.833C65.7327 89.057 66.7612 90.1363 66.751 91.2462C66.7408 92.346 65.6818 93.0588 64.3886 92.8348C64.0628 92.7737 63.7573 92.6718 62.8612 92.4071L55.8352 119.289L54.542 119.065L62.1281 90.0447C62.3826 89.1486 63.3194 88.6497 64.4395 88.8431V88.833ZM64.3988 92.2136C65.2949 92.3663 66.028 91.8776 66.0382 91.1139C66.0382 90.3502 65.3254 89.5967 64.4395 89.4439C63.5435 89.2912 62.8103 89.7698 62.8001 90.5437C62.8001 91.3074 63.5129 92.0609 64.3988 92.2136Z" fill="#BCBCBC"/>
<path d="M70.2844 77.4595C69.2966 77.2864 68.4515 77.653 68.0951 78.3556L62.2502 89.7194C62.6066 89.0168 63.462 88.6503 64.4395 88.8234C65.7327 89.0474 66.7612 90.1267 66.751 91.2367C66.751 91.4912 66.6899 91.7254 66.5779 91.9393L72.4227 80.5754C72.5246 80.3718 72.5856 80.1274 72.5958 79.8728C72.606 78.7629 71.5776 77.6835 70.2844 77.4595Z" fill="#E7E7E7"/>
<path d="M64.073 65.4348L78.9498 36.4957C79.2451 35.9254 80.0903 36.0986 80.1514 36.7299L84.031 81.4725C84.143 82.8166 83.8782 84.1709 83.2673 85.3622L68.3904 114.301C68.0951 114.872 67.2499 114.698 67.1888 114.067L63.3093 69.3246C63.1972 67.9805 63.462 66.6262 64.073 65.4348Z" fill="url(#paint5_linear_29_3398)"/>
<path d="M67.7488 114.648L69.6224 114.831L81.475 36.3429L79.5403 36.1494L67.7488 114.648Z" fill="url(#paint6_linear_29_3398)"/>
<path d="M65.9873 65.6291L80.8641 36.69C81.1594 36.1198 82.0046 36.2929 82.0657 36.9242L85.9453 81.6668C86.0573 83.0109 85.7925 84.3652 85.1816 85.5566L70.3047 114.496C70.0094 115.066 69.1643 114.893 69.1032 114.262L65.2236 69.5189C65.1116 68.1748 65.3763 66.8205 65.9873 65.6291Z" fill="#E7E7E7"/>
<path d="M82.0555 36.9242C82.0046 36.2929 81.1492 36.1198 80.854 36.69L65.9771 65.6291C65.3559 66.8307 65.0912 68.1748 65.2134 69.5189L68.6246 108.916L85.4463 76.1784L82.0453 36.9242H82.0555Z" fill="#F3F4F9"/>
<path d="M65.7429 68.2959L81.4242 37.7988L84.6114 74.5175L68.9301 105.025L65.7429 68.2959Z" fill="#2C3240"/>
<path d="M148.589 71.1079L156.032 66.8108C156.888 66.3119 156.888 65.5074 156.032 65.0085L150.106 61.5871C149.241 61.0882 147.846 61.0882 146.99 61.5871L139.547 65.8842L138.803 66.6886C138.345 67.1774 138.498 67.7985 139.19 68.1957L144.607 71.3217C145.3 71.7188 146.359 71.8105 147.214 71.5457L148.599 71.1181L148.589 71.1079Z" fill="url(#paint7_linear_29_3398)"/>
<path d="M138.529 67.2577V65.6692L156.674 64.3047V65.9034L147.601 70.8114L143.08 69.6099L138.529 67.2577Z" fill="url(#paint8_linear_29_3398)"/>
<path d="M148.589 69.4985L156.032 65.2014C156.888 64.7025 156.888 63.8981 156.032 63.3991L150.106 59.9777C149.241 59.4788 147.846 59.4788 146.99 59.9777L139.547 64.2748L138.803 65.0793C138.345 65.568 138.498 66.1892 139.19 66.5863L144.607 69.7124C145.3 70.1095 146.359 70.2011 147.214 69.9364L148.599 69.5087L148.589 69.4985Z" fill="url(#paint9_linear_29_3398)"/>
<path d="M146.166 69.6413C145.616 69.6413 145.086 69.5191 144.709 69.295L139.292 66.169C138.987 65.9857 138.793 65.7617 138.753 65.5275C138.722 65.3442 138.793 65.1711 138.946 64.998L139.669 64.2241L147.082 59.9474C147.459 59.7233 147.978 59.6113 148.518 59.6113C149.057 59.6113 149.587 59.7335 149.974 59.9576L155.9 63.3789C156.246 63.5826 156.44 63.8371 156.44 64.0917C156.44 64.3463 156.246 64.6008 155.91 64.7943L148.487 69.0812L147.123 69.4987C146.827 69.5903 146.491 69.6413 146.155 69.6413H146.166Z" fill="#F1F1F1"/>
<path d="M143.691 67.7677L142.133 66.8716V66.5254L143.691 67.4316V67.7677Z" fill="#D3D3D3"/>
<path d="M143.691 67.7668L146.074 66.3921V66.0459L143.691 67.4307V67.7668Z" fill="#C8C8C8"/>
<path d="M143.691 67.4313L142.133 66.5251L144.516 65.1504L146.074 66.0465L143.691 67.4313Z" fill="#DCDCDC"/>
<path d="M144.822 66.6271L143.152 66.4132L145.769 65.5986V66.0874L144.822 66.6271Z" fill="#A0ABCE"/>
<path d="M143.712 67.2685L142.398 66.515V65.7207L144.821 66.627L143.712 67.2685Z" fill="#A0ABCE"/>
<path d="M144.822 66.2703L143.508 65.5066L144.455 64.8447L145.769 65.5982L144.822 66.2703Z" fill="#AFC1F6"/>
<path d="M143.712 66.4844L142.398 65.7207L143.508 65.5068L144.821 66.2705L143.712 66.4844Z" fill="#C6D4FF"/>
<path d="M147.53 36.0779C147.53 36.9435 148.141 37.2897 148.895 36.8518C149.648 36.414 150.259 35.3652 150.259 34.4996C150.259 33.6341 149.648 33.2879 148.895 33.7257C148.141 34.1636 147.53 35.2124 147.53 36.0779Z" fill="#DCDCDC"/>
<path d="M147.815 36.2723C147.815 37.1378 148.426 37.484 149.18 37.0462C149.933 36.6083 150.544 35.5595 150.544 34.694C150.544 33.8284 149.933 33.4822 149.18 33.9201C148.426 34.3579 147.815 35.4067 147.815 36.2723Z" fill="#C7C7C7"/>
<path d="M150.025 64.3557L148.375 63.4087C147.815 63.0828 147.886 62.5126 148.528 62.1359C149.18 61.7591 150.167 61.7184 150.727 62.0442L152.377 62.9912C152.937 63.317 152.866 63.8873 152.224 64.264C151.573 64.6408 150.585 64.6815 150.025 64.3557Z" fill="#CECECE"/>
<path d="M150.025 64.0812L148.375 63.1343C147.815 62.8084 147.886 62.2382 148.528 61.8614C149.18 61.4847 150.167 61.444 150.727 61.7698L152.377 62.7168C152.937 63.0426 152.866 63.6128 152.224 63.9896C151.573 64.3664 150.585 64.4071 150.025 64.0812Z" fill="#F1F1F1"/>
<path d="M151.766 63.5414L151.674 63.5923C151.308 63.8163 150.829 63.7552 150.534 63.4294L150.462 63.3581L149.709 36.6592L149.22 36.4759L150.076 62.5944L149.913 62.6759C149.526 62.8795 149.037 62.7675 148.782 62.4111L148.1 36.4148C148.12 35.9056 148.569 35.5289 149.078 35.5798L151.155 35.8038L151.766 63.5414Z" fill="#D3D3D3"/>
<path d="M133.488 24.9262L132.599 26.4824L149.886 36.3546L150.774 34.7984L133.488 24.9262Z" fill="#D3D3D3"/>
<path d="M132.663 26.9646C132.663 27.8302 133.274 28.1764 134.028 27.7385C134.781 27.3007 135.392 26.2519 135.392 25.3863C135.392 24.5208 134.781 24.1746 134.028 24.6125C133.274 25.0503 132.663 26.0991 132.663 26.9646Z" fill="#DCDCDC"/>
<path d="M132.948 27.1482C132.948 28.0138 133.559 28.36 134.313 27.9221C135.066 27.4843 135.677 26.4355 135.677 25.5699C135.677 24.7044 135.066 24.3582 134.313 24.796C133.559 25.2339 132.948 26.2827 132.948 27.1482Z" fill="#C7C7C7"/>
<path d="M131.625 26.9136C131.778 27.0053 132.236 27.27 132.725 27.657C133.315 28.1152 133.682 28.5123 133.722 28.553C133.845 28.6854 134.018 28.8687 134.13 29.0113C134.303 29.2251 134.527 29.5204 134.68 29.7444C135.016 30.2332 135.27 30.783 135.321 30.895C135.453 31.2107 135.606 31.5671 135.728 32.0457C135.769 32.2188 135.82 32.4428 135.851 32.6159C135.881 32.8297 135.922 33.1047 135.932 33.3185C135.952 33.6953 135.963 34.1229 135.891 34.7034C135.84 35.0903 135.759 35.5383 135.545 36.2002C135.362 36.7501 134.557 37.0963 133.122 37.137C134.669 32.4428 131.961 29.1436 131.818 28.9705C133.56 28.9196 133.458 27.9828 131.584 26.8933C131.472 26.8322 131.36 26.7711 131.248 26.71C131.36 26.7711 131.513 26.8525 131.625 26.9238V26.9136Z" fill="url(#paint10_linear_29_3398)"/>
<path d="M124.548 24.9789C124.976 24.9687 125.24 24.9789 125.515 24.9993C125.831 25.0197 126.187 25.0706 126.33 25.0808C125.861 25.0095 125.424 24.9789 125.047 24.9891C123.306 25.04 123.407 25.9768 125.281 27.0664C127.155 28.1559 130.077 29.0113 131.818 28.9604C131.961 29.1335 134.659 32.4326 133.122 37.1268C129.66 37.2287 123.845 35.5485 120.139 33.3694C117.97 32.0966 117.003 30.9358 117.247 30.1721C117.4 29.7648 117.624 29.2353 117.817 28.8382C117.919 28.6345 118.072 28.3799 118.204 28.1967C118.316 28.0439 118.469 27.8301 118.591 27.6875C118.723 27.5246 118.917 27.3209 119.059 27.1784C119.446 26.7914 119.772 26.5572 120.017 26.3841C120.292 26.1907 120.638 25.987 121.035 25.7935C121.147 25.7324 121.564 25.539 122.063 25.3862C122.236 25.3353 122.471 25.264 122.644 25.2233C122.888 25.1622 123.224 25.1011 123.479 25.0604C123.642 25.0298 124.151 24.9789 124.548 24.9688V24.9789Z" fill="url(#paint11_linear_29_3398)"/>
<path d="M133.916 23.6455C133.855 24.0732 133.783 24.5212 133.61 25.5293C133.539 25.9366 133.468 26.3337 133.386 26.741C133.315 27.1076 133.244 27.4844 133.121 28.0953C133.101 28.2175 133.071 28.3397 133.05 28.4619C132.989 28.7572 132.582 28.9507 131.818 28.9812C131.849 28.8387 132.48 26.0995 132.857 24.1139C133.529 24.0935 133.885 23.9204 133.916 23.6557V23.6455Z" fill="url(#paint12_linear_29_3398)"/>
<path d="M123.845 25.4268C124.202 24.6529 124.599 23.8485 124.599 23.8383C124.68 23.6754 124.782 23.4616 124.864 23.2986C125.088 22.8302 125.138 22.7386 125.291 22.4433C125.332 22.3516 125.393 22.2396 125.434 22.1582C125.536 21.9647 125.627 21.7814 125.729 21.5879C125.79 21.4759 125.882 21.2825 126.014 21.0381C125.841 21.3639 126.248 21.8934 127.246 22.4738C128.855 23.4208 131.37 24.1438 132.867 24.1031C132.49 26.0887 131.859 28.8278 131.828 28.9704C130.087 29.0213 127.165 28.1761 125.291 27.0764C124.161 26.4145 123.672 25.8138 123.855 25.4268H123.845Z" fill="url(#paint13_linear_29_3398)"/>
<path d="M132.083 21.0386C132.47 21.2627 132.633 21.4052 132.836 21.5681C132.948 21.6699 133.172 21.8838 133.315 22.0671C133.407 22.1995 133.559 22.3929 133.692 22.729C133.814 23.0243 133.875 23.3195 133.916 23.513C133.977 23.8592 133.631 24.0832 132.857 24.1036C131.36 24.1443 128.845 23.4214 127.236 22.4744C126.136 21.8329 125.749 21.2525 126.085 20.9368C126.177 20.8553 126.289 20.7535 126.381 20.6822C126.431 20.6415 126.493 20.5906 126.543 20.56C126.645 20.4888 126.88 20.336 127.114 20.2444C127.358 20.1527 127.48 20.112 127.816 20.0509C127.827 20.0509 128.132 20 128.519 20C129.822 20.0204 131.248 20.5397 132.083 21.0386Z" fill="url(#paint14_linear_29_3398)"/>
<path d="M148.477 36.6785C148.477 37.544 149.088 37.8902 149.842 37.4524C150.595 37.0145 151.206 35.9657 151.206 35.1002C151.206 34.2347 150.595 33.8885 149.842 34.3263C149.088 34.7642 148.477 35.813 148.477 36.6785Z" fill="#DCDCDC"/>
<path d="M148.762 36.8611C148.762 37.7267 149.373 38.0729 150.127 37.635C150.88 37.1972 151.491 36.1483 151.491 35.2828C151.491 34.4173 150.88 34.0711 150.127 34.5089C149.373 34.9468 148.762 35.9956 148.762 36.8611Z" fill="#C7C7C7"/>
<defs>
<linearGradient id="paint0_linear_29_3398" x1="176.877" y1="187.433" x2="182.385" y2="187.433" gradientUnits="userSpaceOnUse">
<stop stop-color="#ACACAC"/>
<stop offset="0.32" stop-color="#B1B1B1"/>
<stop offset="0.72" stop-color="#C1C1C1"/>
<stop offset="0.95" stop-color="#CECECE"/>
</linearGradient>
<linearGradient id="paint1_linear_29_3398" x1="177.62" y1="174.226" x2="181.632" y2="174.226" gradientUnits="userSpaceOnUse">
<stop stop-color="#ACACAC"/>
<stop offset="0.32" stop-color="#B1B1B1"/>
<stop offset="0.72" stop-color="#C1C1C1"/>
<stop offset="0.95" stop-color="#CECECE"/>
</linearGradient>
<linearGradient id="paint2_linear_29_3398" x1="157.937" y1="169.643" x2="161.165" y2="164.053" gradientUnits="userSpaceOnUse">
<stop offset="0.5" stop-color="#48456E"/>
<stop offset="0.7" stop-color="#4A476F"/>
<stop offset="0.81" stop-color="#514F75"/>
<stop offset="0.9" stop-color="#5F5D80"/>
</linearGradient>
<linearGradient id="paint3_linear_29_3398" x1="205.429" y1="166.03" x2="180.176" y2="122.285" gradientUnits="userSpaceOnUse">
<stop offset="0.87" stop-color="#48456E"/>
<stop offset="0.88" stop-color="#4B4870"/>
<stop offset="0.93" stop-color="#605E84"/>
<stop offset="0.97" stop-color="#68668B"/>
</linearGradient>
<linearGradient id="paint4_linear_29_3398" x1="165.054" y1="173.758" x2="189.157" y2="131.999" gradientUnits="userSpaceOnUse">
<stop offset="0.68" stop-color="#48456E"/>
<stop offset="0.84" stop-color="#4A476F"/>
<stop offset="0.93" stop-color="#514F75"/>
<stop offset="1" stop-color="#5F5D80"/>
</linearGradient>
<linearGradient id="paint5_linear_29_3398" x1="72.2904" y1="114.8" x2="75.0397" y2="35.9967" gradientUnits="userSpaceOnUse">
<stop offset="0.52" stop-color="#BCBCBC"/>
<stop offset="0.58" stop-color="#C5C5C5"/>
</linearGradient>
<linearGradient id="paint6_linear_29_3398" x1="73.2372" y1="114.963" x2="75.9865" y2="36.0272" gradientUnits="userSpaceOnUse">
<stop offset="0.52" stop-color="#BCBCBC"/>
<stop offset="0.58" stop-color="#C5C5C5"/>
</linearGradient>
<linearGradient id="paint7_linear_29_3398" x1="156.674" y1="66.4442" x2="138.528" y2="66.4442" gradientUnits="userSpaceOnUse">
<stop offset="0.5" stop-color="#C7C7C7"/>
<stop offset="0.63" stop-color="#D8D8D8"/>
</linearGradient>
<linearGradient id="paint8_linear_29_3398" x1="156.674" y1="67.553" x2="138.529" y2="67.553" gradientUnits="userSpaceOnUse">
<stop offset="0.5" stop-color="#C7C7C7"/>
<stop offset="0.63" stop-color="#D8D8D8"/>
</linearGradient>
<linearGradient id="paint9_linear_29_3398" x1="156.674" y1="64.845" x2="138.528" y2="64.845" gradientUnits="userSpaceOnUse">
<stop stop-color="#E4E4E6"/>
<stop offset="0.77" stop-color="#F1F1F1"/>
</linearGradient>
<linearGradient id="paint10_linear_29_3398" x1="136.339" y1="33.6647" x2="119.243" y2="26.4758" gradientUnits="userSpaceOnUse">
<stop stop-color="#E4E4E6"/>
<stop offset="0.77" stop-color="#F1F1F1"/>
</linearGradient>
<linearGradient id="paint11_linear_29_3398" x1="135.912" y1="34.6626" x2="118.825" y2="27.4839" gradientUnits="userSpaceOnUse">
<stop stop-color="#E4E4E6"/>
<stop offset="0.77" stop-color="#F1F1F1"/>
</linearGradient>
<linearGradient id="paint12_linear_29_3398" x1="133.529" y1="26.6087" x2="125.087" y2="22.7494" gradientUnits="userSpaceOnUse">
<stop offset="0.18" stop-color="#C7C7C7"/>
<stop offset="0.92" stop-color="#D8D8D8"/>
</linearGradient>
<linearGradient id="paint13_linear_29_3398" x1="133.132" y1="27.4735" x2="124.69" y2="23.6245" gradientUnits="userSpaceOnUse">
<stop offset="0.18" stop-color="#C7C7C7"/>
<stop offset="0.92" stop-color="#D8D8D8"/>
</linearGradient>
<linearGradient id="paint14_linear_29_3398" x1="131.065" y1="25.3357" x2="129.181" y2="20.224" gradientUnits="userSpaceOnUse">
<stop stop-color="#E4E4E6"/>
<stop offset="0.77" stop-color="#F1F1F1"/>
</linearGradient>
</defs>
</svg>
