<svg width="240" height="240" viewBox="0 0 240 240" fill="none" xmlns="http://www.w3.org/2000/svg">
<path d="M96.3169 220.001L135.923 197.175L66.6186 157.08L27 179.906L96.3169 220.001Z" fill="#E3E3E3" fill-opacity="0.5"/>
<path d="M34.6755 181.372L36.3561 182.338L37.5852 176.494C37.5852 174.637 38.902 172.367 40.5324 171.427L62.6682 158.672C64.286 157.744 65.6029 158.497 65.6029 160.353V163.563L67.2709 164.529L68.5 158.685C68.5 154.985 65.8788 153.492 62.6682 155.349L40.5324 168.103C37.3093 169.959 34.6881 174.474 34.6881 178.174V181.385L34.6755 181.372Z" fill="#CECECE"/>
<path d="M36.3562 182.337L39.2533 180.669V177.458C39.2533 175.602 40.5827 173.332 42.2006 172.392L64.3363 159.637C65.9542 158.709 67.271 159.461 67.271 161.318V164.528L70.1681 162.86V159.65C70.1681 155.95 67.5595 154.457 64.3363 156.313L42.2006 169.068C38.9774 170.924 36.3562 175.439 36.3562 179.139V182.35V182.337Z" fill="#C1C1C1"/>
<path d="M66.6687 154.871L68.55 155.95L68.1236 158.032C68.1236 158.032 65.239 156.15 65.239 156.113C65.239 156.075 66.6687 154.871 66.6687 154.871Z" fill="#CECECE"/>
<path d="M41.3474 169.295L44.2445 167.627L44.3072 95.0617C44.3072 93.0676 45.7244 90.6345 47.4677 89.6312L55.8705 84.7902C57.6138 83.7868 59.0184 84.5895 59.0184 86.5836L58.9557 159.149L61.8528 157.481L61.9155 84.9156C61.9155 81.0904 59.2065 79.5353 55.8705 81.4541L47.4677 86.2951C44.1316 88.214 41.4101 92.9045 41.4101 96.7297L41.3474 169.295Z" fill="#CECECE"/>
<path d="M47.4675 86.2942L49.1356 87.2599L57.5384 82.4188L55.8578 81.4531L47.4675 86.2942Z" fill="#CECECE"/>
<path d="M43.0156 170.26L45.9127 168.592L45.9754 96.0265C45.9754 94.0324 47.3926 91.5993 49.1359 90.596L57.5387 85.755C59.282 84.7517 60.6866 85.5543 60.6866 87.5484L60.6239 160.114L63.521 158.446L63.5837 85.8804C63.5837 82.0553 60.8747 80.5001 57.5387 82.419L49.1359 87.26C45.7998 89.1788 43.0783 93.8694 43.0783 97.6945L43.0156 170.26Z" fill="#C1C1C1"/>
<path d="M78.8212 97.4325C82.8094 99.4266 84.9916 104.393 84.8035 112.482C84.6154 120.572 84.5652 144.25 84.5652 145.529C84.5652 149.078 75.8112 148.313 75.8112 142.745C75.8112 140.964 72.3874 103.565 73.7168 99.5771C75.0462 95.6014 78.8212 97.42 78.8212 97.42V97.4325Z" fill="#424242"/>
<path d="M68.6627 99.1255C72.9644 96.6047 78.1064 96.7175 80.2385 102.349C82.3831 107.98 83.2861 118.327 82.797 125.726C82.3078 133.126 81.1164 146.558 81.0662 148.664C81.0161 150.771 78.9216 152.904 76.2879 154.396C73.6542 155.888 66.2045 157.933 61.4388 156.315C56.673 154.697 55.2809 153.731 54.8545 150.834C54.428 147.937 55.5693 135.822 54.867 131.696C54.1772 127.57 49.5243 114.062 51.0293 111.165C52.5343 108.268 57.3 102.7 68.6627 99.1255Z" fill="#FBFBFB"/>
<path d="M70.0169 97.5577C73.7418 97.0184 78.495 96.0652 82.2324 101.859C85.142 106.374 84.4773 110.287 83.9004 128.61C83.3235 146.934 83.6872 142.607 83.2482 145.065C82.7967 147.523 76.5761 153.969 77.0151 148.79C77.4541 143.61 78.031 135.584 77.7927 123.682C77.5669 111.78 76.1121 99.464 69.3146 100.894C62.5171 102.323 61.4009 102.888 61.0874 104.882C60.7613 106.863 68.4869 107.679 71.2084 115.003C73.9299 122.327 73.1899 149.241 72.5378 153.029C71.8982 156.804 53.7255 155.035 53.412 148.2C53.0984 141.365 54.5407 137.264 53.8258 131.959C53.111 126.654 48.6587 114.915 50.9037 109.811C53.1611 104.706 64.6617 98.3478 70.0044 97.5702L70.0169 97.5577Z" fill="#323232"/>
<path d="M79.0847 140.299C79.0847 139.271 77.6298 140.801 77.6048 139.86C77.2536 126.553 76.9777 118.464 75.711 112.344C74.344 105.785 73.9552 102.612 70.13 102.123C66.3174 101.633 66.4052 98.8868 68.6627 98.5858C70.9201 98.2848 75.0337 98.3225 77.4041 102.022C79.7744 105.722 80.853 111.453 80.853 111.453L78.5955 113.548L80.9283 115.354C80.7401 118.765 79.0847 140.286 79.0847 140.286V140.299Z" fill="#424242"/>
<path d="M72.9016 103.465C71.5221 100.919 69.7161 100.003 68.1609 100.354C66.6183 100.705 62.7806 102.499 62.4169 102.863C62.0658 103.239 63.6335 105.258 65.8031 106.036C67.9728 106.813 72.0739 108.832 72.0739 108.832L72.8891 103.477L72.9016 103.465Z" fill="#9F9F9F"/>
<path d="M68.1108 98.7363C65.0758 99.4261 62.3668 101.546 62.3668 101.546C62.3668 101.546 61.0625 104.505 62.3668 105.308C62.2414 103.816 62.2163 102.988 63.5833 102.486C64.9504 101.985 68.3742 100.279 68.3742 100.279L68.1108 98.7363Z" fill="#424242"/>
<path d="M72.9395 146.52C71.8609 134.731 65.9664 121.274 65.9664 120.258L67.4212 117.549C67.4212 117.549 64.2357 113.724 63.3703 112.745C61.6396 110.814 60.423 110.325 59.4573 106.199C58.8303 103.54 62.3795 101.546 62.3795 101.546L61.9029 104.267C61.9029 104.267 68.8133 107.704 70.381 111.78C71.9487 115.856 74.4821 126.253 72.952 146.52H72.9395Z" fill="#424242"/>
<path d="M56.2716 109.36C60.1219 111.617 61.9655 116.709 61.2381 124.773C60.5107 132.838 59.3694 156.579 58.805 157.732C58.2407 158.886 50.2517 160.88 50.2642 154.384C50.2642 152.603 49.4616 115.054 51.0544 111.178C52.6471 107.303 56.2842 109.36 56.2842 109.36H56.2716Z" fill="#424242"/>
<path d="M70.6568 103.175L69.3901 102.436L69.0515 102.448L70.3307 103.188L70.6568 103.175Z" fill="#515151"/>
<path d="M71.0078 101.118L70.3181 103.2L69.0388 102.46L69.1517 102.147L69.7161 100.429C70.1425 100.554 70.5564 100.78 70.9702 101.093C70.9828 101.093 70.9953 101.106 71.0078 101.118Z" fill="#515151"/>
<path d="M72.701 103.113L70.6567 103.188H70.3181L71.0079 101.119C71.6099 101.571 72.1868 102.235 72.701 103.113Z" fill="#414141"/>
<path d="M70.3181 103.188H70.6567L65.753 106.01L65.5899 105.947L64.9001 104.593L69.1643 102.135L70.9828 101.081C70.9828 101.081 71.0079 101.094 71.0204 101.106L70.3306 103.188H70.3181Z" fill="#414141"/>
<path d="M70.9705 101.082L69.152 102.135L64.8879 104.593L63.6086 103.853L69.6035 100.404C69.6035 100.404 69.6787 100.429 69.7164 100.429C70.1428 100.555 70.5567 100.781 70.9705 101.094V101.082Z" fill="#515151"/>
<path d="M64.9003 104.581L63.6211 103.841L64.336 105.17L65.6027 105.91L64.9003 104.581Z" fill="#515151"/>
<path d="M64.8877 104.581L64.2982 105.245C63.8593 104.944 63.4956 104.631 63.1946 104.305L63.621 103.828L64.9002 104.568L64.8877 104.581Z" fill="#515151"/>
<path d="M65.6024 105.909L65.5773 105.935C65.1133 105.746 64.6869 105.508 64.2981 105.245L64.8875 104.58L65.6024 105.909Z" fill="#414141"/>
<path d="M85.0797 105.847C83.9258 106.649 76.9277 110.362 76.9277 110.362C76.9277 110.362 70.2054 114.576 69.4278 115.153C68.6503 115.742 67.5717 116.645 67.1704 118.489C66.7691 120.332 67.1704 122.941 67.9229 124.546C68.6754 126.139 72.6259 134.291 72.6259 134.291C72.6259 134.291 73.692 140.06 75.4352 139.997C77.1785 139.935 89.3187 135.382 91.9399 128.948C94.5611 122.514 93.031 112.055 91.225 108.894C89.419 105.746 85.0797 105.834 85.0797 105.834V105.847Z" fill="#444444"/>
<path d="M84.0263 110.914L82.7471 110.174L82.4084 110.186L83.6877 110.926L84.0263 110.914Z" fill="#515151"/>
<path d="M84.4025 108.781L83.1233 108.041L82.4084 110.186L83.6877 110.926L84.4025 108.781Z" fill="#515151"/>
<path d="M100.393 108.192L99.1263 107.452L83.1233 108.042L84.4025 108.782L100.393 108.192Z" fill="#515151"/>
<path d="M84.4024 108.782L83.6875 110.926L84.0261 110.914L99.6905 110.337L100.393 108.192L84.4024 108.782Z" fill="#414141"/>
<path d="M78.9719 113.647L77.6926 112.907L77.354 113.283L78.6332 114.023L78.9719 113.647Z" fill="#515151"/>
<path d="M78.2571 112.318L78.9719 113.647L78.6333 114.024L84.0262 110.913L83.6876 110.926L84.4024 108.781L78.2571 112.318Z" fill="#414141"/>
<path d="M84.4023 108.781L83.123 108.041L76.9902 111.578L78.2569 112.318L84.4023 108.781Z" fill="#515151"/>
<path d="M78.2569 112.318L76.9902 111.578L77.6926 112.908L78.9718 113.647L78.2569 112.318Z" fill="#515151"/>
<path d="M78.257 112.318L76.9903 111.578L61.0125 129.412L62.2917 130.152L78.257 112.318Z" fill="#515151"/>
<path d="M62.2917 130.152L61.0125 129.412L61.7273 130.729L63.0065 131.481L62.2917 130.152Z" fill="#515151"/>
<path d="M78.2571 112.318L62.2917 130.152L63.0066 131.482L78.6333 114.024L78.9719 113.648L78.2571 112.318Z" fill="#414141"/>
<path d="M93.1439 136.185C92.5544 134.642 92.9432 133.325 94.1096 130.767C95.5895 127.531 98.6872 126.252 98.8503 123.079C99.0133 119.893 97.2324 119.517 96.0911 114.789C94.9498 110.061 93.4198 106.674 91.9023 105.684C90.3847 104.693 88.7042 104.48 88.1398 104.718C87.5754 104.944 83.3991 105.985 84.879 106.787C86.3714 107.59 90.1088 110.174 91.6138 115.617C94.2726 125.261 89.6072 132.435 87.4375 127.079C83.4743 117.272 78.2822 115.453 76.9026 113.886C75.5356 112.318 76.0999 111.365 76.3132 111.127C76.5264 110.888 76.6518 110.7 78.094 109.998C78.6835 109.195 72.9896 112.381 70.9203 113.986C68.8509 115.591 66.5684 116.482 66.8443 120.984C67.1202 125.474 71.4847 130.416 72.1744 136.097C72.3124 137.2 72.3626 138.028 72.35 138.705C73.9052 142.355 81.5053 143.697 87.7385 141.001C91.7768 139.257 92.9557 137.589 93.1439 136.197V136.185ZM77.0531 128.133C76.865 136.774 75.6735 137.489 74.7204 137.928C73.7672 138.367 72.3751 130.503 69.7038 127.33C67.0324 124.17 67.2833 119.968 67.3084 118.589C67.3334 117.222 68.4245 115.98 69.7163 115.027C74.2062 113.785 77.2412 119.479 77.0531 128.12V128.133Z" fill="url(#paint0_linear_29_5349)"/>
<path d="M70.544 118.765L61.0125 129.412L62.2917 130.152L71.2463 120.144C71.0206 119.68 70.7823 119.216 70.544 118.765Z" fill="#515151"/>
<path d="M71.2588 120.145L62.3042 130.153L63.0191 131.482L71.8985 121.562C71.7103 121.085 71.4971 120.609 71.2714 120.145H71.2588Z" fill="#414141"/>
<path d="M89.4818 183.792C80.7404 187.567 70.1051 185.774 67.7097 180.745C67.8728 176.982 68.2866 151.297 69.0767 148.588C71.0708 141.791 72.2874 141.527 72.3375 138.706C73.8927 142.355 81.4929 143.697 87.726 141.001C91.7644 139.257 92.9432 137.589 93.1314 136.197C93.2944 136.611 93.5076 137.038 93.8086 137.502C94.8997 139.22 97.2575 164.93 97.1196 177.183C96.7559 179.127 95.0126 181.422 89.4693 183.817L89.4818 183.792Z" fill="url(#paint1_linear_29_5349)"/>
<path d="M98.8125 115.303C97.7841 115.328 90.347 118.288 88.8294 120.056C86.0076 123.355 91.7892 124.509 96.4798 122.728C101.17 120.959 102.6 116.168 101.471 115.667C100.343 115.178 98.825 115.291 98.825 115.291L98.8125 115.303Z" fill="#4F4F4F"/>
<path d="M97.3957 118.653L96.1165 117.913L95.7778 117.926L97.0571 118.666L97.3957 118.653Z" fill="#515151"/>
<path d="M97.7594 116.52L96.4802 115.78L95.7778 117.925L97.0571 118.665L97.7594 116.52Z" fill="#515151"/>
<path d="M113.762 115.931L112.483 115.191L96.48 115.781L97.7592 116.521L113.762 115.931Z" fill="#515151"/>
<path d="M97.7595 116.521L97.0571 118.666L97.3957 118.653L113.06 118.076L113.762 115.932L97.7595 116.521Z" fill="#414141"/>
<path d="M92.3412 121.386L91.062 120.646L90.7234 121.023L92.0026 121.763L92.3412 121.386Z" fill="#515151"/>
<path d="M91.6265 120.057L92.3413 121.387L92.0027 121.763L97.3956 118.653L97.0569 118.665L97.7593 116.521L91.6265 120.057Z" fill="#414141"/>
<path d="M97.7592 116.52L96.48 115.78L90.3472 119.317L91.6264 120.057L97.7592 116.52Z" fill="#515151"/>
<path d="M91.6264 120.057L90.3472 119.317L91.062 120.647L92.3413 121.387L91.6264 120.057Z" fill="#515151"/>
<path d="M91.6264 120.057L90.3472 119.317L74.3818 137.139L75.6611 137.891L91.6264 120.057Z" fill="#515151"/>
<path d="M75.6611 137.892L74.3818 137.14L75.0967 138.469L76.3759 139.209L75.6611 137.892Z" fill="#515151"/>
<path d="M91.6265 120.058L75.6611 137.892L76.376 139.209L92.0027 121.763L92.3414 121.387L91.6265 120.058Z" fill="#414141"/>
<path d="M108.181 114.426C113.11 114.589 115.418 115.592 116.81 116.859C118.202 118.126 114.339 128.146 113.16 129.902C112.082 130.203 108.996 129.375 108.369 129.137C107.742 128.899 108.169 114.426 108.169 114.426H108.181Z" fill="#4F4F4F"/>
<path d="M110.05 114.927C108.018 113.56 98.5366 114.952 97.0567 115.178C95.5768 115.404 88.2902 119.518 88.2902 119.518C81.3923 126.002 76.6893 133.125 75.9869 134.066C75.2846 135.006 80.6524 144.488 80.6524 144.488C80.6524 144.488 80.6273 168.041 80.6273 172.242C80.6273 176.443 89.6823 173.321 96.3293 170.047C104.18 166.172 110.664 161.456 110.664 158.722C110.664 153.63 110.689 126.227 110.689 123.518C110.689 120.809 112.081 116.319 110.062 114.952L110.05 114.927ZM96.4798 122.728C91.7893 124.497 86.0076 123.355 88.8294 120.057C90.347 118.288 97.7841 115.329 98.8125 115.304C98.8125 115.304 100.33 115.191 101.459 115.68C102.6 116.169 101.158 120.96 96.4672 122.741L96.4798 122.728Z" fill="url(#paint2_linear_29_5349)"/>
<path d="M82.9977 143.435C82.9977 143.435 84.1516 137.929 83.537 132.348C82.9225 126.767 81.1291 127.244 81.1291 127.244C81.1291 127.244 74.9712 134.881 73.9302 136.436C72.8893 137.992 78.834 146.871 80.6525 147.134C81.8439 146.357 82.9977 143.435 82.9977 143.435Z" fill="#4F4F4F"/>
<path d="M52.1333 88.916L110.94 122.941V119.517L52.1333 85.4922V88.916Z" fill="#C1C1C1"/>
<path d="M110.94 119.518L113.361 118.126L54.5538 84.1006L52.1333 85.4927L110.94 119.518Z" fill="#CECECE"/>
<path d="M101.622 204.172L104.519 202.504L104.582 129.939C104.582 127.945 105.999 125.511 107.742 124.508L116.145 119.667C117.888 118.664 119.293 119.466 119.293 121.461L119.23 194.026L122.127 192.358L122.19 119.793C122.19 115.967 119.481 114.412 116.145 116.331L107.742 121.172C104.406 123.091 101.685 127.781 101.685 131.607L101.622 204.172Z" fill="#CECECE"/>
<path d="M120.484 115.931L122.19 116.921L120.785 118.376C120.785 118.376 119.155 116.984 119.13 116.846C119.117 116.708 120.484 115.931 120.484 115.931Z" fill="#CECECE"/>
<path d="M107.742 121.159L109.423 122.125L117.813 117.297L116.145 116.318L107.742 121.159Z" fill="#CECECE"/>
<path d="M94.9624 216.249L96.643 217.215L97.872 211.371C97.872 209.514 99.1889 207.244 100.819 206.304L122.955 193.549C124.573 192.621 125.89 193.374 125.89 195.23V198.44L127.558 199.406L128.787 193.562C128.787 189.862 126.166 188.369 122.955 190.226L100.819 202.98C97.5961 204.836 94.975 209.351 94.975 213.051V216.262L94.9624 216.249Z" fill="#CECECE"/>
<path d="M128.962 190.904L126.918 189.725L126.228 190.904L128.273 191.944L128.962 190.904Z" fill="#CECECE"/>
<path d="M103.303 205.139L106.2 203.471L106.263 130.905C106.263 128.911 107.68 126.478 109.423 125.475L117.826 120.634C119.569 119.631 120.974 120.433 120.974 122.427L120.911 194.993L123.808 193.325L123.871 120.759C123.871 116.934 121.162 115.379 117.826 117.298L109.423 122.139C106.087 124.058 103.365 128.748 103.365 132.573L103.303 205.139Z" fill="#C1C1C1"/>
<path d="M96.6306 217.216L99.5277 215.548V212.337C99.5277 210.481 100.857 208.211 102.475 207.271L124.611 194.516C126.229 193.588 127.545 194.34 127.545 196.196V199.407L130.443 197.739V194.528C130.443 190.829 127.834 189.336 124.611 191.192L102.475 203.947C99.2518 205.803 96.6306 210.318 96.6306 214.018V217.229V217.216Z" fill="#C1C1C1"/>
<path d="M94.1222 116.118L92.8555 115.378V117.874L94.1347 118.614L94.1222 116.118Z" fill="#BBBBBB"/>
<path d="M97.0947 108.907L95.8154 108.167V109.559L97.0947 110.299V108.907Z" fill="#DFDFDF"/>
<path d="M93.5705 114.902L92.2913 114.162C92.6424 114.363 92.8431 114.802 92.8556 115.379L94.1349 116.119C94.1349 115.542 93.9217 115.103 93.583 114.902H93.5705Z" fill="#BBBBBB"/>
<path d="M94.1724 113.848L92.8931 113.108C92.7301 113.008 92.542 112.958 92.3413 112.933L93.6205 113.673C93.8212 113.698 94.0093 113.76 94.1724 113.848Z" fill="#DFDFDF"/>
<path d="M93.6332 113.673L92.354 112.933L91.6516 112.857L92.9309 113.597L93.6332 113.673Z" fill="#DFDFDF"/>
<path d="M96.342 107.276L95.0627 106.536C95.5142 106.8 95.8027 107.364 95.8027 108.167L97.0819 108.906C97.0819 108.104 96.7935 107.539 96.342 107.276Z" fill="#BBBBBB"/>
<path d="M91.2751 112.745L92.5544 113.485C92.6672 113.548 92.7927 113.585 92.9306 113.61L91.6514 112.871C91.5134 112.858 91.388 112.82 91.2751 112.745Z" fill="#DFDFDF"/>
<path d="M90.6733 113.786L91.9526 114.526C91.4384 114.225 91.1499 113.598 91.1374 112.758L89.8582 112.018C89.8582 112.858 90.1591 113.497 90.6733 113.786Z" fill="#DFDFDF"/>
<path d="M91.1376 112.343L89.8708 111.591V112.005L91.1376 112.757V112.343Z" fill="#DFDFDF"/>
<path d="M96.9566 106.235L95.6774 105.495C95.0628 105.132 94.1974 105.182 93.2568 105.734L94.5361 106.474C95.4767 105.934 96.3421 105.884 96.9566 106.235Z" fill="#DFDFDF"/>
<path d="M94.5362 106.474C92.655 107.553 91.1375 110.187 91.1375 112.344V112.758C91.1375 113.874 91.6642 114.614 92.4919 114.702L93.1817 114.777C93.7586 114.84 94.1098 115.354 94.1223 116.119V118.615L94.9877 118.125V115.63C94.9877 114.513 94.4609 113.774 93.6332 113.686L92.9434 113.61C92.3665 113.548 92.0153 113.034 92.0028 112.269V111.855C92.0028 110.237 93.1315 108.268 94.5362 107.465C95.9408 106.662 97.0821 107.315 97.0821 108.92V110.3L97.9475 109.81V108.431C97.9475 106.274 96.4049 105.396 94.5362 106.487V106.474Z" fill="#ABABAB"/>
<path d="M101.283 111.29L95.1256 107.729L94.8372 110.35L101.283 111.29Z" fill="#CECECE"/>
<path d="M94.5361 106.474L93.2569 105.734C91.3757 106.813 89.8582 109.447 89.8582 111.604L91.1374 112.344C91.1374 110.187 92.6549 107.553 94.5361 106.474Z" fill="#DFDFDF"/>
<path d="M80.7653 108.381L79.4861 107.641V110.136L80.7653 110.876V108.381Z" fill="#BBBBBB"/>
<path d="M83.7253 101.182L82.446 100.43V101.822L83.7253 102.562V101.182Z" fill="#DFDFDF"/>
<path d="M80.2009 107.165L78.9216 106.425C79.2728 106.625 79.4735 107.064 79.4735 107.641L80.7527 108.381C80.7527 107.804 80.5395 107.365 80.2009 107.165Z" fill="#BBBBBB"/>
<path d="M80.803 106.11L79.5238 105.37C79.3607 105.27 79.1726 105.219 78.9719 105.194L80.2512 105.934C80.4518 105.959 80.64 106.01 80.803 106.11Z" fill="#DFDFDF"/>
<path d="M80.2637 105.935L78.9845 105.195L78.2947 105.12L79.5739 105.873L80.2637 105.935Z" fill="#DFDFDF"/>
<path d="M82.9851 99.5515L81.7058 98.8115C82.1573 99.0749 82.4458 99.6393 82.4458 100.442L83.725 101.182C83.725 100.379 83.4365 99.8148 82.9851 99.5515Z" fill="#BBBBBB"/>
<path d="M77.9185 105.008L79.1977 105.748C79.3106 105.81 79.436 105.848 79.5739 105.873L78.2947 105.133C78.1567 105.121 78.0313 105.083 77.9185 105.008Z" fill="#DFDFDF"/>
<path d="M77.304 106.049L78.5832 106.789C78.069 106.488 77.7806 105.86 77.768 105.02L76.4888 104.28C76.4888 105.121 76.7898 105.76 77.304 106.049Z" fill="#DFDFDF"/>
<path d="M77.7805 104.606L76.5012 103.866V104.28L77.7805 105.02V104.606Z" fill="#DFDFDF"/>
<path d="M83.5872 98.4981L82.308 97.7581C81.6934 97.3944 80.8281 97.4446 79.8875 97.9964L81.1667 98.7364C82.1073 98.1971 82.9727 98.1469 83.5872 98.4981Z" fill="#DFDFDF"/>
<path d="M81.1668 98.7371C79.2856 99.8156 77.7681 102.449 77.7681 104.606V105.02C77.7681 106.137 78.2948 106.877 79.1226 106.964L79.8123 107.04C80.3892 107.102 80.7404 107.616 80.753 108.381V110.877L81.6183 110.388V107.892C81.6183 106.776 81.0916 106.036 80.2638 105.948L79.574 105.873C78.9971 105.81 78.646 105.296 78.646 104.531V104.117C78.646 102.512 79.7747 100.53 81.1794 99.7278C82.584 98.9252 83.7253 99.5773 83.7253 101.183V102.562L84.5907 102.073V100.694C84.5907 98.5364 83.048 97.6585 81.1794 98.7496L81.1668 98.7371Z" fill="#ABABAB"/>
<path d="M87.6007 103.376L81.8943 100.065L82.2831 103.088L87.6007 103.376Z" fill="#CECECE"/>
<path d="M81.1667 98.737L79.8875 97.9971C78.0063 99.0756 76.4888 101.709 76.4888 103.866L77.768 104.606C77.768 102.449 79.2855 99.8156 81.1667 98.737Z" fill="#DFDFDF"/>
<path d="M67.3962 100.641L66.1169 99.9014L66.1295 102.397L67.3962 103.137V100.641Z" fill="#BBBBBB"/>
<path d="M70.3561 93.4429L69.0769 92.6904L69.0895 94.0825L70.3561 94.8225V93.4429Z" fill="#DFDFDF"/>
<path d="M66.832 99.4255L65.5527 98.6855C65.9039 98.8862 66.1046 99.3252 66.1046 99.9021L67.3838 100.642C67.3838 100.065 67.1706 99.6262 66.832 99.4255Z" fill="#BBBBBB"/>
<path d="M67.4465 98.3843L66.1673 97.6443C66.0043 97.544 65.8161 97.4938 65.6155 97.4688L66.8947 98.2087C67.0954 98.2338 67.2835 98.2965 67.4465 98.3843Z" fill="#DFDFDF"/>
<path d="M66.8948 98.2086L65.6156 97.4561L64.9258 97.3809L66.205 98.1333L66.8948 98.2086Z" fill="#DFDFDF"/>
<path d="M69.6162 91.8122L68.3369 91.0723C68.7884 91.3356 69.0769 91.9 69.0769 92.7027L70.3561 93.4426C70.3561 92.64 70.0676 92.0756 69.6162 91.8122Z" fill="#BBBBBB"/>
<path d="M64.5493 97.2686L65.8286 98.0085C65.9414 98.0712 66.0668 98.1088 66.2048 98.1339L64.9256 97.394C64.7876 97.3814 64.6622 97.3438 64.5493 97.2686Z" fill="#DFDFDF"/>
<path d="M63.9475 98.3094L65.2268 99.0493C64.7126 98.7483 64.4241 98.1213 64.4115 97.281L63.1323 96.541C63.1323 97.3813 63.4333 98.0209 63.9475 98.3094Z" fill="#DFDFDF"/>
<path d="M64.4115 96.8669L63.1323 96.127V96.5408L64.4115 97.2808V96.8669Z" fill="#DFDFDF"/>
<path d="M70.2183 90.7588L68.9391 90.0189C68.3245 89.6552 67.4592 89.7053 66.5186 90.2572L67.7978 90.9971C68.7384 90.4578 69.6038 90.4077 70.2183 90.7588Z" fill="#DFDFDF"/>
<path d="M67.8104 90.9978C65.9292 92.0764 64.4116 94.7101 64.4116 96.8672V97.2811C64.4116 98.3973 64.9384 99.1372 65.7661 99.225L66.4559 99.3003C67.0328 99.363 67.384 99.8772 67.3965 100.642V103.138L68.2619 102.649V100.153C68.2619 99.0369 67.7351 98.297 66.9074 98.2092L66.2176 98.1339C65.6407 98.0712 65.2895 97.557 65.277 96.792V96.3781C65.277 94.7603 66.4057 92.7912 67.8104 91.9886C69.215 91.1859 70.3563 91.8381 70.3563 93.4434V94.823L71.2217 94.3338V92.9543C71.2217 90.7971 69.6791 89.9192 67.8104 91.0103V90.9978Z" fill="#ABABAB"/>
<path d="M73.5417 95.2353L68.4373 92.2881L68.7006 95.0221L73.5417 95.2353Z" fill="#CECECE"/>
<path d="M67.8103 90.9978L66.5311 90.2578C64.6498 91.3364 63.1323 93.9701 63.1323 96.1272L64.4115 96.8672C64.4115 94.71 65.9291 92.0763 67.8103 90.9978Z" fill="#DFDFDF"/>
<path d="M196.668 178.709C196.713 170.425 185.12 163.647 170.776 163.569C156.431 163.492 144.766 170.144 144.722 178.428C144.677 186.712 156.269 193.491 170.613 193.568C184.958 193.646 196.623 186.993 196.668 178.709Z" fill="#E3E3E3" fill-opacity="0.5"/>
<path d="M187.481 31.8392C187.544 33.3442 187.481 34.8492 187.418 36.3541C187.28 39.477 186.716 43.0638 188.133 45.9986C188.422 46.6006 189.287 46.8263 189.45 47.5035C190.115 50.1373 182.54 52.8337 180.847 53.4357C176.858 54.8905 168.067 51.73 166.875 49.0838C165.91 46.9266 165.797 44.2428 165.107 41.9602C164.292 39.2512 163.778 36.6175 163.426 33.8208C163.038 30.723 164.518 25.9823 166.75 23.7499C168.619 21.8687 171.002 20.0251 173.798 20C174.814 20 175.805 20.3512 176.758 20.7023C176.896 20.7525 177.034 20.8027 177.147 20.9155C177.197 20.9657 177.235 21.0159 177.285 21.0409C177.36 21.0786 177.448 21.0786 177.536 21.0786C179.091 21.0159 180.37 20.7149 181.95 21.1914C182.477 21.3545 183.004 21.5677 183.443 21.9063C183.794 22.1822 184.082 22.5459 184.371 22.8971C186.051 24.9664 186.841 26.81 187.255 29.4061C187.381 30.2088 187.456 31.024 187.494 31.8392H187.481Z" fill="#3E3E3E"/>
<path d="M211.636 80.1488C211.636 80.1488 209.466 81.6413 206.933 82.168C204.387 82.6822 200.198 80.1488 198.706 80.3997C197.201 80.663 195.646 81.2776 194.918 80.9766C194.203 80.663 193.526 76.8504 193.677 76.3989C193.677 76.3613 193.677 76.123 193.664 75.7091C193.413 71.1942 191.206 46.1112 191.206 46.1112C192.41 44.2801 194.981 45.4966 196.574 46.0108C198.179 46.5125 200.512 46.4122 201.753 50.7014C202.995 55.0031 204.55 61.8759 206.67 65.0363C208.789 68.1968 209.981 72.0219 209.981 72.0219C209.981 72.0219 212.414 74.6557 212.991 76.7877C213.555 78.9072 211.649 80.1488 211.649 80.1488H211.636Z" fill="#3259C1"/>
<path d="M152.854 181.234C150.133 181.811 146.483 179.064 145.091 175.252C143.699 171.452 145.016 168.454 144.464 166.084C143.925 163.714 143.536 162.284 143.761 160.528C144 158.785 145.743 158.358 147.135 158.358C148.527 158.358 153.381 162.008 153.306 167.438C153.23 172.869 152.954 174.236 153.657 176.13C154.359 178.036 152.842 181.209 152.842 181.209L152.854 181.234Z" fill="#666666"/>
<path d="M169.973 171.226C169.033 172.091 168.531 171.89 168.305 173.634C168.067 175.377 167.804 176.267 168.268 177.559C168.732 178.838 170.864 179.227 173.585 179.503C176.307 179.779 179.292 183.617 183.518 185.209C187.745 186.802 189.726 185.398 189.964 184.632C190.203 183.855 189.964 182.438 188.096 180.481C186.227 178.525 179.342 174.511 178.2 174.236C177.059 173.96 169.973 171.251 169.973 171.251V171.226Z" fill="#666666"/>
<path d="M200.248 154.608C200.248 154.608 201.026 157.33 199.546 157.48C198.079 157.631 196.912 158.17 195.432 158.873C193.953 159.562 189.538 159.876 189.3 158.321C189.074 156.766 188.209 154.834 183.405 154.521C178.589 154.207 178.903 157.857 178.903 158.873C178.903 159.888 180.22 161.581 175.642 162.058C171.064 162.522 171.691 160.114 169.672 158.873C167.653 157.631 165.559 160.114 160.58 157.781C155.601 155.449 154.372 151.335 153.744 148.852C149.944 150.093 148 148.074 148.076 147.384C148.151 146.682 149.242 143.66 149.242 143.66C149.242 143.66 144.113 142.493 144.74 139.697C145.367 136.9 148.151 130.228 149.944 126.967C151.725 123.706 155.939 97.695 160.015 91.3866C162.937 86.8466 163.891 84.4261 164.267 82.4069C164.417 81.6042 164.48 80.8768 164.543 80.0993C164.743 77.3652 164.179 74.8694 161.746 68.8746C159.313 62.8672 159.677 50.2379 161.432 49.4603C163.188 48.6828 165.722 48.3692 170.287 47.1778C174.839 45.9863 182.565 45.8484 191.206 46.1117C191.206 46.1117 192.034 47.0649 192.56 48.2438C193.1 49.4353 196.21 60.6724 195.746 67.7333C195.282 74.7942 191.469 79.7606 192.485 82.4069C193.489 85.0406 195.508 88.9285 197.84 102.047C200.173 115.165 197.615 129.375 198.693 131.469C199.784 133.564 201.565 143.509 202.18 146.068C202.807 148.639 202.18 150.106 202.18 150.106C202.18 150.106 202.569 152.439 202.569 153.367C202.569 154.295 200.236 154.608 200.236 154.608H200.248Z" fill="#2952BE"/>
<path d="M185.826 88.4762C186.804 75.709 186.277 69.2376 185.349 65.45C184.421 61.675 181.461 54.2128 180.847 52.3567C180.22 50.488 179.919 49.6728 179.919 49.6728C179.919 49.6728 175.567 43.9664 172.419 44.0667C169.258 44.1671 169.722 46.7506 170.45 48.2305C171.177 49.7104 178.263 50.325 178.677 50.9019C179.091 51.4662 182.941 61.2361 183.919 67.7577C185.186 76.1856 183.706 88.865 183.706 88.865L185.838 88.4637L185.826 88.4762Z" fill="#3259C1"/>
<path d="M154.673 129.525C152.503 135.896 150.948 145.98 150.17 150.407C149.393 154.834 148.929 157.004 148.076 158.245C147.223 159.487 146.132 159.061 145.354 160.227C144.577 161.393 144.351 162.522 145.505 164.579C146.671 166.636 147.248 170.825 148.527 172.116C149.807 173.396 152.491 173.471 152.754 172.304C153.017 171.138 152.904 166.059 153.293 164.968C153.682 163.877 154.811 159.261 156.24 157.28C157.67 155.298 163.853 145.792 164.079 144.55C164.305 143.309 159.112 134.065 159.112 134.065L154.648 129.525H154.673Z" fill="#BEBEBE"/>
<path d="M170.287 151.699C169.359 156.164 169.233 162.535 169.622 166.297C170.011 170.06 168.807 172.355 168.732 173.321C168.656 174.286 170.788 175.841 174.049 176.23C177.31 176.619 180.182 178.751 181.812 178.952C183.443 179.14 184.534 178.375 183.593 177.635C182.665 176.895 179.442 174.951 178.464 172.355C177.486 169.759 177.649 158.534 177.649 158.534L179.241 144.989L170.274 151.699H170.287Z" fill="#BEBEBE"/>
<path d="M200.248 154.608C200.248 154.608 201.026 157.329 199.546 157.48C198.079 157.63 196.912 158.17 195.432 158.872C193.953 159.562 189.538 159.875 189.3 158.32C189.074 156.765 188.209 154.833 183.405 154.52C178.589 154.206 178.903 157.856 178.903 158.872C178.903 159.888 180.22 161.581 175.642 162.057C171.064 162.521 171.691 160.113 169.672 158.872C167.653 157.63 165.559 160.113 160.58 157.781C155.601 155.448 154.372 151.334 153.744 148.851C149.944 150.093 148 148.074 148.076 147.384C148.151 146.682 149.242 143.659 149.242 143.659C149.242 143.659 144.113 142.493 144.74 139.696C145.367 136.899 148.151 130.227 149.944 126.966C150.158 126.577 150.408 125.863 150.684 124.884C152.729 117.748 156.441 96.9419 160.015 91.386C162.937 86.846 163.891 84.4254 164.267 82.4062C164.041 84.137 173.598 88.9529 178.878 89.0533C184.158 89.1536 190.479 88.7397 192.498 82.4062C193.501 85.04 195.52 88.9278 197.853 102.046C200.186 115.165 197.627 129.374 198.706 131.469C199.797 133.563 201.578 143.509 202.192 146.067C202.819 148.638 202.192 150.105 202.192 150.105C202.192 150.105 202.581 152.438 202.581 153.366C202.581 154.294 200.248 154.608 200.248 154.608Z" fill="#3259C1"/>
<path d="M200.248 154.608C200.248 154.608 201.026 157.33 199.546 157.48C198.079 157.631 196.912 158.17 195.432 158.872C193.953 159.562 189.538 159.876 189.3 158.32C189.074 156.765 188.209 154.834 183.405 154.52C178.589 154.207 178.903 157.856 178.903 158.872C178.903 159.888 180.22 161.581 175.642 162.058C171.064 162.522 171.691 160.114 169.672 158.872C167.653 157.631 165.559 160.114 160.58 157.781C155.601 155.448 154.372 151.335 153.744 148.852C149.944 150.093 148 148.074 148.076 147.384C148.151 146.682 149.242 143.659 149.242 143.659C149.242 143.659 144.113 142.493 144.74 139.696C145.367 136.9 148.151 130.227 149.944 126.967C150.158 126.578 150.408 125.863 150.684 124.885C153.519 125.75 152.503 128.058 152.114 129.914C151.725 131.783 153.882 132.109 154.986 132.485C156.09 132.861 156.616 136.435 160.266 137.213C163.916 137.991 166.637 138.379 170.513 140.323C174.4 142.267 176.721 141.565 180.069 139.696C183.405 137.828 184.722 138.066 187.594 138.693C190.466 139.32 190.629 137.915 193.89 137.138C197.151 136.36 198.932 135.043 198.706 131.469C199.797 133.563 201.578 143.509 202.192 146.067C202.819 148.638 202.192 150.106 202.192 150.106C202.192 150.106 202.581 152.438 202.581 153.367C202.581 154.295 200.248 154.608 200.248 154.608Z" fill="#2952BE"/>
<path d="M182.59 36.0907C181.85 40.6684 181.7 45.4467 181.813 47.7418C180.032 49.297 180.308 50.8019 180.308 50.8019C180.308 50.8019 178.125 49.6858 175.68 49.2593C173.924 48.9458 172.03 47.9049 172.03 47.9049C172.03 47.9049 168.732 39.6776 172.532 33.9712C176.332 28.2648 180.759 29.356 180.759 29.356L182.578 36.1158L182.59 36.0907Z" fill="#ABABAB"/>
<path d="M181.148 33.5708C181.386 36.8692 181.649 38.5373 181.148 40.5188C180.646 42.5004 179.981 43.6667 179.241 44.9083C178.501 46.15 173.61 49.185 171.202 48.8338C168.33 48.4074 166.349 43.9803 165.345 39.7538C164.342 35.5273 165.659 29.2691 166.549 28.1529C167.44 27.0241 172.444 24.5033 176.633 26.4472C180.822 28.3912 181.135 33.5959 181.135 33.5959L181.148 33.5708Z" fill="#BEBEBE"/>
<path d="M169.898 28.9048C170.989 27.9768 176.144 29.2936 177.862 30.8111C179.568 32.3287 180.42 34.5736 180.546 36.0911C180.659 37.6086 180.859 39.816 180.859 39.816C180.859 39.816 181.211 37.2951 182.251 35.9281C183.305 34.5736 182.176 39.3018 182.126 39.816C182.076 40.3176 181.863 43.3903 181.863 43.3903C181.863 43.3903 184.471 38.311 184.772 34.4231C185.086 30.5352 185.123 26.7352 183.217 23.675C181.311 20.6149 175.692 21.3799 175.692 21.3799C175.692 21.3799 173.673 21.8063 172.896 23.3239C172.118 24.8414 169.597 27.6758 169.911 28.9174L169.898 28.9048Z" fill="#3E3E3E"/>
<path d="M171.328 26.6227C171.328 26.6227 170.513 28.529 169.885 28.9177C169.258 29.3065 167.628 28.6795 166.976 28.9177C166.324 29.156 165.747 30.0967 165.596 30.7864C165.446 31.4762 165.057 34.3106 165.057 34.3106C165.057 34.3106 164.656 30.8491 164.982 29.2564C165.308 27.6636 167.114 23.8259 169.86 22.2707C172.607 20.7156 174.588 20.7908 175.667 21.3803C175.479 23.5124 171.315 26.6227 171.315 26.6227H171.328Z" fill="#3E3E3E"/>
<path d="M181.963 37.2823C181.963 35.3509 182.891 34.5859 183.744 34.3099C184.596 34.034 185.061 35.1251 184.634 37.0189C184.208 38.9252 182.615 40.2797 181.95 40.0038C181.298 39.7279 181.95 37.2697 181.95 37.2697L181.963 37.2823Z" fill="#BEBEBE"/>
<path d="M159.263 71.069C159.263 71.069 160.116 72.0849 160.893 73.7027C161.671 75.3331 160.743 76.4995 158.648 79.0579C156.554 81.6164 153.218 80.2995 148.552 81.1524C143.899 82.0052 141.717 78.7444 139.547 77.8163C137.378 76.8883 135.17 72.8624 136.199 69.7772C136.926 67.595 138.82 65.0867 142.181 65.0867C143.649 63.7698 150.722 57.01 152.816 54.9155C154.911 52.8211 155.074 51.429 157.005 49.6732C158.949 47.9174 161.282 47.9174 163.84 48.8454C163.84 48.8454 165.233 50.0243 165.396 53.3604C165.546 56.6964 165.17 63.9956 163.84 66.09C162.524 68.1844 159.263 71.0565 159.263 71.0565V71.069Z" fill="#3259C1"/>
<path d="M146.295 79.3708C149.631 79.0573 164.079 84.7261 166.487 85.2653C168.895 85.8046 168.268 79.9854 167.49 79.3708C166.713 78.7438 155.689 73.6268 153.745 73.1628C151.801 72.6987 146.295 79.3708 146.295 79.3708Z" fill="#BEBEBE"/>
<path d="M158.636 79.0709C156.541 81.6293 153.205 80.3125 148.54 81.1653C143.887 82.0181 141.705 78.7573 139.535 77.8292C137.365 76.9012 135.158 72.8753 136.186 69.7901C136.914 67.6079 138.808 65.0996 142.169 65.0996C140.689 69.4515 145.279 72.7876 147.762 73.7156C150.245 74.6437 151.023 73.3268 153.97 71.9347C156.918 70.5426 158.234 72.6245 159.25 71.0819C159.25 71.0819 160.103 72.0978 160.881 73.7156C161.658 75.346 160.73 76.5124 158.636 79.0709Z" fill="#4367C6"/>
<path d="M197.201 80.463C193.89 83.1595 188.347 87.4988 187.205 87.712C186.064 87.9127 184.672 87.9754 183.267 88.753C181.863 89.5306 179.417 91.4494 178.64 91.8633C177.862 92.2772 176.445 92.5405 176.006 93.0046C175.567 93.4686 175.768 93.8323 176.006 94.0079C176.244 94.1835 177.9 94.3967 178.853 94.033C179.806 93.6693 181.135 92.5782 181.549 92.5531C181.963 92.528 181.963 93.0673 181.963 93.0673L179.681 98.109C179.681 98.109 177.762 102.122 177.636 102.737C177.511 103.364 178.615 104.054 178.615 104.054C178.615 104.054 177.987 104.706 178.514 105.345C179.028 105.998 179.831 105.345 179.831 105.345C179.831 105.345 180.533 105.37 180.972 104.693C181.411 104.016 182.603 102.912 182.603 102.912C182.603 102.912 182.603 103.978 183.606 103.715C184.609 103.452 187.13 97.2436 187.456 96.5162C187.795 95.7888 189.112 93.1551 189.714 92.6659C190.303 92.1768 207.159 83.5608 209.304 80.0366C211.448 76.5125 206.833 75.8729 205.102 75.7851C203.371 75.7098 197.189 80.4505 197.189 80.4505L197.201 80.463Z" fill="#BEBEBE"/>
<path d="M211.636 80.1492C211.636 80.1492 209.466 81.6416 206.933 82.1684C204.387 82.6826 200.198 80.1492 198.706 80.4C197.201 80.6634 195.646 81.2779 194.918 80.977C194.203 80.6634 193.526 76.8508 193.677 76.3993C193.677 76.3617 193.677 76.1234 193.664 75.7095C195.282 76.3742 196.549 75.7973 197.765 75.0824C199.233 74.2045 201.716 74.4679 204.324 74.9946C206.933 75.5088 210.407 73.5398 209.968 72.0098C209.968 72.0098 212.401 74.6435 212.978 76.7755C213.542 78.8951 211.636 80.1367 211.636 80.1367V80.1492Z" fill="#4367C6"/>
<defs>
<linearGradient id="paint0_linear_29_5349" x1="91.8817" y1="138.846" x2="75.8152" y2="110.977" gradientUnits="userSpaceOnUse">
<stop offset="0.09" stop-color="#444444"/>
<stop offset="0.28" stop-color="#4D4D4D"/>
<stop offset="0.54" stop-color="#565656"/>
</linearGradient>
<linearGradient id="paint1_linear_29_5349" x1="97.1412" y1="161.405" x2="67.7063" y2="161.379" gradientUnits="userSpaceOnUse">
<stop offset="0.42" stop-color="#4D4D4D"/>
<stop offset="0.73" stop-color="#444444"/>
</linearGradient>
<linearGradient id="paint2_linear_29_5349" x1="75.9037" y1="143.522" x2="111.12" y2="143.553" gradientUnits="userSpaceOnUse">
<stop offset="0.27" stop-color="#535353"/>
<stop offset="0.88" stop-color="#4D4D4D"/>
</linearGradient>
</defs>
</svg>
