<svg width="240" height="240" viewBox="0 0 240 240" fill="none" xmlns="http://www.w3.org/2000/svg">
<path d="M138.927 64.4113V64.2151C138.927 63.868 138.958 63.4153 139.018 62.8419C139.078 62.2684 139.199 61.6346 139.35 60.9556C139.607 59.869 139.923 58.7221 140.331 57.53C140.738 56.3529 141.251 55.3117 141.885 54.4666C141.915 54.4364 141.915 54.4213 141.946 54.4062C141.976 54.3761 141.976 54.361 142.006 54.3459C142.127 54.2101 142.278 54.1346 142.444 54.1195C142.61 54.1195 142.76 54.1799 142.881 54.3157C143.138 54.4213 143.364 54.6326 143.575 54.9495C143.787 55.2664 143.968 55.6437 144.134 56.0511C144.254 56.3529 144.36 56.6698 144.42 57.0018C144.481 57.3338 144.511 57.6658 144.511 58.0129V58.2694C144.511 58.36 144.496 58.4958 144.451 58.6467C147.182 55.9757 148.57 54.7533 151.287 52.6406V52.9877C148.54 55.1155 147.152 56.3529 144.39 59.0541C144.345 59.9445 144.164 60.9405 143.832 62.0722C143.5 63.204 143.062 64.4113 142.519 65.6789C146.005 62.0722 147.816 60.4576 151.302 57.7714V58.1185C147.71 60.8801 145.869 62.5552 142.278 66.2825C142.066 66.7654 141.84 67.2634 141.599 67.7916C141.357 68.3197 141.101 68.8328 140.859 69.3157C141.131 70.2815 141.267 70.7796 141.538 71.7453C145.416 67.6558 147.424 65.8147 151.317 62.8419V63.2342C149.778 64.4113 148.54 65.4677 147.62 66.2675C146.699 67.0823 145.462 68.199 143.907 69.7081C144.949 68.9385 145.779 68.7574 146.382 69.0894C146.986 69.4214 147.288 70.1457 147.288 71.2172C148.329 70.2966 149.672 69.1498 151.302 67.9274V68.3349C149.687 69.5723 148.314 70.7192 147.227 71.685C147.182 72.7111 146.835 73.8882 146.186 75.2313C145.537 76.5743 144.707 77.9325 143.711 79.3359C143.711 79.4114 143.726 79.4566 143.772 79.4415V79.6679C146.775 76.7252 148.314 75.3972 151.302 73.1337C151.302 73.2695 151.302 73.3449 151.302 73.4808C148.359 75.6991 146.85 77.012 143.892 79.8943C143.892 79.849 143.923 79.9848 143.983 80.3017C144.043 80.6035 144.164 80.9355 144.27 81.2222C144.375 81.5391 144.451 82.0522 144.586 82.686C144.632 82.8369 144.647 82.9878 144.647 83.1236V83.5613C144.647 84.678 144.315 85.8701 143.681 87.1679C143.032 88.4657 142.112 89.7786 140.904 91.182C140.859 91.2273 140.814 91.2877 140.753 91.348C140.693 91.4084 140.618 91.4989 140.542 91.5744C139.637 92.5402 138.807 93.2041 138.067 93.5512C137.328 93.8832 136.905 93.6569 136.83 92.842V92.3591C136.875 91.7554 137.086 91.0009 137.464 90.0955C137.841 89.19 138.294 88.4204 138.837 87.7866C138.882 87.7413 138.912 87.6961 138.958 87.6508C139.003 87.6055 139.033 87.5603 139.078 87.515C139.607 86.9265 140.074 86.6246 140.467 86.6095C140.859 86.6095 141.07 86.8359 141.116 87.3038V87.4245C141.116 87.9074 140.98 88.4355 140.708 89.0241C140.437 89.6126 140.135 90.1408 139.818 90.6237C139.697 90.8349 139.576 91.016 139.456 91.182C139.335 91.3329 139.214 91.4838 139.094 91.6196C139.048 91.6649 139.018 91.7102 138.973 91.7554C138.928 91.7554 138.897 91.7857 138.852 91.8309C138.897 92.0271 139.018 92.0724 139.244 91.9516C139.471 91.846 139.712 91.6498 139.954 91.4386C140.059 91.348 140.21 91.2273 140.361 91.0915C140.497 90.9556 140.618 90.85 140.708 90.7595C140.753 90.7142 140.784 90.684 140.799 90.6539C140.814 90.6388 140.844 90.5935 140.889 90.5482C141.915 89.3259 142.685 88.2092 143.198 87.1528C143.696 86.0965 143.968 85.1156 144.013 84.1951C144.013 84.0744 144.013 83.9536 144.013 83.8027C144.013 83.6518 143.968 83.5462 143.953 83.4858C143.938 83.3953 143.953 83.2444 143.922 83.1236C143.907 83.0029 143.877 82.9124 143.832 82.8369C143.56 81.9466 143.425 81.509 143.138 80.6488C137.283 86.4889 134.34 90.0653 129.36 97.671V97.3239C133.042 91.7102 135.11 89.024 139.35 84.3007C138.158 85.3118 137.132 85.9456 136.272 86.172C135.396 86.3983 134.747 86.2172 134.325 85.5985C132.257 88.2846 131.246 89.6881 129.36 92.5855V92.1931C131.231 89.3259 132.227 87.9376 134.265 85.2816C134.189 85.1609 134.129 84.9798 134.098 84.7685C134.053 84.5572 134.023 84.346 133.978 84.1347V83.682C133.978 83.1991 134.023 82.6709 134.129 82.1126C134.219 81.5542 134.355 80.9657 134.506 80.3621C132.363 83.1387 131.322 84.6025 129.36 87.5905V87.1981C131.352 84.1347 132.423 82.6558 134.612 79.8188C135.034 78.4003 135.593 76.8912 136.256 75.2916C136.936 73.692 137.63 72.1075 138.369 70.5381C136.377 72.8469 134.853 74.8087 133.736 76.2876C132.589 77.8268 131.111 79.849 129.405 82.4596C129.39 82.354 129.375 82.3088 129.345 82.2031C132.816 76.8912 134.747 74.3409 138.731 69.7685C138.807 69.6025 138.882 69.4364 138.943 69.3006C139.003 69.1497 139.093 69.0139 139.154 68.8932C139.244 68.7423 139.305 68.5763 139.365 68.4254C139.426 68.2745 139.501 68.1387 139.576 68.018C139.41 67.5653 139.275 67.0521 139.184 66.5089C139.078 65.9656 139.003 65.3922 138.973 64.7735C134.898 69.4516 132.891 72.0622 129.345 77.5099V77.1629C132.891 71.7152 134.898 69.1045 138.973 64.4264V64.3358L138.927 64.4113ZM137.041 77.1779C136.558 78.355 136.166 79.4717 135.879 80.5431C135.577 81.6146 135.411 82.5804 135.381 83.4556V83.6216C135.381 83.6216 135.381 83.682 135.411 83.6971C135.427 83.6971 135.442 83.7424 135.442 83.7726C136.438 82.5351 136.936 81.9164 137.962 80.7393C137.916 80.679 137.901 80.5884 137.901 80.4677V80.0753C137.901 79.2001 138.203 78.0532 138.807 76.6196C139.41 75.186 140.12 73.9184 140.904 72.8168C139.35 74.4918 138.565 75.3671 137.056 77.193L137.041 77.1779ZM140.587 78.189C140.21 78.5965 139.727 79.1246 139.109 79.8188C139.109 80.3168 139.29 80.5582 139.637 80.5431C139.984 80.5431 140.391 80.3923 140.844 80.0904C140.919 80.0452 140.98 80.015 140.995 80.015C141.01 80.015 141.025 80.0452 141.025 80.1206C141.025 80.1659 141.01 80.2263 140.965 80.3319C140.919 80.4375 140.859 80.513 140.784 80.5583C140.753 80.5884 140.753 80.6035 140.723 80.6186C140.059 81.1317 139.516 81.4184 139.063 81.4788C138.611 81.524 138.294 81.3731 138.082 80.9958C137.011 82.2333 136.483 82.8671 135.442 84.18C135.683 85.176 136.332 85.3873 137.418 84.8591C138.505 84.346 139.742 83.3198 141.146 81.841C141.191 81.7957 141.221 81.7504 141.266 81.7051C141.312 81.6598 141.342 81.6146 141.387 81.5693C141.629 81.2675 141.885 80.9808 142.127 80.679C142.368 80.3922 142.61 80.1206 142.806 79.8641C142.489 78.5663 142.323 77.9325 141.991 76.68C141.372 77.3289 140.889 77.8268 140.557 78.189H140.587ZM140.829 72.4848C140.587 71.685 140.452 71.2926 140.21 70.5079C140.089 70.7494 139.969 70.9908 139.833 71.2322C139.712 71.4586 139.592 71.7001 139.471 71.9566C139.109 72.6659 138.731 73.4053 138.369 74.1749C138.007 74.9294 137.66 75.6991 137.343 76.4536C138.716 74.8238 139.41 74.024 140.829 72.4999V72.4848ZM140.527 77.857C140.859 77.4948 141.312 77.012 141.885 76.4083C141.689 75.6538 141.583 75.2916 141.387 74.5371C140.844 75.2614 140.361 76.0914 139.908 77.0421C139.456 77.9928 139.199 78.7926 139.109 79.4114C139.682 78.7625 140.15 78.2494 140.527 77.8419V77.857ZM139.848 63.8077C139.803 64.0039 139.788 64.1699 139.788 64.3057V64.6829C139.788 65.1055 139.818 65.4978 139.878 65.86C139.939 66.2373 140.029 66.5542 140.15 66.8258C140.195 66.7503 140.24 66.6447 140.301 66.5089C140.361 66.3882 140.437 66.2523 140.512 66.1316C140.965 65.2262 141.402 64.2755 141.84 63.2795C142.278 62.2835 142.64 61.363 142.927 60.4878C141.674 61.7705 141.055 62.4344 139.818 63.8077H139.848ZM143.138 59.9596C143.259 59.4918 143.364 59.0391 143.455 58.6014C143.545 58.1789 143.575 57.8016 143.575 57.4847V57.198C143.575 56.8509 143.47 56.6396 143.258 56.5793C143.047 56.5189 142.715 56.7 142.323 57.1376C141.734 57.7865 141.282 58.6467 140.919 59.5823C140.572 60.533 140.286 61.4234 140.089 62.2684C140.044 62.4646 140.014 62.6608 139.999 62.8268C139.984 63.0079 139.954 63.189 139.908 63.3851C141.191 61.9515 141.84 61.2725 143.138 59.9445V59.9596ZM143.953 74.3409C144.496 73.8128 145.054 73.2695 145.643 72.7262C145.432 72.1528 145.009 71.9566 144.36 72.1226C143.711 72.2886 142.957 72.8168 142.081 73.7222C142.308 74.4918 142.413 74.8691 142.64 75.6538C142.972 75.3218 143.409 74.8691 143.953 74.3409ZM142.821 80.6337C142.821 80.6337 142.926 80.5281 143.002 80.4526V80.3319C143.002 80.3319 142.926 80.4073 142.911 80.4526C142.896 80.4979 142.866 80.528 142.821 80.5733C142.776 80.6186 142.745 80.6639 142.73 80.6941C142.715 80.7393 142.67 80.7695 142.64 80.8148C142.73 80.7242 142.791 80.6639 142.821 80.6186V80.6337ZM144.043 74.6427C143.515 75.1558 143.077 75.5934 142.7 75.9858C142.911 76.4989 143.047 76.9516 143.138 77.3138V77.4345C143.259 77.7665 143.409 78.2645 143.575 78.8983C144.194 77.9778 144.722 77.0119 145.145 76.0009C145.567 74.9898 145.779 74.1447 145.779 73.4657V73.1488C145.779 73.1488 145.733 73.0582 145.718 73.0582C145.25 73.2393 144.571 74.1296 144.058 74.6427H144.043Z" fill="#2952BE"/>
<path d="M150.924 53.2752V52.9281C155.618 49.2309 157.957 47.7973 162.137 46.243C162.137 43.2098 162.137 41.6705 162.137 38.5317C162.333 38.4562 162.439 38.426 162.635 38.3506C162.635 38.426 162.635 38.5015 162.665 38.5769C162.68 38.6524 162.695 38.7278 162.695 38.8033C162.771 39.256 162.876 39.7389 162.997 40.252C163.118 40.7651 163.404 41.248 163.842 41.7158C163.948 41.8365 164.053 41.9572 164.159 42.0779C164.265 42.1836 164.37 42.2892 164.476 42.3798C164.763 42.6514 165.034 42.9079 165.291 43.1494C165.547 43.3757 165.789 43.6323 165.985 43.9039C166.015 43.9794 166.06 44.0397 166.106 44.085C166.151 44.1303 166.196 44.1906 166.241 44.2661C166.302 44.3717 166.392 44.4774 166.468 44.5981C166.558 44.7188 166.619 44.8546 166.649 45.0055C168.264 44.6735 169.033 44.5679 170.542 44.417V44.7792C169.109 44.9301 168.369 45.0206 166.845 45.3224C166.981 45.6544 167.087 45.9864 167.147 46.3486C167.207 46.7108 167.253 47.088 167.253 47.4653V47.9029C167.253 48.0387 167.222 48.1896 167.207 48.3556C167.162 48.6574 167.132 48.9894 167.087 49.2762C167.041 49.578 166.981 49.8647 166.905 50.1514C168.399 49.8798 169.124 49.8043 170.542 49.6987V50.0609C169.063 50.1665 168.309 50.257 166.755 50.5438C166.649 50.9512 166.528 51.3285 166.392 51.6907C166.257 52.0528 166.121 52.3697 165.985 52.6715C165.955 52.7621 165.909 52.8526 165.849 52.9583C165.804 53.0639 165.759 53.1545 165.713 53.245C165.608 53.2601 165.562 53.2752 165.457 53.3053C165.532 53.0941 165.608 52.8828 165.683 52.6414C165.774 52.415 165.849 52.1585 165.909 51.9321C165.97 51.7209 166.045 51.5096 166.121 51.2832C166.196 51.0569 166.257 50.8456 166.332 50.6343C164.898 50.9211 164.159 51.072 162.62 51.6001V56.1273C162.62 56.2179 162.605 56.3235 162.559 56.3989C166 55.2068 167.524 55.1011 170.527 54.9804V55.3879C167.494 55.5086 165.94 55.6142 162.454 56.8366C162.348 57.1384 162.197 57.4402 162.016 57.742C161.835 58.0438 161.609 58.3758 161.337 58.6927C161.126 58.9342 160.869 59.1907 160.598 59.4321C160.326 59.6887 160.054 59.9 159.798 60.1112C159.602 60.2621 159.405 60.4281 159.224 60.5639C159.028 60.6997 158.832 60.8205 158.636 60.911C158.017 61.2279 157.489 61.3487 157.066 61.243C156.644 61.1374 156.433 60.8506 156.433 60.3527C156.433 60.2319 156.433 60.1112 156.463 59.9905C156.478 59.8698 156.508 59.749 156.553 59.6434C154.35 60.9563 153.203 61.741 150.909 63.5368V63.1293C153.279 61.2883 154.456 60.4734 156.734 59.1303C156.855 58.8285 157.006 58.5116 157.217 58.1645C157.413 57.8174 157.67 57.5005 157.866 57.2289C158.062 56.9573 158.289 56.6404 158.545 56.3838C158.802 56.1122 159.058 55.8557 159.33 55.6142C159.526 55.4482 159.722 55.2973 159.903 55.1615C160.1 55.0408 160.281 54.9201 160.477 54.8446C160.824 54.6937 161.141 54.588 161.443 54.5277C161.745 54.4673 161.971 54.5126 162.107 54.6484C162.107 54.0297 162.107 53.5468 162.107 53.1997V51.751C157.927 53.2903 155.587 54.7239 150.894 58.3909V58.0438C155.587 54.3768 157.927 52.9432 162.107 51.4039V46.59C157.927 48.1444 155.587 49.578 150.894 53.2752H150.924ZM170.542 60.247V60.6545C163.797 60.6998 159.707 61.8467 150.924 68.6374V68.2299C159.707 61.4392 163.797 60.3074 170.542 60.247ZM170.542 65.5891V65.9513C163.797 65.8306 159.707 67.0529 150.924 73.7984V73.4513C159.707 66.7058 163.797 65.4986 170.542 65.6042V65.5891ZM165.623 45.2168C165.245 44.7641 164.793 44.4019 164.28 44.1755C163.767 43.9492 163.223 43.9039 162.635 44.0548C162.635 44.8546 162.635 45.247 162.635 46.0468C163.872 45.6242 164.461 45.4733 165.623 45.2017V45.2168ZM162.635 46.409V51.2229C164.219 50.6796 164.974 50.5136 166.438 50.2269C166.468 50.0609 166.513 49.91 166.543 49.744C166.573 49.578 166.604 49.4271 166.649 49.2611C166.649 49.1404 166.649 49.0045 166.679 48.8536C166.694 48.7027 166.709 48.5367 166.709 48.3858V48.0991C166.709 47.9784 166.709 47.8727 166.679 47.752C166.664 47.6464 166.634 47.5257 166.604 47.42C166.528 47.088 166.438 46.756 166.317 46.424C166.196 46.092 166.045 45.7903 165.879 45.5186C164.627 45.8053 163.978 45.9412 162.635 46.409Z" fill="#2952BE"/>
<path d="M170.346 44.7946V44.4325C173.862 44.0552 175.477 44.1306 178.812 44.1005C178.872 44.0552 178.932 44.025 178.993 44.0099C179.053 43.9948 179.114 43.9797 179.174 43.9797C179.234 43.9345 179.295 43.9194 179.355 43.9194C179.415 43.9194 179.476 43.9194 179.536 43.9194C179.597 43.9194 179.672 43.9194 179.747 43.9194C179.823 43.9194 179.913 43.9345 180.004 43.9797C180.064 43.9797 180.14 43.9797 180.215 44.0099C180.291 44.025 180.366 44.0552 180.426 44.1005C182.871 44.0703 184.094 44.0401 186.689 43.7383V44.1306C184.29 44.4173 183.143 44.4325 180.879 44.4777C181.06 44.7343 181.181 45.0059 181.226 45.3379C181.272 45.6548 181.302 46.017 181.302 46.3942C181.302 47.1487 181.03 47.8429 180.593 48.4315C180.155 49.02 179.657 49.4576 179.114 49.7292C182.071 49.8349 183.55 49.9103 186.704 49.6236V50.016C182.554 50.3932 180.698 50.1518 176.805 50.016V55.1619C180.698 55.4486 182.569 55.7957 186.704 55.5391V56.0069C182.554 56.2635 180.698 55.9164 176.805 55.5995V60.685C180.698 61.1528 182.569 61.5905 186.704 61.4547V61.9225C182.554 62.0583 180.698 61.6056 176.805 61.1227V66.2534C176.654 66.2233 176.594 66.2233 176.443 66.1931V61.0774C174.073 60.7907 172.881 60.6548 170.391 60.685V60.2776C172.896 60.2323 174.073 60.3832 176.443 60.6549V55.5844C174.073 55.4033 172.881 55.3128 170.391 55.4184V55.011C172.896 54.8902 174.073 54.9808 176.443 55.1468V50.016C174.073 49.9405 172.881 49.9103 170.391 50.0914V49.7443C172.896 49.5482 174.073 49.5783 176.443 49.6538V47.5562C176.443 46.9375 176.609 46.3489 176.941 45.8057C177.273 45.2473 177.665 44.8248 178.118 44.5381C175.084 44.5381 173.59 44.5079 170.376 44.8399L170.346 44.7946ZM186.674 67.34V67.7323C179.853 67.7927 177.122 66.0271 170.346 65.9516V65.5895C177.107 65.6498 179.853 67.4003 186.674 67.34ZM177.665 46.7564C177.559 46.862 177.469 46.9677 177.408 47.0884C177.257 47.3298 177.137 47.5713 177.046 47.7977C176.956 48.024 176.91 48.2353 176.91 48.4465V48.5069C176.91 48.6729 176.941 48.7785 177.001 48.854C177.061 48.9144 177.152 48.9747 177.273 49.02C177.288 49.02 177.303 49.02 177.318 49.02C177.333 49.02 177.348 49.02 177.363 49.02C177.544 49.02 177.755 48.9747 177.997 48.854C178.238 48.7333 178.48 48.5824 178.721 48.3711C178.842 48.2957 178.963 48.2051 179.068 48.0995C179.174 47.9938 179.28 47.9033 179.37 47.8278C179.521 47.6618 179.687 47.4807 179.853 47.2695C180.019 47.0582 180.17 46.862 180.291 46.696C180.442 46.4546 180.562 46.183 180.653 45.9264C180.743 45.6699 180.804 45.4435 180.789 45.2926C180.789 45.1719 180.713 45.0663 180.653 44.9757C180.592 44.8852 180.517 44.855 180.426 44.855C180.396 44.855 180.366 44.855 180.351 44.855C180.336 44.855 180.291 44.855 180.23 44.855C180.11 44.855 179.959 44.9003 179.793 44.9908C179.627 45.0813 179.431 45.1568 179.265 45.2473C179.144 45.3077 179.023 45.4133 178.917 45.5039C178.812 45.5944 178.706 45.7302 178.616 45.8208C178.51 45.9113 178.329 46.0019 178.223 46.1377C178.118 46.2584 177.997 46.364 177.921 46.4546C177.831 46.5602 177.725 46.696 177.62 46.8017L177.665 46.7564Z" fill="#2952BE"/>
<path d="M206.322 38.0035V38.3959C200.693 40.9462 197.856 41.6252 193.027 42.8627V48.416C197.856 47.1635 200.693 46.424 206.322 43.7681V44.1604C200.693 46.8315 197.856 47.5558 193.027 48.8234C193.027 51.0719 193.027 52.1887 193.027 54.4522C197.856 53.1545 200.693 52.3697 206.322 49.5931V50.0458C197.434 54.4522 193.269 55.6444 186.463 56.0066V55.5388C188.787 55.403 189.964 55.252 192.544 54.573V48.9442C189.979 49.6081 188.787 49.8194 186.463 50.0156V49.6232C188.787 49.4271 189.964 49.2007 192.544 48.5367C192.544 46.2882 192.544 45.1715 192.544 42.9683C189.979 43.6172 188.787 43.8737 186.463 44.1454V43.753C188.787 43.4814 189.964 43.2248 192.544 42.5759V37.2188C191.941 37.3697 191.654 37.4602 191.066 37.5961V37.1433C191.654 37.0075 191.941 36.917 192.544 36.7661V35.1815C192.544 34.6685 192.665 34.1705 192.922 33.6423C193.178 33.1141 193.495 32.6765 193.842 32.2842C194.129 31.9673 194.446 31.6654 194.793 31.3938C195.125 31.1222 195.472 30.8958 195.819 30.7147C195.94 30.6845 196.045 30.6393 196.166 30.594C196.287 30.5487 196.393 30.5035 196.513 30.4733C197.132 30.3073 197.645 30.3375 198.037 30.594C198.43 30.8505 198.626 31.258 198.626 31.8465C198.626 31.9371 198.626 32.0125 198.596 32.1031C198.581 32.1936 198.566 32.2842 198.566 32.3596C198.49 32.752 198.324 33.1594 198.098 33.5668C197.856 33.9743 197.585 34.3667 197.268 34.759C197.072 34.9854 196.875 35.1966 196.649 35.3777C196.438 35.5588 196.242 35.7248 196.045 35.8606C198.173 35.2721 199.305 34.9552 201.584 34.1705V34.6232C197.977 35.8606 196.211 36.2983 193.027 37.0981V42.4552C197.856 41.2329 200.693 40.5538 206.322 38.0035ZM206.322 55.3728V55.8255C197.434 60.413 193.269 61.7259 186.463 61.8919V61.4241C193.254 61.243 197.434 59.9301 206.322 55.3577V55.3728ZM206.322 61.1826V61.5599C197.434 66.3134 193.269 67.7169 186.463 67.732V67.3396C193.254 67.3396 197.434 65.9211 206.322 61.1826Z" fill="#2952BE"/>
<path d="M206.066 38.5161V38.1238C215.467 34.3059 221.126 27.6208 227.389 20V20.3622C224.114 25.3421 222.288 27.3189 218.515 30.6087V30.7898C218.561 31.167 218.621 31.5594 218.727 31.9668C218.832 32.3743 219.028 32.6912 219.3 32.9326C219.375 32.9779 219.466 33.0232 219.542 33.0534C219.617 33.0835 219.707 33.1439 219.783 33.159C219.873 33.1892 220.009 33.1892 220.115 33.2194C220.22 33.2495 220.371 33.2043 220.447 33.2194C220.507 33.2194 220.613 33.2948 220.719 33.325C220.824 33.3552 220.93 33.3552 221.051 33.3703C223.722 30.6389 225.004 29.0694 227.389 25.4477V25.8099C225.14 29.2505 223.918 30.7445 221.413 33.3703C221.564 33.3703 221.714 33.3854 221.85 33.4306C221.986 33.4608 222.122 33.5061 222.228 33.5363C222.65 33.5966 223.012 33.8079 223.269 34.1852C223.54 34.5624 223.676 35.1057 223.676 35.7999V35.9206C225.216 34.0644 225.955 33.0534 227.389 30.8803V31.3028C225.97 33.491 225.216 34.487 223.676 36.3582C223.631 37.1429 223.51 38.0333 223.269 39.0292C223.042 40.0252 222.786 40.9608 222.514 41.8512C222.439 42.1077 222.363 42.3643 222.273 42.6057C222.197 42.8622 222.122 43.0886 222.031 43.2999C224.265 40.8099 225.351 39.4216 227.358 36.3129V36.7355C224.069 41.8059 222.212 43.8733 218.425 47.3894V49.0645C218.425 49.5625 218.304 50.1359 218.063 50.7999C217.821 51.4639 217.474 52.1581 217.021 52.8824C216.78 53.3049 216.508 53.7275 216.222 54.1349C215.935 54.5424 215.618 54.9347 215.286 55.2818C220.447 51.1168 222.997 48.5363 227.374 41.7908V42.153C221.096 50.0755 215.316 57.138 206.051 61.7104V61.3331C208.842 59.8543 210.276 58.9941 213.083 56.9569C212.66 57.0927 212.328 57.0927 212.102 56.9569C211.875 56.821 211.755 56.5494 211.755 56.1269C211.755 55.6591 211.906 55.1007 212.192 54.4367C212.494 53.7727 212.841 53.1389 213.264 52.5353C213.52 52.143 213.777 51.7657 214.049 51.3884C214.32 51.0112 214.607 50.6792 214.894 50.3623C213.053 51.7959 211.574 52.7617 210.472 53.4559C209.37 54.15 207.907 55.0102 206.096 55.9458C206.066 55.7798 206.066 55.6893 206.035 55.5233C210.774 53.1088 213.249 51.5997 217.866 47.4498V42.3341C213.249 46.4085 210.774 47.8723 206.035 50.1812V49.7285C210.774 47.4196 213.249 45.9558 217.866 41.8964V36.7053C213.249 40.6892 210.774 42.0926 206.035 44.311V43.9186C210.774 41.7003 213.249 40.3119 217.866 36.328V31.167C213.249 35.0604 210.774 36.4186 206.035 38.5313L206.066 38.5161ZM222.997 36.7204V36.5393C222.801 35.664 222.288 35.2264 221.443 35.1811C220.598 35.1359 219.662 35.498 218.636 36.2978C218.591 36.328 218.561 36.3582 218.545 36.3733C218.53 36.3884 218.5 36.4186 218.455 36.4487V41.3834C220.311 39.6932 221.232 38.7727 222.997 36.7204ZM218.455 41.821C218.455 43.8733 218.455 44.8844 218.455 46.9367C219.783 45.7144 220.432 45.0655 221.699 43.662C221.775 43.4055 221.85 43.1641 221.941 42.9075C222.016 42.651 222.092 42.4095 222.182 42.153C222.379 41.3985 222.575 40.5836 222.771 39.7083C222.967 38.8331 223.058 38.0332 223.058 37.3391V37.0976C221.277 39.1802 220.341 40.1158 218.47 41.821H218.455Z" fill="#2952BE"/>
<path d="M54.4046 213.386C68.2578 221.384 90.773 221.339 104.702 213.296C118.63 205.252 118.706 192.244 104.868 184.261C91.0144 176.263 68.4993 176.309 54.5707 184.352C40.6421 192.395 40.5665 205.403 54.4046 213.386Z" fill="#E3E3E3" fill-opacity="0.5"/>
<path d="M46.4674 186.389C46.4674 187.264 45.7581 187.974 44.8828 187.974C44.0076 187.974 43.2983 187.264 43.2983 186.389C43.2983 185.514 44.0076 184.805 44.8828 184.805C45.7581 184.805 46.4674 185.514 46.4674 186.389Z" fill="#202020"/>
<path d="M53.2431 210.096C53.2431 210.972 52.5338 211.681 51.6586 211.681C50.7833 211.681 50.074 210.972 50.074 210.096C50.074 209.221 50.7833 208.512 51.6586 208.512C52.5338 208.512 53.2431 209.221 53.2431 210.096Z" fill="#202020"/>
<path d="M94.3951 214.156C94.3951 215.031 93.6858 215.74 92.8106 215.74C91.9353 215.74 91.2261 215.031 91.2261 214.156C91.2261 213.281 91.9353 212.571 92.8106 212.571C93.6858 212.571 94.3951 213.281 94.3951 214.156Z" fill="#202020"/>
<path d="M112.957 192.501C112.957 193.376 112.247 194.085 111.372 194.085C110.497 194.085 109.788 193.376 109.788 192.501C109.788 191.625 110.497 190.916 111.372 190.916C112.247 190.916 112.957 191.625 112.957 192.501Z" fill="#202020"/>
<path d="M83.7108 175.659C83.7108 176.534 83.0016 177.243 82.1263 177.243C81.2511 177.243 80.5417 176.534 80.5417 175.659C80.5417 174.783 81.2511 174.074 82.1263 174.074C83.0016 174.074 83.7108 174.783 83.7108 175.659Z" fill="#202020"/>
<path d="M51.1605 209.704L50.2852 209.191L49.591 208.753V207.516L72.3024 192.32L42.8909 185.091V183.854L74.4604 189.92L83.062 172.083V173.32L82.9865 173.939L79.1988 190.373H112.896V191.625L79.9534 195.051L94.1838 211.711V212.948L92.1767 213.522L91.6033 212.994L75.6978 196.303L51.1605 209.719V209.704Z" fill="#ACACAC"/>
<path d="M51.1605 208.482L50.2852 207.969L49.591 207.532L50.2701 207.079L72.3024 189.83L42.8909 183.87L43.9471 182.693L74.4604 187.371L80.8437 171.888L83.077 172.099L83.0016 172.718L79.2139 187.808L112.549 189.076L112.911 190.389L79.9684 190.54L94.1989 211.697L92.1918 212.27L91.6184 211.742L75.7129 191.777L51.1756 208.467L51.1605 208.482Z" fill="#CECECE"/>
<path d="M91.8145 211.274L75.7581 191.128L51.1453 207.863L50.421 207.456L50.1343 207.275L50.421 207.079L73.0116 189.408L43.4792 183.432L44.0678 182.768L74.6414 187.461L81.0247 171.963L82.7148 172.129L82.6847 172.431L78.8064 187.853L112.292 189.121L112.504 189.845L79.3798 189.981L93.7008 211.274L92.2672 211.681L91.8145 211.274Z" fill="#DFDFDF"/>
<path d="M80.4817 189.708V173.667H72.2725V189.708C72.2725 190.312 72.6799 190.916 73.4797 191.383C75.0944 192.319 77.69 192.319 79.2896 191.383C80.0894 190.916 80.4817 190.312 80.4817 189.708Z" fill="url(#paint0_linear_29_4782)"/>
<path d="M79.2895 175.342C77.6899 176.263 75.0942 176.263 73.4795 175.342C71.8648 174.407 71.8648 172.913 73.4644 171.992C75.064 171.072 77.6597 171.072 79.2744 171.992C80.889 172.928 80.8891 174.422 79.2895 175.342Z" fill="#A9A9A9"/>
<path d="M79.3648 173.321V151.349H73.3889V173.321C73.3889 173.758 73.6908 174.196 74.2642 174.543C75.4413 175.222 77.3276 175.222 78.4895 174.543C79.0781 174.211 79.3648 173.758 79.3648 173.321Z" fill="url(#paint1_linear_29_4782)"/>
<path d="M78.1876 157.264C77.1916 157.837 75.5619 157.837 74.5508 157.264C73.5397 156.675 73.5397 155.74 74.5508 155.166C75.5468 154.593 77.1765 154.593 78.1876 155.166C79.1986 155.755 79.1986 156.691 78.1876 157.264Z" fill="#464646"/>
<path d="M47.3123 132.893H105.124V141.902C105.17 146.187 102.378 150.473 96.734 153.748C85.4764 160.237 67.1714 160.207 55.8535 153.672C50.2096 150.413 47.3725 146.157 47.3273 141.902V132.893H47.3123Z" fill="#686868"/>
<path d="M96.7188 144.739C85.4612 151.243 67.1562 151.198 55.8383 144.663C44.5052 138.129 44.46 127.566 55.7025 121.062C66.9601 114.558 85.2649 114.603 96.5829 121.137C107.901 127.671 107.961 138.235 96.7188 144.739Z" fill="#767676"/>
<path d="M95.7982 143.441C85.0536 149.643 67.5787 149.613 56.7587 143.365C45.9387 137.118 45.8935 127.037 56.638 120.835C67.3825 114.633 84.8574 114.663 95.6774 120.911C106.497 127.158 106.543 137.239 95.7982 143.441Z" fill="#898989"/>
<path d="M115.22 67.2344C116.17 68.4114 124.802 78.6127 123.655 81.4346C122.508 84.2566 120.562 84.2867 118.494 85.4336C116.427 86.5654 110.481 80.0312 108.957 77.1791C107.433 74.3269 115.22 67.2495 115.22 67.2495V67.2344Z" fill="#BEBEBE"/>
<path d="M101.819 52.0069C103.856 52.6709 118.298 68.3953 119.053 69.6025C119.807 70.8098 117.83 77.4195 114.375 78.8229C110.919 80.2263 109.696 79.7887 108.942 79.2303C108.187 78.672 98.3634 67.3389 97.126 64.683C95.8885 62.0271 91.3765 48.6266 101.819 52.0069Z" fill="#EEEEEE"/>
<path d="M100.823 195.896C100.099 195.323 97.3828 196.334 96.9301 196.651C96.4925 196.968 95.8586 200.831 95.9794 202.023C96.1001 203.215 99.9029 206.309 100.808 207.003C101.714 207.697 102.604 207.26 103.042 208.588C103.479 209.916 107.901 215.801 110.24 218.381C112.579 220.962 122.041 219.951 124.259 218.819C126.477 217.687 125.527 215.288 125.527 214.714C125.527 214.141 119.928 208.256 119.928 208.256L100.823 195.896Z" fill="#323232"/>
<path d="M114.48 195.46C115.189 197.044 122.373 208.211 123.625 210.988C124.893 213.765 124.893 215.787 124.893 216.043C124.893 216.3 124.636 217.492 121.86 218.186C119.083 218.88 114.722 217.613 113.711 216.798C112.7 215.983 105.637 208.981 103.992 206.928C102.347 204.876 97.8051 200.741 98.0013 197.723C98.1975 194.705 101.412 191.808 101.593 190.284C101.789 188.774 103.992 185.741 104.626 185.681C105.26 185.621 114.465 195.46 114.465 195.46H114.48Z" fill="#484848"/>
<path d="M89.7471 114.18C90.9091 116.444 90.5318 120.518 90.8185 122.028C91.1052 123.537 103.223 131.58 107.765 138.114C112.308 144.648 117.046 148.904 110.889 153.823C104.732 158.743 82.5791 146.821 73.1173 143.32C63.6555 139.819 56.8647 131.957 57.1213 119.779C57.3627 107.601 61.5277 104.688 62.0257 104.507C62.5237 104.326 89.7623 114.18 89.7623 114.18H89.7471Z" fill="#282828"/>
<path d="M98.8618 150.233C98.8618 150.897 100.944 162.351 99.9031 167.844C98.8618 173.337 98.9675 188.578 99.5258 191.792C100.084 195.007 101.895 195.867 101.895 195.867C101.895 195.867 115.477 199.172 116.216 196.953C116.955 194.735 123.867 145.887 123.097 140.68C122.328 135.474 110.316 134.056 110.316 134.056L98.8618 150.248V150.233Z" fill="#282828"/>
<path d="M97.0055 103.874C97.579 104.191 121.015 119.507 124.395 122.812C127.775 126.117 126.553 133.783 122.056 136.877C117.544 139.97 111.025 141.162 106.015 135.986C101.005 130.81 89.1433 122.194 86.1554 118.345C83.1675 114.497 85.6725 103.361 86.8194 102.712C87.9663 102.078 97.0055 103.874 97.0055 103.874Z" fill="#2C2C2C"/>
<path d="M116.502 197.164C115.748 198.024 116.427 200.605 116.744 201.465C117.061 202.325 118.977 204.438 120.547 204.981C122.101 205.524 124.621 204.754 125.798 205.071C126.975 205.388 133.343 208.95 136.241 210.172C139.138 211.394 144.782 210.413 147.906 208.15C151.03 205.886 150.607 204.377 150.607 203.26C150.607 202.144 147.981 199.88 147.272 199.443C146.563 199.005 133.389 196.771 133.389 196.771L116.502 197.164Z" fill="#323232"/>
<path d="M116.125 194.795C116.125 194.795 114.662 198.478 117.076 200.319C119.491 202.175 123.203 201.224 125.678 202.733C128.153 204.242 134.657 207.502 138.671 209.026C142.685 210.55 148.947 206.144 149.793 203.699C150.638 201.254 148.117 197.15 148.117 197.15C148.117 197.15 132.076 188.684 129.209 187.054C126.342 185.424 121.437 182.617 121.075 182.18C120.728 181.742 116.125 194.795 116.125 194.795Z" fill="#484848"/>
<path d="M119.355 122.45C120.351 122.677 123.354 121.379 125.316 124.035C127.277 126.691 133.464 183.009 133.389 189.347C128.394 192.32 117.136 194.055 115.703 189.785C114.284 185.499 107.554 151.092 106.935 142.083C106.316 133.074 106.09 126.404 106.286 125.604C106.482 124.804 119.34 122.45 119.34 122.45H119.355Z" fill="#2C2C2C"/>
<path d="M88.962 52.4917C97.6693 54.0611 98.786 50.2734 99.6311 52.2352C104.49 63.5682 101.291 75.2785 100.416 80.1679C99.5406 85.0572 99.3896 89.2977 99.284 92.18C99.1784 95.0623 100.129 101.853 99.9329 105.309C99.7367 108.765 95.8584 112.93 87.7246 114.68C79.5756 116.431 66.6581 121.018 61.5424 121.169C56.4267 121.305 57.0454 121.924 56.8493 121.169C56.6531 120.414 55.2798 105.641 55.3854 99.1065C55.476 92.5723 56.5625 61.6064 58.313 58.4374C60.0635 55.2684 80.5264 49.0661 81.2356 48.7794C81.9449 48.4927 88.9469 52.4766 88.9469 52.4766L88.962 52.4917Z" fill="#E5E5E5"/>
<path d="M88.7657 58.8735C88.0112 60.8654 87.3472 62.9932 81.6128 62.7518C75.8784 62.5103 70.7325 56.2628 72.0001 53.7125C73.2828 51.1622 75.6973 51.0264 77.0253 48.7779C78.3533 46.5143 77.5535 39.6632 79.8623 37.5806C82.1863 35.4981 91.0746 46.0012 91.4066 50.4529C91.7386 54.9047 88.7506 58.8735 88.7506 58.8735H88.7657Z" fill="#BEBEBE"/>
<path d="M82.3676 42.5905C80.5869 46.7555 77.5386 52.0523 77.5386 54.4366C77.5386 56.821 83.0316 64.2455 84.2539 65.3622C85.4762 66.4789 88.268 65.9659 89.1281 65.3622C89.9883 64.7586 93.595 61.8763 96.1453 58.6017C98.6956 55.327 100.416 54.995 102.197 49.9095C103.977 44.8239 103.932 40.508 102.197 38.3199C100.461 36.1318 89.5356 33.9436 87.5588 35.5734C85.5819 37.2032 82.3676 42.5905 82.3676 42.5905Z" fill="#BEBEBE"/>
<path d="M100.461 49.4573C93.0518 50.5288 88.1323 46.7109 88.1323 46.7109C88.1323 46.7109 87.2419 48.6726 86.1101 48.9895C84.9934 49.3064 83.3636 49.0499 82.9109 49.563C82.4582 50.0761 80.934 50.891 80.934 50.891L79.8627 49.2612C79.8627 49.2612 81.2812 45.5942 80.6775 44.5378C80.0739 43.4664 78.8516 42.908 78.4894 44.0247C78.1272 45.1414 78.2177 48.069 76.2107 48.5368C75.6825 41.2783 76.3164 39.7541 76.8294 36.9925C77.3576 34.2309 79.1383 30.9261 82.8053 28.4965C86.4723 26.0669 96.1454 24.8144 100.491 27.8778C104.838 30.9412 105.351 35.0006 105.622 38.3507C105.894 41.7008 105.426 45.7451 104.717 47.0127C104.008 48.2803 102.514 48.899 102.514 48.899L100.446 49.4724L100.461 49.4573Z" fill="#323232"/>
<path d="M79.6667 46.5599C79.9232 45.9563 81.0851 43.919 79.3044 42.9532C77.5237 41.9874 76.5127 42.4552 76.3014 44.3717C76.0902 46.3033 75.5771 48.4613 76.8296 49.8195C78.0822 51.1776 78.9725 49.1857 78.9725 49.1857L79.6667 46.5448V46.5599Z" fill="#BEBEBE"/>
<path d="M62.2219 81.2979C61.5428 86.2023 56.6685 94.7285 55.5518 97.9126C54.4351 101.097 43.6302 100.659 44.4602 95.4529C45.2902 90.2617 48.595 86.4438 50.1192 81.0111C51.6433 75.5634 62.2369 81.2979 62.2369 81.2979H62.2219Z" fill="#BEBEBE"/>
<path d="M50.0436 95.4526C53.2126 96.8409 54.5405 96.9164 55.5365 99.9496C56.5325 102.983 57.4229 112.128 57.6945 116.579C57.9662 121.031 53.1824 121.378 51.5224 121.182C49.8625 120.986 43.4943 105.186 43.9168 100.01C44.3393 94.8339 44.2789 95.0602 45.5616 94.5019C46.8292 93.9435 50.0436 95.4677 50.0436 95.4677V95.4526Z" fill="#BEBEBE"/>
<path d="M59.6109 57.4702C65.1189 57.0628 67.2618 66.1775 66.5073 71.3234C65.7377 76.4542 62.9912 88.8134 61.799 88.9794C54.4046 90.0508 51.9298 87.908 49.9227 86.6404C46.8443 84.6937 47.3422 82.5206 47.9911 80.3476C48.3834 79.0196 55.8533 57.6513 59.6109 57.4702Z" fill="#EEEEEE"/>
<path d="M87.1663 104.129C87.1663 107.706 89.6864 109.155 92.8101 107.344C95.9339 105.548 98.454 101.187 98.454 97.6103C98.454 94.0338 95.9339 92.5851 92.8101 94.396C89.6864 96.2068 87.1663 100.553 87.1663 104.129Z" fill="#2952BE"/>
<path d="M104.309 91.6351C104.053 91.786 103.827 92.1482 103.796 92.4802L103.615 94.0345L103.57 94.5174L103.464 95.3625L103.419 95.8454L103.313 96.7055L103.268 97.1884L103.162 98.0335L103.102 98.5164L102.921 100.071C102.876 100.433 103.072 100.644 103.359 100.523L103.63 100.418C103.63 100.418 103.676 100.403 103.706 100.388C103.962 100.237 104.189 99.8746 104.234 99.5426L105.094 91.952C105.139 91.5747 104.943 91.3635 104.657 91.4842L104.385 91.6049C104.385 91.6049 104.34 91.62 104.309 91.6351Z" fill="#2F57C0"/>
<path d="M98.8014 99.0301C98.741 99.3319 98.6655 99.6186 98.5901 99.9355L103.162 98.0492L103.268 97.2041L98.8165 99.0452L98.8014 99.0301Z" fill="#6B88D2"/>
<path d="M98.1826 99.2859C98.1222 99.5877 98.0468 99.8894 97.9563 100.191L98.575 99.9347C98.6655 99.6329 98.7259 99.3311 98.7863 99.0293L98.1826 99.2708V99.2859Z" fill="#2F57C0"/>
<path d="M98.9824 97.6854C98.9824 97.8212 98.9522 97.957 98.9522 98.0928C98.9371 98.2437 98.9069 98.3795 98.8918 98.5304L103.313 96.7196L103.419 95.8594L98.9975 97.6854H98.9824Z" fill="#6B88D2"/>
<path d="M98.3789 97.9274C98.3789 98.0632 98.3488 98.1991 98.3488 98.3349C98.3337 98.4858 98.3034 98.6367 98.2883 98.7725L98.892 98.516C98.9222 98.3651 98.9372 98.2292 98.9523 98.0783C98.9523 97.9425 98.9825 97.8067 98.9825 97.6709L98.3789 97.9124V97.9274Z" fill="#2F57C0"/>
<path d="M98.9824 96.4035C98.9975 96.5997 98.9974 96.7958 99.0125 96.992C99.0125 97.0675 99.0125 97.1278 99.0125 97.2033L103.464 95.3773L103.57 94.5322L98.9975 96.4186L98.9824 96.4035Z" fill="#6B88D2"/>
<path d="M96.9452 99.7826C96.8698 100.1 96.7792 100.401 96.6736 100.703L97.9714 100.175C98.062 99.8732 98.1374 99.5713 98.1977 99.2695L96.9603 99.7826H96.9452Z" fill="#6B88D2"/>
<path d="M98.3636 96.6598C98.3787 96.8862 98.3939 97.1126 98.3939 97.354C98.3939 97.3842 98.3939 97.4295 98.3939 97.4596L98.9975 97.2031C98.9975 97.2031 98.9975 97.0673 98.9975 96.9918C98.9975 96.7806 98.9975 96.5844 98.9673 96.4033L98.3486 96.6598H98.3636Z" fill="#2F57C0"/>
<path d="M97.1413 98.4404C97.1413 98.5762 97.1263 98.712 97.1112 98.8629C97.1112 98.9987 97.0659 99.1496 97.0508 99.3005L98.2882 98.7875C98.3184 98.6516 98.3336 98.5007 98.3486 98.3498C98.3486 98.214 98.3788 98.0782 98.3788 97.9424L97.1413 98.4555V98.4404Z" fill="#6B88D2"/>
<path d="M97.0659 97.203C97.1112 97.4444 97.1414 97.701 97.1414 97.9877L98.3939 97.4746C98.3939 97.4746 98.3939 97.3991 98.3939 97.369C98.3939 97.1275 98.3939 96.9012 98.3637 96.6748L97.0659 97.203Z" fill="#6B88D2"/>
<path d="M87.8303 104.824C88.2529 107.193 89.9883 108.31 92.2821 107.359C92.5235 107.253 92.7649 107.133 93.0064 106.997C95.0285 105.835 96.8545 103.375 97.7751 100.734L96.4471 101.278C95.6926 103.073 94.4098 104.673 93.0215 105.488C92.8404 105.594 92.6442 105.684 92.4631 105.76C90.8635 106.424 89.611 105.76 89.1583 104.281L87.8303 104.824Z" fill="#6B88D2"/>
<path d="M93.1121 94.0495C93.1121 94.0495 92.9913 94.1249 92.9159 94.1702C90.9692 95.3774 89.2187 97.7618 88.3284 100.342L89.6563 99.799C89.8223 99.4067 90.0034 99.0143 90.2147 98.6521C90.9089 97.4449 91.8294 96.3885 92.8253 95.7396C92.9159 95.6793 93.0064 95.634 93.0819 95.5736C93.2629 95.468 93.4591 95.3774 93.6402 95.302C95.2549 94.638 96.5074 95.302 96.945 96.796L98.273 96.2527C97.8656 93.8684 96.1151 92.7668 93.8214 93.7175C93.595 93.808 93.3686 93.9288 93.1423 94.0495C93.1423 94.0495 93.112 94.0646 93.097 94.0797L93.1121 94.0495Z" fill="#6B88D2"/>
<path d="M87.1965 105.08C87.5889 107.886 89.5658 109.214 92.2066 108.128C92.4783 108.022 92.7498 107.886 93.0064 107.736C95.3303 106.392 97.4431 103.51 98.4239 100.462L97.7901 100.734C96.8695 103.374 95.0436 105.834 93.0215 106.996C92.78 107.132 92.5386 107.253 92.2972 107.358C90.0034 108.309 88.2529 107.192 87.8454 104.823L87.2116 105.08H87.1965Z" fill="#2F57C0"/>
<path d="M87.74 103.586C87.74 103.586 87.74 103.661 87.74 103.692C87.74 103.933 87.7551 104.159 87.7702 104.386L89.0528 103.858C89.0076 103.616 88.9774 103.36 88.9774 103.088L87.7249 103.601L87.74 103.586Z" fill="#6B88D2"/>
<path d="M87.1213 103.828C87.1213 104.115 87.1213 104.371 87.1364 104.628L87.7551 104.371C87.74 104.145 87.7249 103.918 87.7249 103.677C87.7249 103.647 87.7249 103.601 87.7249 103.571L87.1213 103.813V103.828Z" fill="#2F57C0"/>
<path d="M87.8457 102.274C87.8306 102.41 87.8004 102.545 87.7853 102.696C87.7853 102.832 87.7551 102.983 87.7551 103.119L88.9926 102.606C88.9926 102.47 89.0076 102.334 89.0227 102.183C89.0227 102.047 89.068 101.897 89.0831 101.761L87.8457 102.274Z" fill="#6B88D2"/>
<path d="M87.2417 102.515C87.2266 102.651 87.1964 102.787 87.1813 102.938C87.1813 103.074 87.1511 103.225 87.1511 103.36L87.7548 103.104C87.7548 102.968 87.785 102.817 87.785 102.681C87.8001 102.53 87.8302 102.395 87.8453 102.259L87.2417 102.5V102.515Z" fill="#2F57C0"/>
<path d="M88.1775 100.854C88.0869 101.156 88.0115 101.458 87.9512 101.76L89.1886 101.247C89.2641 100.945 89.3546 100.628 89.4602 100.326L88.1775 100.854Z" fill="#6B88D2"/>
<path d="M87.5438 101.127C87.4684 101.429 87.3929 101.716 87.3325 102.017L87.9362 101.761C87.9965 101.459 88.072 101.157 88.1626 100.855L87.5438 101.112V101.127Z" fill="#2F57C0"/>
<path d="M93.1273 93.2947C90.8033 94.6378 88.6906 97.52 87.7097 100.583L88.3436 100.327C89.2339 97.7615 90.9844 95.3772 92.9311 94.1548C92.9915 94.1096 93.0518 94.0794 93.1273 94.0341C93.1273 94.0341 93.1574 94.019 93.1725 94.004C93.3989 93.8681 93.6252 93.7625 93.8516 93.672C96.1605 92.7213 97.8959 93.8379 98.3033 96.2072L98.9371 95.9355C98.5448 93.1438 96.5679 91.7856 93.927 92.8722C93.6554 92.9778 93.3838 93.1136 93.1273 93.2645V93.2947Z" fill="#2F57C0"/>
<path d="M82.8354 106.409L87.1513 104.628C87.1362 104.371 87.1211 104.115 87.1362 103.828L82.9411 105.564L82.8958 105.926L82.8354 106.409Z" fill="#6B88D2"/>
<path d="M83.0918 104.235L83.0012 105.08L87.1662 103.374C87.1662 103.239 87.1965 103.088 87.1965 102.952C87.2115 102.801 87.2417 102.665 87.2568 102.529L83.0918 104.235Z" fill="#6B88D2"/>
<path d="M74.7317 111.569L67.2618 107.223C67.8956 107.585 68.0012 108.702 65.7528 115.87C65.0284 118.163 65.3453 119.476 66.1903 119.959L73.6602 124.305C72.8151 123.807 72.4983 122.509 73.2226 120.216C75.4711 113.048 75.3504 111.931 74.7317 111.569Z" fill="#4568C6"/>
<path d="M27.2721 129.241C27.091 129.347 26.9401 129.588 26.91 129.829C26.8798 130.086 27.0156 130.222 27.2118 130.146C27.2269 130.146 27.2419 130.131 27.257 130.116C27.3626 130.056 27.4683 129.935 27.5437 129.799C27.589 129.709 27.6041 129.633 27.6192 129.543C27.6192 129.513 27.6192 129.497 27.6192 129.482C27.6192 129.422 27.6192 129.362 27.5891 129.331C27.5438 129.226 27.4381 129.181 27.3023 129.241C27.2872 129.241 27.2721 129.256 27.257 129.271L27.2721 129.241Z" fill="#ACBCE6"/>
<path d="M25.2799 128.787C25.0988 128.893 24.948 129.134 24.9178 129.376C24.8876 129.632 25.0234 129.768 25.2196 129.693C25.2347 129.693 25.2497 129.678 25.2648 129.662C25.3705 129.602 25.4761 129.481 25.5516 129.346C25.5968 129.255 25.6271 129.165 25.6271 129.074C25.6271 129.059 25.6271 129.029 25.6271 129.014C25.6271 128.953 25.627 128.893 25.5969 128.863C25.5516 128.757 25.446 128.712 25.3101 128.772C25.2951 128.772 25.2799 128.772 25.2648 128.802L25.2799 128.787Z" fill="#ACBCE6"/>
<path d="M23.288 128.35C23.1069 128.455 22.956 128.697 22.9258 128.938C22.8956 129.195 23.0315 129.331 23.2277 129.255C23.2427 129.255 23.2579 129.255 23.273 129.225C23.3786 129.165 23.4842 129.044 23.5596 128.908C23.6049 128.818 23.6351 128.727 23.6351 128.636C23.6351 128.621 23.6351 128.591 23.6351 128.576C23.6351 128.516 23.6351 128.47 23.6049 128.425C23.5597 128.32 23.454 128.274 23.3182 128.335C23.3031 128.335 23.2881 128.35 23.273 128.365L23.288 128.35Z" fill="#ACBCE6"/>
<path d="M29.0828 126.162L83.1373 103.738L83.1825 103.36L83.2278 102.893L29.2185 125.287C29.1582 125.559 29.128 125.845 29.0828 126.147V126.162Z" fill="#2F57C0"/>
<path d="M83.1372 103.722V103.752L87.3323 102.032C87.3927 101.73 87.4682 101.428 87.5436 101.142L83.2277 102.907L83.1372 103.737V103.722Z" fill="#6B88D2"/>
<path d="M78.5952 91.4529C76.8748 92.4488 75.2601 94.0937 74.1434 96.0253C72.5891 98.7416 71.744 102.394 72.2722 105.698L72.906 105.427C72.3476 102.303 73.1173 98.8473 74.566 96.312C75.562 94.5766 77.0106 93.0977 78.5649 92.2074C78.8818 92.0263 79.1988 91.8603 79.5308 91.7396C80.2702 91.4378 80.9644 91.2869 81.5982 91.3019C82.8356 91.3019 83.409 91.6339 83.9523 91.9357C84.7974 92.4186 85.6726 92.9015 88.2682 91.8452C89.0227 91.5283 89.7169 91.1963 90.3507 90.819C92.9312 89.3251 94.6817 87.4237 96.402 85.5524C98.0771 83.7265 99.7823 81.8552 102.529 80.2858C103.298 79.8482 104.128 79.4257 105.079 79.0484C113.334 75.653 116.035 83.4548 115.039 92.147C114.36 98.138 112.489 103.722 109.621 108.279C107.463 111.72 104.807 114.406 102.031 116.02C101.472 116.337 100.929 116.609 100.356 116.85C95.8135 118.722 93.7009 117.756 91.6486 116.85C90.5017 116.337 89.4302 115.854 87.9966 115.809C86.6535 115.779 85.4463 115.99 84.2843 116.458C83.8769 116.624 83.4996 116.82 83.1223 117.031C81.4171 118.012 79.9533 119.506 78.233 121.227C77.7501 121.709 77.2521 122.102 76.739 122.389C76.5429 122.509 76.3467 122.6 76.1505 122.675C75.23 123.053 74.5056 122.977 74.2038 122.479C73.9473 122.041 73.9774 121.287 74.3245 120.2C76.0146 114.843 76.6032 112.248 76.241 110.935L75.5317 111.206C75.9995 112.082 75.6525 114.194 73.7661 120.216C73.3436 121.559 73.3134 122.539 73.6605 123.143C74.0529 123.792 74.9583 123.928 76.0599 123.46C76.2712 123.369 76.4825 123.264 76.7088 123.143C77.2974 122.811 77.901 122.328 78.5197 121.694C80.0891 120.095 81.4925 118.676 83.1072 117.756C83.4543 117.56 83.8014 117.378 84.1787 117.228C85.2652 116.79 86.412 116.579 87.6947 116.609C89.0529 116.654 90.1093 117.122 91.226 117.62C93.3387 118.571 95.5268 119.567 100.25 117.62C100.839 117.379 101.427 117.092 102.001 116.745C104.928 115.055 107.705 112.233 109.984 108.611C112.956 103.857 114.903 98.0776 115.612 91.8905C116.638 82.821 113.802 74.6872 105.14 78.2486C104.159 78.656 103.298 79.0786 102.499 79.5464C99.6617 81.1912 97.8809 83.1228 96.1455 85.0243C94.5006 86.82 92.8105 88.6611 90.3206 90.0947C89.7019 90.4418 89.053 90.7738 88.3286 91.0756C85.9292 92.0565 85.2048 91.649 84.3447 91.1661C83.7561 90.8341 83.1526 90.5021 81.8397 90.487C81.1455 90.487 80.3909 90.638 79.5911 90.97C79.244 91.1058 78.8969 91.2869 78.5649 91.483L78.5952 91.4529Z" fill="#2F57C0"/>
<path d="M74.5658 96.3133C73.1171 98.8485 72.3474 102.304 72.9058 105.428L83.4692 100.886L83.2881 102.41L87.6945 100.584C88.6754 97.5205 90.7881 94.6382 93.1121 93.2951C93.3837 93.1442 93.6403 93.0084 93.9119 92.9028C96.5528 91.8162 98.5296 93.1593 98.9219 95.9662L98.2881 96.2378L98.9219 95.9813L103.585 94.0497L103.766 92.4953C103.811 92.1482 104.023 91.7861 104.279 91.6503L104.626 91.4993C104.913 91.3786 105.109 91.5899 105.064 91.9672L104.204 99.5577C104.158 99.8897 103.947 100.252 103.676 100.403L103.328 100.554C103.042 100.674 102.845 100.463 102.891 100.101L103.072 98.5466L98.4089 100.463C97.428 103.527 95.3153 106.394 92.9913 107.737C92.7197 107.888 92.4632 108.024 92.1916 108.129C89.5507 109.216 87.5738 107.873 87.1815 105.081L82.7751 106.892L82.594 108.416L76.2257 110.921C76.5879 112.219 75.9993 114.814 74.3092 120.187C73.9621 121.273 73.932 122.028 74.1885 122.465C74.5054 122.963 75.2297 123.039 76.1352 122.661C76.3313 122.586 76.5275 122.48 76.7237 122.375C77.2217 122.088 77.7348 121.681 78.2177 121.213C79.938 119.477 81.4018 117.998 83.107 117.018C83.4843 116.806 83.8616 116.61 84.269 116.444C85.431 115.976 86.6382 115.75 87.9812 115.795C89.4149 115.825 90.4864 116.323 91.6332 116.836C93.6856 117.757 95.8133 118.723 100.34 116.836C100.899 116.61 101.457 116.323 102.016 116.006C104.792 114.407 107.448 111.721 109.606 108.265C112.458 103.708 114.345 98.1241 115.024 92.1331C116.005 83.4409 113.318 75.624 105.064 79.0345C104.128 79.4269 103.283 79.8343 102.513 80.2719C99.7821 81.8565 98.0618 83.7277 96.3867 85.5385C94.6815 87.3947 92.9159 89.3112 90.3354 90.8051C89.7016 91.1824 89.0075 91.5144 88.253 91.8313C85.6574 92.9028 84.7821 92.4048 83.937 91.9219C83.3937 91.6201 82.8203 91.2881 81.5828 91.2881C80.949 91.2881 80.2549 91.4239 79.5154 91.7257C79.1985 91.8615 78.8665 92.0124 78.5496 92.1935C76.9953 93.0989 75.5467 94.5627 74.5507 96.2981L74.5658 96.3133Z" fill="#6B88D2"/>
<path d="M73.7207 95.7397L66.2508 91.3936C64.6663 94.1551 63.6402 98.0485 64.1532 101.64L71.6231 105.986C71.11 102.395 72.1362 98.5012 73.7207 95.7397Z" fill="#4568C6"/>
<path d="M64.1531 101.64C64.4247 104.537 67.2617 107.223 67.2617 107.223L69.0575 104.492L64.1531 101.64Z" fill="#4568C6"/>
<path d="M112.262 77.3439L104.792 72.9978C103.042 71.9867 100.718 71.8962 97.7601 73.1035C96.749 73.526 95.8436 73.9636 95.0287 74.4314C92.1917 76.0763 90.3657 78.0079 88.6453 79.8791C86.925 81.7503 85.3104 83.5612 82.8657 84.9646C82.2772 85.2966 81.6433 85.6135 80.9492 85.9002C77.1765 87.4546 78.0216 85.3118 74.6413 85.2816C73.9019 85.2665 73.0719 85.4476 72.2117 85.7946C71.8345 85.9456 71.4572 86.1417 71.08 86.353C69.2993 87.3792 67.5336 89.0995 66.2358 91.3631L73.7057 95.7091C75.0035 93.4455 76.7841 91.7253 78.5497 90.6991C78.927 90.4727 79.3043 90.2917 79.6815 90.1407C80.5266 89.7937 81.3566 89.6125 82.1112 89.6276C85.4915 89.6578 84.6464 91.8007 88.419 90.2463C89.1132 89.9596 89.7469 89.6427 90.3355 89.3107C92.7651 87.9073 94.3949 86.0964 96.1152 84.2252C97.8355 82.354 99.6616 80.4224 102.499 78.7775C103.313 78.3097 104.219 77.857 105.23 77.4496C108.188 76.2423 110.512 76.3177 112.262 77.3439Z" fill="#4568C6"/>
<path d="M73.7208 95.7397C72.1363 98.5012 71.1101 102.38 71.6232 105.986L72.2721 105.699C71.7439 102.38 72.589 98.7276 74.1433 96.0264C75.26 94.0948 76.8747 92.4499 78.5951 91.4539C78.9421 91.2578 79.2741 91.0918 79.6212 90.9409C80.421 90.6089 81.1755 90.4429 81.8697 90.4579C83.1826 90.473 83.7862 90.805 84.3748 91.137C85.2199 91.6048 85.9592 92.0273 88.3586 91.0465C89.083 90.7446 89.7319 90.4278 90.3506 90.0656C92.8255 88.632 94.5308 86.7909 96.1756 84.9952C97.9111 83.1088 99.6917 81.1621 102.529 79.5173C103.313 79.0645 104.189 78.6269 105.17 78.2194C113.832 74.6581 116.684 82.7919 115.642 91.8614C114.933 98.0485 112.987 103.843 110.014 108.582C107.735 112.203 104.958 115.041 102.031 116.716C101.442 117.048 100.869 117.334 100.28 117.591C95.572 119.537 93.3688 118.542 91.2561 117.591C90.1394 117.093 89.083 116.625 87.7248 116.58C86.4421 116.55 85.2952 116.761 84.2087 117.198C83.8465 117.349 83.4844 117.53 83.1373 117.727C81.5226 118.662 80.1192 120.081 78.5497 121.665C77.931 122.299 77.3275 122.767 76.7389 123.114C76.5277 123.235 76.3013 123.34 76.0901 123.431C74.9884 123.884 74.083 123.763 73.6906 123.114C73.3284 122.525 73.3737 121.545 73.7963 120.186C75.6826 114.165 76.0296 112.053 75.5618 111.192L74.7017 111.524C75.3656 111.856 75.5468 112.837 73.2379 120.201C72.0307 124.065 73.7509 125.136 75.9994 124.216C76.2409 124.11 76.4824 123.989 76.7389 123.853C77.3727 123.491 78.0216 122.978 78.6403 122.359C80.2399 120.745 81.583 119.372 83.1071 118.481C83.424 118.3 83.7561 118.134 84.1032 117.998C85.069 117.591 86.1554 117.38 87.4381 117.41C91.2862 117.515 92.8104 121.409 100.175 118.376C100.793 118.119 101.412 117.817 102.016 117.47C108.701 113.607 114.828 103.994 116.231 91.6199C117.333 81.9167 114.103 73.7979 105.245 77.4499C104.234 77.8724 103.344 78.31 102.514 78.7778C99.6766 80.4227 97.8506 82.3543 96.1303 84.2255C94.41 86.0968 92.7953 87.9076 90.3506 89.311C89.7621 89.643 89.1283 89.9599 88.4342 90.2467C84.6615 91.801 85.5066 89.6581 82.1263 89.6279C81.3869 89.6128 80.5568 89.794 79.6966 90.1411C79.3194 90.292 78.9421 90.4881 78.5648 90.6994C76.7842 91.7256 75.0186 93.4459 73.7208 95.7094V95.7397Z" fill="#6B88D2"/>
<path d="M28.6753 129.678L74.6865 111.524L75.5467 111.192L76.2409 110.92L82.6091 108.43L82.7901 106.906L28.7357 129.331C28.7055 129.406 28.7055 129.482 28.7055 129.527C28.7055 129.602 28.6904 129.663 28.6904 129.693L28.6753 129.678Z" fill="#2F57C0"/>
<path d="M25.6117 128.864C25.6268 129.165 25.6116 129.271 25.5513 129.347L28.8561 127.988L82.9257 105.564L87.121 103.828L87.7245 103.587L88.9771 103.074L96.9299 99.7992L98.1672 99.2861L98.7709 99.0447L103.223 97.2036L103.268 96.7207L98.8463 98.5316L98.2427 98.7881L97.0053 99.3012L88.9469 102.621L87.7094 103.134L87.1059 103.391L82.9408 105.096L28.9165 127.506L25.5664 128.879L25.6117 128.864Z" fill="#C5D0ED"/>
<path d="M28.7659 128.834L82.8355 106.41L82.8958 105.927L82.9411 105.564L28.9017 127.974C28.8414 128.291 28.7961 128.593 28.7659 128.834Z" fill="#2F57C0"/>
<path d="M27.6039 129.317C27.619 129.634 27.6039 129.724 27.5586 129.8L28.7206 129.332L82.7901 106.907L87.1967 105.096L87.8304 104.84L89.1584 104.296L96.4472 101.293L97.7752 100.75L98.409 100.479L103.072 98.562L103.132 98.0791L98.5598 99.9654L97.9412 100.222L96.6434 100.75L89.0377 103.874L87.755 104.402L87.1362 104.659L82.8203 106.439L28.7809 128.849L27.5888 129.332L27.6039 129.317Z" fill="#C5D0ED"/>
<path d="M28.9319 127.504L82.9863 105.079L83.0768 104.234L29.0525 126.644C28.9771 126.946 28.9469 127.232 28.9167 127.504H28.9319Z" fill="#2F57C0"/>
<path d="M21.2958 127.898C21.1147 128.003 20.9638 128.245 20.9336 128.486C20.9035 128.743 21.0393 128.879 21.2355 128.803C21.2506 128.803 21.2657 128.788 21.2808 128.773C21.3864 128.712 21.4921 128.592 21.5675 128.456C21.6128 128.365 21.6279 128.29 21.6429 128.199C21.6429 128.184 21.6429 128.154 21.6429 128.139C21.6429 128.079 21.6429 128.018 21.6127 127.973C21.5675 127.867 21.4618 127.822 21.326 127.883C21.3109 127.883 21.2959 127.883 21.2808 127.913L21.2958 127.898Z" fill="#ACBCE6"/>
<path d="M21.6281 127.957C21.6432 128.274 21.628 128.365 21.5828 128.44L29.1734 125.317L83.243 102.892L87.5589 101.126L88.1776 100.87L89.4603 100.342L97.0811 97.2028L98.3788 96.6746L98.9976 96.418L103.57 94.5317L103.615 94.0488L98.9523 95.9804L98.3185 96.2369L96.9905 96.7802L89.6866 99.7832L88.3586 100.327L87.7249 100.583L83.3184 102.409L29.2941 124.819L21.6432 127.972L21.6281 127.957Z" fill="#C5D0ED"/>
<path d="M29.2488 124.818L83.2882 102.409L83.4693 100.885L72.9059 105.427L72.2721 105.699L71.6232 105.985L29.2941 124.411C29.2941 124.411 29.279 124.577 29.2488 124.834V124.818Z" fill="#2F57C0"/>
<path d="M71.6231 105.986L67.1111 103.345L25.8081 122.374L29.294 124.396L71.6231 105.986Z" fill="#2952BE"/>
<path d="M29.279 124.276L25.7931 122.254C25.6572 122.284 23.2729 121.997 22.8655 122.012L26.3514 124.034C26.7588 124.034 29.1432 124.306 29.279 124.276Z" fill="#4568C6"/>
<path d="M23.62 128.411C23.6351 128.713 23.6199 128.819 23.5596 128.894L29.0073 126.646L83.0769 104.221L87.2419 102.516L87.8456 102.274L89.083 101.761L97.1413 98.4414L98.3788 97.9282L98.9824 97.6868L103.404 95.8608L103.449 95.3779L98.9975 97.2039L98.3939 97.4604L97.1413 97.9735L89.1886 101.248L87.9512 101.761L87.3475 102.018L83.1524 103.738L29.1431 126.133L23.6351 128.396L23.62 128.411Z" fill="#C5D0ED"/>
<path d="M26.3514 124.034L22.8654 122.012C22.8654 122.012 22.805 122.027 22.7296 122.057C22.3825 122.208 21.462 122.706 20.3604 123.34L23.8463 125.362C24.9479 124.728 25.8684 124.215 26.2155 124.079C26.2759 124.049 26.3212 124.034 26.3514 124.034Z" fill="#4568C6"/>
<path d="M23.8465 125.362C21.6433 126.63 18.6856 128.425 18.0367 128.908C16.5578 129.965 15.6826 131.459 15.5166 133.013C15.2449 135.488 16.92 135.397 17.0105 135.397C17.2671 135.352 17.5085 135.277 17.7348 135.171C17.9008 135.111 18.0366 135.035 18.1875 134.945C19.0326 134.447 19.5759 133.692 19.9532 133.028C20.3305 132.364 20.3606 132.334 20.5568 132.213C20.8133 132.062 21.0699 131.942 21.3264 131.851C23.8164 130.825 24.7973 131.76 25.2952 131.564C26.1252 131.217 28.57 130.07 28.6454 130.04L28.6906 129.693C28.6906 129.693 28.6906 129.603 28.7057 129.527V129.331L27.5739 129.799C27.4985 129.935 27.4079 130.055 27.2872 130.116C27.2721 130.116 27.257 130.131 27.2419 130.146C27.0457 130.221 26.91 130.085 26.9402 129.829C26.9703 129.603 27.1212 129.346 27.3023 129.24C27.3174 129.24 27.3325 129.225 27.3475 129.21C27.4834 129.15 27.5739 129.21 27.6343 129.301C27.6494 129.346 27.6645 129.391 27.6645 129.452C27.6645 129.391 27.6645 129.331 27.6343 129.301L28.7963 128.818L28.8868 127.973L25.582 129.331C25.5216 129.467 25.416 129.587 25.2952 129.648C25.2802 129.648 25.2651 129.663 25.25 129.678C25.0538 129.753 24.918 129.618 24.9482 129.361C24.9784 129.135 25.1293 128.878 25.3104 128.773C25.3254 128.773 25.3405 128.757 25.3556 128.742C25.4914 128.682 25.597 128.742 25.6423 128.833C25.6574 128.878 25.6725 128.939 25.6725 128.984C25.6725 128.923 25.6725 128.863 25.6423 128.833L28.9471 127.475L29.0377 126.63L23.59 128.878C23.5296 129.014 23.424 129.135 23.3033 129.195C23.2882 129.195 23.2731 129.21 23.2581 129.225C23.0619 129.301 22.926 129.165 22.9562 128.908C22.9864 128.667 23.1373 128.425 23.3184 128.32C23.3335 128.32 23.3486 128.305 23.3637 128.29C23.4995 128.229 23.5901 128.29 23.6504 128.38C23.6655 128.425 23.6805 128.471 23.6805 128.531C23.6805 128.471 23.6806 128.425 23.6504 128.38L29.0981 126.132L29.1886 125.287L21.598 128.41C21.5226 128.546 21.432 128.667 21.3113 128.727C21.2962 128.727 21.2812 128.742 21.2661 128.757C21.0699 128.833 20.9341 128.697 20.9643 128.441C20.9944 128.214 21.1453 127.958 21.3264 127.852C21.3415 127.852 21.3566 127.837 21.3717 127.822C21.5075 127.761 21.5981 127.822 21.6585 127.912C21.6735 127.958 21.6886 128.018 21.6886 128.078C21.6886 128.018 21.6886 127.958 21.6585 127.912L29.249 124.789L29.3094 124.23C29.1736 124.26 26.7893 123.974 26.3818 123.989C26.3516 123.989 26.3214 124.004 26.246 124.034C25.8989 124.185 24.9783 124.683 23.8767 125.317L23.8465 125.362Z" fill="#6B88D2"/>
<path d="M23.8463 125.362L20.3603 123.34C18.1571 124.607 15.1994 126.403 14.5505 126.886C13.0716 127.942 12.1964 129.436 12.0304 130.991C11.8795 132.349 12.3171 132.937 12.7547 133.179L16.2406 135.201C15.803 134.944 15.3654 134.356 15.5163 133.013C15.6974 131.443 16.5575 129.965 18.0364 128.908C18.7004 128.44 21.643 126.645 23.8463 125.362Z" fill="#4568C6"/>
<path d="M54.6011 116.911C54.586 116.67 54.1484 112.203 54.6011 111.539C55.0689 110.875 56.6836 111.358 56.6836 111.358C56.6836 111.358 57.0156 110.785 57.9361 110.935C58.8567 111.071 58.9321 111.539 58.9321 111.539C58.9321 111.539 58.6303 110.332 59.9583 111.313C61.2712 112.294 62.2068 118.058 62.1766 118.3C62.1464 118.541 61.5427 121.423 60.924 121.967C60.3053 122.51 59.2339 122.118 59.2339 122.118C59.2339 122.118 58.8567 123.053 57.9814 123.068C57.1062 123.083 56.3969 122.827 56.3969 122.827C56.3969 122.827 56.3969 123.778 55.1896 123.793C53.9824 123.808 53.3033 122.812 53.3033 122.812C53.3033 122.812 51.3717 123.506 50.587 122.661C49.8023 121.831 49.7419 121.363 49.7419 121.363L51.4623 120.639C51.4321 120.307 51.7942 116.338 52.5186 115.84C53.2429 115.357 53.8013 115.87 53.8013 115.87L54.6011 116.896V116.911Z" fill="#BEBEBE"/>
<path d="M116.759 78.7328C118.509 77.6463 121.15 77.8274 122.388 79.7137C123.625 81.6 123.912 80.5437 123.399 82.5205C122.87 84.5125 122.614 86.4743 120.743 90.2771C118.207 95.4683 114.027 100.312 113.424 101.429C112.82 102.546 111.598 106.152 110.134 107.103C108.67 108.054 105.728 107.677 104.611 107.39C103.494 107.103 103.011 104.975 103.011 104.975C103.011 104.975 101.547 103.889 100.401 103.512C99.2688 103.134 98.8311 102.274 98.8311 102.274C98.8311 102.274 98.2124 102.365 98.2124 101.278C98.2124 100.192 100.959 97.6866 101.713 96.7359C102.468 95.7852 105.033 94.0799 106.407 94.0347C107.78 93.9894 109.5 94.1403 110.104 93.6876C110.707 93.2349 113.741 84.2409 114.571 82.2942C115.401 80.3475 116.744 78.7177 116.744 78.7177L116.759 78.7328Z" fill="#BEBEBE"/>
<path d="M97.2015 99.6324C97.292 99.5721 97.7448 98.8477 99.5707 98.2441C101.397 97.6405 101.623 97.2934 101.744 98.4403C101.864 99.5721 100.28 100.372 99.2538 100.84C98.2276 101.308 96.3564 100.719 96.13 100.462C95.9037 100.206 97.2015 99.6475 97.2015 99.6475V99.6324Z" fill="#959595"/>
<path d="M100.672 95.6493C100.672 95.6493 103.886 93.9742 104.928 93.8233C105.969 93.6724 109.108 94.1855 109.636 94.3515C110.164 94.5024 109.319 96.2378 107.87 96.7509C106.422 97.264 105.335 96.5698 105.335 96.5698L102.121 97.8677C102.121 97.8677 100.823 99.0447 100.099 99.1956C99.3744 99.3465 98.8613 98.5014 98.9066 98.2147C98.9368 97.928 100.672 95.6644 100.672 95.6644V95.6493Z" fill="#BEBEBE"/>
<defs>
<linearGradient id="paint0_linear_29_4782" x1="72.2574" y1="182.872" x2="80.4817" y2="182.872" gradientUnits="userSpaceOnUse">
<stop stop-color="#ACACAC"/>
<stop offset="0.32" stop-color="#B1B1B1"/>
<stop offset="0.72" stop-color="#C1C1C1"/>
<stop offset="0.95" stop-color="#CECECE"/>
</linearGradient>
<linearGradient id="paint1_linear_29_4782" x1="73.3738" y1="163.195" x2="79.3497" y2="163.195" gradientUnits="userSpaceOnUse">
<stop stop-color="#ACACAC"/>
<stop offset="0.32" stop-color="#B1B1B1"/>
<stop offset="0.72" stop-color="#C1C1C1"/>
<stop offset="0.95" stop-color="#CECECE"/>
</linearGradient>
</defs>
</svg>
